<?xml version="1.0" encoding="utf-8"?>
<!-- Generator: Adobe Illustrator 16.0.0, SVG Export Plug-In . SVG Version: 6.00 Build 0)  -->
<!DOCTYPE svg PUBLIC "-//W3C//DTD SVG 1.1//EN" "http://www.w3.org/Graphics/SVG/1.1/DTD/svg11.dtd">
<svg version="1.1" xmlns="http://www.w3.org/2000/svg" xmlns:xlink="http://www.w3.org/1999/xlink" x="0px" y="0px" width="150px"
	 height="50px" viewBox="0 0 150 50" enable-background="new 0 0 150 50" xml:space="preserve">
<g id="white">
	<path fill="#222E43" d="M56.995,32.366c-0.001-0.005-0.003-0.009-0.005-0.015c0,0.006,0,0.011,0,0.017L56.995,32.366z"/>
	<path fill="#222E43" d="M56.995,32.366c-0.001-0.005-0.003-0.009-0.005-0.015c0,0.006,0,0.011,0,0.017L56.995,32.366z"/>
	<polygon fill="#222E43" points="57.056,32.359 57.056,32.359 57.056,32.36 	"/>
	<polygon fill="#222E43" points="57.056,32.359 57.056,32.359 57.056,32.36 	"/>
	<polygon fill="#222E43" points="57.056,32.359 57.056,32.359 57.056,32.36 	"/>
	<polygon fill="#222E43" points="57.056,32.359 57.056,32.359 57.056,32.36 	"/>
	<g>
		<polygon fill="#222E43" points="124.577,44.012 124.577,20.708 140.186,20.708 140.186,25.303 129.91,25.303 129.91,29.509 
			139.432,29.509 139.432,34.089 129.91,34.089 129.91,39.432 140.697,39.432 140.697,44.012 		"/>
		<circle fill="#0D1524" cx="140.513" cy="23.001" r="2.294"/>
		<path fill="#0D1524" d="M140.742,44.012c-1.265,0-2.294-1.029-2.294-2.293c0-1.266,1.029-2.294,2.294-2.294
			s2.294,1.028,2.294,2.294C143.036,42.982,142.007,44.012,140.742,44.012z"/>
		<circle fill="#0D1524" cx="139.595" cy="31.79" r="2.293"/>
	</g>
	<g>
		<path fill="#222E43" d="M113.462,38.579c-1.149-1.724-1.941-2.82-2.355-3.259c-0.385-0.408-0.792-0.688-1.211-0.837
			c-0.438-0.152-1.164-0.23-2.159-0.23h-0.528v7.24h-5.333V20.349h9.963c2.476,0,4.236,0.207,5.382,0.631
			c1.168,0.434,2.114,1.213,2.814,2.316c0.692,1.094,1.044,2.359,1.044,3.758c0,1.782-0.535,3.279-1.591,4.449
			c-0.728,0.807-1.715,1.415-2.935,1.809l-0.697,0.226l0.573,0.456c0.382,0.303,0.729,0.623,1.034,0.949
			c0.663,0.711,1.524,1.927,2.635,3.717l0.701,1.12l-4.57,2.924L113.462,38.579z M107.208,29.872h2.971
			c1.463,0,3.338-0.044,3.96-0.256c0.464-0.157,0.816-0.42,1.076-0.802c0.26-0.381,0.393-0.875,0.393-1.468
			c0-0.665-0.167-1.181-0.511-1.578c-0.347-0.398-0.83-0.645-1.48-0.753c-0.201-0.028-0.875-0.071-3.253-0.071h-3.155V29.872z"/>
		<path fill="#0D1524" d="M104.531,44.37c-1.465,0-2.656-1.191-2.656-2.655c0-1.465,1.191-2.657,2.656-2.657
			s2.656,1.192,2.656,2.657C107.188,43.179,105.996,44.37,104.531,44.37z"/>
		<path fill="#0D1524" d="M118.574,44.046c-1.492,0-2.707-1.214-2.707-2.707s1.215-2.707,2.707-2.707s2.707,1.214,2.707,2.707
			S120.066,44.046,118.574,44.046z"/>
	</g>
	<g>
		<path fill="none" d="M13.851,40.611v-7.595h4.458c2.899,0,3.836,0.209,4.29,0.366c0.776,0.271,1.385,0.715,1.809,1.323
			c0.419,0.604,0.632,1.334,0.632,2.169c0,0.994-0.281,1.813-0.837,2.437c-0.542,0.608-1.249,0.994-2.097,1.148
			c-0.297,0.063-0.983,0.151-3.259,0.151H13.851z"/>
		<path fill="none" d="M14.244,40.218V33.41h4.064c3.168,0,3.915,0.259,4.16,0.345c0.696,0.241,1.24,0.637,1.615,1.176
			c0.373,0.536,0.562,1.191,0.562,1.944c0,0.895-0.248,1.626-0.737,2.175c-0.483,0.54-1.114,0.886-1.875,1.023
			c-0.466,0.098-1.506,0.145-3.188,0.145H14.244z"/>
		<path fill="none" d="M22.34,34.126c-0.62-0.215-1.964-0.322-4.032-0.322h-3.671v6.021h4.209c1.638,0,2.677-0.046,3.118-0.138
			c0.676-0.123,1.227-0.423,1.651-0.898c0.425-0.477,0.637-1.114,0.637-1.913c0-0.676-0.164-1.248-0.491-1.72
			C23.433,34.685,22.96,34.341,22.34,34.126z"/>
		<path fill="none" d="M15.031,39.432v-5.235h3.278c2.509,0,3.507,0.164,3.903,0.302c0.543,0.188,0.945,0.477,1.227,0.882
			c0.283,0.407,0.421,0.896,0.421,1.495c0,0.705-0.176,1.245-0.538,1.651c-0.369,0.413-0.835,0.665-1.428,0.773
			c-0.293,0.061-1.05,0.132-3.047,0.132H15.031z"/>
		<path fill="none" d="M13.851,30.842v-6.779h3.397c2.188,0,3.489,0.026,3.975,0.082c0.958,0.117,1.7,0.47,2.213,1.052
			c0.513,0.582,0.773,1.327,0.773,2.218c0,0.939-0.302,1.719-0.898,2.314c-0.571,0.571-1.345,0.919-2.299,1.031
			c-0.295,0.035-0.969,0.082-3.395,0.082H13.851z"/>
		<path fill="none" d="M14.244,30.449v-5.994h3.004c2.144,0,3.466,0.027,3.931,0.079c0.854,0.104,1.515,0.414,1.962,0.922
			c0.448,0.507,0.675,1.166,0.675,1.958c0,0.831-0.264,1.517-0.783,2.036c-0.507,0.508-1.203,0.816-2.067,0.92
			c-0.165,0.02-0.667,0.079-3.349,0.079H14.244z"/>
		<path fill="none" d="M20.919,29.979c0.778-0.092,1.39-0.36,1.835-0.806c0.446-0.446,0.668-1.032,0.668-1.759
			c0-0.696-0.192-1.262-0.576-1.698c-0.384-0.435-0.955-0.699-1.712-0.791c-0.451-0.051-1.746-0.077-3.886-0.077h-2.611v5.207h2.98
			C19.389,30.056,20.489,30.03,20.919,29.979z"/>
		<path fill="none" d="M15.031,29.662v-4.42h2.218c2.114,0,3.406,0.025,3.842,0.075c0.652,0.079,1.146,0.302,1.462,0.66
			c0.321,0.364,0.478,0.835,0.478,1.438c0,0.624-0.181,1.108-0.553,1.48c-0.379,0.379-0.919,0.612-1.604,0.694
			c-0.411,0.049-1.506,0.073-3.256,0.073H15.031z"/>
		<g>
			<path fill="#222E43" d="M12.767,44.012l-3.069-2.442V20.708h9.394c1.819,0,3.145,0.075,4.051,0.229
				c0.928,0.157,1.771,0.491,2.506,0.992c0.736,0.501,1.357,1.177,1.845,2.007c0.495,0.841,0.746,1.795,0.746,2.833
				c0,1.127-0.308,2.176-0.915,3.116c-0.324,0.502-0.715,0.943-1.164,1.313l-0.456,0.376l0.522,0.275
				c0.779,0.411,1.428,0.952,1.931,1.608c0.788,1.028,1.188,2.251,1.188,3.634c0,1.079-0.254,2.144-0.755,3.161
				c-0.503,1.023-1.202,1.854-2.077,2.468c-0.876,0.614-1.963,0.996-3.232,1.136c-0.777,0.085-2.584,0.136-5.522,0.156H12.767z
				 M15.031,39.432h3.815c1.58,0,2.63-0.045,3.037-0.13c0.597-0.108,1.071-0.363,1.438-0.775c0.362-0.406,0.538-0.945,0.538-1.651
				c0-0.598-0.137-1.087-0.421-1.495c-0.282-0.405-0.684-0.693-1.227-0.882c-0.568-0.197-1.917-0.302-3.903-0.302h-3.278V39.432z
				 M15.031,29.662h2.586c1.749,0,2.844-0.024,3.255-0.073c0.695-0.082,1.22-0.31,1.604-0.694c0.367-0.367,0.553-0.865,0.553-1.48
				c0-0.603-0.157-1.073-0.478-1.438c-0.316-0.358-0.81-0.581-1.465-0.661c-0.427-0.049-1.754-0.074-3.839-0.074h-2.218V29.662z"/>
		</g>
		<path fill="#0D1524" d="M12.544,44.009c-1.57,0-2.847-1.276-2.847-2.847c0-1.569,1.277-2.847,2.847-2.847
			c1.569,0,2.847,1.277,2.847,2.847C15.391,42.732,14.114,44.009,12.544,44.009z"/>
	</g>
	<g>
		<path fill="#222E43" d="M66.442,44.25c-3.052,0-5.598-1.06-7.567-3.149c-1.963-2.083-2.958-4.958-2.958-8.544
			c0-3.786,1-6.778,2.972-8.891c1.98-2.121,4.613-3.196,7.826-3.196c2.812,0,5.133,0.848,6.899,2.519
			c0.486,0.458,0.927,1.022,1.309,1.68l0.211,0.363l-4.731,2.341l-0.188-0.307c-0.249-0.406-0.563-0.763-0.932-1.059
			c-0.77-0.616-1.685-0.915-2.796-0.915c-1.543,0-2.758,0.536-3.715,1.64c-0.958,1.104-1.443,2.951-1.443,5.491
			c0,2.702,0.479,4.638,1.423,5.752c0.941,1.11,2.133,1.65,3.644,1.65c1.104,0,2.027-0.34,2.819-1.039
			c0.398-0.352,0.747-0.819,1.037-1.391l0.161-0.315l4.941,1.907l-0.19,0.386c-0.664,1.349-1.53,2.435-2.576,3.229
			C70.973,43.629,68.905,44.25,66.442,44.25z"/>
		<circle fill="#0D1524" cx="73.069" cy="37.434" r="2.646"/>
		<circle fill="#0D1524" cx="72.869" cy="26.275" r="2.634"/>
	</g>
	<polygon fill="#222E43" points="55.283,32.366 55.278,32.352 55.277,32.367 	"/>
	<polygon fill="#222E43" points="55.344,32.359 55.344,32.359 55.344,32.36 	"/>
	<g>
		<path fill="#E22255" d="M16.854,13.507h-2.507v1.71h3.676v0.826H9.707v-0.826h3.667v-1.71h-2.497v-4.65h0.963v1.543h4.05V8.848
			h0.963V13.507z M11.84,12.682h4.05v-1.455h-4.05V12.682z"/>
		<path fill="#E22255" d="M24,9.958H18.76V9.143h2.113V8.071h0.963v1.071H24V9.958z M21.365,13.537
			c-0.393,0-0.724-0.045-0.993-0.137c-0.269-0.092-0.486-0.21-0.653-0.354c-0.167-0.144-0.287-0.305-0.359-0.482
			c-0.072-0.177-0.108-0.347-0.108-0.511v-0.275c0-0.164,0.036-0.334,0.108-0.511c0.072-0.177,0.191-0.337,0.359-0.482
			c0.167-0.144,0.385-0.262,0.653-0.354c0.269-0.092,0.6-0.138,0.993-0.138s0.724,0.046,0.993,0.138s0.487,0.209,0.654,0.354
			c0.167,0.145,0.287,0.305,0.359,0.482c0.072,0.177,0.108,0.347,0.108,0.511v0.275c0,0.164-0.036,0.334-0.108,0.511
			c-0.072,0.177-0.192,0.338-0.359,0.482s-0.385,0.262-0.654,0.354S21.758,13.537,21.365,13.537z M21.365,12.76
			c0.223,0,0.411-0.024,0.565-0.074c0.154-0.049,0.277-0.113,0.369-0.192s0.158-0.162,0.197-0.25c0.04-0.088,0.059-0.172,0.059-0.25
			v-0.157c0-0.079-0.02-0.163-0.059-0.251c-0.039-0.088-0.105-0.172-0.197-0.25s-0.213-0.143-0.364-0.192
			c-0.15-0.049-0.341-0.074-0.57-0.074c-0.229,0-0.419,0.025-0.57,0.074c-0.151,0.049-0.272,0.113-0.364,0.192
			s-0.157,0.162-0.196,0.25c-0.04,0.088-0.059,0.172-0.059,0.251v0.157c0,0.079,0.02,0.162,0.059,0.25
			c0.039,0.088,0.104,0.172,0.196,0.25s0.213,0.143,0.364,0.192S21.136,12.76,21.365,12.76z M26.221,14.126v3.116h-5.652v-3.116
			H26.221z M21.532,16.417h3.726v-1.464h-3.726V16.417z M25.258,13.684v-1.887h-1.327v-0.835h1.327V8.189h0.963v5.495H25.258z"/>
		<path fill="#222E43" d="M35.914,12.141v0.806h-8.316v-0.806H35.914z M28.787,17.312v-2.271h4.974v-0.668h-5.023v-0.796h5.977
			v2.241h-4.974v0.698h5.24v0.796H28.787z M31.756,8.238c0.452,0,0.857,0.038,1.214,0.113c0.357,0.075,0.66,0.182,0.909,0.319
			s0.44,0.303,0.575,0.497c0.134,0.193,0.201,0.404,0.201,0.634v0.236c0,0.229-0.067,0.441-0.201,0.634
			c-0.135,0.193-0.326,0.359-0.575,0.497c-0.249,0.137-0.552,0.244-0.909,0.319c-0.357,0.075-0.762,0.113-1.214,0.113
			s-0.857-0.038-1.214-0.113c-0.357-0.075-0.66-0.182-0.909-0.319c-0.25-0.138-0.441-0.303-0.575-0.497s-0.202-0.405-0.202-0.634
			V9.801c0-0.229,0.067-0.44,0.202-0.634s0.326-0.359,0.575-0.497c0.249-0.138,0.552-0.244,0.909-0.319
			C30.899,8.276,31.304,8.238,31.756,8.238z M31.756,10.794c0.623,0,1.103-0.077,1.44-0.231c0.337-0.154,0.506-0.335,0.506-0.545
			V9.821c0-0.209-0.169-0.391-0.506-0.545c-0.338-0.154-0.818-0.231-1.44-0.231s-1.103,0.077-1.44,0.231
			C29.978,9.43,29.81,9.611,29.81,9.821v0.197c0,0.21,0.168,0.392,0.506,0.545C30.653,10.717,31.133,10.794,31.756,10.794z"/>
		<path fill="#E22255" d="M41.881,9.88h-2.487V9.054h3.431v1.927c0,0.079-0.002,0.154-0.005,0.226
			c-0.003,0.072-0.005,0.144-0.005,0.216h1.219V8.376h0.954v8.435h-0.954v-4.542h-1.327c-0.059,0.25-0.154,0.487-0.285,0.713
			c-0.131,0.226-0.314,0.459-0.55,0.698c-0.236,0.239-0.533,0.495-0.89,0.767c-0.357,0.272-0.795,0.575-1.313,0.909l-0.541-0.757
			c0.458-0.282,0.845-0.541,1.16-0.777c0.314-0.236,0.573-0.455,0.776-0.659c0.203-0.203,0.359-0.396,0.467-0.58
			c0.108-0.184,0.188-0.364,0.241-0.541l-2.566,0.089l-0.029-0.816l2.703-0.059V9.88z M46.875,17.253h-0.953V8.189h0.953V17.253z"/>
		<path fill="#E22255" d="M54.552,17.253v-5.023h-1.75v0.226c0,0.433-0.058,0.813-0.172,1.14c-0.115,0.328-0.272,0.6-0.472,0.816
			c-0.2,0.216-0.439,0.38-0.718,0.492c-0.278,0.111-0.585,0.167-0.919,0.167c-0.334,0-0.641-0.056-0.919-0.167
			c-0.279-0.111-0.518-0.275-0.718-0.492c-0.2-0.216-0.357-0.488-0.472-0.816c-0.115-0.328-0.172-0.708-0.172-1.14v-1.022
			c0-0.433,0.058-0.813,0.172-1.14c0.114-0.328,0.271-0.601,0.472-0.821c0.2-0.22,0.439-0.385,0.718-0.497
			c0.278-0.111,0.584-0.167,0.919-0.167c0.328,0,0.629,0.054,0.904,0.162c0.275,0.108,0.515,0.271,0.718,0.486
			c0.203,0.216,0.362,0.485,0.477,0.806c0.115,0.321,0.175,0.692,0.182,1.111h1.75V8.189h0.973v9.064H54.552z M50.521,14.195
			c0.177,0,0.347-0.033,0.511-0.098c0.164-0.065,0.306-0.172,0.428-0.319c0.121-0.147,0.219-0.341,0.295-0.58
			c0.075-0.239,0.113-0.532,0.113-0.88v-0.747c0-0.347-0.038-0.641-0.113-0.88c-0.076-0.239-0.174-0.433-0.295-0.58
			c-0.122-0.147-0.264-0.254-0.428-0.319c-0.164-0.065-0.334-0.098-0.511-0.098s-0.348,0.033-0.511,0.098
			c-0.164,0.065-0.307,0.172-0.428,0.319s-0.22,0.341-0.295,0.58s-0.113,0.533-0.113,0.88v0.747c0,0.348,0.038,0.641,0.113,0.88
			s0.174,0.433,0.295,0.58s0.264,0.254,0.428,0.319C50.174,14.163,50.345,14.195,50.521,14.195z"/>
		<path fill="#222E43" d="M59.094,9.526V8.248h0.973v1.278h2.104v0.826h-5.239V9.526H59.094z M59.575,15.228
			c-0.347,0-0.655-0.054-0.924-0.162c-0.269-0.108-0.498-0.25-0.688-0.428c-0.19-0.177-0.334-0.38-0.433-0.609
			s-0.147-0.462-0.147-0.698v-0.57c0-0.236,0.049-0.468,0.147-0.698s0.242-0.434,0.433-0.615c0.19-0.18,0.419-0.324,0.688-0.433
			c0.269-0.108,0.577-0.162,0.924-0.162c0.341,0,0.647,0.054,0.919,0.162c0.272,0.108,0.503,0.252,0.693,0.433
			c0.19,0.181,0.334,0.385,0.433,0.615s0.147,0.462,0.147,0.698v0.57c0,0.236-0.049,0.468-0.147,0.698s-0.243,0.433-0.433,0.609
			c-0.19,0.177-0.421,0.32-0.693,0.428C60.223,15.174,59.916,15.228,59.575,15.228z M59.575,11.669c-0.393,0-0.705,0.11-0.934,0.33
			c-0.229,0.22-0.344,0.509-0.344,0.87v0.354c0,0.361,0.115,0.649,0.344,0.865c0.229,0.216,0.541,0.324,0.934,0.324
			c0.394,0,0.705-0.108,0.934-0.324s0.344-0.504,0.344-0.865v-0.354c0-0.36-0.115-0.65-0.344-0.87S59.969,11.669,59.575,11.669z
			 M65.385,12.632h-1.396v4.621h-0.973V8.189h0.973v3.598h1.396V12.632z"/>
		<path fill="#222E43" d="M70.458,9.851h-3.195v4.168h0.521c0.643,0,1.244-0.021,1.804-0.064c0.56-0.042,1.119-0.106,1.676-0.191
			l0.128,0.816c-0.583,0.104-1.181,0.178-1.794,0.221c-0.613,0.043-1.286,0.064-2.02,0.064h-1.288V9.005h4.168V9.851z
			 M74.331,12.308h-1.396v4.945h-0.973V8.189h0.973v3.274h1.396V12.308z"/>
	</g>
	<g>
		<path fill="none" d="M43.705,43.157c-2.016,0-3.703-0.744-5.016-2.211c-1.29-1.441-1.945-3.544-1.945-6.251
			c0-2.745,0.639-4.853,1.899-6.265c1.283-1.438,2.986-2.166,5.062-2.166c2.075,0,3.771,0.722,5.039,2.145
			c1.245,1.396,1.875,3.491,1.875,6.226c0,2.765-0.646,4.893-1.921,6.325C47.4,42.418,45.72,43.157,43.705,43.157z"/>
		<path fill="none" d="M43.705,27.052c-1.851,0-3.343,0.634-4.475,1.903c-1.133,1.269-1.699,3.183-1.699,5.74
			c0,2.519,0.582,4.427,1.745,5.727c1.162,1.299,2.639,1.949,4.429,1.949c1.789,0,3.258-0.646,4.406-1.934
			c1.148-1.29,1.722-3.224,1.722-5.803c0-2.548-0.559-4.449-1.676-5.703C47.039,27.679,45.555,27.052,43.705,27.052z"/>
		<g>
			<path fill="#14A1B8" d="M40.38,26.423c-0.776-0.677-1.27-1.671-1.27-2.78c0-0.247,0.025-0.488,0.072-0.722
				c-2.39,0.844-4.397,2.499-5.688,4.635l3.208,1.853C37.55,28.038,38.843,26.977,40.38,26.423z"/>
			<path fill="#14A1B8" d="M45.226,26.423c1.64,0.591,3.004,1.756,3.844,3.259l3.202-1.849c-1.283-2.27-3.356-4.032-5.849-4.913
				c0.047,0.234,0.072,0.475,0.072,0.722C46.496,24.751,46.002,25.746,45.226,26.423z"/>
			<path fill="#6B4FA0" d="M35.824,34.816c-0.125-0.529-0.198-1.079-0.198-1.646c0-1.116,0.264-2.171,0.721-3.114l-3.211-1.854
				c-0.767,1.489-1.203,3.178-1.203,4.968c0,0.726,0.072,1.434,0.208,2.119c0.127-0.098,0.26-0.19,0.403-0.273
				C33.583,34.415,34.795,34.384,35.824,34.816z"/>
			<path fill="#E22255" d="M49.98,33.17c0,0.567-0.073,1.117-0.198,1.646c1.029-0.433,2.241-0.4,3.279,0.199
				c0.144,0.083,0.276,0.177,0.403,0.274c0.136-0.686,0.208-1.395,0.208-2.12c0-1.676-0.38-3.264-1.058-4.683l-3.216,1.857
				C49.772,31.213,49.98,32.167,49.98,33.17z"/>
			<path fill="#E22255" d="M47.542,38.546c-1.178,1.04-2.698,1.697-4.37,1.782v3.702c2.471-0.083,4.734-0.987,6.52-2.453
				c-0.109-0.05-0.217-0.104-0.323-0.166C48.291,40.789,47.648,39.7,47.542,38.546z"/>
			<path fill="#6B4FA0" d="M38.064,38.546c-0.106,1.154-0.749,2.243-1.827,2.865c-0.106,0.062-0.214,0.116-0.323,0.166
				c1.787,1.466,4.049,2.37,6.52,2.453v-3.702C40.763,40.243,39.243,39.586,38.064,38.546z"/>
			<path fill="#14A1B8" d="M45.587,22.662c-0.405-1.148-1.497-1.973-2.784-1.973s-2.379,0.824-2.784,1.973
				c-0.108,0.308-0.17,0.637-0.17,0.981c0,1.068,0.569,2.001,1.418,2.521c0.448,0.273,0.973,0.434,1.536,0.434
				c0.563,0,1.088-0.16,1.536-0.434c0.849-0.52,1.418-1.452,1.418-2.521C45.757,23.298,45.695,22.969,45.587,22.662z"/>
			<path fill="#6B4FA0" d="M37.311,37.78c-0.053-0.357-0.17-0.712-0.362-1.044c-0.21-0.363-0.486-0.664-0.803-0.897
				c-0.917-0.677-2.183-0.79-3.232-0.184c-0.216,0.125-0.407,0.274-0.579,0.441c-0.949,0.92-1.193,2.396-0.502,3.594
				c0.709,1.228,2.166,1.753,3.462,1.335c0.196-0.063,0.388-0.146,0.573-0.254C36.948,40.148,37.483,38.945,37.311,37.78z"/>
			<path fill="#E22255" d="M53.271,36.097c-0.171-0.167-0.363-0.316-0.579-0.441c-1.05-0.606-2.316-0.493-3.233,0.184
				c-0.317,0.233-0.593,0.534-0.803,0.898c-0.192,0.332-0.31,0.687-0.362,1.044c-0.172,1.164,0.363,2.367,1.444,2.99
				c0.185,0.107,0.377,0.19,0.573,0.254c1.296,0.418,2.752-0.107,3.462-1.335C54.465,38.493,54.22,37.017,53.271,36.097z"/>
		</g>
	</g>
	<g>
		<g>
			<path fill="#222E43" d="M77.903,40.328l7.846-20.143h5.343l8.016,20.021l-4.938,2.095l-1.51-3.928h-8.454l-1.51,4.152
				L77.903,40.328z M85.889,33.794h5.017l-2.534-6.822L85.889,33.794z"/>
			<path fill="#222E43" d="M90.825,20.579h-4.808l-7.613,19.547l4.067,1.865l1.457-4.01h9.001l1.46,3.799l4.21-1.785L90.825,20.579z
				 M85.326,34.188l3.042-8.356l3.103,8.356H85.326z"/>
			<path fill="#222E43" d="M78.905,39.923l7.381-18.951h4.273l7.532,18.811l-3.48,1.477L93.2,37.588h-9.547l-1.405,3.867
				L78.905,39.923z M84.765,34.58h7.271l-3.672-9.888L84.765,34.58z"/>
			<circle fill="#0D1524" cx="80.1" cy="41.892" r="2.642"/>
		</g>
		<circle fill="#0D1524" cx="96.748" cy="41.551" r="2.688"/>
	</g>
</g>
<g id="black" display="none">
	<path display="inline" fill="#222E43" d="M57.127,32.42c-0.001-0.004-0.003-0.008-0.004-0.014c-0.001,0.006-0.001,0.01-0.001,0.018
		L57.127,32.42z"/>
	<path display="inline" fill="#222E43" d="M57.127,32.42c-0.001-0.004-0.003-0.008-0.004-0.014c-0.001,0.006-0.001,0.01-0.001,0.018
		L57.127,32.42z"/>
	<polygon display="inline" fill="#222E43" points="57.189,32.414 57.189,32.414 57.189,32.414 	"/>
	<polygon display="inline" fill="#222E43" points="57.189,32.414 57.189,32.414 57.189,32.414 	"/>
	<polygon display="inline" fill="#222E43" points="57.189,32.414 57.189,32.414 57.189,32.414 	"/>
	<polygon display="inline" fill="#222E43" points="57.189,32.414 57.189,32.414 57.189,32.414 	"/>
	<polygon display="inline" fill="#FFFFFF" points="124.934,44.104 124.934,20.724 140.592,20.724 140.592,25.334 130.283,25.334 
		130.283,29.553 139.836,29.553 139.836,34.148 130.283,34.148 130.283,39.508 141.107,39.508 141.107,44.104 	"/>
	<circle display="inline" fill="#D8D8D7" cx="140.922" cy="23.025" r="2.301"/>
	<path display="inline" fill="#D8D8D7" d="M141.152,44.104c-1.27,0-2.303-1.031-2.303-2.301c0-1.268,1.033-2.301,2.303-2.301
		c1.268,0,2.301,1.033,2.301,2.301C143.453,43.072,142.42,44.104,141.152,44.104z"/>
	<path display="inline" fill="#D8D8D7" d="M140.002,34.143c-1.27,0-2.303-1.031-2.303-2.301s1.033-2.301,2.303-2.301
		c1.268,0,2.301,1.031,2.301,2.301S141.27,34.143,140.002,34.143z"/>
	<path display="inline" fill="#FFFFFF" d="M113.781,38.654c-1.152-1.729-1.949-2.83-2.361-3.27c-0.387-0.408-0.797-0.691-1.217-0.84
		c-0.439-0.154-1.168-0.232-2.166-0.232h-0.531v7.266h-5.35V20.364h9.994c2.486,0,4.252,0.207,5.402,0.632
		c1.172,0.436,2.121,1.218,2.822,2.325c0.695,1.097,1.049,2.367,1.049,3.771c0,1.789-0.539,3.289-1.598,4.463
		c-0.729,0.811-1.721,1.42-2.943,1.814l-0.701,0.227l0.576,0.459c0.383,0.303,0.732,0.625,1.037,0.951
		c0.666,0.713,1.531,1.934,2.645,3.729l0.703,1.125l-4.584,2.934L113.781,38.654z M107.506,29.918h2.98
		c1.469,0,3.35-0.043,3.973-0.256c0.467-0.158,0.82-0.422,1.082-0.805c0.26-0.383,0.393-0.879,0.393-1.473
		c0-0.668-0.168-1.186-0.512-1.584c-0.348-0.399-0.834-0.645-1.486-0.753c-0.201-0.03-0.877-0.073-3.262-0.073h-3.168V29.918z"/>
	<path display="inline" fill="#D8D8D7" d="M104.82,44.465c-1.469,0-2.664-1.195-2.664-2.664c0-1.471,1.195-2.666,2.664-2.666
		c1.471,0,2.666,1.195,2.666,2.666C107.486,43.27,106.291,44.465,104.82,44.465z"/>
	<circle display="inline" fill="#D8D8D7" cx="118.91" cy="41.423" r="2.716"/>
	<g display="inline">
		<path fill="#FFFFFF" d="M12.753,44.104l-3.08-2.449v-20.93h9.425c1.826,0,3.155,0.075,4.065,0.228
			c0.931,0.159,1.776,0.495,2.515,0.997c0.738,0.503,1.361,1.18,1.851,2.014c0.496,0.844,0.748,1.8,0.748,2.843
			c0,1.131-0.309,2.182-0.918,3.127c-0.325,0.502-0.717,0.945-1.167,1.316l-0.458,0.377l0.524,0.275
			c0.781,0.414,1.433,0.957,1.937,1.615c0.791,1.031,1.192,2.258,1.192,3.645c0,1.084-0.255,2.15-0.757,3.172
			c-0.505,1.027-1.207,1.859-2.084,2.477c-0.879,0.615-1.97,0.998-3.242,1.141c-0.781,0.084-2.593,0.135-5.542,0.154H12.753z
			 M15.024,39.508h3.828c1.585,0,2.639-0.043,3.048-0.129c0.599-0.109,1.074-0.363,1.443-0.777c0.362-0.406,0.539-0.949,0.539-1.656
			c0-0.602-0.138-1.092-0.422-1.502c-0.283-0.406-0.686-0.693-1.231-0.885c-0.569-0.197-1.923-0.301-3.917-0.301h-3.289V39.508z
			 M15.024,29.707h2.595c1.755,0,2.854-0.023,3.267-0.072c0.698-0.082,1.224-0.311,1.61-0.697c0.368-0.369,0.554-0.869,0.554-1.486
			c0-0.604-0.157-1.074-0.479-1.441c-0.317-0.36-0.812-0.583-1.47-0.663c-0.429-0.049-1.759-0.075-3.851-0.075h-2.226V29.707z"/>
	</g>
	<path display="inline" fill="#D8D8D7" d="M12.53,44.102c-1.575,0-2.856-1.279-2.856-2.855s1.281-2.855,2.856-2.855
		c1.574,0,2.856,1.279,2.856,2.855S14.104,44.102,12.53,44.102z"/>
	<path display="inline" fill="#FFFFFF" d="M66.606,44.344c-3.062,0-5.616-1.064-7.592-3.158c-1.969-2.092-2.968-4.977-2.968-8.574
		c0-3.799,1.003-6.801,2.982-8.92c1.986-2.129,4.628-3.208,7.852-3.208c2.821,0,5.149,0.851,6.922,2.528
		c0.488,0.46,0.93,1.026,1.313,1.685l0.213,0.366l-4.748,2.349l-0.188-0.309c-0.25-0.408-0.565-0.766-0.935-1.063
		c-0.773-0.618-1.691-0.918-2.806-0.918c-1.547,0-2.767,0.538-3.727,1.645c-0.96,1.107-1.448,2.961-1.448,5.51
		c0,2.711,0.48,4.652,1.428,5.771c0.945,1.113,2.141,1.654,3.657,1.654c1.108,0,2.033-0.34,2.828-1.043
		c0.4-0.352,0.75-0.82,1.041-1.393l0.161-0.318l4.957,1.916l-0.189,0.385c-0.666,1.354-1.536,2.443-2.585,3.24
		C71.151,43.721,69.077,44.344,66.606,44.344z"/>
	<path display="inline" fill="#D8D8D7" d="M73.254,40.16c-1.463,0-2.654-1.191-2.654-2.656c0-1.463,1.19-2.654,2.654-2.654
		c1.464,0,2.656,1.191,2.656,2.654C75.91,38.969,74.719,40.16,73.254,40.16z"/>
	<path display="inline" fill="#D8D8D7" d="M73.054,28.951c-1.458,0-2.643-1.186-2.643-2.643c0-1.456,1.185-2.642,2.643-2.642
		s2.643,1.186,2.643,2.642C75.697,27.766,74.512,28.951,73.054,28.951z"/>
	<path display="inline" fill="#222E43" d="M55.41,32.42c-0.002-0.006-0.003-0.008-0.005-0.014c0,0.006,0,0.01,0,0.016L55.41,32.42z"
		/>
	<polygon display="inline" fill="#222E43" points="55.472,32.414 55.472,32.414 55.472,32.414 	"/>
	<g display="inline">
		<path fill="#E22255" d="M16.718,13.5h-2.515v1.716h3.689v0.828H9.547v-0.828h3.679V13.5h-2.505V8.834h0.967v1.548h4.063V8.825
			h0.966V13.5z M11.688,12.671h4.063v-1.459h-4.063V12.671z"/>
		<path fill="#E22255" d="M23.888,9.939h-5.257V9.121h2.12V8.045h0.967v1.075h2.17V9.939z M21.245,13.529
			c-0.395,0-0.727-0.046-0.996-0.138s-0.488-0.21-0.656-0.355s-0.288-0.306-0.36-0.483c-0.073-0.178-0.108-0.349-0.108-0.513v-0.276
			c0-0.164,0.036-0.335,0.108-0.513c0.072-0.178,0.192-0.339,0.36-0.483s0.386-0.263,0.656-0.355
			c0.27-0.092,0.602-0.138,0.996-0.138s0.727,0.046,0.996,0.138c0.27,0.092,0.488,0.21,0.656,0.355
			c0.167,0.145,0.288,0.306,0.36,0.483c0.072,0.177,0.108,0.349,0.108,0.513v0.276c0,0.164-0.036,0.335-0.108,0.513
			c-0.072,0.177-0.192,0.339-0.36,0.483c-0.168,0.145-0.387,0.263-0.656,0.355S21.639,13.529,21.245,13.529z M21.245,12.75
			c0.224,0,0.413-0.025,0.567-0.074c0.154-0.049,0.277-0.113,0.37-0.192c0.092-0.079,0.158-0.163,0.197-0.252
			c0.04-0.088,0.059-0.172,0.059-0.251v-0.158c0-0.079-0.02-0.163-0.059-0.251s-0.105-0.172-0.197-0.251s-0.214-0.143-0.365-0.192
			c-0.151-0.049-0.342-0.074-0.572-0.074c-0.23,0-0.421,0.024-0.572,0.074c-0.151,0.049-0.273,0.113-0.365,0.192
			c-0.092,0.079-0.158,0.163-0.197,0.251c-0.039,0.089-0.059,0.173-0.059,0.251v0.158c0,0.079,0.02,0.163,0.059,0.251
			c0.04,0.089,0.105,0.173,0.197,0.252c0.092,0.079,0.214,0.143,0.365,0.192C20.824,12.725,21.015,12.75,21.245,12.75z
			 M26.117,14.121v3.126h-5.671v-3.126H26.117z M21.413,16.419h3.738v-1.47h-3.738V16.419z M25.15,13.677v-1.894h-1.332v-0.838
			h1.332V8.164h0.967v5.514H25.15z"/>
		<path fill="#FFFFFF" d="M35.842,12.128v0.809h-8.344v-0.809H35.842z M28.691,17.316v-2.278h4.991v-0.67h-5.04v-0.799h5.997v2.249
			h-4.99v0.7h5.257v0.799H28.691z M31.67,8.213c0.454,0,0.859,0.038,1.218,0.114s0.663,0.182,0.913,0.32
			c0.25,0.138,0.442,0.304,0.577,0.498s0.202,0.406,0.202,0.636v0.237c0,0.23-0.067,0.442-0.202,0.636s-0.327,0.36-0.577,0.498
			c-0.25,0.138-0.554,0.245-0.913,0.32s-0.764,0.113-1.218,0.113c-0.454,0-0.86-0.038-1.218-0.113s-0.663-0.183-0.912-0.32
			c-0.25-0.138-0.442-0.304-0.577-0.498s-0.202-0.406-0.202-0.636V9.781c0-0.23,0.067-0.442,0.202-0.636s0.327-0.36,0.577-0.498
			c0.25-0.138,0.554-0.245,0.912-0.32S31.216,8.213,31.67,8.213z M31.67,10.777c0.625,0,1.106-0.077,1.445-0.232
			c0.338-0.154,0.508-0.337,0.508-0.547V9.801c0-0.21-0.169-0.393-0.508-0.547c-0.339-0.154-0.82-0.231-1.445-0.231
			c-0.625,0-1.106,0.077-1.445,0.231c-0.338,0.155-0.508,0.337-0.508,0.547v0.197c0,0.21,0.169,0.393,0.508,0.547
			C30.563,10.7,31.045,10.777,31.67,10.777z"/>
		<path fill="#E22255" d="M41.828,9.86h-2.496V9.032h3.442v1.933c0,0.079-0.002,0.154-0.005,0.227
			c-0.003,0.073-0.005,0.145-0.005,0.217h1.223V8.351h0.957v8.462h-0.957v-4.557h-1.332c-0.059,0.25-0.154,0.488-0.286,0.715
			c-0.132,0.227-0.316,0.46-0.553,0.701c-0.236,0.24-0.534,0.496-0.893,0.769s-0.797,0.577-1.316,0.912l-0.542-0.759
			c0.46-0.283,0.848-0.542,1.164-0.779c0.316-0.236,0.576-0.457,0.779-0.661c0.204-0.204,0.36-0.398,0.469-0.582
			c0.108-0.184,0.189-0.365,0.242-0.542l-2.574,0.089l-0.03-0.818l2.712-0.06V9.86z M46.838,17.257h-0.957V8.164h0.957V17.257z"/>
		<path fill="#E22255" d="M54.541,17.257v-5.04h-1.755v0.227c0,0.434-0.058,0.815-0.173,1.144s-0.273,0.602-0.473,0.818
			c-0.201,0.217-0.441,0.381-0.72,0.493s-0.587,0.168-0.922,0.168c-0.335,0-0.643-0.056-0.922-0.168
			c-0.28-0.112-0.52-0.276-0.72-0.493c-0.201-0.217-0.358-0.49-0.473-0.818c-0.115-0.329-0.173-0.71-0.173-1.144v-1.026
			c0-0.434,0.058-0.815,0.173-1.144c0.115-0.329,0.272-0.603,0.473-0.824c0.201-0.22,0.44-0.386,0.72-0.498
			c0.279-0.112,0.587-0.167,0.922-0.167c0.329,0,0.631,0.054,0.907,0.163c0.276,0.108,0.516,0.271,0.72,0.488
			c0.204,0.217,0.363,0.487,0.479,0.809c0.115,0.322,0.176,0.694,0.183,1.115h1.755V8.164h0.977v9.094H54.541z M50.498,14.19
			c0.177,0,0.348-0.033,0.513-0.099c0.164-0.065,0.307-0.173,0.429-0.321c0.122-0.147,0.22-0.342,0.296-0.582
			c0.075-0.24,0.113-0.534,0.113-0.883v-0.75c0-0.349-0.038-0.643-0.113-0.883c-0.076-0.24-0.174-0.434-0.296-0.582
			c-0.122-0.148-0.265-0.254-0.429-0.32c-0.165-0.066-0.335-0.099-0.513-0.099c-0.178,0-0.349,0.033-0.513,0.099
			s-0.307,0.172-0.429,0.32c-0.122,0.148-0.221,0.342-0.296,0.582c-0.076,0.24-0.114,0.534-0.114,0.883v0.75
			c0,0.349,0.038,0.643,0.114,0.883c0.075,0.24,0.174,0.434,0.296,0.582c0.122,0.148,0.264,0.255,0.429,0.321
			C50.149,14.157,50.32,14.19,50.498,14.19z"/>
		<path fill="#FFFFFF" d="M59.098,9.505V8.223h0.977v1.282h2.11v0.829h-5.257V9.505H59.098z M59.581,15.226
			c-0.349,0-0.658-0.054-0.927-0.163c-0.27-0.109-0.5-0.251-0.69-0.429c-0.191-0.178-0.335-0.381-0.434-0.611
			c-0.099-0.23-0.148-0.464-0.148-0.701V12.75c0-0.237,0.049-0.47,0.148-0.7s0.243-0.436,0.434-0.617
			c0.19-0.181,0.421-0.325,0.69-0.434c0.27-0.109,0.579-0.163,0.927-0.163c0.342,0,0.649,0.054,0.922,0.163
			c0.273,0.108,0.505,0.253,0.695,0.434c0.191,0.181,0.335,0.387,0.434,0.617s0.148,0.463,0.148,0.7v0.572
			c0,0.237-0.049,0.47-0.148,0.701c-0.099,0.23-0.243,0.434-0.434,0.611c-0.19,0.178-0.422,0.32-0.695,0.429
			C60.23,15.171,59.923,15.226,59.581,15.226z M59.581,11.655c-0.395,0-0.707,0.11-0.937,0.33c-0.23,0.221-0.345,0.512-0.345,0.873
			v0.355c0,0.362,0.115,0.651,0.345,0.868c0.23,0.217,0.542,0.325,0.937,0.325s0.707-0.108,0.937-0.325
			c0.23-0.217,0.345-0.506,0.345-0.868v-0.355c0-0.361-0.115-0.652-0.345-0.873C60.288,11.765,59.976,11.655,59.581,11.655z
			 M65.41,12.622h-1.4v4.636h-0.977V8.164h0.977v3.61h1.4V12.622z"/>
		<path fill="#FFFFFF" d="M70.499,9.831h-3.206v4.182h0.523c0.644,0,1.248-0.021,1.81-0.064c0.563-0.042,1.123-0.107,1.682-0.192
			l0.128,0.819c-0.585,0.105-1.186,0.179-1.8,0.222c-0.615,0.043-1.291,0.064-2.027,0.064h-1.292V8.982h4.182V9.831z M74.385,12.296
			h-1.4v4.961h-0.977V8.164h0.977v3.285h1.4V12.296z"/>
	</g>
	<g display="inline">
		<path fill="none" d="M43.793,43.248c-2.022,0-3.715-0.748-5.032-2.219c-1.294-1.447-1.951-3.557-1.951-6.271
			c0-2.754,0.641-4.869,1.905-6.285c1.288-1.443,2.996-2.174,5.078-2.174s3.784,0.725,5.056,2.15
			c1.249,1.402,1.882,3.504,1.882,6.248c0,2.773-0.649,4.908-1.927,6.346C47.501,42.504,45.815,43.248,43.793,43.248z"/>
		<path fill="none" d="M43.793,27.088c-1.857,0-3.353,0.637-4.489,1.91c-1.137,1.273-1.705,3.193-1.705,5.76
			c0,2.525,0.583,4.441,1.75,5.744c1.167,1.305,2.648,1.955,4.444,1.955s3.269-0.646,4.42-1.939c1.152-1.295,1.728-3.234,1.728-5.82
			c0-2.557-0.561-4.465-1.682-5.723C47.139,27.717,45.65,27.088,43.793,27.088z"/>
		<g>
			<path fill="#14A1B8" d="M40.459,26.457c-0.78-0.679-1.274-1.676-1.274-2.789c0-0.249,0.025-0.489,0.072-0.724
				c-2.398,0.847-4.411,2.508-5.708,4.652l3.22,1.857C37.619,28.078,38.916,27.014,40.459,26.457z"/>
			<path fill="#14A1B8" d="M45.32,26.457c1.645,0.594,3.014,1.762,3.857,3.27l3.212-1.854c-1.287-2.278-3.367-4.045-5.868-4.929
				c0.048,0.235,0.072,0.476,0.072,0.724C46.593,24.781,46.099,25.778,45.32,26.457z"/>
			<path fill="#6B4FA0" d="M35.887,34.879c-0.125-0.531-0.199-1.082-0.199-1.652c0-1.121,0.266-2.178,0.724-3.125l-3.221-1.857
				c-0.77,1.492-1.207,3.186-1.207,4.982c0,0.727,0.073,1.439,0.209,2.127c0.128-0.098,0.261-0.191,0.404-0.275
				C33.639,34.477,34.855,34.445,35.887,34.879z"/>
			<path fill="#E22255" d="M50.09,33.227c0,0.57-0.074,1.121-0.199,1.652c1.032-0.434,2.248-0.402,3.291,0.199
				c0.144,0.084,0.276,0.178,0.404,0.275c0.136-0.688,0.209-1.4,0.209-2.127c0-1.682-0.382-3.275-1.062-4.697l-3.226,1.863
				C49.881,31.264,50.09,32.221,50.09,33.227z"/>
			<path fill="#E22255" d="M47.644,38.621c-1.183,1.043-2.707,1.703-4.384,1.789v3.713c2.479-0.082,4.749-0.99,6.541-2.461
				c-0.109-0.049-0.217-0.104-0.324-0.166C48.396,40.871,47.75,39.779,47.644,38.621z"/>
			<path fill="#6B4FA0" d="M38.134,38.621c-0.106,1.158-0.751,2.25-1.833,2.875c-0.106,0.063-0.215,0.117-0.325,0.166
				c1.793,1.471,4.063,2.379,6.542,2.461V40.41C40.842,40.324,39.317,39.664,38.134,38.621z"/>
			<path fill="#14A1B8" d="M45.682,22.684c-0.406-1.152-1.502-1.98-2.793-1.98c-1.292,0-2.387,0.828-2.793,1.98
				c-0.108,0.308-0.171,0.639-0.171,0.984c0,1.072,0.571,2.008,1.423,2.529c0.45,0.273,0.976,0.434,1.542,0.434
				c0.565,0,1.091-0.16,1.541-0.434c0.853-0.521,1.423-1.457,1.423-2.529C45.853,23.323,45.791,22.992,45.682,22.684z"/>
			<path fill="#6B4FA0" d="M37.378,37.852c-0.053-0.357-0.171-0.713-0.363-1.047c-0.21-0.363-0.487-0.666-0.805-0.9
				c-0.92-0.678-2.19-0.793-3.243-0.184c-0.217,0.125-0.409,0.275-0.581,0.443c-0.952,0.922-1.197,2.404-0.505,3.605
				c0.712,1.232,2.174,1.758,3.474,1.338c0.197-0.063,0.389-0.146,0.575-0.254C37.015,40.229,37.551,39.021,37.378,37.852z"/>
			<path fill="#E22255" d="M53.392,36.164c-0.171-0.168-0.363-0.318-0.581-0.443c-1.053-0.609-2.323-0.494-3.243,0.184
				c-0.318,0.234-0.594,0.537-0.805,0.902c-0.193,0.332-0.311,0.688-0.363,1.047c-0.173,1.168,0.364,2.375,1.448,3
				c0.186,0.107,0.378,0.191,0.575,0.254c1.301,0.42,2.762-0.105,3.473-1.338C54.589,38.568,54.344,37.086,53.392,36.164z"/>
		</g>
	</g>
	<path display="inline" fill="#FFFFFF" d="M78.104,40.41l7.873-20.21h5.359l8.045,20.087l-4.957,2.102l-1.516-3.939h-8.48
		l-1.516,4.164L78.104,40.41z M86.117,33.854h5.033l-2.541-6.846L86.117,33.854z"/>
	<path display="inline" fill="#FFFFFF" d="M91.07,20.594h-4.824l-7.637,19.611l4.078,1.873l1.463-4.023h9.031l1.465,3.813
		l4.225-1.793L91.07,20.594z M85.553,34.248l3.053-8.383l3.111,8.383H85.553z"/>
	<path display="inline" fill="#FFFFFF" d="M79.111,40.002l7.404-19.014h4.287l7.557,18.875l-3.49,1.48l-1.416-3.684h-9.578
		l-1.41,3.879L79.111,40.002z M84.99,34.643h7.295l-3.684-9.922L84.99,34.643z"/>
	<path display="inline" fill="#D8D8D7" d="M80.309,44.627c-1.461,0-2.65-1.188-2.65-2.65c0-1.461,1.189-2.65,2.65-2.65
		s2.652,1.189,2.652,2.65C82.961,43.439,81.77,44.627,80.309,44.627z"/>
	<path display="inline" fill="#D8D8D7" d="M97.012,44.332c-1.486,0-2.695-1.209-2.695-2.697c0-1.486,1.209-2.697,2.695-2.697
		c1.488,0,2.697,1.211,2.697,2.697C99.709,43.123,98.5,44.332,97.012,44.332z"/>
</g>
</svg>
