<?xml version="1.0" encoding="utf-8"?>
<!-- Generator: Adobe Illustrator 16.0.0, SVG Export Plug-In . SVG Version: 6.00 Build 0)  -->
<!DOCTYPE svg PUBLIC "-//W3C//DTD SVG 1.1//EN" "http://www.w3.org/Graphics/SVG/1.1/DTD/svg11.dtd">
<svg version="1.1" id="Layer_1" xmlns="http://www.w3.org/2000/svg" xmlns:xlink="http://www.w3.org/1999/xlink" x="0px" y="0px"
	 width="700px" height="244px" viewBox="0 0 700 244" enable-background="new 0 0 700 244" xml:space="preserve">
<g>
	<path fill="#EF4E35" d="M421.529,128.416c-4.223-2.05-8.699-3.569-13.441-5.486c2.629-1.49,4.974-2.772,7.275-4.129
		c10.279-6.06,18.6-14.007,23.133-25.239c5.715-14.157,4.801-28.087-2.838-41.308c-6.078-10.526-15.982-16.409-26.965-20.648
		c-11.414-4.404-23.371-6.155-35.522-6.208c-35.049-0.148-70.099-0.096-105.148-0.112c-0.5-0.002-1,0.134-1.47,0.201
		c0,66.822,0,133.441,0,200.251c1.785,0,3.303,0,4.82,0c25.996,0,51.994,0.163,77.988-0.061c15.65-0.136,31.307,0.796,46.966-0.798
		c7.359-0.75,14.546-1.878,21.512-4.216c9.229-3.1,17.622-7.725,23.55-15.687c10.734-14.426,11.482-30.604,6.67-47.108
		C444.029,144.042,434.316,134.631,421.529,128.416z M310.555,62.181c19.454,0.079,38.912-0.167,58.359,0.198
		c10.72,0.201,19.179,4.89,24.477,14.753c5.089,9.481,1.3,18.569-4.781,24.655c-5.479,5.483-12.377,7.77-19.983,7.875
		c-9.322,0.13-18.647,0.031-27.971,0.031c0,0.003,0,0.008,0,0.01c-9.952,0-19.903-0.039-29.854,0.034
		c-1.998,0.014-2.848-0.438-2.833-2.675c0.092-14.077,0.07-28.153-0.003-42.226C307.956,62.867,308.535,62.171,310.555,62.181z
		 M404.235,168.032c-1.285,10.477-8.624,18.433-18.735,20.109c-2.809,0.469-5.689,0.692-8.537,0.714
		c-10.396,0.084-20.794,0.032-31.191,0.032c0,0.006,0,0.012,0,0.018c-11.562,0-23.125-0.067-34.685,0.053
		c-2.497,0.025-3.16-0.766-3.14-3.198c0.103-13.981,0.116-27.964-0.013-41.945c-0.024-2.588,0.882-3.112,3.238-3.104
		c22.585,0.075,45.172-0.056,67.757,0.157c3.937,0.037,8.078,0.855,11.747,2.28C400.495,146.956,405.619,156.783,404.235,168.032z"
		/>
	<path fill="#EF4E35" d="M164.361,25.365c-1.113,0.007-2.558,1.106-3.28,2.105c-12.848,17.768-25.589,35.612-38.392,53.41
		c-9.041,12.571-18.195,25.059-27.194,37.66c-12.742,17.834-25.339,35.771-38.087,53.603
		c-10.255,14.336-20.648,28.574-30.966,42.868c-2.436,3.373-4.82,6.788-7.509,10.578c1.484,0.069,2.437,0.146,3.387,0.149
		c12.823,0.006,25.646-0.066,38.467,0.065c2.184,0.023,3.485-0.773,4.612-2.403c2.142-3.088,4.294-6.171,6.489-9.221
		c9.419-13.072,18.894-26.105,28.241-39.229c1.295-1.818,2.649-2.493,4.859-2.486c20.354,0.079,40.708-0.014,61.061,0.12
		c2.847,0.019,3.458-0.921,3.42-3.515c-0.119-8.336-0.114-16.679,0.038-25.013c0.044-2.503-0.77-3.189-3.206-3.167
		c-11.655,0.111-23.312,0.052-34.968,0.055c-2.099,0-4.197,0-7.037,0c19.681-27.337,38.889-54.014,58.097-80.691
		c0.285,0.091,0.57,0.182,0.855,0.275c0,54.98,0,109.962,0,165.003c14.124,0,27.871,0,41.604,0c0-66.854,0-133.499,0-200.105
		c-0.42-0.067-0.597-0.122-0.774-0.122C204.172,25.292,184.266,25.248,164.361,25.365z"/>
	<path fill="#EF4E35" d="M685.078,222.738c-7.527-10.454-15.106-20.872-22.552-31.384c-1.267-1.794-2.556-2.521-4.796-2.518
		c-43.476,0.068-86.952,0.047-130.43,0.045c-0.949,0-1.899,0-3.187,0c0-54.72,0-109.072,0-163.409c-14.1,0-27.856,0-41.875,0
		c0,2.062,0,3.93,0,5.799c-0.004,63.735-0.01,127.471-0.031,191.208c-0.002,1.899-0.169,3.324,2.672,3.321
		c66.334-0.084,132.669-0.065,199.006-0.07c0.87,0,1.741-0.071,3.182-0.133C686.192,224.337,685.646,223.526,685.078,222.738z"/>
</g>
</svg>
