<?xml version="1.0" encoding="utf-8"?>
<!-- Generator: Adobe Illustrator 16.0.0, SVG Export Plug-In . SVG Version: 6.00 Build 0)  -->
<!DOCTYPE svg PUBLIC "-//W3C//DTD SVG 1.1//EN" "http://www.w3.org/Graphics/SVG/1.1/DTD/svg11.dtd">
<svg version="1.1" id="Layer_1" xmlns="http://www.w3.org/2000/svg" xmlns:xlink="http://www.w3.org/1999/xlink" x="0px" y="0px"
	 width="700px" height="244px" viewBox="0 0 700 244" enable-background="new 0 0 700 244" xml:space="preserve">
<g transform="translate(0.000000,244.000000) scale(0.100000,-0.100000)">
	<path fill="#D10039" d="M6667.998,1933.999L6665,1827.998l-117.002,1.001L6430,1831.001v-75v-75l117.998-3.003L6665,1675
		l2.998-82.002l2.998-82.998H6550h-120v-75v-75h120h120v-120v-120h95h95v422.998c0,374.004-2.002,425-15.996,446.001
		C6822.001,2020,6770.996,2040,6715.996,2040h-45L6667.998,1933.999z"/>
	<path fill="#D10039" d="M5110,1855v-176.001l-77.002,3.003L4955,1685l-5,137.998c-5,137.002-5,139.004-32.998,163.003
		c-22.998,20-39.004,23.999-87.998,23.999H4770v-415v-415h90h90v170v170h80h80v-200v-200h95h95v408.999
		c0,273.003-4.004,418.999-10.996,440C5274.003,2010,5235,2030,5165,2030h-55V1855z"/>
	<path fill="#D10039" d="M661.001,1957.002c-5-13.003-112.002-284.004-236.001-603.003c-125-318.003-245-623.003-265-676.001
		L122.002,580l145.996,2.998L415,585l42.998,115c23.003,62.998,49.004,134.004,58.003,157.998L532.002,900h286.997h288.003
		l60.996-157.002l60-157.998l151.001-0.996c83.003,0,150,2.998,148.999,6.992c-1.997,3.008-128.999,318.008-281.997,698.003
		L967.002,1980H817.998C671.001,1980,668.999,1980,661.001,1957.002z M917.998,1397.002C968.999,1261.001,1010,1145,1010,1140
		c0-5.996-77.002-10-195-10c-107.002,0-195,2.002-195,4.004c0,1.992,41.001,115.996,90,251.997
		c50,136.997,92.998,255,96.001,262.998c2.998,8.003,7.998,10,12.998,5C822.998,1648.999,867.998,1532.998,917.998,1397.002z"/>
	<path fill="#D10039" d="M1730,1282.002V582.998l140-0.996l140-1.006V1280v700h-140h-140V1282.002z"/>
	<path fill="#D10039" d="M2690,1847.998c-28.999-72.998-141.001-360-250-637.998s-208.999-532.998-222.998-565.996l-25-61.006
		l146.997-0.996h147.002l42.998,115.996c23.003,65,50,136.006,58.003,160L2602.998,900h288.003h287.998L3220,792.998
		c22.998-60,51.001-130.996,61.001-158.994l20-52.002H3450c82.998,0.996,150,2.998,150,5s-10.996,28.994-24.004,60.996
		C3547.998,715,3085,1863.999,3058.999,1930l-16.997,45l-150,2.998l-150,3.003L2690,1847.998z M2991.001,1392.002L3087.002,1135
		l-195-2.998c-107.002-1.006-196.001-1.006-198.003,0.996c-1.997,1.006,38.999,119.004,91.001,261.001
		c52.002,142.002,95,261.001,95,263.999C2880,1681.001,2907.998,1613.999,2991.001,1392.002z"/>
	<path fill="#D10039" d="M4237.001,1862.998c-6.006-132.998-32.998-250-74.004-323.999c-32.002-60-108.994-150-170-198.999
		L3950,1305l60-57.998l60.996-59.004l48.008,37.002c46.992,36.001,108.994,102.002,180.996,192.998
		c17.998,23.003,35.996,42.002,40,42.002s20-18.999,35-42.002c45-68.999,105.996-135.996,164.004-182.998l53.994-42.998
		l62.002,55.996l62.002,56.001l-54.004,45c-55.996,46.001-132.002,138.999-163.994,202.002
		c-37.002,72.998-60,181.001-66.006,306.997L4427.001,1980H4335h-92.002L4237.001,1862.998z"/>
	<path fill="#D10039" d="M5677.998,1626.001c2.002-323.003,2.998-333.999,22.998-352.002c20-17.998,44.004-18.999,335-21.997
		l314.004-3.003V1605v355h-337.002H5675L5677.998,1626.001z M6157.998,1607.998L6155,1405h-140h-140l-2.998,202.998L5870,1810h145
		h145L6157.998,1607.998z"/>
	<path fill="#D10039" d="M4730,1087.002c-87.002-37.002-124.004-64.004-174.004-129.004C4522.998,915,4490,815,4490,760
		c0-125,85-250.996,207.998-312.002C4760.996,417.002,4770,415,4875,415c100.996,0,115,2.998,170,29.004
		c80,38.994,157.002,118.994,184.004,190.996c63.994,170-11.006,355.996-177.002,437.002
		c-59.004,28.994-76.006,32.998-166.006,35.996C4797.998,1110,4777.998,1107.998,4730,1087.002z M4945,940.996
		c79.004-35.996,115-95,115-185c0-101.992-85.996-187.998-190-190c-137.002-2.998-232.002,152.002-170,279.004
		C4747.001,942.002,4852.998,984.004,4945,940.996z"/>
	<path fill="#D10039" d="M6319.003,1095.996c-106.006-40-179.004-103.994-220-190.996c-25-50.996-29.004-72.002-29.004-145.996
		c0-76.006,4.004-93.008,30-146.006c37.002-72.998,100.996-135,177.998-170.996C6329.003,417.998,6347.001,415,6445,415
		s115.996,2.998,167.002,27.002C6690,477.998,6754.003,540,6790.996,615C6840,715,6832.998,847.998,6775,940
		c-35.996,55.996-95,107.002-160,137.002c-50.996,23.994-74.004,27.998-160,30C6389.003,1109.004,6342.998,1105,6319.003,1095.996z
		 M6500.996,950c65-17.998,139.004-119.004,139.004-190c0-117.002-135-222.998-242.002-190.996
		c-60,17.998-102.002,51.992-127.002,105c-27.998,60-26.992,110.996,4.004,171.992C6320.996,937.998,6404.003,977.002,6500.996,950z
		"/>
</g>
</svg>
