<?xml version="1.0" encoding="utf-8"?>
<!-- Generator: Adobe Illustrator 16.0.0, SVG Export Plug-In . SVG Version: 6.00 Build 0)  -->
<!DOCTYPE svg PUBLIC "-//W3C//DTD SVG 1.1//EN" "http://www.w3.org/Graphics/SVG/1.1/DTD/svg11.dtd">
<svg version="1.1" id="Layer_1" xmlns="http://www.w3.org/2000/svg" xmlns:xlink="http://www.w3.org/1999/xlink" x="0px" y="0px"
	 width="700px" height="244px" viewBox="0 0 700 244" enable-background="new 0 0 700 244" xml:space="preserve">
<g id="XMLID_1_">
	<rect id="XMLID_3_" x="239.683" y="11.5" fill="#213683" width="222.633" height="223"/>
	<polyline id="XMLID_4_" fill="#DA2825" points="377.699,121.595 462.316,11.5 449.792,11.5 364.807,121.595 377.699,121.595 	"/>
	<path id="XMLID_9_" fill="#FFFFFF" d="M409.774,169.861c2.749,7.575,4.949,15.518,7.575,23.216
		c1.711,4.705,4.339,14.357,7.454,18.207h-20.955c0-5.988-2.322-11.486-3.91-17.168c-1.345-3.972-2.322-8.004-3.789-11.976
		l-0.366-1.527l-0.366-1.282l-0.367-1.039l-0.244-1.038l-0.244-0.611l-0.122-0.366v-0.123h-33.358l-5.315,7.454l0.122,0.122
		l0.122,0.611l0.366,1.038l0.367,1.283l0.488,1.527c0.979,2.994,1.895,6.11,2.934,9.104c2.199,6.965,2.199,7.393,5.926,13.991
		H345.99c-0.428-4.216-1.283-6.782-2.505-10.876c-3.299,3.544-5.682,6.354-7.698,10.876h-15.641
		c-0.794-4.644-1.161-6.782-2.933-11.364c-3.482,4.766-4.827,5.743-7.454,11.364h-15.519c6.904-6.293,12.464-14.358,18.207-21.689
		l-3.91-13.38h-33.114v0.122l-0.733,0.733l-0.489,0.733l-0.611,0.854l-0.733,1.039l-0.855,1.283l-1.039,1.16
		c-2.872,3.972-5.988,7.76-8.859,11.731c-4.277,5.559-9.287,11.241-12.525,17.412h-9.897v-6.293l0.367-0.367h0.122v-0.122
		l0.489-0.488l0.244-0.367c0.855-0.916,1.466-2.016,2.383-2.932c2.382-2.933,4.643-5.865,6.965-8.859
		c6.537-8.248,12.891-16.557,19.184-24.988c8.736-12.22,20.833-24.866,26.76-38.49h17.046c0.367,9.042,2.994,13.686,5.315,22.239
		c1.466,4.643,2.81,9.286,4.276,13.868l0.489,1.527l0.733,2.749l0.367,1.039l0.244,1.039l0.245,0.732l0.244,0.611l0.122,0.366v0.122
		l5.804-7.331c-3.299-8.309-7.026-26.149-12.891-37.024h19.979c-0.184,4.46,1.527,7.637,2.505,11.853
		c1.161,3.85,2.077,7.82,3.299,11.608c2.566-3.421,5.376-6.781,7.942-10.203c2.933-4.154,7.698-7.82,8.065-13.258h16.679
		c-9.775,9.104-19.123,23.217-27.798,33.726c0.978,2.993,1.71,6.109,2.626,9.103c5.315-6.903,10.692-13.808,15.886-20.834
		c4.888-6.781,11.608-14.296,14.907-21.994h16.313v0.733l0.122,1.894l0.366,2.017l0.245,1.527L409.774,169.861L409.774,169.861z
		 M385.03,144.2c-4.276,7.638-10.997,15.274-16.435,22.239h22.239c-1.101-3.544-2.261-7.209-3.422-10.753l-0.488-1.771l-0.489-1.527
		l-0.366-1.283l-0.244-1.039l-0.367-2.505v-3.299l-0.122-0.244v-0.123L385.03,144.2L385.03,144.2z M299.679,144.2
		c-2.322,4.155-5.621,8.554-8.615,12.22c-1.588,2.199-3.421,4.276-5.071,6.415l-0.733,1.038l-0.611,0.855l-0.611,0.611l-0.367,0.488
		l-0.367,0.367v0.122h22.239c-1.161-3.422-2.322-7.271-3.421-10.753l-0.489-1.771l-0.489-1.528l-0.366-1.282l-0.245-1.039
		l-0.367-2.505l-0.122-2.139v-1.405l-0.122-0.122L299.679,144.2L299.679,144.2z M333.16,196.132l6.048-8.431
		c-1.466-3.666-2.75-7.393-3.91-11.12l-5.926,7.698L333.16,196.132"/>
</g>
</svg>
