<?xml version="1.0" encoding="utf-8"?>
<!-- Generator: Adobe Illustrator 16.0.0, SVG Export Plug-In . SVG Version: 6.00 Build 0)  -->
<!DOCTYPE svg PUBLIC "-//W3C//DTD SVG 1.1//EN" "http://www.w3.org/Graphics/SVG/1.1/DTD/svg11.dtd">
<svg version="1.1" id="Layer_1" xmlns="http://www.w3.org/2000/svg" xmlns:xlink="http://www.w3.org/1999/xlink" x="0px" y="0px"
	 width="700px" height="244px" viewBox="0 0 700 244" enable-background="new 0 0 700 244" xml:space="preserve">
<linearGradient id="SVGID_1_" gradientUnits="userSpaceOnUse" x1="-79.2217" y1="-393.2451" x2="-72.1144" y2="-393.2451" gradientTransform="matrix(-11.0079 -0.1049 0.1049 -11.0079 -695.6943 -4187.876)">
	<stop  offset="0" style="stop-color:#ED7700"/>
	<stop  offset="0.0997" style="stop-color:#ED7700"/>
	<stop  offset="0.2568" style="stop-color:#EB7102"/>
	<stop  offset="0.4615" style="stop-color:#E56107"/>
	<stop  offset="0.6923" style="stop-color:#DA460F"/>
	<stop  offset="0.9408" style="stop-color:#CC211B"/>
	<stop  offset="0.9997" style="stop-color:#C8171E"/>
	<stop  offset="1" style="stop-color:#C8171E"/>
</linearGradient>
<path fill="url(#SVGID_1_)" d="M114.788,100.633c-6.254-5.768-13.88-10.507-23.048-13.728c-4.608-1.631-12.208-3.984-18.697-3.984
	c-5.552,0-10.313,1.763-11.521,7.329c-2.311,10.577-1.221,101.522-0.396,112.058c0.577,7.718,3.838,12.242,12.903,12.063
	C137.26,213.356,153.855,136.708,114.788,100.633z"/>
<linearGradient id="SVGID_2_" gradientUnits="userSpaceOnUse" x1="-62.7705" y1="-349.7534" x2="-55.6637" y2="-349.7534" gradientTransform="matrix(9.8623 0.094 -0.094 9.8623 723.5254 3526.3516)">
	<stop  offset="0" style="stop-color:#24ADE4"/>
	<stop  offset="0.5041" style="stop-color:#1383C6"/>
	<stop  offset="1" style="stop-color:#0055A6"/>
</linearGradient>
<path fill="url(#SVGID_2_)" d="M187.231,27.593c-5.684-5.233-12.652-9.536-20.911-12.443c-4.199-1.493-11.097-3.644-16.983-3.644
	c-5.094,0-9.39,1.637-10.5,6.676c-2.096,9.578-1.09,92.167-0.375,101.73c0.548,7.003,3.484,11.09,11.722,10.965
	C207.614,129.935,222.696,60.337,187.231,27.593z"/>
<linearGradient id="SVGID_3_" gradientUnits="userSpaceOnUse" x1="-65.3604" y1="-350.9092" x2="-58.2536" y2="-350.9092" gradientTransform="matrix(14.528 0.1385 -0.1385 14.528 1041.3154 5265.9727)">
	<stop  offset="0" style="stop-color:#8DC220"/>
	<stop  offset="0.1373" style="stop-color:#87C022"/>
	<stop  offset="0.3171" style="stop-color:#77BA28"/>
	<stop  offset="0.5204" style="stop-color:#5CAF31"/>
	<stop  offset="0.741" style="stop-color:#36A13E"/>
	<stop  offset="0.9732" style="stop-color:#068F4E"/>
	<stop  offset="1" style="stop-color:#008D50"/>
</linearGradient>
<path fill="url(#SVGID_3_)" d="M212.59,104.353c-7.127-6.579-15.913-11.993-26.282-15.643c-5.302-1.888-13.978-4.566-21.341-4.566
	c-6.378,0-11.827,2.012-13.208,8.355c-2.665,12.069-1.375,115.805-0.458,127.847c0.707,8.849,4.372,13.942,14.699,13.79
	C238.18,232.983,257.154,145.502,212.59,104.353z"/>
<path fill="#007F41" d="M299.851,84.961h-36.645v100.169h36.645c30.253,0,52.205-20.98,52.205-49.894
	C352.049,105.158,331.067,84.961,299.851,84.961 M334.372,135.112c0,21.063-13.985,34.666-34.993,34.666H280.89v-69.465h18.475
	C321.019,100.313,334.358,113.389,334.372,135.112z"/>
<path fill="#007F41" d="M423.443,133.294c6.523-4.449,10.819-13.312,10.819-22.64c0-16.087-12.909-25.707-34.542-25.693h-39.726
	v100.162h40.427c24.438,0,39.032-10.701,39.032-28.607C439.454,145.8,434.207,138.188,423.443,133.294 M393.128,126.076
	c-3.248,0.777-5.205,2.762-5.719,5.802c-0.396,2.304,0.139,4.754,1.401,6.53c1.014,1.409,2.43,2.298,4.067,2.562
	c2.29,0.396,4.803,0.507,7.481,0.624c7.878,0.348,16.24,0.708,19.947,7.698c2.213,4.149,1.887,9.556-0.819,13.442
	c-2.79,4.039-8.259,6.482-16.282,6.954c-1.027,0.056-2.082,0.09-3.227,0.09h-22.3l-0.014-69.465h20.21
	c13.325,0,18.684,3.831,18.684,11.951c0.014,4.469-1.68,8.585-5.053,10.993c-3.04,2.207-7.439,2.263-11.688,2.305
	C397.931,125.59,395.217,125.625,393.128,126.076z"/>
<g>
	<path fill="#007F41" d="M492.533,136.375l1.506,0.5l1.507,0.173c0.659,0,1.45-0.146,2.339-0.443
		c0.895-0.299,1.665-0.819,2.346-1.562c0.438-0.598,0.777-1.264,0.999-2.013c0.222-0.736,0.299-1.485,0.222-2.222
		c-0.068-0.597-0.318-1.242-0.721-1.948c-0.417-0.702-0.875-1.244-1.396-1.618c-1.339-0.965-2.901-2.229-4.685-3.79
		c-1.777-1.562-3.602-3.789-5.455-6.69c-1.86-2.887-3.387-6.371-4.566-10.417c-1.194-4.046-1.708-8.821-1.568-14.318v-3.783h-15.04
		v1.111c0,0.964,0.146,1.811,0.438,2.56c0.306,0.743,0.937,1.416,1.901,2.006c0,5.129-0.708,9.716-2.117,13.763
		c-1.408,4.053-3.047,7.37-4.899,9.973c-1.568,2.311-3.324,4.323-5.296,6.073c-1.971,1.748-3.581,2.984-4.844,3.733
		c-1.34,0.888-2.124,2.116-2.339,3.678c-0.229,1.485,0.104,2.901,0.999,4.234c0.965,1.193,2.27,1.888,3.894,2.123
		c1.347,0.216,2.755-0.041,4.241-0.784c3.56-2.234,6.725-4.92,9.473-8.078s5.08-6.594,7.023-10.313
		c2.082,3.72,4.359,7.079,6.844,10.085C485.829,131.42,488.904,134.078,492.533,136.375z"/>
	<path fill="#007F41" d="M529.754,86.46v19.725h-11.139V86.46h-15.491v1.222c0,2.387,0.965,4.012,2.895,4.907v37.998
		c0,1.707,0.61,3.179,1.839,4.4c1.229,1.221,2.728,1.853,4.519,1.853c1.707,0,3.165-0.632,4.399-1.853
		c1.222-1.222,1.84-2.693,1.84-4.4v-13.936h11.139v15.719c0,1.777,0.625,3.283,1.889,4.505c1.27,1.229,2.797,1.846,4.573,1.846
		c1.707,0,3.199-0.617,4.462-1.846c1.264-1.222,1.889-2.728,1.889-4.505V86.46H529.754z"/>
	<path fill="#007F41" d="M531.864,146.633c-2.665-2.227-5.768-3.956-9.3-5.178c-3.526-1.229-7.302-1.846-11.313-1.846
		c-3.929,0-7.642,0.617-11.133,1.846c-3.498,1.222-6.579,2.951-9.251,5.178c-2.679,2.151-4.74,4.713-6.185,7.683
		c-1.45,2.972-2.179,6.094-2.179,9.362c0,3.276,0.729,6.393,2.179,9.362c1.444,2.971,3.506,5.504,6.185,7.586
		c2.672,2.221,5.753,3.977,9.251,5.233c3.491,1.256,7.204,1.888,11.133,1.888c4.011,0,7.786-0.632,11.313-1.888
		c3.532-1.257,6.635-3.013,9.3-5.233c2.679-2.082,4.72-4.615,6.135-7.586c1.416-2.97,2.124-6.086,2.124-9.362
		c0-3.269-0.708-6.391-2.124-9.362C536.584,151.346,534.543,148.784,531.864,146.633z M522.682,173.27
		c-3.088,2.674-6.892,4.012-11.43,4.012c-4.373,0-8.113-1.338-11.202-4.012c-3.081-2.672-4.615-5.871-4.615-9.592
		c0-3.789,1.534-6.995,4.615-9.633c3.089-2.638,6.829-3.956,11.202-3.956c4.538,0,8.342,1.318,11.43,3.956
		c3.082,2.638,4.615,5.844,4.615,9.633C527.297,167.398,525.764,170.598,522.682,173.27z"/>
</g>
<g>
	<path fill="#007F41" d="M634.497,146.633c-2.596-2.227-5.678-3.956-9.245-5.178c-3.566-1.229-7.314-1.846-11.257-1.846
		c-3.928,0-7.647,0.617-11.139,1.846c-3.491,1.222-6.573,2.951-9.252,5.178c-2.679,2.151-4.733,4.713-6.177,7.683
		c-1.457,2.972-2.18,6.094-2.18,9.362c0,3.276,0.723,6.393,2.18,9.362c1.443,2.971,3.498,5.504,6.177,7.586
		c2.679,2.221,5.761,3.977,9.252,5.233c3.491,1.256,7.211,1.888,11.139,1.888c3.942,0,7.69-0.632,11.257-1.888
		c3.567-1.257,6.649-3.013,9.245-5.233c2.679-2.082,4.733-4.615,6.19-7.586c1.451-2.97,2.18-6.086,2.18-9.362
		c0-3.269-0.729-6.391-2.18-9.362C639.23,151.346,637.176,148.784,634.497,146.633z M625.308,173.27
		c-3.081,2.674-6.85,4.012-11.313,4.012c-4.386,0-8.12-1.338-11.201-4.012c-3.082-2.672-4.615-5.871-4.615-9.592
		c0-3.789,1.533-6.995,4.615-9.633c3.081-2.638,6.815-3.956,11.201-3.956c4.463,0,8.231,1.318,11.313,3.956
		c3.082,2.638,4.622,5.844,4.622,9.633C629.93,167.398,628.39,170.598,625.308,173.27z"/>
	<path fill="#007F41" d="M627.918,86.46v1.222c0,2.387,1.013,4.012,3.012,4.907v5.566h-17.712v-8.578H562.18v1.118
		c0,2.45,1.041,4.082,3.123,4.9v28.968c0,7.655,4.164,11.479,12.479,11.479h22.847c6.96,0,11.025-2.641,12.214-7.905h18.088v6.344
		c0,1.714,0.639,3.22,1.901,4.518s2.783,1.943,4.567,1.943c1.776,0,3.303-0.646,4.566-1.943c1.263-1.298,1.901-2.804,1.901-4.518
		V86.46H627.918z M600.406,121.891c0,2.311-1.193,3.457-3.567,3.457H581.57c-2.373,0-3.561-1.146-3.561-3.457v-21.612h22.396
		V121.891z M613.218,117.775v-9.147h17.712v9.147H613.218z"/>
</g>
</svg>
