<?xml version="1.0" encoding="utf-8"?>
<!-- Generator: Adobe Illustrator 16.0.0, SVG Export Plug-In . SVG Version: 6.00 Build 0)  -->
<!DOCTYPE svg PUBLIC "-//W3C//DTD SVG 1.1//EN" "http://www.w3.org/Graphics/SVG/1.1/DTD/svg11.dtd">
<svg version="1.1" id="Layer_1" xmlns="http://www.w3.org/2000/svg" xmlns:xlink="http://www.w3.org/1999/xlink" x="0px" y="0px"
	 width="700px" height="244px" viewBox="0 0 700 244" enable-background="new 0 0 700 244" xml:space="preserve">
<path fill="#007F41" d="M425.954,139.324h-30.892v-12.552h-13.801v0.972c0,2.127,0.866,3.561,2.606,4.35v7.23h-30.987
	c-1.357,0-2.493,0.467-3.426,1.403c-0.937,0.934-1.404,2.074-1.404,3.424c0,1.415,0.468,2.591,1.404,3.529
	c0.933,0.932,2.068,1.394,3.426,1.394h73.073c1.35,0,2.485-0.462,3.424-1.394c0.931-0.938,1.398-2.114,1.398-3.529
	c0-1.35-0.468-2.49-1.398-3.424C428.439,139.791,427.304,139.324,425.954,139.324"/>
<path fill="#007F41" d="M416.595,168.281H374.89c-1.922,0-2.893-0.959-2.893-2.895v-10.621h-14.095v0.965
	c0,2.13,0.898,3.538,2.702,4.248v8.021c0,6.631,3.702,9.938,11.09,9.938h44.9c1.285,0,2.416-0.462,3.424-1.403
	c0.993-0.926,1.494-2.067,1.494-3.434c0-1.284-0.501-2.401-1.494-3.367C419.011,168.768,417.88,168.281,416.595,168.281"/>
<path fill="#007F41" d="M358.189,132.76c0.906,0.068,1.835-0.034,2.804-0.283c4.044-1.224,7.509-2.639,10.367-4.252
	c2.87-1.611,5.429-3.251,7.678-4.918c4.377-3.032,7.921-6.607,10.622-10.716c2.701,4.109,6.243,7.684,10.615,10.716
	c2.256,1.667,4.829,3.307,7.715,4.918c2.907,1.613,6.347,3.028,10.337,4.252c0.969,0.249,1.898,0.352,2.788,0.283
	c1.684-0.126,2.899-0.964,3.679-2.505c0.715-1.477,0.715-2.939,0-4.357c-0.644-1.078-1.74-1.887-3.281-2.401
	c-3.933-1.222-7.351-2.708-10.281-4.44c-2.924-1.738-5.419-3.544-7.483-5.413c-5.594-5.011-8.454-10.966-8.582-17.849v-1.159
	h-13.903v1.057c0,0.775,0.125,1.449,0.381,2.031c0.263,0.581,0.771,1.261,1.549,2.017c0,4.317-2.573,8.95-7.723,13.903
	c-2.066,1.868-4.505,3.675-7.334,5.413c-2.836,1.732-6.275,3.218-10.328,4.44c-1.541,0.515-2.645,1.323-3.29,2.401
	c-0.706,1.418-0.706,2.881,0,4.357C355.289,131.796,356.521,132.634,358.189,132.76"/>
<path fill="#007F41" d="M508.965,118.666h-7.238v-24.03h-13.228v1.056c0,2.062,0.906,3.477,2.71,4.255v73.743
	c0,1.416,0.514,2.641,1.541,3.675c1.023,1.024,2.279,1.541,3.766,1.541c1.414,0,2.646-0.517,3.662-1.541
	c1.034-1.034,1.549-2.259,1.549-3.675v-45.087h7.238v44.984c0,1.425,0.533,2.662,1.598,3.728c1.057,1.053,2.297,1.591,3.71,1.591
	c1.487,0,2.748-0.538,3.814-1.591c1.057-1.065,1.598-2.303,1.598-3.728V94.636h-10.72V118.666z"/>
<path fill="#007F41" d="M482.039,102.356H468.04v-8.297h-11.774v8.297h-14.668c-1.429,0-2.581,0.466-3.479,1.397
	c-0.906,0.926-1.36,2.048-1.36,3.334c0,1.282,0.454,2.394,1.36,3.325c0.897,0.938,2.05,1.399,3.479,1.399h3.259
	c-1.543,1.755-2.829,3.732-3.846,5.94c-1.288,2.8-1.932,5.745-1.932,8.83c0,3.155,0.611,6.117,1.836,8.89
	c1.226,2.762,2.892,5.205,5.013,7.329c2.003,2.058,4.377,3.706,7.15,4.928c2.767,1.216,5.761,1.831,8.978,1.831
	c3.148,0,6.096-0.615,8.836-1.831c2.733-1.222,5.124-2.87,7.184-4.928c2.129-2.124,3.782-4.567,4.973-7.329
	c1.193-2.772,1.779-5.734,1.779-8.89c0-3.085-0.619-6.029-1.875-8.83c-0.984-2.208-2.264-4.186-3.796-5.94h2.883
	c1.279,0,2.414-0.462,3.377-1.399c0.961-0.931,1.445-2.042,1.445-3.325c0-1.286-0.484-2.408-1.445-3.334
	C484.453,102.822,483.318,102.356,482.039,102.356 M473.354,131.6c-0.652,1.684-1.517,3.124-2.613,4.346
	c-1.154,1.295-2.494,2.287-4.013,2.991c-1.51,0.708-3.067,1.056-4.673,1.056c-1.739,0-3.367-0.348-4.886-1.056
	c-1.5-0.704-2.812-1.696-3.9-2.991c-1.089-1.222-1.946-2.662-2.559-4.346c-0.611-1.671-0.922-3.44-0.922-5.307
	c0-1.863,0.311-3.63,0.922-5.306c0.612-1.673,1.47-3.118,2.559-4.343c1.089-1.288,2.4-2.29,3.9-3.001
	c1.519-0.704,3.146-1.053,4.886-1.053c1.605,0,3.163,0.349,4.673,1.053c1.519,0.711,2.858,1.713,4.013,3.001
	c1.097,1.225,1.961,2.67,2.613,4.343c0.637,1.676,0.963,3.442,0.963,5.306C474.317,128.159,473.991,129.929,473.354,131.6"/>
<path fill="#007F41" d="M609.361,157.762h-30.875v-13.808h12.936c7.27,0,10.907-3.278,10.907-9.845V97.445h-13.808v0.949
	c0,2.126,0.841,3.548,2.502,4.254v8.304h-36.286V97.445h-13.903v0.949c0,2.126,0.872,3.548,2.605,4.254v31.461
	c0,6.566,3.607,9.845,10.806,9.845h13.044v13.808h-30.984c-1.352,0-2.502,0.443-3.424,1.352c-0.946,0.903-1.406,2.059-1.406,3.474
	c0,1.347,0.46,2.492,1.406,3.433c0.922,0.93,2.072,1.396,3.424,1.396h73.057c1.366,0,2.502-0.467,3.433-1.396
	c0.937-0.94,1.406-2.086,1.406-3.433c0-1.415-0.47-2.57-1.406-3.474C611.863,158.205,610.728,157.762,609.361,157.762
	 M557.638,134.404c-1.938,0-2.9-0.991-2.9-2.989v-10.719h36.286v10.719c0,1.998-0.961,2.989-2.891,2.989H557.638z"/>
<path fill="#007F41" d="M679.637,94.637v1.056c0,2.063,0.866,3.476,2.606,4.255v16.984h-15.725
	c-0.183-0.475-0.364-0.951-0.588-1.398c-0.961-1.962-2.359-3.772-4.116-5.451h6.341c1.216,0,2.266-0.445,3.139-1.311
	c0.866-0.869,1.304-1.914,1.304-3.136c0-1.159-0.438-2.204-1.304-3.133c-0.873-0.938-1.923-1.4-3.139-1.4h-16.604v-7.817h-12.363
	v7.817h-16.597c-1.16,0-2.194,0.463-3.092,1.4c-0.905,0.929-1.35,1.974-1.35,3.133c0,1.223,0.444,2.267,1.35,3.136
	c0.897,0.866,1.932,1.311,3.092,1.311h6.046c-1.765,1.679-3.17,3.489-4.171,5.451c-1.121,2.218-1.686,4.709-1.686,7.477
	c0,2.78,0.564,5.37,1.686,7.77c1.136,2.421,2.756,4.563,4.877,6.421c1.995,1.807,4.362,3.213,7.097,4.257
	c2.733,1.03,5.681,1.542,8.834,1.542c3.084,0,5.982-0.512,8.684-1.542c2.71-1.044,5.087-2.45,7.151-4.257
	c2.121-1.857,3.727-4,4.822-6.421c0.684-1.518,1.138-3.105,1.392-4.769h14.921v12.348c0,1.538,0.548,2.868,1.644,3.965
	c1.087,1.089,2.408,1.631,3.957,1.631c1.543,0,2.86-0.542,3.957-1.631c1.089-1.097,1.637-2.427,1.637-3.965V94.637H679.637z
	 M653.339,130.695c-2.098,2.146-4.784,3.223-8.065,3.223c-3.353,0-6.086-1.077-8.199-3.223c-2.129-2.17-3.195-4.758-3.195-7.783
	c0-3.021,1.066-5.594,3.195-7.728c2.113-2.117,4.847-3.179,8.199-3.179c3.281,0,5.968,1.062,8.065,3.179
	c2.08,2.134,3.139,4.707,3.139,7.728C656.478,125.938,655.419,128.525,653.339,130.695"/>
<path fill="#007F41" d="M633.587,148.204c0,2.126,0.874,3.542,2.614,4.252v15.543c0,6.631,3.631,9.938,10.9,9.938h35.529
	c7.199,0,10.807-3.308,10.807-9.938v-20.756h-59.851V148.204z M647.403,156.316h34.936v9.559c0,1.93-1.025,2.893-3.083,2.893
	h-28.771c-2.057,0-3.082-0.963-3.082-2.893V156.316z"/>
<path fill="#007F41" d="M216.892,93.341h-31.798v86.93H216.9c26.25,0,45.294-18.215,45.294-43.306
	C262.194,110.871,243.985,93.329,216.892,93.341 M246.846,136.861c0,18.278-12.134,30.081-30.367,30.081h-16.034v-60.279h16.034
	C235.261,106.663,246.846,118.02,246.846,136.861"/>
<path fill="#007F41" d="M324.136,135.286c5.673-3.86,9.407-11.554,9.407-19.642c0-13.971-11.21-22.314-29.986-22.303h-34.473v86.928
	h35.085c21.213,0,33.871-9.295,33.871-24.83C338.04,146.133,333.488,139.53,324.136,135.286 M297.837,129.017
	c-2.819,0.681-4.513,2.396-4.957,5.034c-0.342,2.013,0.119,4.136,1.215,5.674c0.882,1.214,2.105,2.008,3.528,2.227
	c1.987,0.337,4.179,0.436,6.491,0.536c6.84,0.308,14.086,0.609,17.319,6.673c1.916,3.613,1.63,8.297-0.715,11.675
	c-2.414,3.504-7.166,5.618-14.125,6.03c-0.899,0.052-1.812,0.077-2.805,0.077h-19.356l-0.006-60.28h17.543
	c11.552,0,16.215,3.326,16.215,10.378c0.008,3.87-1.47,7.438-4.393,9.543c-2.63,1.907-6.452,1.956-10.139,1.991
	C302.008,128.599,299.665,128.629,297.837,129.017"/>
<g>
	<defs>
		<path id="SVGID_1_" d="M10.093,97.949c-2.004,9.182-1.064,88.102-0.352,97.236c0.504,6.713,3.33,10.631,11.197,10.471
			c54.877-0.883,69.265-67.395,35.372-98.69c-5.428-5.001-12.038-9.111-19.999-11.909c-3.996-1.407-10.593-3.464-16.216-3.464
			C15.266,91.592,11.144,93.13,10.093,97.949"/>
	</defs>
	<clipPath id="SVGID_2_">
		<use xlink:href="#SVGID_1_"  overflow="visible"/>
	</clipPath>
	
		<linearGradient id="SVGID_3_" gradientUnits="userSpaceOnUse" x1="-398.1655" y1="649.7637" x2="-396.5067" y2="649.7637" gradientTransform="matrix(-40.8848 -0.3898 0.3898 -40.8848 -16457.3047 26559.1563)">
		<stop  offset="0" style="stop-color:#ED7700"/>
		<stop  offset="0.0997" style="stop-color:#ED7700"/>
		<stop  offset="0.2565" style="stop-color:#EB7102"/>
		<stop  offset="0.4619" style="stop-color:#E46107"/>
		<stop  offset="0.694" style="stop-color:#DA460F"/>
		<stop  offset="0.9442" style="stop-color:#CC201B"/>
		<stop  offset="0.9997" style="stop-color:#C8171E"/>
		<stop  offset="1" style="stop-color:#C8171E"/>
	</linearGradient>
	<polygon clip-path="url(#SVGID_2_)" fill="url(#SVGID_3_)" points="91.293,91.603 8.097,90.81 7,205.807 90.196,206.601 	"/>
</g>
<g>
	<defs>
		<path id="SVGID_4_" d="M77.174,35.421c-1.802,8.31-0.945,79.972-0.318,88.286c0.477,6.066,3.027,9.618,10.168,9.515
			c49.834-0.833,62.919-61.221,32.147-89.634c-4.924-4.536-10.98-8.27-18.146-10.8c-3.647-1.305-9.624-3.16-14.731-3.16
			C81.878,29.628,78.143,31.056,77.174,35.421"/>
	</defs>
	<clipPath id="SVGID_5_">
		<use xlink:href="#SVGID_4_"  overflow="visible"/>
	</clipPath>
	
		<linearGradient id="SVGID_6_" gradientUnits="userSpaceOnUse" x1="-417.9146" y1="652.7041" x2="-416.2553" y2="652.7041" gradientTransform="matrix(36.6147 0.349 -0.349 36.6147 15605.8984 -23671.5469)">
		<stop  offset="0" style="stop-color:#1EADE5"/>
		<stop  offset="0.5574" style="stop-color:#0E7EC3"/>
		<stop  offset="1" style="stop-color:#0055A6"/>
	</linearGradient>
	<polygon clip-path="url(#SVGID_5_)" fill="url(#SVGID_6_)" points="74.384,133.315 149.938,134.037 150.933,29.638 75.379,28.917 	
		"/>
</g>
<g>
	<defs>
		<path id="SVGID_7_" d="M88.394,99.919c-2.313,10.463-1.201,100.483-0.391,110.926c0.612,7.673,3.782,12.097,12.753,11.964
			c62.626-0.993,79.096-76.899,40.423-112.616C135,104.492,127.375,99.789,118.37,96.62c-4.6-1.639-12.125-3.963-18.512-3.963
			C94.32,92.656,89.591,94.411,88.394,99.919"/>
	</defs>
	<clipPath id="SVGID_8_">
		<use xlink:href="#SVGID_7_"  overflow="visible"/>
	</clipPath>
	
		<linearGradient id="SVGID_9_" gradientUnits="userSpaceOnUse" x1="-414.5137" y1="652.875" x2="-412.8541" y2="652.875" gradientTransform="matrix(54.0838 0.5156 -0.5156 54.0838 22835.7188 -34938.8516)">
		<stop  offset="0" style="stop-color:#8DC220"/>
		<stop  offset="0.1373" style="stop-color:#87C022"/>
		<stop  offset="0.3171" style="stop-color:#77BA28"/>
		<stop  offset="0.5204" style="stop-color:#5CAF31"/>
		<stop  offset="0.741" style="stop-color:#36A13E"/>
		<stop  offset="0.9732" style="stop-color:#068F4E"/>
		<stop  offset="1" style="stop-color:#008D50"/>
	</linearGradient>
	<polygon clip-path="url(#SVGID_8_)" fill="url(#SVGID_9_)" points="84.84,222.93 179.843,223.836 181.094,92.667 86.091,91.762 	
		"/>
</g>
</svg>
