<?xml version="1.0" encoding="utf-8"?>
<!-- Generator: Adobe Illustrator 16.0.0, SVG Export Plug-In . SVG Version: 6.00 Build 0)  -->
<!DOCTYPE svg PUBLIC "-//W3C//DTD SVG 1.1//EN" "http://www.w3.org/Graphics/SVG/1.1/DTD/svg11.dtd">
<svg version="1.1" id="Layer_1" xmlns="http://www.w3.org/2000/svg" xmlns:xlink="http://www.w3.org/1999/xlink" x="0px" y="0px"
	 width="700px" height="244px" viewBox="0 0 700 244" enable-background="new 0 0 700 244" xml:space="preserve">
<g>
	<path fill="#776C61" d="M531.319,151.724h33.225v-15.585h9.415v15.585h32.664v8.176h-75.304V151.724z M599.5,90.606v41.062h-60.02
		V90.606h9.313v11.89h41.401v-11.89H599.5z M590.195,110.57h-41.401v13.109h41.401V110.57z"/>
	<path fill="#776C61" d="M672.575,88.709h9.479v38.877h-9.479v-11.595h-11.493c-0.57,2.089-1.511,3.799-2.841,5.324
		c-1.436,1.613-3.138,2.942-5.042,3.883c-2.091,1.051-4.276,1.812-6.738,2.29c-2.563,0.568-5.229,0.757-7.878,0.757
		c-3.239,0-6.178-0.286-8.934-1.046c-2.852-0.577-5.217-1.625-7.308-3.041c-2.093-1.336-3.796-2.948-4.944-5.035
		c-1.229-1.905-1.804-4.277-1.804-6.94c0-2.659,0.575-4.938,1.804-6.93c1.148-1.91,2.659-3.62,4.758-4.956h-8.072v-8.071h19.75
		V85.38h9.4v6.847h19.648v8.071h-7.883c1.428,0.952,2.669,2.1,3.706,3.234c0.949,1.333,1.604,2.756,2.183,4.279h11.688V88.709z
		 M682.054,163.981h-59.617v-30.7h59.617V163.981z M638.673,120.265c1.717,0,3.407-0.188,5.031-0.568
		c1.525-0.287,2.937-0.854,4.18-1.616c1.142-0.674,1.996-1.62,2.754-2.756c0.655-1.044,1.039-2.385,1.039-3.906
		c0-1.514-0.384-2.844-1.039-3.989c-0.758-1.043-1.612-1.987-2.754-2.752c-1.243-0.667-2.654-1.242-4.18-1.616
		c-1.624-0.285-3.314-0.479-5.031-0.479c-1.899,0-3.611,0.193-5.129,0.479c-1.617,0.374-2.938,0.95-4.079,1.616
		c-1.231,0.765-2.188,1.709-2.852,2.752c-0.75,1.145-1.047,2.475-1.047,3.989c0,1.521,0.297,2.862,1.047,3.906
		c0.663,1.136,1.62,2.082,2.852,2.756c1.141,0.762,2.462,1.33,4.079,1.616C635.062,120.077,636.773,120.265,638.673,120.265
		 M672.748,141.461h-40.906v14.258h40.906V141.461z"/>
	<path fill="#776C61" d="M511.497,88.565v7.607h-12.872v-5.819h-42.422v33.692h42.422v-5.427h12.872v9.046h9.294v-39.1H511.497z
		 M489.346,115.885h-23.837V98.462h23.837V115.885z M498.625,104.29h12.868v6.225h-12.868V104.29z"/>
	<path fill="#776C61" d="M494.016,158.076c-9.528,0-17.246-3.337-17.246-10.838c0-7.454,7.718-10.832,17.246-10.832
		c9.524,0,17.246,3.378,17.246,10.832C511.262,154.739,503.54,158.076,494.016,158.076 M494.047,128.057
		c-14.858,0-26.884,6.319-26.884,19.199c0,12.753,12.025,19.17,26.884,19.17c14.852,0,26.881-6.417,26.881-19.17
		C520.928,134.376,508.898,128.057,494.047,128.057"/>
	<polygon fill="#776C61" points="418.554,125.345 427.616,125.345 427.616,110.601 434.642,110.601 434.642,127.74 443.705,127.74 
		443.705,88.559 434.642,88.559 434.642,102.835 427.616,102.835 427.616,88.559 418.554,88.559 	"/>
	<path fill="#776C61" d="M417.061,158.076c-9.522,0-17.246-3.337-17.246-10.838c0-7.454,7.724-10.832,17.246-10.832
		c9.526,0,17.246,3.378,17.246,10.832C434.307,154.739,426.587,158.076,417.061,158.076 M417.1,128.057
		c-14.867,0-26.893,6.319-26.893,19.199c0,12.753,12.025,19.17,26.893,19.17c14.827,0,26.867-6.417,26.867-19.17
		C443.967,134.376,431.927,128.057,417.1,128.057"/>
	<path fill="#776C61" d="M398.356,95.698v-6.575h-10.311v7.295c-1.601,19.734-15.314,22.304-15.314,22.304v7.712
		c7.866-1.913,15.764-7.083,20.771-15.148c5.121,7.635,12.915,12.553,20.542,14.403v-7.698
		C414.044,117.99,399.977,115.414,398.356,95.698"/>
	<path fill="#776C61" d="M286.657,89.353h36.534c17.383,0,26.463,5.766,26.463,18.39c0,8.974-6.261,15.163-14.603,16.832v0.312
		c11.96,1.423,17.608,9.265,17.608,18.111c0,11.109-8.125,20.688-28.317,20.688h-37.685V89.353z M298.495,120.661h24.106
		c8.965,0,15.57-3.397,15.57-11.321c0-6.915-3.264-11.524-16.938-11.524h-22.738V120.661z M298.495,155.244h23.367
		c14.507,0,18.352-5.656,18.352-12.865c0-8.541-5.906-13.271-18.98-13.271h-22.738V155.244z"/>
	<polygon fill="#776C61" points="206.256,89.353 218.123,89.353 218.123,122.619 258.076,89.353 274.878,89.353 232.663,122.928 
		278.384,163.685 261.597,163.685 218.123,123.854 218.123,163.685 206.256,163.685 	"/>
	<path fill="#FCAF17" d="M168.796,130.144l-1.331-0.848c-4.524-4.516-10.824-6.471-19.25-5.978
		c-7.016,0.43-12.582,3.209-16.831,5.793c0-0.064-0.005-0.128-0.005-0.188c0-2.2,0.248-4.583,0.494-6.896
		c0.243-2.354,0.499-4.746,0.499-7.009c0-2.308-0.265-4.503-1.059-6.375c-0.199-0.479-0.644-0.764-1.201-0.764
		c-2.269,0.048-6.696,1.6-7.767,2.541c0,0.009-0.583,1.277-0.583,1.277c-0.039,2.507-0.595,9.521-1.153,10.368
		c0.024-0.03-0.292,0.843-0.292,0.843c-0.956,10.011-0.978,18.808-0.099,26.362c0.102,0.758,1.559,1.892,2.682,2.306
		c1.234,0.455,5.086-0.58,7.312-1.412c-0.033,0.008,0.83-0.136,0.83-0.136c0.705-0.071,1.117-0.667,1.088-1.47
		c-0.014-0.014,0.052-2.176,0.052-2.176c1.604-6.515,8.095-14.296,15.779-15.467c4.342-0.69,7.77,0.428,10.477,3.377
		c0.368,0.531,1.156,5.228-1.703,10.613c-2.13,3.993-6.392,7.358-11.994,9.46c-5.306,2.02-11.142,2.833-18.354,2.584
		c-0.301-0.191-6.749-4.561-6.749-4.561c-5.719-4.015-12.822-9.013-19.261-11.448c-1.133-0.438-3.157-2.121-4.376-3.131
		l-0.667-0.546c-3.715-2.979-10.784-7.69-16.459-11.467c0,0-2.562-1.722-3.054-2.05c0.003-0.214,0.003-0.644,0.003-0.644
		c0.166-0.185,3.736-2.32,3.736-2.32c4.99-2.922,7.297-4.353,7.786-5.096c-0.1,0.121,0.663-0.391,0.663-0.391
		c0.047-0.02,12.381-7.005,12.381-7.005c11.88-6.524,25.34-13.935,32.413-21.257c0.007-0.007,0.346-1.118,0.346-1.118l0.151-0.995
		c0.476-1.566,0.498-2.763,0.099-4.157c-0.099-0.396-0.461-0.858-0.949-0.944c-5.523-0.55-12.644,2.76-19.125,8.839
		c-1.468,1.37-2.693,2.045-3.988,2.744l-0.993,0.559c-7.147,4.059-23.245,14.054-31.676,19.448
		c0.556-9.069,2.23-21.956,4.298-32.701l-0.232-1.285c-0.022-0.045-0.875-1.627-0.875-1.627l-0.651-1.16l-0.189-0.05
		c-1.681-0.851-3.06-0.504-4.065-0.256l-1.686,0.622l-2.249,0.813c-0.438,0.091-0.751,0.365-0.926,0.792
		c-4.022,9.73-7.379,25.729-8.174,38.53c-8.044-5.114-15.481-8.797-19.125-10.571l-0.102-0.057l-0.431-0.094
		c-1.314-0.17-2.915-1.134-4.445-2.064c-0.166-0.098-3.066-1.98-3.066-1.98l-4.676-2.999c0.04,0.031-1.229-0.282-1.229-0.282
		c-2.009,0.35-5.862,2.938-7.002,4.708c-0.151,0.229-0.217,0.482-0.217,0.746c0,0.373,0.12,0.746,0.217,1.111l0.203,0.95l0.22,0.572
		c2.241,2.293,7.894,6.125,13.436,9.103l6.425,3.404l9.839,5.37c0,0.045,1.674,1.334,1.674,1.334l1.157,0.662
		c0,0,0.135,0.083,0.212,0.133c-2.619,1.755-17.891,11.95-17.891,11.95l-9.406,6.232c-0.891,0.605-4.601,2.271-5.423,2.599
		c-2.035,0.831-3.582,2.105-4.218,3.487l-0.254,0.546l0.254,0.362l0.721,0.541c-0.04,0,0.96,0.629,0.96,0.629l1.038,0.713
		c0.022,0.007,0.979,0.158,0.979,0.158c1.655,0.061,4.099-0.882,8.681-2.889c4.207-1.861,15.631-8.757,20.516-11.698l2.083-1.25
		c0.86,0.075,1.806-0.656,2.657-1.292c0.981-0.783,3.109-2.095,4.404-2.666c0.043-0.012,0.783-0.422,1.485-0.813
		c-0.007,0.218-0.011,0.561-0.011,0.561c0.214,14.94,1.071,25.798,2.706,34.174l0.024,0.143l0.156,0.34
		c0.802,1.179,1.721,4.719,2.531,7.841l1.859,6.237c0.043,0.075,0.528,0.583,0.528,0.583c1.06,0.724,4.299,1.967,6.459,1.71
		l0.541-0.067l0.339-0.758c0.185-0.934,0.247-1.85,0.247-2.862c0-1.138-0.081-2.387-0.181-3.928l-0.147-2.248
		c-0.687-10.432-1.369-25.489-1.369-35.504v-0.794c1.773,1.107,9.522,5.992,9.522,5.992c13.197,8.563,33.122,21.489,45.164,24.904
		c0.626,0.193,1.288,0.045,1.745-0.399c0.022-0.018,1.855-1.185,1.855-1.185l0.349-0.14c0.688-0.332,1.148-1.496,1.232-2.758
		c10.15-0.513,24.306-4.421,31.882-13.946c2.931-3.689,4.25-8.209,4.25-12.081C171.275,134.387,170.396,131.65,168.796,130.144"/>
</g>
</svg>
