<?xml version="1.0" encoding="utf-8"?>
<!-- Generator: Adobe Illustrator 16.0.0, SVG Export Plug-In . SVG Version: 6.00 Build 0)  -->
<!DOCTYPE svg PUBLIC "-//W3C//DTD SVG 1.1//EN" "http://www.w3.org/Graphics/SVG/1.1/DTD/svg11.dtd">
<svg version="1.1" id="Layer_1" xmlns="http://www.w3.org/2000/svg" xmlns:xlink="http://www.w3.org/1999/xlink" x="0px" y="0px"
	 width="700px" height="244px" viewBox="0 0 700 244" enable-background="new 0 0 700 244" xml:space="preserve">
<path fill="#FCAF17" d="M162.214,123.485l-1.375-0.866c-4.66-4.663-11.163-6.685-19.852-6.183
	c-7.231,0.448-12.967,3.318-17.349,5.98c0-0.066-0.007-0.132-0.007-0.19c0-2.267,0.254-4.726,0.512-7.109
	c0.25-2.43,0.514-4.896,0.514-7.225c0-2.392-0.272-4.644-1.093-6.575c-0.207-0.496-0.661-0.796-1.245-0.796
	c-2.329,0.051-6.895,1.65-8.003,2.623l-0.601,1.313c-0.035,2.591-0.605,9.82-1.184,10.7c0.022-0.033-0.305,0.867-0.305,0.867
	c-0.989,10.32-1.004,19.394-0.098,27.183c0.104,0.783,1.601,1.951,2.758,2.375c1.275,0.464,5.249-0.593,7.537-1.453
	c-0.026,0.004,0.862-0.139,0.862-0.139c0.724-0.085,1.149-0.692,1.117-1.521c-0.009-0.013,0.058-2.238,0.058-2.238
	c1.651-6.724,8.35-14.74,16.269-15.948c4.476-0.718,8.011,0.438,10.802,3.481c0.381,0.547,1.193,5.39-1.756,10.945
	c-2.194,4.112-6.593,7.585-12.371,9.753c-5.462,2.075-11.488,2.917-18.921,2.657c-0.307-0.196-6.959-4.701-6.959-4.701
	c-5.898-4.14-13.221-9.295-19.859-11.809c-1.162-0.443-3.254-2.181-4.518-3.218l-0.68-0.568c-3.832-3.07-11.116-7.93-16.973-11.829
	c0,0-2.639-1.768-3.152-2.109c0.006-0.214,0.01-0.659,0.01-0.659c0.174-0.189,3.848-2.39,3.848-2.39
	c5.151-3.014,7.526-4.49,8.028-5.259c-0.104,0.129,0.687-0.399,0.687-0.399c0.045-0.026,12.762-7.218,12.762-7.218
	c12.251-6.739,26.131-14.375,33.42-21.922c0.009-0.012,0.354-1.155,0.354-1.155l0.163-1.025c0.484-1.612,0.514-2.854,0.104-4.282
	c-0.104-0.412-0.481-0.894-0.988-0.979c-5.691-0.569-13.032,2.846-19.717,9.119c-1.507,1.411-2.772,2.103-4.112,2.828l-1.019,0.567
	c-7.369,4.197-23.968,14.498-32.657,20.054c0.563-9.34,2.297-22.631,4.425-33.717l-0.242-1.319
	c-0.023-0.051-0.896-1.678-0.896-1.678l-0.676-1.192l-0.196-0.053c-1.729-0.88-3.152-0.523-4.19-0.269l-1.734,0.646l-2.314,0.835
	c-0.456,0.092-0.783,0.379-0.958,0.823c-4.152,10.022-7.612,26.524-8.436,39.721c-8.29-5.274-15.954-9.066-19.712-10.899
	l-0.105-0.057l-0.447-0.101c-1.355-0.177-3.007-1.169-4.586-2.127c-0.168-0.105-3.156-2.044-3.156-2.044l-4.822-3.088
	c0.041,0.033-1.269-0.294-1.269-0.294c-2.071,0.361-6.041,3.031-7.222,4.851c-0.151,0.24-0.218,0.503-0.218,0.777
	c0,0.377,0.119,0.771,0.218,1.136l0.214,0.985l0.226,0.587c2.312,2.369,8.136,6.311,13.849,9.389l6.632,3.509l10.137,5.543
	c0,0.047,1.728,1.371,1.728,1.371l1.196,0.686c0,0,0.14,0.078,0.217,0.137c-2.703,1.809-18.444,12.317-18.444,12.317l-9.704,6.424
	c-0.914,0.628-4.746,2.346-5.588,2.683c-2.102,0.854-3.688,2.168-4.354,3.599l-0.261,0.555l0.261,0.378l0.743,0.555
	c-0.032,0,0.992,0.652,0.992,0.652l1.071,0.736c0.026,0.008,1.009,0.158,1.009,0.158c1.708,0.066,4.227-0.907,8.952-2.977
	c4.337-1.919,16.115-9.022,21.15-12.058l2.151-1.292c0.89,0.072,1.864-0.673,2.738-1.331c1.01-0.809,3.205-2.155,4.543-2.748
	c0.044-0.015,0.807-0.444,1.529-0.843c-0.003,0.229-0.007,0.574-0.007,0.574c0.22,15.413,1.104,26.606,2.788,35.239l0.019,0.147
	l0.166,0.346c0.833,1.222,1.776,4.877,2.608,8.09l1.922,6.429c0.043,0.079,0.54,0.607,0.54,0.607
	c1.096,0.737,4.438,2.022,6.661,1.758l0.557-0.067l0.354-0.782c0.189-0.962,0.252-1.9,0.252-2.938c0-1.184-0.087-2.481-0.188-4.066
	l-0.151-2.311c-0.709-10.753-1.408-26.289-1.408-36.609v-0.822c1.828,1.15,9.817,6.182,9.817,6.182
	c13.605,8.823,34.15,22.156,46.562,25.68c0.648,0.197,1.329,0.047,1.803-0.41c0.02-0.02,1.911-1.229,1.911-1.229l0.357-0.141
	c0.714-0.342,1.192-1.541,1.277-2.84c10.465-0.529,25.06-4.563,32.871-14.382c3.027-3.811,4.381-8.466,4.381-12.456
	C164.768,127.858,163.861,125.032,162.214,123.485"/>
<path fill="#776C61" d="M371.299,130.479v-8.285h34.796v-12.286h9.648v12.286h34.314v8.285h-60.532v19.298h53.418v8.378h-63.07
	v-27.676H371.299z M405.604,80.765h10.726v1.95c0.393,3.015,1.363,5.556,2.729,7.699c1.267,2.237,2.819,4.096,4.779,5.552
	c1.746,1.56,3.791,2.735,5.946,3.713c2.05,0.974,4.087,1.75,6.136,2.234c1.945,0.587,3.801,1.076,5.557,1.265
	c1.656,0.297,3.023,0.491,4,0.586v8.384c-2.446-0.099-5.168-0.491-8.195-1.167c-3.122-0.589-6.337-1.458-9.451-2.723
	c-3.211-1.18-6.242-2.639-9.162-4.589c-3.025-1.756-5.554-4.093-7.703-6.819c-2.145,2.726-4.679,4.97-7.6,6.819
	c-2.925,1.951-5.944,3.409-9.07,4.589c-3.219,1.265-6.334,2.134-9.352,2.723c-3.124,0.583-5.848,0.971-8.19,1.167v-8.384
	c0.974-0.095,2.343-0.289,4.099-0.68c1.648-0.192,3.501-0.682,5.546-1.264c1.956-0.587,4.004-1.363,6.153-2.341
	c2.049-0.875,3.986-2.146,5.84-3.707c1.752-1.459,3.217-3.313,4.582-5.457c1.274-2.144,2.145-4.68,2.631-7.601V80.765z"/>
<path fill="#776C61" d="M496.414,93.629h-7.507c1.947,2.143,3.503,4.781,4.681,7.897c1.168,3.218,1.746,7.017,1.746,11.5
	c0,4.098-0.477,7.704-1.456,10.727c-0.973,3.117-2.333,5.653-3.994,7.601c-1.757,2.142-3.712,3.705-5.946,4.681
	c-2.344,1.068-4.688,1.563-7.213,1.563c-2.534,0-4.975-0.495-7.211-1.563c-2.341-0.976-4.288-2.539-5.857-4.681
	c-1.748-1.947-3.016-4.483-3.988-7.601c-0.979-3.023-1.472-6.629-1.472-10.727c0-4.484,0.59-8.283,1.762-11.5
	c1.075-3.116,2.625-5.755,4.579-7.897h-7.508v-8.284h14.817v-7.018h9.658v7.018h14.909V93.629z M476.725,129.113
	c2.343,0,4.288-1.271,5.94-3.997c1.563-2.538,2.441-6.729,2.441-12.382c0-5.657-0.879-9.746-2.441-12.476
	c-1.652-2.538-3.598-3.896-5.94-3.896s-4.286,1.358-5.848,3.896c-1.659,2.73-2.442,6.819-2.442,12.476
	c0,5.751,0.783,9.942,2.442,12.47C472.438,127.843,474.382,129.113,476.725,129.113 M519.415,80.957h9.363v77.393h-9.363v-44.444
	h-8.086v42.01h-9.36V80.957h9.36v24.565h8.086V80.957z"/>
<path fill="#776C61" d="M538.188,145.582h34.107V129.6h9.659v15.982h33.531v8.385h-77.298V145.582z M608.173,82.906v42.11h-61.607
	v-42.11h9.556v12.19h42.498v-12.19H608.173z M598.619,103.381h-42.498v13.445h42.498V103.381z"/>
<path fill="#776C61" d="M683.19,80.957h9.735v39.873h-9.735v-11.897h-11.798c-0.58,2.144-1.549,3.901-2.92,5.461
	c-1.467,1.661-3.213,3.02-5.175,3.994c-2.136,1.072-4.377,1.853-6.911,2.343c-2.629,0.581-5.364,0.777-8.095,0.777
	c-3.319,0-6.337-0.294-9.167-1.069c-2.921-0.597-5.354-1.667-7.499-3.122c-2.147-1.369-3.896-3.022-5.08-5.169
	c-1.255-1.948-1.847-4.381-1.847-7.113c0-2.724,0.592-5.066,1.847-7.112c1.185-1.958,2.735-3.71,4.891-5.079h-8.287v-8.28h20.273
	v-7.018h9.646v7.018h20.177v8.28h-8.094c1.463,0.979,2.735,2.153,3.802,3.316c0.977,1.365,1.647,2.831,2.245,4.388h11.991V80.957z
	 M692.926,158.154h-61.199v-31.485h61.199V158.154z M648.391,113.316c1.762,0,3.502-0.188,5.16-0.582
	c1.569-0.29,3.025-0.875,4.298-1.658c1.169-0.686,2.053-1.657,2.818-2.819c0.681-1.076,1.073-2.45,1.073-4.006
	c0-1.553-0.393-2.918-1.073-4.089c-0.766-1.076-1.649-2.043-2.818-2.829c-1.272-0.684-2.729-1.269-4.298-1.655
	c-1.658-0.294-3.398-0.489-5.16-0.489c-1.95,0-3.711,0.195-5.27,0.489c-1.654,0.386-3.012,0.971-4.184,1.655
	c-1.266,0.786-2.246,1.753-2.923,2.829c-0.775,1.171-1.079,2.536-1.079,4.089c0,1.557,0.304,2.93,1.079,4.006
	c0.677,1.163,1.657,2.134,2.923,2.819c1.172,0.783,2.529,1.368,4.184,1.658C644.68,113.128,646.44,113.316,648.391,113.316
	 M683.37,135.06h-41.993v14.619h41.993V135.06z"/>
<polygon fill="#776C61" points="200.659,81.458 212.83,81.458 212.83,115.574 253.787,81.458 271.027,81.458 227.739,115.883 
	274.617,157.675 257.399,157.675 212.83,116.837 212.83,157.675 200.659,157.675 "/>
<path fill="#776C61" d="M283.097,81.613h37.47c17.82,0,27.143,5.923,27.143,18.867c0,9.213-6.432,15.541-14.978,17.249v0.319
	c12.261,1.456,18.056,9.514,18.056,18.584c0,11.366-8.333,21.206-29.026,21.206h-38.665V81.613z M295.247,113.724h24.721
	c9.179,0,15.968-3.489,15.968-11.625c0-7.073-3.348-11.805-17.37-11.805h-23.319V113.724z M295.247,149.189h23.956
	c14.879,0,18.833-5.815,18.833-13.201c0-8.759-6.062-13.599-19.469-13.599h-23.319V149.189z"/>
</svg>
