<?xml version="1.0" encoding="utf-8"?>
<!-- Generator: Adobe Illustrator 16.0.0, SVG Export Plug-In . SVG Version: 6.00 Build 0)  -->
<!DOCTYPE svg PUBLIC "-//W3C//DTD SVG 1.1//EN" "http://www.w3.org/Graphics/SVG/1.1/DTD/svg11.dtd">
<svg version="1.1" id="Layer_1" xmlns="http://www.w3.org/2000/svg" xmlns:xlink="http://www.w3.org/1999/xlink" x="0px" y="0px"
	 width="700px" height="244px" viewBox="0 0 700 244" enable-background="new 0 0 700 244" xml:space="preserve">
<g>
	<g>
		<g>
			<g>
				<g>
					<g>
						<path fill="#203E79" d="M155.527,135.398h11.583v61.25l58.901-61.25h14.964l-43.968,44.812l45.87,57.746h-14.502
							l-39.451-49.636l-21.815,22.129v27.507h-11.583L155.527,135.398L155.527,135.398z"/>
						<path fill="#203E79" d="M251.689,135.398h35.615c32.217,0,54.514,22.131,54.514,50.992v0.286
							c0,28.886-22.297,51.278-54.514,51.278h-35.615V135.398z M287.305,227.27c25.896,0,42.472-17.569,42.472-40.32v-0.271
							c0-22.703-16.576-40.586-42.472-40.586h-24.059v81.178H287.305L287.305,227.27z"/>
					</g>
					<path fill="#203E79" d="M417.831,184.92c8.108-3.501,16.312-10.398,16.312-23.721v-0.293c0-6.608-2.363-12.018-6.61-16.404
						c-5.864-5.746-15.104-9.104-26.81-9.104h-43.678v102.558h45.586c22.39,0,37.21-10.397,37.21-27.989v-0.268
						C439.841,195.634,430.017,188.611,417.831,184.92z M368.458,145.801h31.226c14.674,0,22.73,6.586,22.73,16.697v0.293
						c0,12.039-9.7,18.338-23.622,18.338h-23.067l-6.156,10.232h31.299c17.881,0,27.246,6.465,27.246,17.591v0.315
						c0,11.414-9.652,18.289-25.194,18.289h-34.46L368.458,145.801L368.458,145.801z"/>
				</g>
			</g>
		</g>
		<g>
			<path fill="#203E79" d="M621.717,176.566h23.646v16.795h10.45v-57.889h-10.45v12.596h-23.646v-9.577h-48.188v43.796
				c0,2.705,2.482,4.921,5.446,4.921h42.74L621.717,176.566L621.717,176.566z M621.717,156.273h23.646v12.092h-23.646V156.273z
				 M611.292,178.908h-27.268v-32.07h27.268V178.908z"/>
			<path fill="#203E79" d="M619.688,197.756c-20.076,0-36.389,9.703-36.389,21.621c0,11.945,16.313,21.623,36.389,21.623
				c20.078,0,36.44-9.678,36.44-21.623C656.129,207.459,639.767,197.756,619.688,197.756z M619.688,232.746
				c-14.403,0-26.107-5.982-26.107-13.369c0-7.336,11.704-13.293,26.107-13.293c14.408,0,26.159,5.957,26.159,13.293
				C645.848,226.764,634.097,232.746,619.688,232.746z"/>
			<polygon fill="#203E79" points="538.464,155.746 528.282,155.746 528.282,135.377 518.509,135.377 518.509,191.023 
				528.282,191.023 528.282,164.264 538.464,164.264 538.464,193.075 548.237,193.075 548.237,135.377 538.464,135.377 			"/>
			<path fill="#203E79" d="M511.39,197.732c-20.078,0-36.393,9.703-36.393,21.621c0,11.92,16.313,21.621,36.393,21.621
				c20.077,0,36.438-9.701,36.438-21.621C547.828,207.436,531.467,197.732,511.39,197.732z M511.39,232.697
				c-14.407,0-26.111-5.985-26.111-13.344c0-7.36,11.704-13.345,26.111-13.345c14.404,0,26.134,5.983,26.134,13.345
				C537.522,226.712,525.794,232.697,511.39,232.697z"/>
			<path fill="#203E79" d="M483.466,164.07l0.411,0.891c4.754,9.751,12.526,17.879,21.911,22.999l4.684-6.468
				c-3.188-1.98-21.741-14.744-21.768-41.895v-2.363h-10.497v2.363c-0.022,27.149-18.58,39.913-21.79,41.895l4.706,6.468
				c9.388-5.12,17.157-13.248,21.886-22.999L483.466,164.07z"/>
		</g>
	</g>
	<g>
		<g>
			<g>
				<g>
					<g>
						<path fill="#203E79" d="M155.597,57.338h5.089v27.099l26.065-27.099h6.611l-19.425,19.811l20.268,25.555h-6.417
							l-17.421-21.983l-9.681,9.796v12.187h-5.089V57.338L155.597,57.338z"/>
						<path fill="#203E79" d="M198.117,57.338h15.733c14.285,0,24.132,9.773,24.132,22.563v0.144
							c0,12.741-9.847,22.659-24.132,22.659h-15.733V57.338z M213.851,97.972c11.486,0,18.797-7.768,18.797-17.834v-0.093
							c0-10.089-7.311-17.977-18.797-17.977h-10.619v35.904H213.851z"/>
					</g>
					<path fill="#203E79" d="M271.622,79.222c3.57-1.543,7.211-4.559,7.211-10.472v-0.146c0-2.916-1.034-5.305-2.941-7.234
						c-2.582-2.539-6.685-4.031-11.851-4.031h-19.329v45.366h20.149c9.942,0,16.509-4.585,16.509-12.356v-0.144
						C281.37,83.978,277.002,80.864,271.622,79.222z M249.781,61.946h13.826c6.468,0,10.041,2.896,10.041,7.384v0.121
						c0,5.308-4.298,8.106-10.45,8.106h-10.229l-2.702,4.513h13.822c7.919,0,12.064,2.87,12.064,7.792v0.146
						c0,5.046-4.267,8.109-11.146,8.109H249.78V61.946H249.781z"/>
				</g>
				<g>
					<polygon fill="#203E79" points="472.173,57.313 472.173,66.313 467.661,66.313 467.661,57.313 463.318,57.313 463.318,81.949 
						467.661,81.949 467.661,70.054 472.173,70.054 472.173,82.843 476.471,82.843 476.471,57.313 					"/>
					<path fill="#203E79" d="M460.185,84.893c-8.906,0-16.121,4.296-16.121,9.579c0,5.262,7.215,9.557,16.121,9.557
						c8.9,0,16.114-4.295,16.114-9.557C476.299,89.189,469.085,84.893,460.185,84.893z M460.185,100.387
						c-6.374,0-11.56-2.677-11.56-5.916c0-3.256,5.186-5.884,11.56-5.884c6.366,0,11.553,2.628,11.553,5.884
						C471.736,97.71,466.551,100.387,460.185,100.387z"/>
					<path fill="#203E79" d="M458.781,71.937c0-2.606-1.136-5.046-3.159-6.852l-0.389-0.364h4.225v-3.645h-8.638v-4.319h-4.637
						v4.319h-8.807v3.645h4.461l-0.431,0.364c-2.026,1.806-3.114,4.246-3.114,6.852c0,5.238,4.585,9.506,10.235,9.506
						C454.171,81.442,458.781,77.174,458.781,71.937z M442.611,71.72c0-3.452,2.656-6.252,5.918-6.252
						c3.252,0,5.909,2.8,5.909,6.252c0,3.474-2.657,6.274-5.909,6.274C445.269,77.994,442.611,75.193,442.611,71.72z"/>
					<path fill="#203E79" d="M373.962,89.77h-21.381v-5.167h-4.709v15.909c0,1.178,1.136,2.192,2.44,2.192h28.256V84.603h-4.606
						V89.77L373.962,89.77z M373.889,98.964h-21.308v-5.527h21.308V98.964z"/>
					<path fill="#203E79" d="M373.962,66.361h-9.41c-0.991-5.164-5.893-9.122-11.776-9.122c-6.588,0-11.971,4.95-11.971,11.054
						c0,6.128,5.383,11.075,11.971,11.075c5.933,0,10.885-4.028,11.8-9.266h9.388v11.244h4.607V57.313h-4.607L373.962,66.361
						L373.962,66.361z M352.775,75.748c-3.985,0-7.24-3.329-7.24-7.455c0-4.082,3.255-7.434,7.24-7.434
						c3.979,0,7.213,3.352,7.213,7.434C359.989,72.419,356.755,75.748,352.775,75.748z"/>
					<polygon fill="#203E79" points="328.52,57.313 323.89,57.313 323.89,90.204 328.52,90.204 328.52,72.613 335.354,72.613 
						335.354,68.871 328.52,68.871 					"/>
					<path fill="#203E79" d="M303.232,70.826l0.169-0.389l0.221,0.389c2.263,4.463,6.27,8.277,11.244,10.715l2.142-2.875
						c-2.675-1.543-6.293-4.246-8.733-8.491c-2.703-4.925-2.485-10.836-2.485-10.884v-1.184h-4.729v1.184
						c0,0.048,0.218,5.959-2.511,10.906c-2.412,4.223-6.03,6.925-8.711,8.468l2.15,2.875
						C296.957,79.104,300.967,75.289,303.232,70.826z"/>
					<path fill="#203E79" d="M302.869,87.19h-4.607v13.321c0,1.201,1.107,2.192,2.412,2.192h28.306v-3.717h-26.11L302.869,87.19
						L302.869,87.19z"/>
					<g>
						<path fill="#203E79" d="M399.514,88.492h-4.633v12.019c0,1.201,1.113,2.192,2.418,2.192h29.655v-3.717h-27.44V88.492z"/>
						<rect x="389.718" y="80.89" fill="#203E79" width="41.313" height="3.693"/>
						<path fill="#203E79" d="M410.35,76.546c9.05,0,16.436-4.584,16.436-10.232c0-5.624-7.386-10.208-16.436-10.208
							c-9.022,0-16.41,4.583-16.41,10.208C393.939,71.962,401.326,76.546,410.35,76.546z M410.35,59.796
							c6.563,0,11.848,2.921,11.848,6.517c0,3.62-5.283,6.564-11.848,6.564c-6.516,0-11.822-2.945-11.822-6.564
							C398.527,62.717,403.834,59.796,410.35,59.796z"/>
					</g>
				</g>
			</g>
		</g>
		<g>
			<g>
				<g>
					
						<radialGradient id="SVGID_1_" cx="1676.4043" cy="11203.4492" r="149.4269" gradientTransform="matrix(0 -0.417 0.46 0 -5112.231 750.1618)" gradientUnits="userSpaceOnUse">
						<stop  offset="0" style="stop-color:#CFE0EB"/>
						<stop  offset="0.0634" style="stop-color:#C7DDEB"/>
						<stop  offset="0.161" style="stop-color:#B1D4EC"/>
						<stop  offset="0.25" style="stop-color:#98C9EC"/>
						<stop  offset="0.3681" style="stop-color:#86B7E0"/>
						<stop  offset="0.6049" style="stop-color:#568AC0"/>
						<stop  offset="0.7" style="stop-color:#4176B2"/>
						<stop  offset="0.8268" style="stop-color:#2F6CAB"/>
						<stop  offset="1" style="stop-color:#0F5A9F"/>
					</radialGradient>
					<path fill="url(#SVGID_1_)" d="M57.31,30.505c-1.854,3.688,0.073,11.316,2.412,15.008l32.363,50.794H68.433
						c-3.734,0-7.38-2.097-9.001-4.609L41.793,63.974c-1.614-2.557-1.566-6.662,0.025-9.173L57.31,30.505z"/>
					
						<radialGradient id="SVGID_2_" cx="6312.4395" cy="-2418.7227" r="98.0423" gradientTransform="matrix(0.4492 0 0 -0.4492 -2743.687 -1064.4406)" gradientUnits="userSpaceOnUse">
						<stop  offset="0" style="stop-color:#CFE0EB"/>
						<stop  offset="0.0634" style="stop-color:#C7DDEB"/>
						<stop  offset="0.161" style="stop-color:#B1D4EC"/>
						<stop  offset="0.25" style="stop-color:#98C9EC"/>
						<stop  offset="0.3681" style="stop-color:#86B7E0"/>
						<stop  offset="0.6049" style="stop-color:#568AC0"/>
						<stop  offset="0.7" style="stop-color:#4176B2"/>
						<stop  offset="0.8268" style="stop-color:#2F6CAB"/>
						<stop  offset="1" style="stop-color:#0F5A9F"/>
					</radialGradient>
					<path fill="url(#SVGID_2_)" d="M70.992,55.525c-0.868,1.353-1.666,4.562-0.361,7.144L59.722,45.513
						c-2.339-3.691-4.267-11.32-2.412-15.008l1.956-3.044c1.761-2.8,4.996-4.583,9.119-4.583h23.289L70.992,55.525z"/>
				</g>
				<g>
					
						<radialGradient id="SVGID_3_" cx="1266.3584" cy="11081.7441" r="149.4345" gradientTransform="matrix(0 0.417 -0.46 0 5241.6333 -477.5285)" gradientUnits="userSpaceOnUse">
						<stop  offset="0" style="stop-color:#CFE0EB"/>
						<stop  offset="0.0634" style="stop-color:#C7DDEB"/>
						<stop  offset="0.161" style="stop-color:#B1D4EC"/>
						<stop  offset="0.25" style="stop-color:#98C9EC"/>
						<stop  offset="0.3681" style="stop-color:#86B7E0"/>
						<stop  offset="0.6049" style="stop-color:#568AC0"/>
						<stop  offset="0.7" style="stop-color:#4176B2"/>
						<stop  offset="0.8268" style="stop-color:#2F6CAB"/>
						<stop  offset="1" style="stop-color:#0F5A9F"/>
					</radialGradient>
					<path fill="url(#SVGID_3_)" d="M128.042,71.14c1.879-3.69-0.025-11.318-2.365-15.034L93.314,5.335h23.625
						c3.765,0,7.386,2.098,9.001,4.583l17.639,27.725c1.646,2.61,1.572,6.711-0.022,9.171L128.042,71.14z"/>
					
						<radialGradient id="SVGID_4_" cx="6187.7803" cy="-2799.3271" r="98.1476" gradientTransform="matrix(-0.4492 0 0 0.4492 2873.0903 1337.0734)" gradientUnits="userSpaceOnUse">
						<stop  offset="0" style="stop-color:#CFE0EB"/>
						<stop  offset="0.0634" style="stop-color:#C7DDEB"/>
						<stop  offset="0.161" style="stop-color:#B1D4EC"/>
						<stop  offset="0.25" style="stop-color:#98C9EC"/>
						<stop  offset="0.3681" style="stop-color:#86B7E0"/>
						<stop  offset="0.6049" style="stop-color:#568AC0"/>
						<stop  offset="0.7" style="stop-color:#4176B2"/>
						<stop  offset="0.8268" style="stop-color:#2F6CAB"/>
						<stop  offset="1" style="stop-color:#0F5A9F"/>
					</radialGradient>
					<path fill="url(#SVGID_4_)" d="M114.379,46.116c0.871-1.378,1.666-4.561,0.364-7.167l10.934,17.158
						c2.339,3.716,4.244,11.343,2.365,15.034l-1.908,3.017c-1.787,2.823-5.044,4.631-9.17,4.631H93.726L114.379,46.116z"/>
				</g>
			</g>
		</g>
		<g>
			<g>
				<g>
					<path fill="#203E79" d="M553.377,75.267l0.073-0.099h0.07h11.513h0.214v0.194V80.6h4.636V57.313h-4.636v5.021v0.191h-0.214
						h-10.643h-0.102l-0.045-0.093c-2.218-3.261-6.033-5.192-10.156-5.192c-6.592,0-11.972,4.95-11.972,11.054
						c0,6.105,5.38,11.05,11.972,11.05C547.682,79.343,551.108,77.848,553.377,75.267z M555.595,71.312
						c0.288-1.015,0.46-2.029,0.46-3.019c0-0.582-0.051-1.208-0.193-1.906l-0.048-0.22h0.265h8.956h0.214v0.194v4.995v0.217h-0.214
						h-9.221h-0.288L555.595,71.312z M536.871,68.293c0-4.102,3.258-7.434,7.218-7.434c3.978,0,7.214,3.333,7.214,7.434
						s-3.236,7.43-7.214,7.43C540.129,75.723,536.871,72.394,536.871,68.293z"/>
					<path fill="#203E79" d="M543.508,98.964v-3.959h26.375v-8.928c0-1.206-1.109-2.221-2.439-2.221h-28.615v3.717h26.375v3.814
						H538.85v9.05c0,1.178,1.107,2.193,2.391,2.193h29.464v-3.667L543.508,98.964L543.508,98.964z"/>
				</g>
				<rect x="519.256" y="57.313" fill="#203E79" width="4.343" height="45.318"/>
				<path fill="#203E79" d="M510.424,65.614v0.242h-0.193h-5.284h-0.221v-0.242c0.025-0.438,0.025-0.797,0.025-1.063V62.45
					c-0.048-1.928-0.941-2.821-2.938-2.821h-15.256v3.809h13.372h0.169v0.22v1.93c-0.099,9.579-5.146,16.868-14.94,21.717
					l1.956,2.727c4.899-1.856,9.074-4.871,12.16-8.733l0.072-0.048h0.1h10.785h0.193v0.191v21.188h4.317V57.313h-4.317V65.614z
					 M510.424,69.834v7.436v0.214h-0.193h-8.083h-0.335l0.165-0.335c1.061-2.173,1.854-4.682,2.316-7.362l0.022-0.169h0.19h5.723
					h0.193L510.424,69.834L510.424,69.834z"/>
			</g>
		</g>
	</g>
</g>
</svg>
