<?xml version="1.0" encoding="utf-8"?>
<!-- Generator: Adobe Illustrator 16.0.0, SVG Export Plug-In . SVG Version: 6.00 Build 0)  -->
<!DOCTYPE svg PUBLIC "-//W3C//DTD SVG 1.1//EN" "http://www.w3.org/Graphics/SVG/1.1/DTD/svg11.dtd">
<svg version="1.1" id="Layer_1" xmlns="http://www.w3.org/2000/svg" xmlns:xlink="http://www.w3.org/1999/xlink" x="0px" y="0px"
	 width="700px" height="244px" viewBox="0 0 700 244" enable-background="new 0 0 700 244" xml:space="preserve">
<g>
	<g>
		<linearGradient id="SVGID_1_" gradientUnits="userSpaceOnUse" x1="60.3491" y1="213.3809" x2="40.6685" y2="101.7663">
			<stop  offset="0.15" style="stop-color:#55C2F0"/>
			<stop  offset="0.3042" style="stop-color:#50BCEC"/>
			<stop  offset="0.506" style="stop-color:#40ACE2"/>
			<stop  offset="0.7343" style="stop-color:#2691D0"/>
			<stop  offset="0.9803" style="stop-color:#036BB8"/>
			<stop  offset="1" style="stop-color:#0068B6"/>
		</linearGradient>
		<path fill="url(#SVGID_1_)" d="M73.236,179.064c-14.596,0-26.431-11.843-26.431-26.44c0-6.917,2.665-13.232,7.019-17.934
			c-4.562-8.382-7.141-17.956-7.141-28.156c0-1.564,0.064-3.135,0.185-4.667c-21.948,7.981-37.622,29.036-37.622,53.753
			c0,31.56,25.6,57.163,57.176,57.163c10.105,0,19.611-2.642,27.85-7.229v-36.914C89.438,174.969,81.818,179.064,73.236,179.064z"/>
		<linearGradient id="SVGID_2_" gradientUnits="userSpaceOnUse" x1="42.8228" y1="106.3828" x2="153.5179" y2="66.0931">
			<stop  offset="0.15" style="stop-color:#55C2F0"/>
			<stop  offset="0.3042" style="stop-color:#50BCEC"/>
			<stop  offset="0.506" style="stop-color:#40ACE2"/>
			<stop  offset="0.7343" style="stop-color:#2691D0"/>
			<stop  offset="0.9803" style="stop-color:#036BB8"/>
			<stop  offset="1" style="stop-color:#0068B6"/>
		</linearGradient>
		<path fill="url(#SVGID_2_)" d="M73.236,126.181c2.98,0,5.854,0.503,8.533,1.418c-2.968-4.514-4.71-9.906-4.71-15.693
			c0-15.742,12.766-28.505,28.518-28.505c11.486,0,21.377,6.797,25.885,16.578c4.262-1.014,8.696-1.537,13.256-1.537
			c6.87,0,13.452,1.2,19.549,3.427c-2.392-30.328-27.759-54.212-58.695-54.212c-32.523,0-58.889,26.361-58.889,58.878
			c0,10.201,2.58,19.774,7.141,28.156C58.656,129.453,65.563,126.181,73.236,126.181z"/>
		<linearGradient id="SVGID_3_" gradientUnits="userSpaceOnUse" x1="170.1514" y1="103.5664" x2="150.5369" y2="214.8058">
			<stop  offset="0.15" style="stop-color:#55C2F0"/>
			<stop  offset="0.3042" style="stop-color:#50BCEC"/>
			<stop  offset="0.506" style="stop-color:#40ACE2"/>
			<stop  offset="0.7343" style="stop-color:#2691D0"/>
			<stop  offset="0.9803" style="stop-color:#036BB8"/>
			<stop  offset="1" style="stop-color:#0068B6"/>
		</linearGradient>
		<path fill="url(#SVGID_3_)" d="M144.717,98.441c-4.56,0-8.994,0.523-13.256,1.537c1.674,3.631,2.615,7.666,2.615,11.928
			c0,5.787-1.734,11.18-4.709,15.673c2.679-0.895,5.533-1.397,8.524-1.397c14.601,0,26.444,11.832,26.444,26.443
			c0,14.598-11.843,26.44-26.444,26.44c-8.572,0-16.197-4.077-21.026-10.414v36.904c8.244,4.588,17.741,7.229,27.852,7.229
			c31.569,0,57.174-25.604,57.174-57.163C201.892,124.032,176.286,98.441,144.717,98.441z"/>
	</g>
	<g>
		<g>
			<g>
				<g>
					<g>
						<g>
							<path fill="#00336D" d="M347.958,149.643h16.612v9.343c-5.025,4.655-11.631,6.825-18.236,6.825
								c-12.807,0-22.777-8.166-22.777-25.043c0-13.084,6.283-24.997,22.824-24.997c8.324,0,15.316,3.354,17.734,12.576h12.17
								c-1.319-13.541-12.116-24-29.178-24c-22.115,0-36.648,13.679-36.648,36.967c0,23.646,16.197,36.34,36.631,36.34
								c9.559,0,21.434-4.17,29.848-13.757v-25.66h-28.979V149.643z"/>
							<polygon fill="#00336D" points="267.514,158.309 248.097,105.527 232.049,105.527 232.049,176.462 244.286,176.462 
								244.286,128.347 261.768,175.622 273.261,175.622 290.736,128.347 290.736,176.462 302.984,176.462 302.984,105.527 
								286.937,105.527 							"/>
						</g>
					</g>
				</g>
			</g>
		</g>
		<g>
			<g>
				<polygon fill="#00336D" points="465.789,143.529 434.377,143.529 434.377,134.25 422.889,134.25 422.889,143.529 
					391.471,143.529 391.471,151.132 465.789,151.132 				"/>
				<path fill="#00336D" d="M428.633,122.841c5.234,9.116,18.162,12.583,31.245,13.098v-7.609
					c-15.618-0.837-25.43-10.297-25.43-19.838v-4.642h-11.637v4.642c0,9.541-9.808,19.001-25.423,19.838v7.609
					C410.473,135.424,423.386,131.957,428.633,122.841z"/>
				<path fill="#00336D" d="M399.91,155.348v16.055c0,3.709,3.053,6.744,6.771,6.744h51.502v-7.595h-46.867v-15.204H399.91z"/>
			</g>
			<g>
				<polygon fill="#00336D" points="541.07,103.839 530.179,103.839 530.179,127.904 524.105,127.904 524.105,103.839 
					513.198,103.839 513.198,178.146 524.105,178.146 524.105,135.924 530.179,135.924 530.179,178.146 541.07,178.146 				"/>
				<path fill="#00336D" d="M471.816,137.619c0,13.502,7.021,23.643,17.739,23.643c10.729,0,17.735-10.141,17.735-23.643
					c0-7.219-2-13.48-5.5-17.735h8.035v-7.603h-14.268v-9.279H483.56v9.279h-14.271v7.603h8.034
					C473.816,124.139,471.816,130.4,471.816,137.619z M489.556,121.571c4.216,0,6.758,6.758,6.758,16.048
					c0,9.297-2.542,16.041-6.758,16.041c-4.227,0-6.747-6.744-6.747-16.041C482.809,128.329,485.329,121.571,489.556,121.571z"/>
			</g>
			<path fill="#00336D" d="M622.522,162.099h-31.425V148.59h22.973v-41.372h-11.393v12.666h-34.627v-12.666h-11.407v34.627
				c0,3.716,3.046,6.744,6.759,6.744h16.221v13.509h-31.422v7.605h74.321V162.099z M568.051,140.994v-13.516h34.627v13.516H568.051z
				"/>
			<g>
				<path fill="#00336D" d="M636.663,149.437v21.966c0,3.72,3.042,6.744,6.751,6.744h48.987v-24.905
					c0-2.109-1.694-3.805-3.802-3.805H636.663z M680.994,170.552h-32.925v-13.51h32.925V170.552z"/>
				<path fill="#00336D" d="M692.401,103.839h-11.407v19.002h-11.275c-0.886-2.546-2.488-4.674-4.719-6.336h8.822v-7.595h-18.491
					v-6.754H643.34v6.754h-18.506v7.595h8.84c-3.485,2.592-5.442,6.315-5.442,10.974c0,9.634,8.354,16.898,21.107,16.898
					c11.208,0,19.022-5.62,20.753-13.516h10.902v15.203h11.407V103.839z M649.339,136.775c-5.751,0-9.297-3.887-9.297-9.297
					c0-5.396,3.546-9.29,9.297-9.29c5.743,0,9.282,3.894,9.282,9.29C658.621,132.889,655.082,136.775,649.339,136.775z"/>
			</g>
		</g>
	</g>
</g>
</svg>
