<?xml version="1.0" encoding="utf-8"?>
<!-- Generator: Adobe Illustrator 16.0.0, SVG Export Plug-In . SVG Version: 6.00 Build 0)  -->
<!DOCTYPE svg PUBLIC "-//W3C//DTD SVG 1.1//EN" "http://www.w3.org/Graphics/SVG/1.1/DTD/svg11.dtd">
<svg version="1.1" id="Layer_1" xmlns="http://www.w3.org/2000/svg" xmlns:xlink="http://www.w3.org/1999/xlink" x="0px" y="0px"
	 width="700px" height="244px" viewBox="0 0 700 244" enable-background="new 0 0 700 244" xml:space="preserve">
<g>
	<g>
		<g>
			<g>
				<polygon fill="#F8BA00" points="69.018,79.28 49.333,89.163 29.664,79.28 49.333,116.689 				"/>
				<path fill="#F8BA00" d="M75.896,108.193l-0.3-0.263l14.045-5.901V82.291L65.245,92.693c0,0-13.218,25.031-13.509,25.607
					c10.351,1.23,18.118,9.917,18.118,20.364c0,11.32-9.195,20.534-20.521,20.534c-11.313,0-20.515-9.214-20.515-20.534
					c0-10.447,7.765-19.129,18.116-20.364c-0.297-0.576-13.497-25.607-13.497-25.607L9.063,82.291v19.738l14.025,5.901l-0.302,0.263
					c-8.795,7.702-13.84,18.795-13.84,30.471c0,22.277,18.109,40.413,40.387,40.413c22.284,0,40.403-18.136,40.403-40.413
					C89.735,127.005,84.69,115.896,75.896,108.193z"/>
			</g>
		</g>
	</g>
	<g>
		<path fill="#0051A0" d="M531.614,115.082c8.304,9.449,21.488,14.074,21.488,14.074l3.909-6.598
			c-14.454-6.32-18.788-18.267-18.788-22.533v-5.551c-0.06-0.799-0.386-1.498-0.93-2.094c-0.571-0.603-1.279-0.896-2.152-0.896
			h-10.137v8.542c0,4.267-4.331,16.213-18.788,22.533l3.916,6.598C510.133,129.155,523.311,124.53,531.614,115.082z"/>
		<path fill="#0051A0" d="M578.255,140.947c2.515,2.52,4.191,5.497,4.288,9.064c0.435,15.82-18.799,15.618-23.891,15.618
			s-24.182-1.389-24.022-15.269c0.159-14.057,17.038-13.987,27.032-13.987h20.213h3.876h9.349V93.688
			c-0.066-0.799-0.378-1.491-0.936-2.087c-0.555-0.595-1.272-0.897-2.136-0.897h-10.153v15.022h-6.258V93.688
			c-0.063-0.799-0.371-1.491-0.936-2.087c-0.568-0.595-1.279-0.897-2.137-0.897h-10.152v41.057h-10.014
			c-16.364,0-30.748,3.563-31.008,18.685c-0.269,15.303,19.021,20.839,37.7,20.839c18.662,0,37.095-4.848,37.095-21.728
			c0-3.159-0.999-5.938-2.544-8.609H578.255z M575.617,111.498h6.258v20.263h-6.258V111.498z"/>
		<path fill="#0051A0" d="M690.975,140.947h-15.373c2.514,2.52,4.188,5.497,4.287,9.064c0.436,15.82-18.788,15.618-23.88,15.618
			c-5.099,0-24.183-1.389-24.026-15.269c0.17-14.057,17.039-13.987,27.02-13.987h20.226h3.883h9.35V93.688
			c-0.063-0.799-0.379-1.491-0.953-2.087c-0.552-0.595-1.259-0.897-2.116-0.897h-10.163v9.188h-17.34v-5.322
			c0-0.804-0.313-1.491-0.917-2.091c-0.594-0.606-1.315-0.928-2.172-0.996h-48.577v29.212c0.063,1.726,0.654,3.16,1.79,4.278
			c1.13,1.129,2.555,1.722,4.281,1.793h45.595v-8.167c0.681,0,1.354,0,1.87,0c1.823,0,3.932,0,6.316,0s4.484,0,6.271,0
			c1.794,0,2.75,0,2.883,0v13.162h-29.499c-16.354,0-30.742,3.563-31.001,18.685c-0.263,15.303,19.034,20.839,37.683,20.839
			c18.673,0,37.112-4.848,37.112-21.728C693.522,146.397,692.529,143.618,690.975,140.947z M648.636,121.092h-22.894
			c-0.725,0-1.295-0.175-1.693-0.554c-0.396-0.349-0.602-0.903-0.602-1.637V97.16h25.188V121.092z M661.888,112.823v-7.164h17.34
			v7.164H661.888z"/>
		<path fill="#0051A0" d="M401.137,130.338h-34.955v-10.815h33.272c0.578,0,1.017-0.445,1.095-1.109
			c0.048-0.341,0.261-2.098-0.014-3.544c-0.109-0.596-0.533-0.963-1.11-0.963h-63.033c-1.767,0-3.223-1.401-3.223-3.092V95.425
			c0-1.724-1.45-3.094-3.227-3.094h-9.901v21.381c0,3.191,2.739,5.811,6.131,5.811h26.873v10.815h-38.557l3.727,5.645h11.495
			c-5.068,3.451-8.071,8.271-8.071,14.484c0,14.813,17.049,21.557,38.068,21.557c21.027,0,38.087-6.744,38.087-21.557
			c0-3.937-1.208-7.313-3.374-10.105h-15.864c3.862,2.449,6.181,6.023,6.181,10.776c0,10.389-11.191,15.138-25.029,15.138
			c-13.83,0-25.029-4.749-25.029-15.138c0-10.401,11.045-15.129,25.029-15.129l-0.188-0.026h41.631c0.555,0,1.001-0.453,1.084-1.143
			c0.033-0.329,0.27-2.064-0.014-3.514C402.095,130.713,401.691,130.338,401.137,130.338z"/>
		<path fill="#0051A0" d="M492.865,90.88h-10.22v14.907h-31.824c0.685,0.767,1.288,1.614,1.786,2.544
			c1.127,2.004,1.808,4.353,1.808,6.824c0,7.652-5.514,13.843-13.644,13.843c-8.156,0-13.649-6.191-13.649-13.843
			c0-7.573,5.843-13.755,13.477-13.841h29.386c0.565,0,1.007-0.46,1.08-1.139c0.06-0.331,0.275-2.152-0.007-3.637
			c-0.133-0.614-0.534-0.971-1.103-0.971h-22.438v-3.095c0-1.721-1.472-3.146-3.314-3.146h-10.184c0,0.51,0,6.241,0,6.241h-25.535
			c0.522,0.741,3.657,5.538,3.801,5.748h9.636c-4.93,3.532-7.972,8.433-7.972,13.841c0,10.755,10.803,19.426,26.823,19.426
			c10.773,0,18.686-3.923,23.302-9.798h18.572v21.073h-49.344v-5.875c0-1.772-1.486-3.165-3.318-3.165h-10.156v26.248
			c0,3.272,2.841,5.961,6.294,5.961h70.062V94.053C496.183,92.281,494.679,90.88,492.865,90.88z M482.646,163.27h-47.537
			c-1.003,0-1.807-0.78-1.807-1.775v-9.874h49.344V163.27z M482.646,119.027H467.02c0.345-1.239,0.541-2.556,0.541-3.873
			c0-1.221-0.16-2.412-0.445-3.6h15.53V119.027z"/>
		<path fill="#0051A0" d="M296.043,92.839h-11.799v30.439c-7.642,0-40.745,0-48.198,0V92.839h-11.791
			c-2.783,0-5.068,2.684-5.068,6.003v64.355c0,3.299,2.272,6.01,5.068,6.01h11.791v-32.689c7.453,0,40.556,0,48.198,0v32.689h11.799
			c2.798,0,5.067-2.711,5.067-6.01V98.842C301.11,95.522,298.865,92.839,296.043,92.839z"/>
		<path fill="#0051A0" d="M199.52,92.839h-11.797v58.475l-35.451-46.707c-5.899-6.82-9.935-11.768-19.366-11.768h-12.011v70.358
			c0,3.299,2.258,6.01,5.093,6.01h11.783v-58.753l35.67,46.393c6.035,6.989,11.392,12.36,20.124,12.36h11.02V98.842
			C204.584,95.522,202.322,92.839,199.52,92.839z"/>
	</g>
</g>
</svg>
