<?xml version="1.0" encoding="utf-8"?>
<!-- Generator: Adobe Illustrator 16.0.0, SVG Export Plug-In . SVG Version: 6.00 Build 0)  -->
<!DOCTYPE svg PUBLIC "-//W3C//DTD SVG 1.1//EN" "http://www.w3.org/Graphics/SVG/1.1/DTD/svg11.dtd">
<svg version="1.1" id="Layer_1" xmlns="http://www.w3.org/2000/svg" xmlns:xlink="http://www.w3.org/1999/xlink" x="0px" y="0px"
	 width="700px" height="244px" viewBox="0 0 700 244" enable-background="new 0 0 700 244" xml:space="preserve">
<g>
	<g>
		<g>
			<g>
				<g>
					<polygon fill="#FFB819" points="62.422,91.98 47.377,99.537 32.342,91.98 47.377,120.575 					"/>
					<path fill="#FFB819" d="M67.684,114.085l-0.231-0.2l10.732-4.516V94.285l-18.647,7.946c0,0-10.098,19.135-10.33,19.573
						c7.912,0.948,13.851,7.583,13.851,15.569c0,8.652-7.034,15.7-15.681,15.7c-8.652,0-15.687-7.048-15.687-15.7
						c0-7.986,5.935-14.621,13.845-15.569c-0.229-0.438-10.317-19.573-10.317-19.573l-18.626-7.946v15.085l10.724,4.516l-0.23,0.2
						C20.36,119.963,16.5,128.453,16.5,137.373c0,17.033,13.85,30.893,30.877,30.893s30.883-13.859,30.883-30.893
						C78.26,128.462,74.405,119.972,67.684,114.085z"/>
				</g>
			</g>
		</g>
	</g>
	<g>
		<g>
			<g>
				<g>
					<path fill="#0055B8" d="M426.78,125.273h7.761c1.24,0,2.328,1.085,2.328,2.324v6.524h27.472c0.698,0,0.856,0.85,0.856,2.171
						c0,1.317-0.158,2.17-0.856,2.17h-64.647l-2.794-4.341h29.881V125.273z M465.197,122.477l-2.558,3.96
						c-13.9,0-25.691-3.649-30.818-10.558c-5.119,6.908-16.912,10.558-30.807,10.558l-2.567-3.96
						c18.088,0,28.022-8.075,28.022-17.307v-3.182h8.38c1.242,0,2.328,1.084,2.328,2.327v0.855
						C437.178,114.402,447.114,122.477,465.197,122.477z M462.014,160.972H406.99c-2.56,0-4.658-2.095-4.658-4.656v-13.97h7.761
						c1.243,0,2.334,1.088,2.334,2.327v9.623c0,1.239,1.082,2.334,2.322,2.334h47.265c0.704,0,0.855,0.85,0.855,2.168
						S462.718,160.972,462.014,160.972z"/>
					<path fill="#0055B8" d="M502.794,114.332c2.981,4.449,4.44,10.736,4.44,17.922c0,14.13-5.663,24.838-17.384,24.838
						s-17.384-10.708-17.384-24.838c0-9.232,2.406-16.996,7.371-21.265h-6.908l-2.791-4.345h14.2v-6.6h8.072
						c1.242,0,2.324,1.091,2.324,2.334v4.266h12.577c0.695,0,0.854,0.852,0.854,2.171c0,1.321-0.158,2.174-0.854,2.174h-7.452
						h-10.01c-5.436,0-7.683,9.547-7.683,21.265c0,11.724,2.247,20.491,7.683,20.491c5.429,0,7.683-8.768,7.683-20.491
						c0-7.514-0.924-14.133-3.021-17.917L502.794,114.332z M520.971,124.493v36.479h-9.701v-58.983h7.374
						c1.239,0,2.327,1.084,2.327,2.327v15.522h5.436v-17.849h7.365c1.246,0,2.334,1.084,2.334,2.327v56.657h-9.699v-36.479H520.971z
						"/>
				</g>
			</g>
		</g>
		<path fill="#0055B8" d="M299.041,138.669c2.945,1.876,4.716,4.604,4.716,8.24c0,7.945-8.554,11.574-19.129,11.574
			c-10.571,0-19.124-3.629-19.124-11.574c0-7.946,8.434-11.564,19.124-11.564l-0.139-0.018h31.818c0.429,0,0.768-0.353,0.826-0.874
			c0.033-0.249,0.205-1.582-0.01-2.695c-0.095-0.46-0.396-0.749-0.823-0.749h-26.716v-8.263h25.425c0.446,0,0.781-0.348,0.843-0.852
			c0.035-0.253,0.198-1.602-0.015-2.712c-0.085-0.452-0.407-0.732-0.847-0.732h-48.182c-1.349,0-2.465-1.071-2.465-2.364v-11.763
			c0-1.318-1.108-2.366-2.467-2.366h-7.564v16.345c0,2.438,2.089,4.445,4.678,4.445h20.554v8.263h-29.489l2.857,4.318h8.79
			c-3.866,2.635-6.174,6.323-6.174,11.068c0,11.322,13.038,16.48,29.102,16.48c16.072,0,29.113-5.158,29.113-16.48
			c0-3.01-0.915-5.587-2.58-7.727H299.041z"/>
		<path fill="#0055B8" d="M354.271,112.245c0.527,0.586,0.988,1.229,1.375,1.941c0.863,1.532,1.385,3.33,1.385,5.217
			c0,5.851-4.227,10.584-10.438,10.584c-6.232,0-10.434-4.733-10.434-10.584c0-5.786,4.471-10.515,10.305-10.574h22.457
			c0.429,0,0.777-0.358,0.836-0.875c0.036-0.256,0.211-1.642-0.009-2.777c-0.095-0.473-0.412-0.75-0.85-0.75h-17.146v-2.363
			c0-1.32-1.13-2.397-2.541-2.397h-7.777c0,0.386,0,4.76,0,4.76h-19.526c0.405,0.574,2.799,4.235,2.915,4.403h7.358
			c-3.769,2.695-6.093,6.439-6.093,10.574c0,8.218,8.259,14.851,20.504,14.851c8.24,0,14.278-2.999,17.81-7.491h14.203v16.11
			h-37.723v-4.488c0-1.357-1.133-2.426-2.541-2.426h-7.75v20.067c0,2.499,2.168,4.556,4.805,4.556h53.559v-57.313
			c0-1.345-1.155-2.421-2.542-2.421h-7.808v11.397H354.271z M378.604,156.179h-36.338c-0.766,0-1.385-0.593-1.385-1.349v-7.554
			h37.723V156.179z M378.604,122.359h-11.939c0.267-0.942,0.403-1.952,0.403-2.956c0-0.928-0.123-1.84-0.345-2.749h11.881V122.359z"
			/>
		<path fill="#0055B8" d="M586.814,138.028v15.196h27.473c0.701,0,0.853,0.855,0.853,2.174s-0.151,2.171-0.853,2.171h-64.633
			l-2.795-4.345h29.864v-15.196H556.95c-2.561,0-4.656-2.095-4.656-4.654V100.78h7.758c1.243,0,2.329,1.085,2.329,2.328v10.786
			h38.794V100.78h7.758c1.242,0,2.328,1.085,2.328,2.328v34.92H586.814z M562.381,131.354c0,1.247,1.085,2.33,2.321,2.33h36.473
			v-15.443h-38.794V131.354z"/>
		<path fill="#0055B8" d="M674.846,156.095h-35.384c-0.743,0-1.349-0.572-1.349-1.313v-13.549h36.732V156.095z M674.846,136.988
			l-46.752-0.017v18.971c0,2.435,2.112,4.442,4.682,4.442h52.143v-57.494c0-1.313-1.119-2.359-2.478-2.359h-7.595v11.102h-23.697
			c0.518,0.566,0.962,1.189,1.338,1.885c0.841,1.489,1.35,3.239,1.35,5.077c0,5.7-4.115,10.301-10.159,10.301
			c-6.069,0-10.164-4.602-10.164-10.301c0-5.632,4.355-10.229,10.032-10.293h21.865c0.421,0,0.754-0.352,0.816-0.85
			c0.034-0.254,0.211-1.602-0.012-2.705c-0.089-0.457-0.397-0.732-0.821-0.732h-16.696v-2.303c0-1.286-1.1-2.333-2.474-2.333h-7.576
			c0,0.377,0,4.636,0,4.636h-19.001c0.388,0.558,2.718,4.125,2.833,4.287h7.163c-3.669,2.625-5.93,6.271-5.93,10.293
			c0,8.01,8.032,14.464,19.964,14.464c8.016,0,13.901-2.918,17.339-7.296c1.874-2.313,2.201-4.288,2.201-4.288
			c0.71-2.025,0.278-4.667,0.06-5.55h11.569V136.988z"/>
		<path fill="#0055B8" d="M235.966,102.345h-9.016v23.271c-5.842,0-31.152,0-36.849,0v-23.271h-9.017
			c-2.126,0-3.87,2.052-3.87,4.588v49.194c0,2.525,1.732,4.595,3.87,4.595h9.017v-24.992c5.697,0,31.007,0,36.849,0v24.992h9.016
			c2.143,0,3.873-2.069,3.873-4.595v-49.194C239.839,104.396,238.123,102.345,235.966,102.345z"/>
		<path fill="#0055B8" d="M162.185,102.345h-9.021v44.702l-27.101-35.71c-4.505-5.209-7.6-8.992-14.802-8.992h-9.183v53.782
			c0,2.525,1.725,4.595,3.889,4.595h9.006v-44.909l27.271,35.463c4.611,5.334,8.708,9.445,15.387,9.445h8.421v-53.789
			C166.053,104.396,164.321,102.345,162.185,102.345z"/>
	</g>
</g>
</svg>
