<?xml version="1.0" encoding="utf-8"?>
<!-- Generator: Adobe Illustrator 16.0.0, SVG Export Plug-In . SVG Version: 6.00 Build 0)  -->
<!DOCTYPE svg PUBLIC "-//W3C//DTD SVG 1.1//EN" "http://www.w3.org/Graphics/SVG/1.1/DTD/svg11.dtd">
<svg version="1.1" id="Layer_1" xmlns="http://www.w3.org/2000/svg" xmlns:xlink="http://www.w3.org/1999/xlink" x="0px" y="0px"
	 width="700px" height="244px" viewBox="0 0 700 244" enable-background="new 0 0 700 244" xml:space="preserve">
<g>
	<g>
		<g>
			<g>
				<polygon fill="#003974" points="481.073,217.534 481.073,192.011 471.893,192.011 471.893,217.534 465.62,217.534 
					465.62,192.011 456.432,192.011 456.432,217.534 444.01,217.534 444.01,224.73 500.756,224.73 500.756,217.534 				"/>
				<path fill="#003974" d="M486.235,210.55h5.994c2.246-11.525,3.827-25.917,4.778-35.576c0.512-5.211,0.536-7.93-4.152-7.93
					h-42.704v7.195h36.084V210.55z"/>
			</g>
			<g>
				<polygon fill="#003974" points="543.258,217.534 543.258,205.245 533.015,205.245 533.015,217.534 509.592,217.534 
					509.592,224.73 566.343,224.73 566.343,217.534 				"/>
				<path fill="#003974" d="M552.678,201.374c4.238,0,5.691-2.35,5.691-5.714v-29.232h-10.253v11.841h-20.31v-11.841h-10.24v29.232
					c0,3.364,1.448,5.714,5.684,5.714H552.678z M527.807,195.192v-9.737h20.31v9.737H527.807z"/>
			</g>
			<g>
				<path fill="#003974" d="M680.697,205.526c-3.764-2.443-8.482-3.487-13.595-3.487c-5.098,0-9.821,1.044-13.587,3.487
					c-4.145,2.669-6.041,6.3-6.041,10.338c0,4.034,1.896,7.685,6.041,10.349c3.766,2.429,8.489,3.482,13.587,3.482
					c5.112,0,9.831-1.054,13.595-3.482c4.143-2.664,6.041-6.314,6.041-10.349C686.738,211.826,684.84,208.195,680.697,205.526z
					 M674.341,220.771c-1.884,1.562-4.448,2.246-7.238,2.246c-2.78,0-5.339-0.685-7.235-2.246c-1.709-1.404-2.209-3.068-2.209-4.906
					c0-1.842,0.5-3.497,2.209-4.905c1.896-1.552,4.455-2.227,7.235-2.227c2.79,0,5.354,0.675,7.238,2.227
					c1.716,1.408,2.214,3.063,2.214,4.905C676.555,217.702,676.057,219.366,674.341,220.771z"/>
				<polygon fill="#003974" points="676.653,164.196 676.653,171.974 668.923,171.974 668.923,179.16 676.653,179.16 
					676.653,184.041 668.923,184.041 668.923,191.237 676.653,191.237 676.653,200.434 686.9,200.434 686.9,164.196 				"/>
				<path fill="#003974" d="M659.941,197.311c4.248,0,5.698-2.354,5.698-5.719v-24.548h-27.959v24.548
					c0,3.364,1.445,5.719,5.691,5.719H659.941z M655.391,174.239v15.87h-7.465v-15.87H655.391z"/>
			</g>
			<g>
				<path fill="#003974" d="M594.724,198.94l4.617-3.467c-7.583-8.615-9.77-17.535-9.77-29.046h-9.511
					c0,11.511-2.185,20.431-9.772,29.046l4.625,3.467c4.565-3.97,7.442-8.216,9.9-13.377
					C587.273,190.725,590.147,194.971,594.724,198.94z"/>
				<path fill="#003974" d="M617.494,206.014c-3.769-2.389-8.489-3.418-13.6-3.418c-5.107,0-9.826,1.029-13.594,3.418
					c-4.143,2.62-6.029,6.172-6.029,10.127c0,3.96,1.887,7.531,6.029,10.146c3.768,2.374,8.486,3.408,13.594,3.408
					c5.11,0,9.831-1.034,13.6-3.408c4.137-2.615,6.028-6.187,6.028-10.146C623.522,212.186,621.631,208.634,617.494,206.014z
					 M611.135,220.859c-1.891,1.502-4.457,2.157-7.24,2.157c-2.778,0-5.35-0.655-7.235-2.157c-1.714-1.354-2.204-2.951-2.204-4.719
					c0-1.764,0.49-3.359,2.204-4.709c1.886-1.497,4.457-2.147,7.235-2.147c2.783,0,5.35,0.65,7.24,2.147
					c1.707,1.35,2.214,2.945,2.214,4.709C613.349,217.908,612.842,219.505,611.135,220.859z"/>
				<polygon fill="#003974" points="614.502,164.196 614.502,177.633 610.696,177.633 610.696,164.196 601.518,164.196 
					601.518,199.887 610.696,199.887 610.696,184.81 614.502,184.81 614.502,199.887 623.688,199.887 623.688,164.196 				"/>
			</g>
		</g>
	</g>
	<g>
		<g>
			<path fill="#003974" d="M198.901,148.091c-10.431,0-19.603,3.384-25.805,9.723c-7.094,7.009-10.994,18.037-10.994,31.025
				s3.9,24.007,10.994,31.016c6.202,6.358,15.374,9.826,25.805,9.826c10.426,0,19.716-3.468,25.921-9.826
				c6.972-7.004,10.878-18.027,10.878-31.016s-3.906-24.017-10.878-31.025C218.618,151.475,209.327,148.091,198.901,148.091z
				 M213.835,211.353v0.005c-3.408,4.34-8.779,6.822-14.934,6.822c-6.04,0-11.528-2.482-14.82-6.822
				c-3.81-4.723-5.823-12.594-5.823-22.519s2.013-17.683,5.823-22.524c3.286-4.339,8.773-6.703,14.82-6.703
				c6.158,0,11.529,2.364,14.934,6.703c3.816,4.842,5.779,12.6,5.779,22.524S217.651,206.635,213.835,211.353z"/>
			<path fill="#003974" d="M400.496,157.813c-6.229-6.339-15.498-9.723-25.918-9.723c-10.432,0-19.601,3.384-25.856,9.723
				c-7.043,7.009-10.915,18.037-10.915,31.025c0,12.979,3.872,24.007,10.915,31.016c6.256,6.358,15.422,9.826,25.856,9.826
				c10.42,0,19.689-3.468,25.918-9.826c6.999-7.009,10.875-18.037,10.875-31.016C411.371,175.851,407.495,164.822,400.496,157.813z
				 M389.51,211.353v0.005c-3.408,4.335-8.775,6.822-14.932,6.822c-6.041,0-11.533-2.487-14.851-6.827
				c-3.785-4.718-5.797-12.589-5.797-22.514s2.012-17.683,5.797-22.524c3.317-4.339,8.805-6.703,14.851-6.703
				c6.156,0,11.523,2.364,14.932,6.698c3.814,4.847,5.763,12.604,5.763,22.529S393.324,206.635,389.51,211.353z"/>
			<path fill="#003974" d="M125.731,227.813c-0.897-0.813-1.976-2.675-1.976-5.457v-28.302l26.406-44.245h-18.085
				c1.304,1.306,1.436,3.384-0.155,5.876l-14.296,24.766c-12.025-21.771-12.012-22.387-14.184-26.347
				c-1.699-2.989-3.142-4.295-6.351-4.295H82.845c1.121,1.044,2.287,2.615,4.729,6.674l21.055,37.369v28.504
				c0,2.782-1.076,4.645-1.973,5.457H125.731z"/>
			<path fill="#003974" d="M260.887,227.813c0.896-0.813,1.975-2.675,1.975-5.457v-67.095c0-2.783-1.078-4.649-1.975-5.452h25.834
				c12.397,0,23.193,5.979,23.193,17.584c0,4.915-2.253,11.875-7.974,14.943c6.944,2.655,14.306,9.073,14.306,19.953
				c0,8.063-3.995,15.141-9.383,19.204c-4.978,3.764-10.73,6.319-20.143,6.319H260.887z M277.993,179.264
				c2.812,0.325,8.56-0.039,11.033-1.33c2.465-1.285,5.298-3.177,5.298-8.088c0-4.679-4.096-8.812-10.063-8.812
				c-2.234,0-4.093,0.118-6.268,0.798V179.264z M294.904,214.678c4.47-2.877,5.506-7.059,5.506-11.442
				c0-8.55-7.519-12.49-14.764-12.49c-1.551,0-5.29,0.059-7.654,0.458v24.991C282.967,217.584,290.927,217.234,294.904,214.678z"/>
			<path fill="#003974" d="M14.84,222.356c0,2.782-1.078,4.645-1.977,5.457h19.076c-0.896-0.813-1.974-2.675-1.974-5.457v-30.469
				l22.154,31.626c2.045,2.99,3.64,4.3,6.849,4.3h15.296c-1.244-1.049-2.593-2.62-5.503-6.674l-24.997-35.424l25.561-35.906H50.521
				c0.974,1.28,1.096,2.871-0.732,5.94l-19.822,28.577v-29.065c0-2.783,1.077-4.649,1.974-5.452H12.863
				c0.899,0.803,1.977,2.669,1.977,5.452V222.356z"/>
		</g>
		<path fill="#63A70A" d="M435.844,42.977c-7.11-7.206-18.883-5.96-25.83,1.399c-9.018,9.477-16.037,13.013-24.396,12.648
			c-11.678-0.502-17.436-9.521-23.435-20.914c-6.227-11.905-15.797-18.524-27.73-18.524c-18.773,0-30.023,15.2-30.023,32.148
			c0,26.085,18.325,41.689,31.023,48.265c10.55,5.486,22.292,7.777,32.729,8.038c-0.618,6.245-2.456,14.476-4.487,20.293h1.084
			h9.737h9.735h0.924c-2.108-5.817-3.995-14.723-4.557-20.978c31.456-4.083,46.397-18.377,54.584-31.986
			c3.669-5.964,5.63-12.161,5.605-17.727C440.786,50.759,439.227,46.331,435.844,42.977z M334.601,59.294
			c-6.103,0.379-11.294-4.221-11.683-10.27c-0.379-6.058,4.197-11.294,10.299-11.673c6.033-0.389,11.234,4.231,11.614,10.284
			C345.22,53.685,340.64,58.91,334.601,59.294z"/>
	</g>
</g>
</svg>
