<?xml version="1.0" encoding="utf-8"?>
<!-- Generator: Adobe Illustrator 16.0.0, SVG Export Plug-In . SVG Version: 6.00 Build 0)  -->
<!DOCTYPE svg PUBLIC "-//W3C//DTD SVG 1.1//EN" "http://www.w3.org/Graphics/SVG/1.1/DTD/svg11.dtd">
<svg version="1.1" id="Layer_1" xmlns="http://www.w3.org/2000/svg" xmlns:xlink="http://www.w3.org/1999/xlink" x="0px" y="0px"
	 width="700px" height="244px" viewBox="0 0 700 244" enable-background="new 0 0 700 244" xml:space="preserve">
<path fill="#009EDB" d="M127.136,186.616c-15.516,0-28.143,11.834-28.143,26.38c0,14.549,12.627,26.388,28.143,26.388
	s28.142-11.839,28.142-26.388C155.277,198.45,142.651,186.616,127.136,186.616 M127.136,227.518
	c-8.366,0-15.174-6.515-15.174-14.521c0-8.004,6.808-14.525,15.174-14.525c8.367,0,15.17,6.521,15.17,14.525
	C142.306,221.003,135.503,227.518,127.136,227.518"/>
<path fill="#009EDB" d="M176.68,171.902h-43.059v-7.981H151.4c5.54,0,10.042-4.504,10.042-10.038c0-1.009-0.816-1.82-1.822-1.82
	h-54.263v-15.558H151.4c5.54,0,10.042-4.509,10.042-10.042c0-1.005-0.816-1.821-1.822-1.821H94.205
	c-1.004,0-1.823,0.816-1.823,1.821v25.977c0,6.33,5.65,11.481,12.589,11.481h15.678v7.981H78.171c-1.01,0-1.829,0.816-1.829,1.818
	v8.212c0,1.016,0.818,1.828,1.829,1.828h90.294c5.533,0,10.037-4.504,10.037-10.04C178.503,172.719,177.687,171.902,176.68,171.902"
	/>
<path fill="#009EDB" d="M460.358,186.616c-15.516,0-28.139,11.834-28.139,26.38c0,14.549,12.623,26.388,28.139,26.388
	c15.521,0,28.146-11.839,28.146-26.388C488.505,198.45,475.879,186.616,460.358,186.616 M460.358,227.518
	c-8.363,0-15.165-6.515-15.165-14.521c0-8.004,6.802-14.525,15.165-14.525c8.373,0,15.176,6.521,15.176,14.525
	C475.534,221.003,468.731,227.518,460.358,227.518"/>
<path fill="#009EDB" d="M489.027,121.537h-9.321c-1.009,0-1.828,0.82-1.828,1.824v11.214h-21.51v-6.738
	c0-1.009-0.814-1.829-1.821-1.829h-48.564c-1.006,0-1.828,0.82-1.828,1.829v38.127c0,6.327,5.647,11.479,12.591,11.479h37.802
	c1.007,0,1.821-0.819,1.821-1.821v-7.87h21.51v17.913c0,1.003,0.819,1.826,1.828,1.826c6.14,0,11.146-5.008,11.146-11.144v-52.985
	C490.852,122.357,490.035,121.537,489.027,121.537 M443.396,165.581h-26.27v-27.706h26.27V165.581z M456.368,146.439h21.51v9.45
	h-21.51V146.439z"/>
<path fill="#009EDB" d="M349.289,186.616c-15.519,0-28.146,11.834-28.146,26.38c0,14.549,12.627,26.388,28.146,26.388
	c15.512,0,28.137-11.839,28.137-26.388C377.426,198.45,364.801,186.616,349.289,186.616 M349.289,227.518
	c-8.368,0-15.175-6.515-15.175-14.521c0-8.004,6.807-14.525,15.175-14.525c8.363,0,15.166,6.521,15.166,14.525
	C364.455,221.003,357.652,227.518,349.289,227.518"/>
<path fill="#009EDB" d="M327.237,172.75c2,1.652,4.604,2.565,7.326,2.565c3.129,0,6.124-1.208,8.218-3.303
	c0.35-0.354,0.527-0.806,0.507-1.28c-0.023-0.475-0.244-0.914-0.626-1.229l-22.926-18.933c1.604-5.927,2.321-12.528,2.321-20.09
	v-4.016c0-1.008-0.818-1.823-1.826-1.823h-9.32c-1.01,0-1.823,0.815-1.823,1.823v4.016c0,21.642-7.454,31.465-20.343,41.16
	c-0.363,0.321-0.572,0.77-0.604,1.252c-0.025,0.492,0.137,0.957,0.459,1.321c3.426,3.832,10.595,5.016,16.492-0.268
	c4.01-3.578,7.178-7.373,9.657-11.508L327.237,172.75z"/>
<path fill="#009EDB" d="M382.439,121.54h-9.326c-1.012,0-1.823,0.818-1.823,1.822v22.937h-10.869v-22.085
	c0-1.007-0.824-1.824-1.828-1.824h-9.324c-1.006,0-1.824,0.817-1.824,1.824v56.354c0,1.009,0.817,1.821,1.824,1.821
	c6.15,0,11.152-4.996,11.152-11.141v-13.086h10.869v27.502c0,1.003,0.812,1.828,1.823,1.828c6.145,0,11.144-5.011,11.144-11.148
	l0.002-52.982C384.259,122.357,383.443,121.54,382.439,121.54"/>
<path fill="#009EDB" d="M238.155,151.582c0-15.438-12.808-28-28.554-28c-15.75,0-28.553,12.562-28.553,28
	c0,15.438,12.803,28.002,28.553,28.002C225.347,179.584,238.155,167.02,238.155,151.582 M209.601,167.729
	c-8.595,0-15.586-7.245-15.586-16.147c0-8.893,6.991-16.137,15.586-16.137c8.594,0,15.583,7.244,15.583,16.137
	C225.184,160.484,218.195,167.729,209.601,167.729"/>
<path fill="#009EDB" d="M238.212,186.616c-15.519,0-28.143,11.834-28.143,26.38c0,14.549,12.625,26.388,28.143,26.388
	c15.513,0,28.142-11.839,28.142-26.388C266.354,198.45,253.725,186.616,238.212,186.616 M238.212,227.518
	c-8.368,0-15.171-6.515-15.171-14.521c0-8.004,6.803-14.525,15.171-14.525c8.363,0,15.169,6.521,15.169,14.525
	C253.381,221.003,246.575,227.518,238.212,227.518"/>
<path fill="#009EDB" d="M275.983,146.439c5.536,0,10.037-4.501,10.037-10.04c0-1.005-0.814-1.824-1.822-1.824h-15.867v-11.214
	c0-1.004-0.82-1.822-1.825-1.822h-9.326c-1.002,0-1.821,0.818-1.821,1.822v62.303c0,1.003,0.819,1.828,1.821,1.828
	c6.147,0,11.151-5.011,11.151-11.148v-8.592h7.652c5.536,0,10.037-4.498,10.037-10.035c0-1.008-0.814-1.827-1.822-1.827h-15.867
	v-9.45H275.983z"/>
<path fill="#009EDB" d="M205.698,77.104h-25.643v-4.981c6.822-1.688,11.884-7.745,11.884-14.94c0-4.077-1.631-7.788-4.284-10.546
	h5.122c3.293,0,5.978-2.682,5.978-5.978c0-0.599-0.486-1.084-1.086-1.084h-17.613v-6.082c0-0.596-0.486-1.084-1.083-1.084h-5.553
	c-0.599,0-1.086,0.488-1.086,1.084v6.082h-17.266c-0.602,0-1.087,0.485-1.087,1.084v4.887c0,0.604,0.486,1.085,1.087,1.085h9.671
	c-2.655,2.764-4.285,6.475-4.285,10.552c0,7.195,5.063,13.252,11.88,14.94v4.981h-24.344c-0.596,0-1.085,0.488-1.085,1.087v4.89
	c0,0.6,0.489,1.087,1.085,1.087h52.816c3.296,0,5.978-2.678,5.978-5.977C206.783,77.592,206.295,77.104,205.698,77.104
	 M168.02,57.183c0-4.693,3.667-8.512,8.175-8.512c4.511,0,8.178,3.818,8.178,8.512c0,4.696-3.667,8.516-8.178,8.516
	C171.687,65.698,168.02,61.878,168.02,57.183"/>
<path fill="#009EDB" d="M333.908,50.997h-10.059V33.494c0-0.599-0.486-1.085-1.085-1.085h-5.553c-0.599,0-1.085,0.486-1.085,1.085
	v54.904c0,0.599,0.487,1.084,1.085,1.084c3.662,0,6.638-2.976,6.638-6.633v-24.79h5.166c3.293,0,5.977-2.682,5.977-5.978
	C334.992,51.482,334.504,50.997,333.908,50.997"/>
<path fill="#009EDB" d="M310.752,68.476l-17.934-13.489c1.325-3.99,1.961-8.354,1.961-13.112V35.34c0-0.599-0.488-1.087-1.087-1.087
	h-5.553c-0.6,0-1.085,0.489-1.085,1.087v6.534c0,12.032-4.971,20.479-16.129,27.399c-0.486,0.349-0.592,1.027-0.241,1.516
	c2.097,2.888,6.367,3.322,10.895-0.206c3.379-2.633,6.041-5.578,8.073-8.833l12.062,9.071c1.134,0.856,2.584,1.325,4.074,1.325
	c1.976,0,3.834-0.796,5.103-2.188c0.198-0.217,0.291-0.494,0.261-0.773C311.128,68.904,310.983,68.649,310.752,68.476"/>
<path fill="#009EDB" d="M244.026,50.997c-0.597,0-1.084,0.486-1.084,1.084v4.893c0,0.599,0.487,1.085,1.084,1.085h11.398v21.717
	c0,0.599,0.488,1.084,1.087,1.084c3.66,0,6.635-2.972,6.635-6.628V33.494c0-0.599-0.486-1.085-1.084-1.085h-5.551
	c-0.599,0-1.087,0.486-1.087,1.085v17.503H244.026z"/>
<path fill="#009EDB" d="M262.814,91.358h-29.439V78.515c0-0.601-0.488-1.087-1.087-1.087h-5.557c-0.596,0-1.084,0.487-1.084,1.087
	v13.073c0,3.768,3.365,6.835,7.499,6.835h24.777c3.297,0,5.978-2.678,5.978-5.978C263.9,91.849,263.415,91.358,262.814,91.358"/>
<path fill="#009EDB" d="M238.5,70.443c1.003,0.609,2.183,0.927,3.402,0.929h0.003c2.205,0,4.268-1.021,5.51-2.726
	c0.173-0.233,0.236-0.519,0.18-0.797c-0.054-0.278-0.221-0.513-0.477-0.665l-17.166-10.356c1.051-2.869,1.686-5.958,1.94-9.295
	h8.103c3.294,0,5.98-2.684,5.98-5.978c0-0.598-0.488-1.084-1.087-1.084h-12.855v-6.977c0-0.599-0.484-1.085-1.085-1.085h-5.553
	c-0.599,0-1.087,0.486-1.087,1.085v6.977h-12.509c-0.596,0-1.086,0.486-1.086,1.084v4.893c0,0.6,0.491,1.085,1.086,1.085h12.343
	c-0.906,9.205-5.565,15.662-15.441,21.712c-0.48,0.356-0.582,1.04-0.223,1.521c2.504,3.378,6.685,2.979,9.983,0.605
	c3.402-2.452,6.083-5.141,8.147-8.104L238.5,70.443z"/>
<path fill="#009EDB" d="M143.646,67.36H86.658c-0.598,0-1.084,0.489-1.084,1.085v4.891c0,0.599,0.486,1.086,1.084,1.086h24.82
	v15.271c0,0.597,0.486,1.085,1.085,1.085c3.662,0,6.637-2.979,6.637-6.636l0.003-9.72h19.549c3.296,0,5.979-2.681,5.979-5.978
	C144.73,67.849,144.244,67.36,143.646,67.36"/>
<path fill="#009EDB" d="M101.577,59.991c4.854-2.381,8.707-5.176,11.561-8.341l17.57,8.602c0.875,0.425,1.825,0.643,2.825,0.643
	c2.391,0,4.609-1.232,5.782-3.219c0.148-0.248,0.187-0.541,0.104-0.814c-0.077-0.273-0.271-0.493-0.535-0.62l-21.71-10.622
	c1.349-2.927,2.031-6.077,2.031-9.44v-1.808c0-0.6-0.489-1.084-1.085-1.084h-5.555c-0.6,0-1.085,0.485-1.085,1.084v1.808
	c0,8.904-6.256,15.428-19.706,20.149c-0.542,0.252-0.783,0.893-0.538,1.442C92.728,61.028,96.265,62.604,101.577,59.991"/>
<path fill="#009EDB" d="M522.431,37.512c-10.192,10.201-10.192,26.789,0,36.985l14.215,14.216c4.716,4.719,12.348,4.719,17.062,0
	h0.013l-22.765-22.757c-5.49-5.479-5.49-14.417,0.006-19.911c5.489-5.488,14.418-5.488,19.912,0h0.006l42.661,42.667
	c4.7,4.713,12.341,4.713,17.048,0h0.02l-51.202-51.202C549.208,27.319,532.623,27.319,522.431,37.512"/>
<path fill="#009EDB" d="M573.635,23.29c-18.053-18.038-47.394-18.038-65.426,0c-18.041,18.039-18.041,47.38,0,65.425
	c4.702,4.716,12.348,4.716,17.05,0l-8.53-8.528c-13.327-13.342-13.327-35.039,0-48.37c13.337-13.333,35.034-13.333,48.367,0.006
	l0.01-0.006l56.878,56.891v0.007c4.716,4.711,12.337,4.711,17.05,0.009l0.03-0.009L573.635,23.29z"/>
<path fill="#009EDB" d="M536.658,51.735c-2.358,2.355-2.358,6.171-0.006,8.534l28.443,28.444c4.711,4.713,12.339,4.718,17.054,0
	h0.009L545.18,51.735C542.828,49.38,539.011,49.385,536.658,51.735"/>
<path fill="#009EDB" d="M458.94,37.512c10.201,10.201,10.201,26.789,0,36.985l-14.211,14.216c-4.723,4.719-12.36,4.719-17.065,0
	h-0.004l22.755-22.757c5.485-5.479,5.485-14.417-0.004-19.911c-5.499-5.488-14.415-5.488-19.911,0h-0.005l-42.667,42.667
	c-4.704,4.713-12.328,4.713-17.047,0h-0.015l51.201-51.202C432.16,27.319,448.75,27.319,458.94,37.512"/>
<path fill="#009EDB" d="M407.742,23.29c18.031-18.038,47.388-18.038,65.415,0c18.04,18.039,18.04,47.38,0.009,65.425
	c-4.711,4.716-12.347,4.716-17.063,0l8.52-8.528c13.34-13.342,13.34-35.039,0-48.37c-13.322-13.333-35.018-13.333-48.347,0.006
	l-0.01-0.006l-56.886,56.891l0.004,0.007c-4.707,4.711-12.339,4.711-17.045,0.009l-0.023-0.009L407.742,23.29z"/>
<path fill="#009EDB" d="M444.719,51.735c2.354,2.355,2.354,6.171,0,8.534l-28.445,28.444c-4.704,4.713-12.34,4.718-17.057,0h-0.009
	l36.982-36.979C438.538,49.38,442.361,49.385,444.719,51.735"/>
</svg>
