<?xml version="1.0" encoding="utf-8"?>
<!-- Generator: Adobe Illustrator 16.0.0, SVG Export Plug-In . SVG Version: 6.00 Build 0)  -->
<!DOCTYPE svg PUBLIC "-//W3C//DTD SVG 1.1//EN" "http://www.w3.org/Graphics/SVG/1.1/DTD/svg11.dtd">
<svg version="1.1" id="Layer_1" xmlns="http://www.w3.org/2000/svg" xmlns:xlink="http://www.w3.org/1999/xlink" x="0px" y="0px"
	 width="700px" height="244px" viewBox="0 0 700 244" enable-background="new 0 0 700 244" xml:space="preserve">
<g>
	<g>
		<g>
			<g>
				<g>
					<path fill="#0081C6" d="M256.838,62.724c0,0.999-1.046,2.113-2.435,3.819c-4.705,5.788-15.181,16.067-15.181,41.528
						c0,13.175,2.169,18.658,2.169,24.832c0,2.807-0.558,4.27-2.007,4.27c-3.317,0-8.939-13.903-8.939-30.592
						c0-34.917,22.028-44.652,25.422-44.652C256.546,61.928,256.838,62.307,256.838,62.724z M201.316,61.928
						c3.401,0,25.427,9.735,25.427,44.652c0,16.688-5.622,30.592-8.937,30.592c-1.458,0-2.006-1.463-2.006-4.27
						c0-6.174,2.162-11.657,2.162-24.832c0-25.461-10.478-35.74-15.175-41.528c-1.381-1.706-2.436-2.82-2.436-3.819
						C200.353,62.307,200.643,61.928,201.316,61.928z"/>
					<g>
						<path fill="#F8971D" d="M220.547,68.925c0,4.561,3.608,8.249,8.049,8.249c4.446,0,8.035-3.688,8.035-8.249
							c0-4.567-3.589-8.255-8.035-8.255C224.155,60.669,220.547,64.358,220.547,68.925z"/>
					</g>
					<path fill="#54B948" d="M228.596,30.717c-3.276-1.518-6.491-4.349-6.491-10.222c0-5.62,2.647-11.014,6.491-13.438
						c3.843,2.423,6.488,7.817,6.488,13.438C235.084,26.368,231.869,29.199,228.596,30.717z M297.358,120.777
						c-11.443-7.032-28.843-14.348-54.087-16.662c-0.048,0.311-0.262,2.167-0.262,3.955c0,0.837,0.144,1.935,0.18,2.16
						c24.616,1.593,42.162,6.827,54.053,11.08c0.236,0.088,0.464,0.194,0.582,0.194c0.13,0,0.196-0.085,0.196-0.185
						C298.021,121.136,297.824,121.064,297.358,120.777z M241.658,26.648c-1.927-1.733-3.545-4.369-2.298-8.419
						c1.193-3.867,4.162-7.022,7.331-7.873c2.128,2.481,2.811,6.762,1.612,10.635C247.049,25.042,244.23,26.304,241.658,26.648z
						 M260.234,42.11c-0.655-2.403-0.608-5.37,2.493-8.003c2.968-2.509,7.007-3.531,10.001-2.574
						c0.435,3.107-1.228,6.919-4.191,9.432C265.429,43.594,262.499,43.167,260.234,42.11z M260.832,65.441
						c0.779-2.314,2.446-4.693,6.417-5.134c3.784-0.4,7.623,0.995,9.534,3.415c-1.349,2.759-4.802,4.943-8.582,5.346
						C264.227,69.496,262.087,67.547,260.832,65.441z M254.102,73.892c1.274-1.774,3.313-3.347,6.804-2.673
						c3.33,0.636,6.224,2.827,7.222,5.388c-1.882,2-5.387,2.947-8.714,2.304C255.925,78.233,254.624,75.995,254.102,73.892z
						 M233.876,51.826c-2.319-2.093-4.253-5.241-2.752-10.102c1.44-4.642,4.999-8.433,8.794-9.452
						c2.559,2.984,3.37,8.119,1.93,12.765C240.347,49.897,236.968,51.412,233.876,51.826z M242.713,56.967
						c-0.747-2.708-0.694-6.041,2.807-9.008c3.334-2.817,7.867-3.969,11.236-2.909c0.501,3.511-1.369,7.794-4.706,10.625
						C248.557,58.625,245.26,58.133,242.713,56.967z M248.601,38.104c-1.691-2.69-2.711-6.328,0.111-10.676
						c2.704-4.153,7.251-6.881,11.259-6.83c1.675,3.638,1.044,8.905-1.649,13.065C255.492,38.012,251.748,38.559,248.601,38.104z
						 M260.52,54.482c0.025-2.96,1.057-6.331,5.461-8.321c4.199-1.9,9.133-1.747,12.25,0.308c-0.509,3.696-3.657,7.518-7.854,9.422
						C265.962,57.873,262.762,56.42,260.52,54.482z M159.152,121.32c0,0.1,0.079,0.185,0.214,0.185c0.113,0,0.342-0.106,0.59-0.194
						c11.883-4.253,29.432-9.487,54.052-11.08c0.028-0.226,0.164-1.323,0.164-2.16c0-1.788-0.209-3.644-0.266-3.955
						c-25.223,2.314-42.634,9.63-54.08,16.662C159.366,121.064,159.152,121.136,159.152,121.32z M208.883,20.991
						c-1.189-3.873-0.516-8.153,1.612-10.635c3.165,0.851,6.135,4.006,7.332,7.873c1.252,4.051-0.363,6.687-2.29,8.419
						C212.954,26.304,210.138,25.042,208.883,20.991z M188.646,40.965c-2.96-2.513-4.62-6.324-4.192-9.432
						c3.005-0.958,7.04,0.065,10.006,2.574c3.105,2.633,3.16,5.6,2.493,8.003C194.688,43.167,191.762,43.594,188.646,40.965z
						 M188.982,69.068c-3.769-0.403-7.218-2.587-8.582-5.346c1.911-2.42,5.753-3.815,9.543-3.415c3.965,0.441,5.644,2.82,6.42,5.134
						C195.102,67.547,192.965,69.496,188.982,69.068z M197.78,78.911c-3.332,0.643-6.839-0.304-8.725-2.304
						c0.998-2.561,3.893-4.752,7.224-5.388c3.485-0.673,5.534,0.899,6.814,2.673C202.563,75.995,201.264,78.233,197.78,78.911z
						 M215.341,45.037c-1.435-4.646-0.628-9.78,1.926-12.765c3.797,1.019,7.364,4.81,8.798,9.452
						c1.508,4.861-0.436,8.009-2.755,10.102C220.223,51.412,216.843,49.897,215.341,45.037z M205.142,55.675
						c-3.338-2.83-5.208-7.113-4.723-10.625c3.385-1.06,7.919,0.092,11.257,2.909c3.492,2.967,3.544,6.3,2.798,9.008
						C211.929,58.133,208.636,58.625,205.142,55.675z M198.874,33.663c-2.699-4.16-3.342-9.428-1.655-13.065
						c4.007-0.051,8.563,2.677,11.258,6.83c2.827,4.349,1.805,7.986,0.114,10.676C205.44,38.559,201.699,38.012,198.874,33.663z
						 M186.822,55.891c-4.207-1.904-7.357-5.726-7.873-9.422c3.126-2.054,8.058-2.208,12.259-0.308
						c4.409,1.99,5.438,5.36,5.459,8.321C194.43,56.42,191.225,57.873,186.822,55.891z"/>
				</g>
				<path fill="#0081C6" d="M440.243,104.132V71.834c0-4.324-0.396-12.635-0.513-14.521h10.026l0.485,6.567h0.198
					c1.169-1.835,4.937-7.62,13.688-7.62c10.566,0,16.446,7.767,16.446,17.448v30.424H469.41V75.926
					c0-5.952-3.303-10.451-9.001-10.451c-5.88,0-8.998,4.738-8.998,10.451v28.206H440.243z M374.984,57.453h-11.168v46.679h11.168
					V57.453z M534.228,104.132c-0.358-2.604-1.408-9.493-1.408-15.41V58.383c-1.736-0.445-8.081-2.123-15.362-2.123
					c-18.936,0-27.071,12.686-27.071,26.408c0,12.625,6.345,22.518,18.504,22.518c8.889,0,12.878-5.75,14.379-8.816h0.28
					c0.123,1.453,0.526,6.41,0.652,7.763H534.228z M521.647,80.976c0,10.71-4.19,15.171-10.245,15.171
					c-6.119,0-9.558-5.179-9.558-14.279c0-9.277,5.329-16.952,15.164-16.952c2.007,0,3.433,0.191,4.639,0.489V80.976z
					 M352.645,92.721c-3.025,1.418-7.89,2.352-12.601,2.352c-12.842,0-22.297-9.168-22.297-23.167
					c0-13.886,9.4-23.167,22.297-23.167c6.399,0,10.942,1.552,12.601,2.352v-9.999c-2.797-1.043-7.35-2.096-13.776-2.096
					c-19.937,0-33.32,13.76-33.32,32.91c0,18.111,12.322,32.917,33.32,32.917c6.146,0,10.778-0.981,13.776-2.099V92.721z
					 M417.018,98.536v3.487c0,9.555-5.88,13.256-13.178,13.256c-6.557,0-11.397-1.965-12.922-2.509v9.438
					c1.248,0.342,6.57,2.014,14.173,2.014c13.489,0,22.501-5.568,22.501-24.647V58.383c-1.724-0.445-8.058-2.123-15.353-2.123
					c-18.918,0-27.064,12.686-27.064,26.408c0,12.625,6.338,22.518,18.501,22.518c8.03,0,11.872-4.847,13.134-6.649H417.018z
					 M416.434,80.976c0,10.71-4.194,15.171-10.263,15.171c-6.102,0-9.527-5.179-9.527-14.279c0-9.277,5.316-16.952,15.147-16.952
					c2.021,0,3.433,0.191,4.643,0.489V80.976z M362.482,45.249c0,3.753,3.094,6.792,6.919,6.792c3.813,0,6.909-3.039,6.909-6.792
					c0-3.74-3.097-6.772-6.909-6.772C365.576,38.477,362.482,41.509,362.482,45.249z"/>
			</g>
			<g>
				<path fill="#0081C6" d="M554.913,102.3c-1.221,1.217-2.687,1.825-4.41,1.825c-1.716,0-3.176-0.608-4.386-1.825
					c-1.2-1.224-1.802-2.684-1.802-4.417c0-1.699,0.608-3.162,1.819-4.382c1.203-1.204,2.666-1.812,4.368-1.812
					c1.724,0,3.189,0.608,4.41,1.812c1.207,1.21,1.815,2.669,1.815,4.382C556.729,99.609,556.12,101.076,554.913,102.3z
					 M546.739,94.109c-1.049,1.053-1.559,2.308-1.559,3.787c0,1.494,0.51,2.752,1.552,3.809c1.032,1.053,2.301,1.579,3.771,1.579
					c1.491,0,2.752-0.526,3.791-1.579c1.04-1.057,1.556-2.314,1.556-3.809c0-1.479-0.516-2.734-1.556-3.787
					c-1.042-1.046-2.304-1.573-3.791-1.573C549.04,92.537,547.782,93.063,546.739,94.109z M550.394,94.468
					c0.841,0,1.467,0.079,1.867,0.239c0.704,0.288,1.056,0.865,1.056,1.727c0,0.608-0.232,1.057-0.666,1.344
					c-0.232,0.153-0.564,0.267-0.985,0.338c0.527,0.072,0.917,0.304,1.166,0.66c0.246,0.366,0.369,0.714,0.369,1.063v0.499
					c0,0.157,0.011,0.321,0.018,0.502c0.017,0.185,0.034,0.301,0.062,0.362l0.044,0.072h-1.128
					c-0.003-0.021-0.017-0.041-0.017-0.068c-0.007-0.021-0.011-0.041-0.021-0.065l-0.024-0.222v-0.537
					c0-0.793-0.205-1.309-0.643-1.562c-0.257-0.147-0.701-0.222-1.333-0.222h-0.947v2.677h-1.203v-6.807H550.394z M551.689,95.538
					c-0.305-0.167-0.786-0.256-1.453-0.256h-1.025v2.471h1.087c0.51,0,0.879-0.041,1.142-0.153c0.466-0.185,0.712-0.54,0.712-1.07
					C552.151,96.041,551.994,95.709,551.689,95.538z"/>
			</g>
		</g>
	</g>
	<g>
		<path fill="#0081C6" d="M302.618,235.352v-72.619c0-2.161-0.916-2.797-3.103-2.797h-7.284v75.416H302.618z"/>
		<path fill="#0081C6" d="M373.039,235.352v-46.766h11.339v-8.352h-11.339v-17.502c0-2.161-0.923-2.797-3.104-2.797h-7.282v38.704
			c-3.723,0.779-8.945,1.258-14.019,1.258h-19.378c-0.996,0-1.661-0.652-1.661-1.624v-36.26h-10.313v39.148
			c0,3.977,3.315,7.091,7.551,7.091h23.802c4.58,0,9.298-0.636,14.019-1.847c0,0.5,0,28.945,0,28.945H373.039z"/>
		<path fill="#0081C6" d="M260.196,161.289c-7.949,0-23.148,10.208-23.148,26.199c0,12.734,9.524,21.633,23.148,21.633
			c13.63,0,23.151-8.898,23.151-21.633C283.348,171.497,268.145,161.289,260.196,161.289z M272.508,187.51
			c0,7.855-5.06,13.338-12.303,13.338c-7.24,0-12.3-5.482-12.3-13.338c0-10.793,8.751-17.947,12.3-17.947
			C263.757,169.563,272.508,176.717,272.508,187.51z"/>
		<path fill="#0081C6" d="M509.703,201.99c-7.421,0-23.317,6.607-23.317,19.393c0,9.935,9.37,16.617,23.317,16.617
			c13.951,0,23.328-6.683,23.328-16.617C533.031,208.598,517.088,201.99,509.703,201.99z M509.689,210.078
			c4.198,0,12.512,3.729,12.512,10.977c0,5.299-5.028,8.857-12.512,8.857c-7.482,0-12.519-3.559-12.519-8.857
			C497.171,213.808,505.595,210.078,509.689,210.078z"/>
		<path fill="#0081C6" d="M218.024,235.352c0-12.215,0-46.42,0-46.766c0.403,0,11.336,0,11.336,0v-8.352c0,0-10.933,0-11.336,0
			l-0.005-17.502c0-2.161-0.922-2.797-3.104-2.797h-7.288v42.909c-3.693,0.588-8.409,0.937-12.691,0.937h-23.816
			c-0.993,0-1.571-0.653-1.571-1.62c0,0,0-10.475,0-10.878c0.409,0,26.019,0,26.019,0v-29.27h-36.414v8.355h26.027v12.563h-26.027
			v22.118c0,3.979,3.312,7.086,7.543,7.086h27.204c4.64,0,9.729-0.533,13.728-1.422v24.638h0.005H218.024z"/>
		<polyline fill="#0081C6" points="458.973,199.334 458.938,199.334 449.436,199.334 		"/>
		<path fill="#0081C6" d="M434.37,201.99c-7.418,0-23.321,6.607-23.321,19.393c0,9.935,9.37,16.617,23.321,16.617
			s23.328-6.683,23.328-16.617C457.698,208.598,441.754,201.99,434.37,201.99z M434.356,210.078c4.205,0,12.516,3.729,12.516,10.977
			c0,5.299-5.032,8.857-12.516,8.857c-7.479,0-12.515-3.559-12.515-8.857C421.842,213.808,430.268,210.078,434.356,210.078z"/>
		<path fill="#0081C6" d="M530.823,159.936h-7.217v6.693H510.36v-5.309h-38.435v29.669c0,3.972,3.316,7.087,7.531,7.087h30.903
			v-6.57h13.246v7.828h10.286v-36.629C533.893,160.571,532.983,159.936,530.823,159.936z M500.06,189.721h-16.169
			c-0.998,0-1.658-0.646-1.658-1.617v-18.422h17.827V189.721z M510.36,183.154v-8.164c0,0,9.886,0,13.246,0v8.164H510.36z"/>
		<g>
			<path fill="#0081C6" d="M456.655,159.929h-7.22v14.692h-7.203v-11.927c0-2.133-0.912-2.766-3.076-2.766h-7.21v39.405h10.286
				v-16.351h7.203v16.351h10.29v-36.64C459.726,160.562,458.815,159.929,456.655,159.929z"/>
			<path fill="#0081C6" d="M411.357,168.937c0.95,0,1.268,0.681,1.552,1.85l7.329,28.548h10.669l-7.746-29.45
				c-1.634-6.276-4.851-9.313-11.767-9.313h-0.075c-6.916,0-10.129,3.036-11.763,9.313l-7.747,29.45h10.666l7.333-28.548
				C410.092,169.617,410.41,168.937,411.357,168.937z"/>
		</g>
	</g>
</g>
</svg>
