<?xml version="1.0" encoding="utf-8"?>
<!-- Generator: Adobe Illustrator 16.0.0, SVG Export Plug-In . SVG Version: 6.00 Build 0)  -->
<!DOCTYPE svg PUBLIC "-//W3C//DTD SVG 1.1//EN" "http://www.w3.org/Graphics/SVG/1.1/DTD/svg11.dtd">
<svg version="1.1" id="Layer_1" xmlns="http://www.w3.org/2000/svg" xmlns:xlink="http://www.w3.org/1999/xlink" x="0px" y="0px"
	 width="700px" height="244px" viewBox="0 0 700 244" enable-background="new 0 0 700 244" xml:space="preserve">
<g>
	<path fill="#ED1C24" d="M282.173,134.551v5.614h-76.968v-5.614h32.736v-7.698h-18.112c-3.16,0-5.865-2.467-5.865-5.771v-13.406
		h46.93v-7.784h-46.93v-5.606h58.049v19.087h-46.751v5.329c0,1.781,0.607,2.38,2.177,2.38h45.616v5.771h-23.727v7.698H282.173z
		 M278.322,167.134l-3.246,4.909c-6.56-0.595-22.145-5.535-31.424-15.771c-9.293,10.235-24.614,15.176-31.446,15.771l-3.232-4.909
		c6.568-0.964,24.774-9.201,28.529-21.824h12.265C253.548,157.933,271.762,166.253,278.322,167.134"/>
	<path fill="#ED1C24" d="M321.83,142.451c4.377,0,6.829,0.086,8.759-1.574v-17.446h-16.023v-5.771h16.023v-24.7h11.127v78.301
		h-11.127v-24.354c-1.578,0.893-4.381,1.409-8.759,1.409h-22.855c-4.546,0-7.527-3.418-7.527-7.439V96.051h31.871v5.846H302.66
		v37.646c0,1.751,0.609,2.909,2.711,2.909H321.83z M349.507,92.959h11.128v78.301h-11.128V92.959z"/>
	<path fill="#ED1C24" d="M448.542,141.484H371.57v-5.791h31.882v-11.816h11.375v11.816h33.715V141.484z M415.081,94.285v3.416
		c0,13.142,15.074,22.781,27.07,25.213l-2.721,4.291c-6.746-0.082-24.521-5.951-30.716-15.583
		c-5.712,8.86-20.595,14.886-30.144,15.407l-2.702-4.186c13.649-2.361,26.781-12.709,26.781-25.143v-3.416H415.081z M392.056,162.6
		c0,1.465,0,2.866,2.885,2.866h45.195v5.795h-53.594c-5.778,0-5.778-4.221-5.778-7.196V147.8h11.292V162.6z"/>
	<path fill="#ED1C24" d="M464.653,109.077h-9.201v-5.756h14.891V93.224h11.201v10.098h15.317v5.756h-9.268
		c4.452,3.422,7.619,10.688,7.619,18.046c0,11.734-6.05,23.738-19.087,23.738c-13.043,0-19.104-12.004-19.104-23.738
		C457.022,119.766,460.104,112.499,464.653,109.077 M476.126,145.247c5.246,0,8.684-7.714,8.684-18.042
		c0-10.344-3.438-17.255-8.684-17.255c-5.173,0-8.579,6.911-8.579,17.255C467.547,137.533,470.953,145.247,476.126,145.247
		 M500.279,92.959h11.045v27.237h6.206V92.959h11.217v78.301H517.53v-45.285h-6.206v45.285h-11.045V92.959z"/>
	<path fill="#ED1C24" d="M560.102,95.252v13.645h35.011V95.252h11.132v40.277h-22.165v14.788h32.584v5.775h-77.066v-5.775h32.846
		v-14.788h-16.55c-4.651,0-7.11-2.819-7.11-7.11V95.252H560.102z M560.102,127.726c0,1.335,0.517,2.017,2.005,2.017h33.006v-15.066
		h-35.011V127.726z"/>
	<path fill="#ED1C24" d="M631.545,105.843h-10.509v-5.622h19.436v-9.102h11.391v9.102h19.35v5.622h-10.408
		c2.965,2.537,4.969,5.779,5.752,9.554h15.164V92.959H693v46.234h-11.28v-17.939h-14.988c-1.041,9.279-8.754,15.669-20.574,15.669
		c-12.783,0-20.74-7.451-20.74-17.936C625.417,113.623,627.501,109.077,631.545,105.843 M643.706,172.043
		c-4.624,0-7.087-2.803-7.087-7.086v-21.104h56.291v28.189H643.706z M646.157,131.771c5.963,0,9.451-5.959,9.451-12.784
		c0-6.848-3.488-12.803-9.451-12.803c-5.955,0-9.447,5.955-9.447,12.803C636.71,125.812,640.202,131.771,646.157,131.771
		 M647.911,164.252c0,1.3,0.517,2.001,2.032,2.001h31.601V149.53h-33.633V164.252z"/>
</g>
<g>
	<path fill="#ED1C24" d="M122.672,198.695c-18.574,18.57-48.977,18.57-67.553,0l-34.318-34.338
		C2.22,145.799,2.22,115.389,20.793,96.814l34.326-34.32c18.576-18.58,48.979-18.58,67.553,0l34.314,34.32
		c18.581,18.574,18.581,48.984,0,67.543L122.672,198.695z"/>
	<path fill="#FFFFFF" d="M68.533,181.01c-2.731,0-4.951-2.138-5.059-4.871c-0.061-1.347,0.413-2.635,1.333-3.648
		c0.918-0.987,2.169-1.582,3.524-1.637c2.793-0.121,5.16,2.056,5.288,4.87c0.116,2.788-2.069,5.169-4.875,5.274
		C68.681,181.01,68.599,181.01,68.533,181.01"/>
	<path fill="#FFFFFF" d="M87.005,87.325c-2.786,0-5.018,0.865-6.825,2.659c-3.89,3.869-5.926,11.85-5.75,22.476
		c0.223,13.101,3.334,38.805,13.643,52.051c1.67,2.146,3.463,3.853,5.336,5.098c1.821,1.19,3.849,2.364,7.034,2.364
		c0.873,0,1.793-0.094,2.76-0.254c5.912-1.438,13.304-8.007,18.811-16.762c0.846-1.323,2.285-2.122,3.854-2.122
		c0.86,0,1.698,0.243,2.422,0.688c1.028,0.662,1.738,1.664,2.022,2.854c0.264,1.19,0.061,2.408-0.589,3.435
		c-6.959,11.064-16.157,18.832-24.586,20.794c-0.027,0.012-0.114,0.027-0.215,0.039c-1.543,0.286-3.066,0.435-4.519,0.435
		c-5.432,0-9.279-2.071-12.006-3.868c-2.706-1.785-5.229-4.166-7.501-7.118c-14.508-18.613-15.497-53.546-15.563-57.47
		c-0.157-9.303,1.176-21.896,8.441-29.101c3.538-3.518,7.987-5.295,13.188-5.295h0.846c5.229,0,9.679,1.778,13.21,5.295
		c7.265,7.204,8.604,19.798,8.441,29.101c-0.154,9.679-1.928,28.441-11.973,45.27c-0.818,1.354-2.326,2.204-3.915,2.204
		c-0.818,0-1.623-0.23-2.333-0.638c-2.151-1.296-2.847-4.08-1.576-6.249c7.034-11.762,10.431-24.714,10.693-40.751
		c0.184-10.626-1.86-18.607-5.755-22.476c-1.793-1.793-4.025-2.659-6.797-2.659H87.005z"/>
</g>
</svg>
