<?xml version="1.0" encoding="utf-8"?>
<!-- Generator: Adobe Illustrator 16.0.0, SVG Export Plug-In . SVG Version: 6.00 Build 0)  -->
<!DOCTYPE svg PUBLIC "-//W3C//DTD SVG 1.1//EN" "http://www.w3.org/Graphics/SVG/1.1/DTD/svg11.dtd">
<svg version="1.1" id="Layer_1" xmlns="http://www.w3.org/2000/svg" xmlns:xlink="http://www.w3.org/1999/xlink" x="0px" y="0px"
	 width="700px" height="244px" viewBox="0 0 700 244" enable-background="new 0 0 700 244" xml:space="preserve">
<polygon fill="#E1332C" points="661.21,75.337 54.859,75.337 54.859,9.5 661.21,9.5 661.21,75.337 "/>
<path fill="#FFFFFF" d="M450.271,45.962c0,10.649-8.642,19.23-19.321,19.23c-10.681,0-19.352-8.581-19.352-19.23
	c0-10.61,8.671-19.251,19.352-19.251C441.629,26.711,450.271,35.352,450.271,45.962L450.271,45.962z"/>
<g>
	<polygon points="661.149,90.409 661.149,119.604 614.795,160.932 661.21,160.932 661.21,186.582 572.346,186.582 572.346,157.348 
		619.479,115.182 572.275,115.182 572.275,90.409 661.149,90.409 	"/>
	<polygon points="54.859,90.298 109.472,90.298 122.02,142.953 122.292,142.953 134.688,90.298 189.13,90.298 189.13,186.582 
		156.06,186.582 155.504,111.002 155.262,111.002 136.364,186.582 105.596,186.582 87.264,111.002 86.719,111.002 86.294,186.582 
		54.859,186.582 54.859,90.298 	"/>
	<polygon points="203.524,90.298 286.928,90.298 286.928,113.486 239.644,113.486 239.644,127.145 284.868,127.145 284.868,150.291 
		239.644,150.291 239.644,163.385 287.887,163.385 287.887,186.582 203.524,186.582 203.524,90.298 	"/>
	<polygon points="562.039,118.725 529.474,118.725 529.474,186.582 492.547,186.582 492.547,118.725 460.002,118.725 
		460.002,90.298 562.039,90.298 562.039,118.725 	"/>
	<path d="M300.687,186.582h36.906v-32.697h8.308c4.553,0,8.248,0.566,10.469,4.977c3.008,5.754,3.463,20.775,5.107,27.721h38.481
		c-3.887-9.408-3.473-24.289-9.126-34.504c-3.462-5.078-8.268-8.965-16.282-10.338v-0.281c13.8-3.281,23.066-10.711,23.066-25.49
		c0-18.463-14.214-25.67-37.25-25.67h-59.68V186.582L300.687,186.582z M335.968,111.82h10.195c7.46,0,14.496,1.242,14.496,9.924
		c0,9.791-7.47,10.639-15.051,10.639h-9.641V111.82L335.968,111.82z"/>
	<polygon points="449.21,90.298 449.21,186.582 412.254,186.582 412.254,90.298 449.21,90.298 	"/>
</g>
<g>
	<path d="M444.375,197.615L444.375,197.615c-1.06,0-6.662,0-7.712,0c0,0.969,0,12.549,0,12.549h-4.503c0,0,0-10.672,0-11.67
		c-1.231,0-19.321,0-20.563,0c0,1.049,0,31.385,0,31.385c0,0.545,0.151,1.049,0.403,1.453c0.293,0.443,0.666,0.879,1.212,1.271
		c0.555,0.445,1.16,0.727,1.786,0.93c0.626,0.191,1.363,0.281,2.181,0.281c0,0,13.749,0,14.98,0c0-1.01,0-18.887,0-18.887h4.503
		c0,0,0,21.926,0,22.965c1.05,0,6.652,0,7.712,0C444.375,236.844,444.375,198.645,444.375,197.615z M424.064,203.268
		L424.064,203.268h0.687v25.783h-5.744v-25.783H424.064z"/>
	<path d="M455.964,197.615L455.964,197.615c-1.07,0-6.663,0-7.713,0c0,1.029,0,39.229,0,40.277c1.05,0,6.643,0,7.713,0
		C455.964,236.844,455.964,198.645,455.964,197.615z"/>
	<path d="M505.974,197.615c0,1.029,0,39.229,0,40.277c-1.091,0-7.592,0-8.692,0c0-0.908,0-5.955,0-5.955h-0.666
		c-0.172,0-0.212,0-1.514,0.424c-0.758,0.242-1.827,0.465-3.211,0.625l-3.522,0.314c-0.323,0.029-1.262,0.07-3.978,0.07h-15.939
		c-0.858,0-1.564-0.102-2.211-0.283c-0.636-0.162-1.231-0.504-1.797-0.908c-0.494-0.404-0.919-0.848-1.211-1.271
		c-0.253-0.424-0.384-0.92-0.384-1.494c0,0,0-15.949,0-16.969c1.271,0,18.796,0,18.796,0v-9.178c0,0-17.524,0-18.796,0
		c0-0.807,0-3.977,0-4.773c1.271,0,26.165,0,27.438,0c0,0.998,0,17.736,0,18.715c-1.252,0-18.776,0-18.776,0v11.408h14.254
		l3.068-0.051l2.998-0.264c2.171-0.342,3.483-0.615,4.109-0.848l0.848-0.303l0.403-0.121l0.091-0.383c0,0,0-28.004,0-29.033
		C498.382,197.615,504.883,197.615,505.974,197.615L505.974,197.615z"/>
	<path d="M512.696,231.807c0,0.797,0,3.977,0,4.773c1.292,0,43.7,0,44.982,0c0-0.797,0-3.977,0-4.773
		C556.396,231.807,513.988,231.807,512.696,231.807L512.696,231.807z"/>
	<path d="M535.066,213.211c8.782,7.006,18.897,8.752,18.897,8.752l3.149-4.139c-15.617-4.563-17.585-13.646-17.585-13.646
		s14.799-0.031,16.051-0.031c0-0.818,0-3.977,0-4.785c-1.252,0-15.96,0-15.96,0s0-2.029,0-2.705h-9.086c0,0.676,0,2.705,0,2.705
		s-14.708,0-15.949,0c0,0.809,0,3.967,0,4.785c1.241,0,16.051,0.031,16.051,0.031s-1.989,9.084-17.605,13.646l3.16,4.139
		C516.189,221.963,526.284,220.217,535.066,213.211L535.066,213.211z"/>
	<path d="M662.027,197.605L662.027,197.605h-7.782c0,0.746,0,13.273,0,13.273h-3.766c0,0,0-12.527,0-13.273h-7.763v40.287
		c0.868,0,6.955,0,7.763,0c0-0.787,0-21.955,0-21.955h3.766c0,0,0,21.168,0,21.955c0.838,0,6.925,0,7.782,0
		C662.027,237.105,662.027,198.363,662.027,197.605z"/>
	<path d="M616.551,198.352v5.037h6.905c0,0,0.444,12.225-0.707,15.93c-1.181,3.676-3.301,6.725-9.297,10.268l3.886,4.047
		c0,0,6.34-2.645,10.499-7.449c4.189,4.805,10.528,7.449,10.528,7.449l3.867-4.047c-5.956-3.543-8.086-6.592-9.268-10.268
		c-1.161-3.705-0.747-15.93-0.747-15.93h6.925v-5.037H616.551L616.551,198.352z"/>
	<path d="M613.946,210.133h-5.552c0-6.713,0-12.154,0-12.527c-1.07,0-7.551,0-8.642,0c0,1.02,0,29.648,0,29.648l-0.191,0.15
		c-0.111,0.051-0.151,0.092-1.373,0.545c-0.777,0.293-2.12,0.557-3.997,0.828c-1.08,0.182-1.979,0.242-2.695,0.242h-7.813v-4.25
		l0.424-0.141c2.625-0.777,4.846-2.141,6.622-4.068c1.757-1.908,2.645-4.33,2.645-7.207c0-1.707-0.383-3.221-1.15-4.492
		c-0.777-1.293-1.928-2.564-3.452-3.836l-1.131-0.879c0,0,4.734,0,5.733,0c0-0.818,0-3.977,0-4.785c-1.16,0-9.69,0-9.69,0
		s0-2.029,0-2.705c-1.11,0-7.592,0-8.691,0c0,0.676,0,2.705,0,2.705s-8.521,0-9.671,0c0,0.809,0,3.967,0,4.785
		c0.979,0,5.552,0,5.552,0l-1.05,0.879c-1.434,1.271-2.604,2.584-3.352,3.896c-0.777,1.242-1.15,2.785-1.15,4.482
		c0,2.846,0.857,5.248,2.654,7.156c1.757,1.928,3.988,3.291,6.582,4.068l0.435,0.141v4.25c0,0-10.953,0-12.205,0
		c0,0.818,0,3.967,0,4.766c1.313,0,28.245,0,28.245,0c0.817,0,1.736-0.082,2.756-0.232l3.806-0.727l1.161-0.313l0.999-0.264
		c0,0,0,4.734,0,5.604c1.091,0,7.571,0,8.642,0c0-0.566,0-12.074,0-22.652h5.552V210.133L613.946,210.133z M579.332,220.449
		c-1.434,0-2.797-0.768-4.028-2.201c-1.191-1.342-1.797-3.018-1.797-4.895c0-1.848,0.605-3.504,1.767-4.846
		c1.222-1.393,2.584-2.08,4.059-2.08c1.504,0,2.847,0.688,4.027,2.08c1.15,1.342,1.736,2.998,1.736,4.896
		c0,1.887-0.586,3.543-1.736,4.895C582.128,219.723,580.765,220.449,579.332,220.449L579.332,220.449z"/>
</g>
</svg>
