<?xml version="1.0" encoding="utf-8"?>
<!-- Generator: Adobe Illustrator 16.0.0, SVG Export Plug-In . SVG Version: 6.00 Build 0)  -->
<!DOCTYPE svg PUBLIC "-//W3C//DTD SVG 1.1//EN" "http://www.w3.org/Graphics/SVG/1.1/DTD/svg11.dtd">
<svg version="1.1" id="Layer_1" xmlns="http://www.w3.org/2000/svg" xmlns:xlink="http://www.w3.org/1999/xlink" x="0px" y="0px"
	 width="700px" height="244px" viewBox="0 0 700 244" enable-background="new 0 0 700 244" xml:space="preserve">
<path fill="#A4CE4E" d="M162.112,52.024c-2.567,0.007-5.907,0.785-10.302,2.303c-18.542,6.404-35.092,17.123-50.219,32.519
	L91.049,99.288l4.064,5.816c6.966,9.834,14.254,26.496,17.666,40.517c2.093,8.049,2.915,13.025,3.258,21.329
	c0.059,1.396,0.128,2.868,0.162,4.484c0.038,1.604,0.065,3.331,0.082,5.211c0.076,9.954,0.197,21.33-0.845,21.33h49.696l2.818-2.87
	c1.752-2.511,2.013-11.382,2.013-70.653c0-61.274-0.208-68.032-2.131-70.168C166.473,52.784,164.681,52.018,162.112,52.024z"/>
<path fill="#0192D5" d="M19.744,52.024c-2.495-0.042-4.309,0.633-5.836,2.02c-2.224,2.02-2.333,5.911-2.333,70.167
	c0,59.476,0.258,68.384,2.013,70.897l2.013,2.867h49.415c38.149,0,49.648-0.368,50.421-1.615c0.55-0.888,0.921-9.76,0.844-19.714
	c-0.115-15.042-0.706-20.28-3.5-31.024c-6.116-23.508-17.637-44.701-34.226-60.497C64.125,71.388,47.519,60.474,29.723,54.326
	c-4.3-1.483-7.487-2.258-9.98-2.3L19.744,52.024z"/>
<path fill="#0065A5" d="M91.051,99.284l-3.14,3.802c-5.578,6.823-15.753,29.449-19.155,42.577
	c-2.781,10.733-3.362,15.96-3.459,31.065c-0.066,9.983-0.242,21.249,0.763,21.249h49.375c1.041,0,0.921-11.375,0.844-21.33
	c-0.115-15.042-0.876-20.235-3.5-31.023c-3.412-14.022-10.683-30.673-17.649-40.507L91.051,99.284z"/>
<g>
	<path d="M608.82,75.213c-6.946,0.011-13.717,2.444-18.551,6.705c-5.759,5.076-7.869,9.254-8.975,17.613l-0.886,6.665h-9.979V123
		h10.301v25.006c0,13.745,0.373,25.38,0.845,25.854c0.473,0.475,5.108,0.849,10.302,0.849h9.456V123h15.453v-16.805h-15.452v-4.281
		c0-6.296,4.759-10.375,11.187-9.615c2.703,0.319,5.828,0.989,6.962,1.494c1.524,0.68,3.096-0.703,6.075-5.292l4.064-6.222
		l-2.897-2.182C623.343,77.519,614.82,75.203,608.82,75.213L608.82,75.213z M548.34,75.333c-10.067,0.524-15.091,15.747-5.15,21.168
		c5.02,2.737,8.521,2.334,12.956-1.415c3.181-2.688,3.985-4.343,3.985-8.403c0-5.705-3.059-9.608-8.531-10.987
		C550.459,75.411,549.382,75.28,548.34,75.333z M314.182,77.677l-10.462,0.363l-10.422,0.364l-11.549,21.328
		c-6.35,11.731-11.96,21.737-12.434,22.219c-0.475,0.48-6.351-9.259-13.079-21.653l-12.233-22.54l-10.301,0.323l-10.302,0.323
		l-1.489,32.964c-0.811,18.13-1.847,39.799-2.293,48.152l-0.804,15.188h20.281l0.844-16.48c0.462-9.066,0.921-21.427,1.006-27.47
		c0.299-20.87,0.416-20.859,12.032-0.162l10.262,18.261h10.824l10.102-19.067l10.06-19.067l0.966,22.62
		c0.53,12.443,1.314,26.842,1.732,31.995l0.723,9.374h20.403l-0.04-6.141c-0.017-3.377-0.86-23.301-1.891-44.275
		c-1.032-20.973-1.875-40.035-1.892-42.375L314.182,77.677L314.182,77.677z M466.129,77.758v47.627
		c0,26.187,0.372,48.002,0.844,48.475c0.473,0.475,14.67,0.849,31.549,0.849h30.702v-18.099h-41.206V77.757L466.129,77.758
		L466.129,77.758z M412.045,88.018v18.058l-5.472,0.363l-5.473,0.405v15.513l5.473,0.404l5.472,0.405l0.041,17.047
		c0.074,22.624,2.314,28.961,11.95,33.73c6.666,3.3,20.31,2.724,27.968-1.172l6.358-3.231l-3.862-6.303l-3.863-6.302l-5.594,2.061
		c-5.197,1.876-5.89,1.853-9.014-0.201c-3.36-2.213-3.381-2.307-3.381-18.988v-16.804h16.74v-16.805h-16.62l-0.403-8.726
		l-0.363-8.726l-9.979-0.363L412.045,88.018L412.045,88.018z M361.744,104.621c-14.009,0.088-25.066,7.175-30.702,19.673
		c-3.876,8.596-3.716,24.292,0.361,33.084c3.447,7.431,10.495,13.836,18.149,16.564c11.46,4.084,31.689,1.79,40.885-4.647l3.5-2.423
		l-3.903-6.342l-3.862-6.302l-6.68,3.108c-7.118,3.327-16.296,4.126-22.132,1.9c-4.342-1.658-9.697-7.479-9.697-10.544
		c0-2.248,1.484-2.424,23.821-2.424h23.823v-6.221C395.306,118.875,381.668,104.495,361.744,104.621L361.744,104.621z
		 M361.906,120.335c3.97-0.064,7.693,1.26,10.301,3.878c2.07,2.078,3.783,4.987,3.783,6.464c0,2.556-0.684,2.665-14.165,2.665
		c-9.031,0-14.164-0.467-14.164-1.332c0-3.053,3.879-8.57,7.042-10.017C357.049,120.919,359.523,120.374,361.906,120.335
		L361.906,120.335z M657.068,104.702c-20.081,0-33.396,12.377-34.808,32.399c-1.169,16.584,4.859,28.367,17.907,34.982
		c7.797,3.954,8.741,4.113,20.441,3.676c10.255-0.384,13.489-1.062,19.637-4.081c4.051-1.988,7.366-4.044,7.366-4.563
		c0-0.521-1.722-3.662-3.823-6.988l-3.823-6.06l-4.589,2.747c-6.134,3.632-19.375,4.745-24.547,2.06
		c-4.579-2.378-7.667-5.789-8.854-9.695l-0.885-2.909h49.334l-0.886-6.788C686.512,115.765,676.188,104.702,657.068,104.702
		L657.068,104.702z M656.063,120.417c4.502,0,6.577,0.773,9.536,3.554c2.081,1.957,4.171,4.863,4.628,6.464
		c0.829,2.897,0.761,2.907-14.164,2.907s-14.993-0.01-14.165-2.907c0.458-1.599,2.546-4.507,4.627-6.464
		C649.485,121.19,651.561,120.417,656.063,120.417L656.063,120.417z M558.842,106.116l-9.979,0.363l-9.98,0.364l-0.361,32.317
		c-0.189,17.761-0.063,33.03,0.282,33.933c0.429,1.124,3.696,1.615,10.342,1.615h9.696V106.116L558.842,106.116z"/>
</g>
</svg>
