<?xml version="1.0" encoding="utf-8"?>
<!-- Generator: Adobe Illustrator 16.0.0, SVG Export Plug-In . SVG Version: 6.00 Build 0)  -->
<!DOCTYPE svg PUBLIC "-//W3C//DTD SVG 1.1//EN" "http://www.w3.org/Graphics/SVG/1.1/DTD/svg11.dtd">
<svg version="1.1" id="Layer_1" xmlns="http://www.w3.org/2000/svg" xmlns:xlink="http://www.w3.org/1999/xlink" x="0px" y="0px"
	 width="700px" height="244px" viewBox="0 0 700 244" enable-background="new 0 0 700 244" xml:space="preserve">
<g>
	<path fill="#034EA1" d="M603.983,97.289c0.31-0.154,0.589-0.303,0.868-0.431C604.572,96.986,604.293,97.134,603.983,97.289z"/>
	<path fill="#034EA1" d="M605.589,96.499c0.076-0.048,0.154-0.074,0.207-0.102C605.743,96.424,605.665,96.451,605.589,96.499z"/>
	<path fill="#F5822B" d="M668.841,16.56c-10.513,40.145-43.357,64.366-52.924,72.183l1.021,1.349
		C640.267,76.76,679.959,51.796,691,6L668.841,16.56z"/>
	<path fill="#034EA1" d="M604.852,96.858c0.255-0.107,0.505-0.235,0.737-0.359C605.356,96.623,605.106,96.75,604.852,96.858z"/>
	<path fill="#034EA1" d="M603.759,97.417c0.076-0.054,0.178-0.074,0.225-0.128C603.937,97.342,603.835,97.363,603.759,97.417z"/>
	<path fill="#004B85" d="M104.651,162.781c4.246,0,15.649,0,18.959,0c0.636-4.205,9.08-63.3,9.87-68.827c-4.249,0-15.673,0-18.959,0
		C113.939,98.153,105.465,157.258,104.651,162.781z"/>
	<path fill="#004B85" d="M259.777,162.781c5.141,0,40.501,0,44.447,0c0.434-3.031,1.548-10.99,2.113-14.859
		c-4.656,0-26.919,0-26.919,0l1.807-12.729c0,0,20.76,0,24.45,0c0.407-2.947,1.447-10.1,1.982-13.858c-4.501,0-24.424,0-24.424,0
		l1.783-12.518c0,0,22.469,0,26.207,0c0.431-3.03,1.602-11.021,2.136-14.862c-5.113,0-39.794,0-43.71,0
		C269.062,98.153,260.564,157.258,259.777,162.781z"/>
	<path fill="#004B85" d="M58.552,133.365l-5.396-39.411c-3.69,0-19.896,0-22.974,0c-1.016,3.533-14.095,62.665-15.872,68.827
		c4.525,0,14.22,0,17.067,0c3.536-13.822,9.974-46.004,10.405-48.191l6.085,48.191c2.823,0,11.344,0,13.582,0
		c1.275-3.084,20.608-48.191,20.608-48.191l-2.849,48.191c3.64,0,13.587,0,17.177,0c-0.051-4.889,3.152-63.992,3.099-68.827
		c-3.913,0-21.037,0-23.835,0C74.428,97.107,58.552,133.365,58.552,133.365z"/>
	<path fill="#004B85" d="M244.511,93.955c-3.565,0-20.252,0-23.027,0c-1.325,2.903-27.579,62.055-30.681,68.827
		c5.39,0,15.875,0,18.446,0c0.992-2.32,5.648-13.92,5.648-13.92l21.422-0.027c0,0,1.218,11.217,1.652,13.947
		c3.259,0,13.813,0,18.169,0C255.148,157.076,245.224,97.978,244.511,93.955z M220.087,134.637l10.887-25.541l3.536,25.541H220.087z
		"/>
	<path fill="#004B85" d="M192.148,116.649c0.229-1.628,0.356-3.203,0.356-4.656c0-4.861-1.271-8.756-3.765-11.647
		c-4.579-5.271-12.419-6.392-18.219-6.392c0,0-22.005,0-25.951,0c-0.636,4.199-9.104,63.303-9.894,68.827c4.121,0,14.069,0,17.248,0
		c0.333-2.113,2.725-18.832,4.787-33.439l14.297,33.439c2.543,0,12.949,0,18.392,0l-13.917-29.006
		C183.906,132.219,190.5,129.726,192.148,116.649z M173.756,116.394c0,0-0.562,5.271-4.023,6.926c0,0-2.392,1.545-6.332,1.646
		h-6.062c1.429-10.019,2.573-18.086,2.573-18.086h4.249c2.853,0,6.083,0.306,8.091,2.621
		C173.679,111.155,174.161,113.473,173.756,116.394z"/>
	<g>
		<path fill="#004B85" d="M562.231,93.982c-0.428,2.876-1.729,11.905-2.389,16.362c13.383-3.747,29.537-9.107,44.498-16.362
			C592.229,93.982,565.44,93.982,562.231,93.982z"/>
		<path fill="#004B85" d="M609.457,94.439c-1.043,0.609-2.291,1.275-3.661,1.958c-0.053,0.027-0.131,0.054-0.207,0.102
			c-0.232,0.125-0.482,0.252-0.737,0.359c-0.279,0.128-0.559,0.276-0.868,0.431c-0.047,0.054-0.148,0.074-0.225,0.128
			c-7.839,3.821-19.385,8.724-34.503,13.665c-7.226,2.392-15.267,4.757-24.067,7.042c-0.023,0-0.05,0-0.076,0
			c-1.172,0.335-2.393,0.639-3.613,0.921c-0.074,0.044-0.179,0.072-0.256,0.098c-1.141,0.282-2.365,0.564-3.56,0.838
			c-0.125,0.054-0.231,0.083-0.356,0.11c-1.171,0.273-2.338,0.556-3.512,0.838c-0.179,0.027-0.357,0.071-0.535,0.125
			c-0.431,0.101-0.915,0.175-1.346,0.282c-0.687,0.175-1.376,0.303-2.089,0.484c-0.226,0.072-0.458,0.099-0.684,0.146
			c-1.123,0.255-2.24,0.49-3.357,0.719c-0.285,0.074-0.564,0.128-0.868,0.172c-1.093,0.227-2.162,0.465-3.283,0.689
			c-0.33,0.074-0.659,0.129-1.016,0.199c-1.046,0.229-2.113,0.438-3.182,0.639c-0.404,0.074-0.791,0.154-1.195,0.229
			c-1.046,0.205-2.086,0.381-3.105,0.59c-0.454,0.074-0.914,0.174-1.346,0.229c-1.019,0.199-2.062,0.38-3.08,0.555
			c-0.484,0.08-0.967,0.154-1.453,0.256c-0.072,0-0.102,0-0.119,0.027c-0.945,0.154-1.943,0.309-2.906,0.48
			c-0.535,0.08-1.069,0.154-1.628,0.256c-0.966,0.154-1.935,0.309-2.927,0.455c-0.586,0.107-1.168,0.182-1.783,0.281
			c-0.965,0.155-1.904,0.283-2.873,0.438l0,0c-0.611,0.102-1.271,0.172-1.907,0.273c-0.915,0.127-1.884,0.256-2.796,0.383
			c-0.689,0.08-1.402,0.209-2.089,0.283c-0.915,0.127-1.83,0.225-2.745,0.354c-0.713,0.101-1.48,0.181-2.193,0.281
			c-0.915,0.102-1.807,0.203-2.691,0.33c-0.791,0.08-1.555,0.152-2.318,0.234c-0.918,0.125-1.782,0.199-2.674,0.301
			c-0.814,0.08-1.628,0.182-2.466,0.256c-0.862,0.101-1.729,0.181-2.62,0.281c-0.838,0.072-1.703,0.152-2.57,0.227
			c-0.838,0.102-1.706,0.154-2.57,0.229c-0.023,0-0.051,0-0.102,0c-0.864,0.102-1.705,0.154-2.597,0.229
			c-0.813,0.08-1.676,0.129-2.514,0.209c-0.944,0.07-1.884,0.154-2.825,0.225c-0.842,0.049-1.652,0.102-2.467,0.182
			c-0.969,0.047-1.958,0.102-2.95,0.176c-0.813,0.053-1.657,0.102-2.472,0.154c-1.017,0.047-2.006,0.102-3.025,0.172
			c-0.844,0.029-1.658,0.084-2.472,0.111c-0.074,0-0.101,0-0.151,0c-0.992,0.07-1.959,0.098-2.975,0.145
			c-0.814,0.027-1.628,0.053-2.442,0.107c-1.069,0.02-2.14,0.074-3.206,0.102c-0.816,0.047-1.604,0.047-2.418,0.074
			c-1.097,0.025-2.214,0.053-3.331,0.1c-0.79,0-1.581,0-2.396,0.027c-1.119,0.027-2.261,0.053-3.407,0.053
			c-0.788,0.027-1.602,0.027-2.416,0.049c-1.147,0-2.294,0-3.488,0c-0.356,0-0.737,0-1.069,0c-0.428,0-0.892,0-1.319,0
			c-1.171,0-2.368,0-3.563,0c-0.813-0.021-1.632-0.049-2.415-0.049c-1.195-0.025-2.396-0.025-3.619-0.053
			c-0.809-0.027-1.623-0.027-2.438-0.047c-1.224-0.027-2.445-0.055-3.666-0.107c-0.838,0-1.682-0.047-2.496-0.074
			c-1.242-0.055-2.441-0.074-3.689-0.154c-0.862,0-1.7-0.049-2.568-0.074c-1.247-0.08-2.438-0.125-3.684-0.18
			c-0.713-0.029-1.373-0.1-2.092-0.1c-0.178-0.027-0.351-0.027-0.529-0.055c-1.254-0.047-2.498-0.127-3.743-0.201
			c-0.864-0.053-1.753-0.102-2.62-0.154c-1.248-0.102-2.496-0.154-3.792-0.256c-0.892-0.072-1.83-0.146-2.745-0.227
			c-1.248-0.074-2.496-0.154-3.741-0.254c-0.966-0.102-1.961-0.176-2.95-0.256c-1.201-0.102-2.371-0.229-3.59-0.328
			c-1.193-0.101-2.365-0.229-3.559-0.355c-1.02-0.102-2.063-0.182-3.055-0.31c-2.24-0.198-4.48-0.454-6.719-0.71l14.682-13.792
			c0,0,8.524,2.573,20.299,4.686c-2.21-13.312-4.195-25.012-4.501-26.718c-3.563,0-20.249,0-22.997,0
			c-1.352,2.903-27.606,62.055-30.711,68.827c5.393,0,15.904,0,18.473,0c0.992-2.32,7.172-17.1,7.172-17.1h19.238
			c0,0,1.881,14.369,2.285,17.1c3.287,0,13.84,0,18.193,0c-0.381-2.221-2.163-12.623-4.198-24.686
			c12.976,0.736,25.98,0.891,38.064,0.717c0.608,1.012,0.912,2.111,0.912,3.307c0,0.406,0,0.816-0.071,1.244
			c-0.307,1.557-1.096,2.82-2.344,3.711c-2.518,1.76-6.106,1.377-8.576,0.949c-5.873-1.047-10.503-5.498-14.271-9.191
			c-2.395,3.869-7.33,11.912-8.955,14.561c6.971,6.277,14.452,10.146,22.361,11.246c8.017,1.217,15.956-0.592,21.856-4.941
			c5.141-3.789,8.37-9.336,9.39-16.004c0.329-1.932,0.431-3.762,0.354-5.496c12.976-0.529,23.74-1.377,30.687-1.959
			c2.262,1.656,3.436,3.613,3.436,5.881c0,0.406-0.054,0.816-0.104,1.244c-0.279,1.557-1.093,2.82-2.341,3.711
			c-2.52,1.76-6.104,1.377-8.572,0.949c-5.881-1.047-10.561-5.498-14.301-9.191c-2.365,3.869-7.324,11.912-8.932,14.561
			c6.947,6.277,14.428,10.146,22.367,11.246c8.017,1.217,15.95-0.592,21.827-4.941c5.17-3.789,8.396-9.336,9.416-16.004
			c0.608-3.74,0.484-7.098-0.437-10.1c2.953-0.404,5.775-0.838,8.498-1.273c-2.08,14.428-4.015,27.938-4.398,30.461
			c5.141,0,40.48,0,44.477,0c0.401-3.031,1.572-10.99,2.107-14.859c-4.68,0-26.917,0-26.917,0l1.807-12.729c0,0,20.736,0,24.427,0
			c0.404-2.639,1.271-8.645,1.807-12.563c3.354-1.067,5.01-1.703,5.01-1.703s8.269-2.469,18.956-6.445
			c-1.552,10.792-6.261,43.712-6.921,48.298c4.271,0,16.055,0,19.258,0c0.559-4.076,7.428-51.7,7.428-51.7s10.738,0,13.894,0
			c0.434-2.957,1.756-12.393,2.368-16.695C609.558,94.413,609.507,94.413,609.457,94.439z"/>
		<path fill="#004B85" d="M403.601,123.189c8.598,0.656,20.383,1.193,33.939,1.295c-1.651-1.295-3.586-2.439-5.853-3.432
			c-0.077-0.054-4.985-2.52-4.985-2.52l-0.078-0.026l-0.07-0.048c-1.605-0.918-5.396-3.11-5.396-6.795
			c0.027-1.783,0.736-3.357,2.012-4.403c1.574-1.319,3.943-1.804,6.539-1.373c3.254,0.535,6.994,2.647,11.09,6.16
			c1.961-3.741,5.672-10.893,7.023-13.457c-4.709-3.896-9.288-5.961-16.084-7.182c-8.393-1.219-16.511,0.538-22.209,4.861
			c-4.809,3.693-7.785,9.059-8.576,15.575c-0.124,1.117-0.198,2.184-0.198,3.203c0,3.049,0.559,5.726,1.628,8.064
			C402.786,123.135,403.196,123.166,403.601,123.189z"/>
		<path fill="#004B85" d="M488.756,122.711c-0.992-0.591-2.062-1.147-3.229-1.658c-0.102-0.054-5.013-2.52-5.013-2.52l-0.05-0.026
			l-0.078-0.048c-1.628-0.918-5.39-3.11-5.39-6.795c0-1.783,0.708-3.357,1.981-4.403c1.602-1.319,3.967-1.804,6.54-1.373
			c3.28,0.535,6.995,2.647,11.089,6.16c1.961-3.741,5.678-10.893,7.023-13.457c-4.706-3.896-9.264-5.961-16.08-7.182
			c-8.394-1.219-16.511,0.538-22.184,4.861c-4.807,3.693-7.784,9.059-8.598,15.575c-0.104,1.117-0.182,2.184-0.182,3.203
			c0,3.587,0.74,6.691,2.24,9.283C467.104,124.102,477.87,123.594,488.756,122.711z"/>
		<path fill="#004B85" d="M527.147,108.817c0,0,22.445,0,26.207,0c0.436-3.03,1.577-11.021,2.139-14.862c-5.141,0-39.791,0-43.713,0
			c-0.276,1.786-1.932,13.514-3.839,26.792c6.026-0.767,12.01-1.631,17.881-2.668L527.147,108.817z"/>
	</g>
	<g>
		<g>
			<path fill="#004B85" d="M239.27,184.555l-8.296,46.969h-24.296c-2.624,0-4.48-0.537-5.547-1.629
				c-1.117-1.045-1.474-2.623-1.093-4.705l7.149-40.635H239.27z M215.223,192.061l-5.648,31.801h13.335l5.571-31.801H215.223z
				 M257.92,183.434l-9.594,54.348h-9.439l9.567-54.348H257.92z"/>
			<path fill="#004B85" d="M293.563,184.58l-4.454,25.215h-12.337l-2.621,14.756h16.737l7.282-41.117h9.437l-3.794,21.574h7.027
				l3.815-21.574h9.463l-9.591,54.348h-9.389l4.501-25.748h-7.045l-4.501,25.775h-9.52l1.123-6.313h-17.988
				c-2.674,0-4.605-0.527-5.8-1.527c-1.2-1.092-1.628-2.641-1.278-4.705l3.792-21.42h12.289l2.139-12.42h-12.238l1.224-6.844
				H293.563z"/>
			<path fill="#004B85" d="M358.39,209.031c-1.426,7.223-3.664,13.074-6.818,17.557c-3.332,4.809-7.25,7.227-11.701,7.227
				c-4.555,0-7.66-2.52-9.312-7.531c-1.527-4.633-1.634-10.686-0.309-18.143c1.248-7.174,3.461-13.076,6.59-17.635
				c3.436-4.932,7.429-7.398,11.959-7.398c3.92,0,6.77,1.857,8.576,5.65c1.651,3.504,2.24,8.217,1.779,14.113
				C359.153,202.871,359.076,204.629,358.39,209.031z M354.904,212.006l1.347-7.016h6.26l3.814-21.582h9.141l-9.57,54.346h-9.209
				l4.553-25.748H354.904z M342.669,194.609c-1.48,3.432-2.752,7.934-3.744,13.531c-1.039,5.93-1.399,10.637-1.144,14.145
				c0.255,3.768,1.298,5.652,3.081,5.652c1.705,0,3.381-1.885,5.01-5.652c1.527-3.508,2.799-8.215,3.838-14.145
				c0.969-5.598,1.326-10.1,1.047-13.531c-0.309-3.723-1.346-5.596-3.027-5.596C345.949,189.014,344.268,190.887,342.669,194.609z
				 M389.407,183.434l-9.595,54.348h-9.185l9.568-54.348H389.407z"/>
			<path fill="#004B85" d="M418.233,183.871c-1.225,6.943-1.354,12.414-0.41,16.432c0.892,3.895,2.9,6.898,6.056,9.064l-5.598,3.938
				c-2.062-1.373-3.866-3.201-5.396-5.469c-0.912-1.244-1.857-2.902-2.847-4.965c-1.427,1.736-2.924,3.365-4.558,4.912
				c-2.363,2.24-4.832,4.148-7.375,5.648l-4.124-4.018c3.868-2.395,6.846-5.27,8.958-8.654c2.672-4.121,4.578-9.746,5.881-16.889
				H418.233z M440.726,183.434l-5.473,30.99h-9.314l2.677-15.184h-6.745l1.094-6.135h6.744l1.706-9.672H440.726z M454.664,183.434
				l-5.446,31.018h-9.336l5.446-31.018H454.664z M434.974,227.426c3.506,2.65,7.883,4.354,13.18,5.141l-4.914,5.391
				c-4.552-0.785-8.648-2.16-12.26-4.115c-3.643-2.063-6.158-4.377-7.585-6.977c-2.187,2.6-5.624,4.941-10.228,7.047
				c-4.602,2.059-9.54,3.516-14.758,4.301l-2.645-5.32c5.471-0.707,10.584-2.436,15.314-5.211c5.526-3.256,8.652-7.047,9.389-11.299
				h9.443C429.144,220.635,430.85,224.352,434.974,227.426z"/>
		</g>
		<path fill="#004B85" d="M483.542,183.871l-1.171,6.588c-0.659,3.842-0.38,7.428,0.915,10.736c1.301,3.203,3.512,5.852,6.59,7.889
			l-5.544,3.914c-2.163-1.477-4.098-3.203-5.776-5.215c-1.449-1.729-2.496-3.305-3.186-4.787c-1.266,1.633-2.769,3.24-4.498,4.787
			c-2.291,2.012-4.808,3.766-7.404,5.268l-4.172-3.967c3.66-2.166,6.588-4.686,8.774-7.508c2.47-3.182,4.097-6.869,4.834-11.043
			l1.171-6.662H483.542z M496.288,183.434h9.413l-2.294,12.803h4.938l2.267-12.803h9.339l-5.443,30.809h-9.341l2.062-11.674h-4.909
			l-2.088,11.674h-9.387l0.178-0.881L496.288,183.434z M477.382,223.988c-2.771,1.02-4.299,2.268-4.555,3.768
			c-0.226,1.43,0.844,2.674,3.232,3.715c2.648,1.125,6.335,1.678,11.068,1.678c4.683,0,8.524-0.553,11.579-1.678
			c2.748-1.014,4.272-2.24,4.528-3.715c0.279-1.5-0.787-2.748-3.207-3.768c-2.62-1.119-6.283-1.703-10.99-1.703
			C484.332,222.285,480.437,222.869,477.382,223.988z M507.941,219.867c3.714,2.137,5.269,4.758,4.733,7.889
			c-0.535,3.105-3.055,5.723-7.508,7.861c-4.959,2.42-11.345,3.641-19.129,3.641c-7.813,0-13.793-1.221-17.968-3.641
			c-3.765-2.139-5.315-4.756-4.811-7.861c0.564-3.078,3.108-5.725,7.612-7.889c5.01-2.439,11.398-3.639,19.236-3.639
			C497.89,216.229,503.841,217.428,507.941,219.867z"/>
		<path fill="#004B85" d="M565.619,184.555l-0.687,3.82h9.006l0.865-4.941h9.463l-5.416,30.809h-9.464l1.117-6.379h-9.009
			l-0.684,3.939h-24.174c-2.617,0-4.475-0.561-5.621-1.65c-1.07-1.068-1.427-2.621-1.07-4.633l3.69-20.965H565.619z
			 M541.956,190.639l-2.645,14.854h13.205l2.646-14.854H541.956z M571.544,201.906l1.35-7.506h-9.004l-1.324,7.506H571.544z
			 M541.829,223.861c-2.618,1.045-4.092,2.32-4.348,3.82c-0.285,1.475,0.736,2.695,3.055,3.715
			c2.541,1.146,6.228,1.752,11.041,1.752c4.885,0,8.824-0.605,11.802-1.752c2.698-1.02,4.175-2.24,4.454-3.715
			c0.252-1.5-0.764-2.775-3.105-3.82c-2.59-1.139-6.357-1.703-11.219-1.703C548.701,222.158,544.806,222.723,541.829,223.861z
			 M572.614,219.723c3.689,2.154,5.244,4.857,4.682,8.033c-0.585,3.084-3.102,5.701-7.559,7.832
			c-4.982,2.449-11.392,3.643-19.283,3.643c-7.785,0-13.763-1.193-17.887-3.643c-3.637-2.131-5.212-4.748-4.653-7.832
			c0.559-3.176,3.024-5.879,7.455-8.033c5.013-2.422,11.425-3.641,19.183-3.641C562.464,216.082,568.469,217.301,572.614,219.723z"
			/>
	</g>
</g>
</svg>
