<?xml version="1.0" encoding="utf-8"?>
<!-- Generator: Adobe Illustrator 16.0.0, SVG Export Plug-In . SVG Version: 6.00 Build 0)  -->
<!DOCTYPE svg PUBLIC "-//W3C//DTD SVG 1.1//EN" "http://www.w3.org/Graphics/SVG/1.1/DTD/svg11.dtd">
<svg version="1.1" id="Layer_1" xmlns="http://www.w3.org/2000/svg" xmlns:xlink="http://www.w3.org/1999/xlink" x="0px" y="0px"
	 width="700px" height="244px" viewBox="0 0 700 244" enable-background="new 0 0 700 244" xml:space="preserve">
<g>
	<polygon fill="#034EA1" points="590.729,127.066 590.729,81.473 601.69,81.473 601.69,127.066 590.729,127.066 	"/>
	<polygon fill="#034EA1" points="606.122,127.066 606.122,81.473 617.055,81.473 617.055,127.066 606.122,127.066 	"/>
	<polygon fill="#034EA1" points="599.586,104.988 599.586,95.581 610.639,95.581 610.639,104.988 599.586,104.988 	"/>
	<path fill="#034EA1" d="M607.605,151.11c0-7.01-8.381-12.668-18.703-12.668c-10.365,0-18.722,5.658-18.722,12.668
		c0,6.962,8.356,12.629,18.722,12.629C599.225,163.739,607.605,158.072,607.605,151.11L607.605,151.11z M588.902,173.717
		c-16.623,0-30.094-10.116-30.094-22.606c0-12.535,13.471-22.646,30.094-22.646c16.599,0,30.07,10.111,30.07,22.646
		C618.973,163.601,605.501,173.717,588.902,173.717L588.902,173.717z"/>
	<polygon fill="#034EA1" points="640.686,123.963 640.686,84.257 630.024,84.257 630.024,123.963 640.686,123.963 	"/>
	<polygon fill="#034EA1" points="669.982,123.963 669.982,84.257 659.295,84.257 659.295,123.963 669.982,123.963 	"/>
	<polygon fill="#034EA1" points="635.824,93.637 635.824,84.257 665.896,84.257 665.896,93.637 635.824,93.637 	"/>
	<polygon fill="#034EA1" points="635.824,123.963 635.824,114.574 665.896,114.574 665.896,123.963 635.824,123.963 	"/>
	<polygon fill="#034EA1" points="679.981,127.502 679.981,81.041 690.919,81.041 690.919,127.502 679.981,127.502 	"/>
	<polygon fill="#034EA1" points="667.537,99.714 667.537,90.307 684.096,90.307 684.096,99.714 667.537,99.714 	"/>
	<polygon fill="#034EA1" points="667.537,116.542 667.537,107.159 684.096,107.159 684.096,116.542 667.537,116.542 	"/>
	<path fill="#034EA1" d="M681.922,151.11c0-7.01-8.377-12.668-18.699-12.668c-10.32,0-18.697,5.658-18.697,12.668
		c0,6.962,8.377,12.629,18.697,12.629C673.545,163.739,681.922,158.072,681.922,151.11L681.922,151.11z M663.223,173.717
		c-16.623,0-30.07-10.116-30.07-22.606c0-12.535,13.447-22.646,30.07-22.646c16.625,0,30.075,10.111,30.075,22.646
		C693.298,163.601,679.848,173.717,663.223,173.717L663.223,173.717z"/>
	<path fill="#034EA1" d="M562.211,82.747l-0.021,2.512c0,8.291,0.637,21.444-15.346,31.921l5.618,7.698
		c0,0,11.897-7.765,15.386-17.628h-0.021c3.496,9.864,15.391,17.628,15.391,17.628l5.592-7.698
		c-15.959-10.477-15.34-23.63-15.34-31.921l-0.021-2.512H562.211L562.211,82.747z"/>
	<polygon fill="#034EA1" points="451.197,82.086 451.197,128.67 462.406,128.67 462.406,111.316 472.385,111.316 472.385,101.772 
		462.636,101.772 462.636,82.086 451.197,82.086 	"/>
	<path fill="#034EA1" d="M451.652,161.299v-19.523h-31.827v19.523H451.652L451.652,161.299z M408.866,170.592v-38.109h53.77v38.109
		H408.866L408.866,170.592z"/>
	<path fill="#034EA1" d="M530.996,150.905c0-7.034-8.42-12.716-18.812-12.716s-18.815,5.682-18.815,12.716
		c0,7.013,8.424,12.695,18.815,12.695S530.996,157.918,530.996,150.905L530.996,150.905z M512.185,173.669
		c-16.714,0-30.254-10.183-30.254-22.764c0-12.577,13.54-22.767,30.254-22.767s30.229,10.189,30.229,22.767
		C542.414,163.486,528.898,173.669,512.185,173.669L512.185,173.669z"/>
	<path fill="#034EA1" d="M424.209,83.755c0,0-1.506,25.209,18.905,35.641l-5.866,8.13c0,0-14.98-9.863-18.358-20.684
		c-3.357,10.82-18.335,20.684-18.335,20.684l-5.869-8.13c20.415-10.432,18.93-35.641,18.93-35.641H424.209L424.209,83.755z"/>
	<path fill="#034EA1" d="M494.967,106.842c-3.379,10.82-17.076,19.859-17.076,19.859l-5.893-8.124
		c19.18-9.613,17.674-34.822,17.674-34.822h10.594c0,0-1.482,25.209,17.652,34.822l-5.872,8.124
		C512.046,126.701,498.348,117.662,494.967,106.842L494.967,106.842z"/>
	<polygon fill="#034EA1" points="540.244,82.02 540.244,128.621 529.013,128.621 529.013,107.226 514.377,107.226 514.377,97.683 
		528.783,97.683 528.783,82.02 540.244,82.02 	"/>
	<path fill="#034EA1" d="M305.297,141.637H293.33l-10.682-23.542h-0.456l0.616,23.542h-10.047v-38.493h12.327l10.298,23.353h0.456
		l-0.73-23.353h10.186V141.637L305.297,141.637z M259.015,132.344c0,10.592-13.428,10.437-13.428,10.437
		c-15.431,0-14.268-10.94-14.268-10.94v-28.883h11.004l0.024,29.11c0,3.267,3.104,3.109,3.104,3.109
		c2.923,0,2.787-3.173,2.787-3.173V102.98h10.777V132.344L259.015,132.344z M219.332,129.738v3.886
		c-0.618,9.61-13.884,9.338-13.884,9.338c-13.882,0-13.562-9.116-13.562-9.116v-4.769h10.802v3.314c0,2.784,2.691,2.898,2.691,2.898
		c2.946,0.115,3.197-2.717,3.197-2.717c0.389-2.786-2.648-4.525-2.648-4.525c-3.013-1.552-8.061-4.271-8.061-4.271
		c-2.49-1.616-3.493-3.101-3.493-3.101c-1.803-2.261-1.667-5.733-1.667-5.733v-3.034c0-4.176,1.12-5.392,1.12-5.392
		c2.877-5.389,12.877-4.72,12.877-4.72c12.716,0.341,11.922,8.263,11.922,8.263l0.019,4.816h-10.136v-3.264
		c0-2.328-2.811-2.491-2.811-2.491c-2.191,0-2.693,1.485-2.693,1.485c-1.208,2.237,0.87,4.179,0.87,4.179
		c1.048,1.163,6.301,3.586,6.301,3.586c1.714,0.661,4.45,2.371,4.45,2.371C219.788,123.849,219.332,129.738,219.332,129.738
		L219.332,129.738z M170.514,141.612l-0.229-28.995h-0.707l-5.25,28.995h-10.549l-5.301-28.995h-0.776l-0.136,29.02l-10.023-0.024
		l0.846-38.493h16.942l3.24,21.073h0.8l3.381-21.073h16.759l1.096,38.493H170.514L170.514,141.612z M115.99,141.589l-3.949-29.862
		h-0.891l-3.952,29.862H96.423l6.668-38.494h17.031l6.666,38.494H115.99L115.99,141.589z M337.193,60.306
		c-75.072-7.469-184.718,8.698-261.113,39.523l-4.57,1.986c1.392-0.091,2.352-0.019,2.352-0.019
		c12.716,0.341,11.943,8.263,11.943,8.263l0.023,4.816H75.691v-3.264c0-2.328-2.832-2.491-2.832-2.491
		c-2.17,0-2.672,1.485-2.672,1.485c-1.189,2.237,0.846,4.179,0.846,4.179c1.05,1.163,6.322,3.586,6.322,3.586
		c1.69,0.661,4.453,2.371,4.453,2.371c5.159,3.106,4.701,8.996,4.701,8.996v3.886c-0.613,9.61-13.879,9.338-13.879,9.338
		c-13.884,0-13.585-9.116-13.585-9.116v-4.769h10.799v3.314c0,2.784,2.696,2.898,2.696,2.898c2.968,0.115,3.197-2.717,3.197-2.717
		c0.411-2.786-2.65-4.525-2.65-4.525c-3.037-1.552-8.058-4.271-8.058-4.271c-2.491-1.616-3.496-3.101-3.496-3.101
		c-1.781-2.261-1.667-5.733-1.667-5.733v-3.034c0-4.176,1.12-5.392,1.12-5.392c0.024-0.019,0.046-0.043,0.069-0.067
		c-74.778,34.958-66.262,71.286,3.427,78.021c76.146,7.376,191.152-7.258,268.419-41.805c-0.253,0-0.456,0.066-0.706,0.066
		c0,0-13.085,1.027-13.402-9.498v-20.391c0,0-1.621-11.233,13.037-11.233c0,0,9.522-0.32,12.055,5.346c0,0,1.253,1.528,0.915,7.757
		h-10.162v-3.216c0,0,0-2.557-2.669-2.557c0,0-2.744,0.09-2.744,2.264v21.092c0,0-0.109,2.832,2.992,2.832
		c0,0,2.557-0.067,2.557-3.037v-6.074h-2.784v-5.683h13.058v11.962c0,0-0.042,2.536-1.093,4c0,0-0.778,1.136-1.234,1.666
		l4.248-2.125C415.399,100.768,406.858,67.223,337.193,60.306L337.193,60.306z"/>
</g>
</svg>
