<?xml version="1.0" encoding="utf-8"?>
<!-- Generator: Adobe Illustrator 16.0.0, SVG Export Plug-In . SVG Version: 6.00 Build 0)  -->
<!DOCTYPE svg PUBLIC "-//W3C//DTD SVG 1.1//EN" "http://www.w3.org/Graphics/SVG/1.1/DTD/svg11.dtd">
<svg version="1.1" id="Layer_1" xmlns="http://www.w3.org/2000/svg" xmlns:xlink="http://www.w3.org/1999/xlink" x="0px" y="0px"
	 width="700px" height="244px" viewBox="0 0 700 244" enable-background="new 0 0 700 244" xml:space="preserve">
<g>
	<path fill="#034EA2" d="M308.284,150.857h-15.048l-10.097-33.169h-0.174l0.546,33.169h-10.479v-41.464h15.704l9.315,31.878h0.219
		l-0.546-31.878h10.562V150.857z M261.702,139.35c0.009,0.791-0.071,2.357-0.117,2.774c-0.647,6.89-5.576,10.387-14.621,10.387
		c-9.108,0-14.034-3.497-14.673-10.387c-0.046-0.417-0.146-1.983-0.115-2.767V109.38h10.815v30.925c0,0.688,0.028,1.2,0.105,1.545
		c0.122,0.709,0.812,2.957,3.867,2.957c3.023,0,3.71-2.248,3.866-2.936c0.048-0.366,0.103-0.904,0.103-1.566V109.38h10.769V139.35z
		 M222.537,143.168c-1.138,8.107-9.097,9.518-14.719,9.518c-9.308,0-15.086-3.994-15.086-12.102v-3.311h11.311v4.133
		c0,2.258,1.57,3.617,4.019,3.617c2.188,0,3.449-0.898,3.895-2.684c0.192-0.835,0.29-2.052-0.071-2.976
		c-2.083-5.21-16.776-7.751-18.562-16.21c-0.409-1.909-0.446-3.549-0.09-5.598c1.235-7.668,8.569-9.26,14.5-9.26
		c5.298,0,9.162,1.152,11.463,3.483c1.738,1.714,2.595,4.089,2.595,7.025v3.032h-10.569v-2.662c0-2.288-1.411-3.61-3.702-3.61
		c-1.996,0-3.214,0.905-3.606,2.667c-0.108,0.374-0.183,1.252,0.038,2.101c1.118,4.648,16.828,7.488,18.548,16.037
		C222.726,137.457,223.031,139.784,222.537,143.168 M172.154,151.275l-0.274-36.38h-0.155l-6.779,36.38h-10.795l-6.755-36.38h-0.191
		l-0.241,36.38h-10.691l0.918-41.882h17.23l5.002,31.112h0.248l5.011-31.112H181.9l0.918,41.882H172.154z M116.802,151.275
		l-5.458-37.093h-0.201l-5.595,37.093h-11.52l7.742-41.882h18.792l7.658,41.882H116.802z M399.012,96.68
		c-5.338-30.823-97.929-40.431-206.791-21.48c-45.696,7.96-86.979,19.697-119.107,32.898c4.943,0.143,8.597,1.266,10.814,3.475
		c1.729,1.74,2.64,4.141,2.64,7.116v3.045H75.879v-2.688c0-2.231-1.354-3.653-3.738-3.653c-2.005,0-3.249,0.922-3.649,2.679
		c-0.094,0.505-0.135,1.375,0.065,2.166c1.135,4.663,16.974,7.551,18.692,16.165c0.248,1.104,0.537,3.479,0.047,6.871
		c-0.983,6.951-7.081,9.651-14.854,9.651c-10.859,0-15.251-5.157-15.251-12.227l0.02-3.366h11.406l0.046,4.175
		c0,2.357,1.682,3.653,4.01,3.653c2.197,0,3.475-0.896,3.935-2.696c0.2-0.849,0.315-2.062-0.081-3.014
		c-2.125-5.312-16.905-7.781-18.735-16.368c-0.418-1.948-0.449-3.583-0.107-5.659c0.191-1.118,0.544-2.092,0.944-2.966
		C22.982,131.133,2.13,149.466,4.89,165.324c5.356,30.804,97.945,40.412,206.764,21.461c47.838-8.325,90.864-20.817,123.614-34.771
		c-0.48,0.026-0.957,0.078-1.444,0.078c-7.442,0-14.086-2.783-14.785-10.395c-0.098-1.409-0.145-1.984-0.145-2.775V121.42
		c0-0.748,0.098-2.07,0.18-2.758c0.881-7.35,6.703-10.391,14.786-10.391c6.225,0,13.873,1.783,14.69,10.399
		c0.127,1.07,0.127,2.227,0.127,2.618v1.653H337.9v-2.462v-0.018c0-0.048-0.038-0.965-0.135-1.548
		c-0.191-0.87-0.95-2.915-4.014-2.915c-3.039,0-3.813,2.045-4.013,2.915c-0.111,0.482-0.18,1.183-0.18,1.94v19.025
		c0,0.66,0.037,1.17,0.118,1.562c0.037,0.301,0.583,2.91,4.112,2.91c3.521,0,4.047-2.609,4.113-2.91
		c0.078-0.526,0.098-1.135,0.078-1.562v-5.89h-4.239v-6.342h14.994v11.273c0,0.782-0.008,1.336-0.155,2.775
		c-0.156,1.99-0.791,3.67-1.801,5.108C381.521,130.323,401.738,112.272,399.012,96.68"/>
	<path fill="#034EA2" d="M563.654,125.883c0-5.468,5.211-9.909,11.627-9.909c6.44,0,11.612,4.441,11.612,9.909
		c0,5.506-5.172,9.926-11.612,9.926C568.865,135.809,563.654,131.389,563.654,125.883 M580.438,143.79
		c9.564-1.958,16.687-9.226,16.687-17.907c0-10.16-9.771-18.416-21.844-18.416c-12.063,0-21.827,8.256-21.827,18.416
		c0,8.524,6.843,15.658,16.134,17.781v7.02h-17.391v9.092h46.045v-8.674h-17.804V143.79z M682.492,87.7v30.553h-5.224V87.7h-10.418
		v85.54h10.418V126.93h5.224v46.311h10.86V87.7H682.492z M648.61,101.264h13.024v-9.652h-34.733v9.652h12.166
		c0,0,2.593,39.859-17.36,53.326l6.935,7.376c0,0,10.848-6.944,14.768-20.425c0,0,7.82,16.094,14.326,20.425l7.373-7.376
		C665.106,154.59,647.427,143.673,648.61,101.264 M623.417,120.415H613.01V87.7h-10.419v85.54h10.419v-44.148h10.407V120.415z
		 M596.489,94.645h-15.623v-7.599h-11.278v7.177h-16.94v9.117h43.843L596.489,94.645L596.489,94.645z M515.735,166.316
		c-9.835,0-17.815-5.441-17.815-12.176c0-6.712,7.98-12.166,17.815-12.166c9.82,0,17.789,5.454,17.789,12.166
		C533.525,160.875,525.557,166.316,515.735,166.316 M515.735,132.434c-15.831,0-28.678,9.726-28.678,21.709
		c0,12,12.847,21.709,28.678,21.709c15.826,0,28.649-9.709,28.649-21.709C544.386,142.158,531.563,132.434,515.735,132.434
		 M531.803,132.434h11.718V87.7h-11.718v14.321h-13.475v10.004h13.475V132.434z M427.553,145.464h29.986v17.795h-29.986V145.464z
		 M416.713,173.24h52.113v-37.336h-52.113V173.24z M468.391,112.025h9.111v-10.004h-9.111V87.48h-10.863v44.073h10.863V112.025z
		 M499.229,112.025c0,0,8.264,15.614,16.506,18.241l6.066-6.094c0,0-17.794-11.078-16.914-34.963H493.57
		c0,0,2.612,23.237-17.347,34.516l6.056,6.974C482.279,130.698,494.01,124.173,499.229,112.025 M426.282,112.025
		c0,0,8.243,15.614,16.477,18.241l6.089-6.094c0,0-17.811-11.078-16.94-34.963h-11.274c0,0,2.585,23.237-17.376,34.516l6.067,6.974
		C409.323,130.698,421.041,124.173,426.282,112.025"/>
</g>
</svg>
