<?xml version="1.0" encoding="utf-8"?>
<!-- Generator: Adobe Illustrator 16.0.0, SVG Export Plug-In . SVG Version: 6.00 Build 0)  -->
<!DOCTYPE svg PUBLIC "-//W3C//DTD SVG 1.1//EN" "http://www.w3.org/Graphics/SVG/1.1/DTD/svg11.dtd">
<svg version="1.1" id="Layer_1" xmlns="http://www.w3.org/2000/svg" xmlns:xlink="http://www.w3.org/1999/xlink" x="0px" y="0px"
	 width="700px" height="244px" viewBox="0 0 700 244" enable-background="new 0 0 700 244" xml:space="preserve">
<g>
	<g>
		<g>
			<g>
				<defs>
					<path id="SVGID_1_" d="M96.32,38.8c-48.023,2.171-85.165,42.85-83.007,90.894c2.189,47.991,42.869,85.146,90.882,82.998
						c48.021-2.187,85.182-42.861,83.005-90.889c-2.118-46.64-40.581-83.091-86.861-83.095C99.021,38.708,97.656,38.746,96.32,38.8"
						/>
				</defs>
				<clipPath id="SVGID_2_">
					<use xlink:href="#SVGID_1_"  overflow="visible"/>
				</clipPath>
				
					<radialGradient id="SVGID_3_" cx="129.5771" cy="-201.7271" r="6.7141" gradientTransform="matrix(12.3053 0 0 12.3053 -1483.4072 2579.8838)" gradientUnits="userSpaceOnUse">
					<stop  offset="0" style="stop-color:#FFFFFF"/>
					<stop  offset="1" style="stop-color:#D2A143"/>
				</radialGradient>
				<rect x="11.155" y="38.708" clip-path="url(#SVGID_2_)" fill="url(#SVGID_3_)" width="178.222" height="176.132"/>
			</g>
			<g>
				<defs>
					<path id="SVGID_4_" d="M80.367,200.516c-9.73-0.963-21.364-4.031-31.5-12.802c-9.318-8.048-15.1-19.117-17.878-28.875
						c-2.867-9.952-4.093-21.591,0.642-20.685c1.453,0.29,3.979,6.685,6.718,11.352c2.832,4.813,5.109,7.489,7.292,9.112
						c0.982,0.724,4.299-6.666,9.146-10.873c2.817-2.33,5.875-3.106,6.393,3.806c0.588,8.498-0.951,18.598,1.545,18.598
						c2.296,0,7.528-1.738,19.007-2.719c4.333-0.351,6.79,0.461,2.681,6.244c-2.078,2.903-4.805,7.002-11.342,11.668
						c9.782,9.151,21.478,8.047,21.72,11.932c0.11,2.241-4.249,3.476-9.973,3.476C83.383,200.749,81.902,200.666,80.367,200.516
						 M113.239,118.365c-8.949-1.869-10.776-9.991-10.776-9.991c-0.722-2.865-0.926-6.49-0.303-11.078
						c1.207-9.645,3.823-14.144,6.76-21.623c3.985-10.02-5.684-15.892-4.105-19.581c2.165-4.968,9.086,1.346,16.811,1.815
						c6.659,0.385,10.645,0.059,15.799,0.72c6.884,0.928,15.087,3.253,18.744,7.548c3.344,3.923-1.769,8.708-7.927,5.734
						c-4.51-2.204-10.163-0.849-6.832,3.826c3.979,4.459,5.907,4.584,9.991,5.65c11.244,2.965,11.467,13.734,3.864,19.288
						c-8.636,6.349-17.427,3.718-20.927-8.707c-1.771-6.215-6.139-9.351-10.635-7.59c-4.445,1.743-1.803,9.919,1.581,17.481
						c5.887,14.989-5.989,16.578-10.551,16.578C114.021,118.436,113.502,118.382,113.239,118.365 M106.802,203.321
						c-0.111-1.982,2.8-2.48,2.8-2.48c26.093-5.165,18.475-22.245,9.251-30.985c-3.894-3.65-40.23-34.999-40.23-34.999
						c-34.616-29.832-31.836-53.093-31.836-53.093c1.701-28.655,26.755-35.741,45.726-34.101c2.227,0.2,3.473,1.522,3.067,3.396
						c-0.429,2.007-3.356,2.157-3.356,2.157c-6.048,0.376-11.443,0.963-15.553,3.748c-15.269,10.271-10.778,27.769,9.597,47.266
						c2.57,2.426,5.285,5.023,8.125,7.666c0,0,4.058,3.597,12.22,11.321c15.683,14.448,24.271,22.24,24.271,22.24
						c27.654,23.002,18.167,44.042,7.645,51.357c-8.078,5.6-16.981,8.209-28.683,8.845l-0.31,0.018
						C108.455,205.677,106.863,205.012,106.802,203.321 M96.253,37.633c-48.645,2.196-86.29,43.444-84.106,92.086
						c2.13,47.107,40.836,83.906,87.444,84.207h1.154c1.161,0,2.334-0.038,3.503-0.088c48.65-2.191,86.309-43.411,84.125-92.078
						c-2.137-47.33-41.192-84.22-88.074-84.22C98.942,37.542,97.597,37.576,96.253,37.633"/>
				</defs>
				<clipPath id="SVGID_5_">
					<use xlink:href="#SVGID_4_"  overflow="visible"/>
				</clipPath>
				
					<radialGradient id="SVGID_6_" cx="135.1577" cy="-187.6182" r="6.7115" gradientTransform="matrix(27.5467 0 0 27.5467 -3608.8887 5270.9844)" gradientUnits="userSpaceOnUse">
					<stop  offset="0" style="stop-color:#00B8EE"/>
					<stop  offset="0.2191" style="stop-color:#0092D3"/>
					<stop  offset="0.2955" style="stop-color:#007BC2"/>
					<stop  offset="0.3797" style="stop-color:#0069B5"/>
					<stop  offset="0.4694" style="stop-color:#005EAD"/>
					<stop  offset="0.573" style="stop-color:#005BAB"/>
					<stop  offset="1" style="stop-color:#005BAB"/>
				</radialGradient>
				<rect x="9.963" y="37.542" clip-path="url(#SVGID_5_)" fill="url(#SVGID_6_)" width="180.593" height="176.385"/>
			</g>
			<path fill="#717271" d="M310.042,145.428V82.83c0-4.207-0.726-6.386-3.015-8.912c-1.45-1.799-0.465-3.371,1.33-3.371h20.587
				v74.881H310.042z M330.981,168.781v13.608h-68.733c-14.566,0-20.338-3.743-20.338-15.888v-17.473c0-2.393-0.86-4.207-2.53-6.245
				c-1.449-1.813-0.479-3.491,1.213-3.491h20.455v24.674c0,3.731,1.2,4.814,4.943,4.814H330.981z M251.784,84.632
				c0-3.964-0.243-6.139-2.536-8.656c-1.431-1.815-0.466-3.505,1.213-3.505h20.835v16.018c0,15.766,15.4,25.051,29.371,29.722
				l-5.186,9.767c-1.569,2.885-7.474,1.798-17.833-4.572c-5.894-3.621-11.544-8.435-15.283-13.495
				c-4.443,6.391-9.985,11.689-16.371,15.896c-7.335,4.817-16.73,9.388-18.284,6.382l-5.539-10.477
				c15.996-6.264,29.613-16.732,29.613-32.022V84.632z"/>
			<path fill="#717271" d="M427.158,147.113V82.83c0-4.207-0.585-6.135-2.883-8.903c-1.543-1.815-0.597-3.371,1.218-3.371h20.581
				v28.409h13.712v13.592h-13.712v34.557H427.158z M379.615,122.916c8.306,0,13.124-6.375,13.124-14.086
				c0-8.188-4.818-14.444-13.124-14.444c-8.434,0-13.111,6.256-13.111,14.444C366.504,116.542,371.182,122.916,379.615,122.916
				 M447.516,168.781v13.608h-67.532c-14.574,0-20.341-3.733-20.341-15.888v-12.643c0-2.414-0.851-4.213-2.542-6.269
				c-1.442-1.808-0.47-3.488,1.216-3.488h20.459v19.881c0,3.715,1.208,4.798,4.934,4.798H447.516z M370.846,79.463
				c0-4.224-0.249-6.139-2.55-8.907c-1.543-1.807-0.592-3.38,1.218-3.38h20.577v13.492h27.327v13.249h-12.65
				c3.746,4.212,6.025,9.384,6.025,15.52c0,15.173-11.187,26.72-31.178,26.72c-19.849,0-31.167-11.547-31.167-26.72
				c0-6.252,2.169-11.434,5.769-15.52h-12.627V80.668h29.256V79.463z"/>
			<path fill="#717271" d="M526.717,82.478c0-4.336-0.957-5.784-2.4-7.833c-1.45-2.049-0.488-3.367,1.08-3.367h18.785v21.295h10.338
				V70.547h17.582v61.874H554.52v-25.632h-10.338v22.392h-17.465V82.478z M552.839,160.106c0-7.101-5.896-12.516-24.193-12.516
				c-18.293,0-24.202,5.415-24.202,12.516c0,7.102,5.909,12.531,24.202,12.531C546.942,172.638,552.839,167.208,552.839,160.106
				 M572.227,160.106c0,15.78-14.813,25.658-43.581,25.658c-28.769,0-43.574-9.878-43.574-25.658
				c0-15.754,14.806-25.622,43.574-25.622C557.413,134.484,572.227,144.353,572.227,160.106 M485.071,85.118
				c0-3.956-0.242-6.14-2.525-8.665c-1.442-1.807-0.493-3.497,1.2-3.497h20.459v19.397c0,12.153,11.199,20.939,20.823,26.348
				l-7.34,9.747c-1.682,2.285-7.214-1.441-11.425-5.043c-3.74-3.127-7.838-7.096-11.327-11.806
				c-2.884,4.813-6.731,9.281-10.835,12.878c-5.893,5.298-12.995,9.882-14.68,7.827l-8.066-9.137
				c12.273-7.461,23.716-17.586,23.716-30.814V85.118z"/>
			<path fill="#717271" d="M652.436,106.304h19.858v-9.878h-19.858V106.304z M672.066,160.115c0-7.093-6.502-12.282-24.201-12.282
				c-17.695,0-24.197,5.189-24.197,12.282c0,7.102,6.502,12.271,24.197,12.271C665.564,172.386,672.066,167.217,672.066,160.115
				 M608.017,108.228c0,4.341,0.729,6.139,6.388,6.139h19.501V87.535h-25.889V108.228z M691.444,160.115
				c0,15.17-15.65,25.649-43.579,25.649c-27.925,0-43.577-10.479-43.577-25.649c0-15.172,15.652-25.631,43.577-25.631
				C675.794,134.484,691.444,144.943,691.444,160.115 M672.311,132.547v-13.12h-19.875v8.182h-42.85
				c-14.563,0-20.107-3.738-20.107-15.88V86.682c0-4.211-0.598-6.365-3.006-8.908c-1.443-1.798-0.486-3.492,1.325-3.492h61.88
				c1.932,0,2.758,0.589,2.758,2.647v6.508h19.875v-0.481c0-4.333-0.609-6.126-3.011-8.912c-1.444-1.794-0.615-3.496,1.317-3.496
				h20.585v62H672.311z"/>
		</g>
	</g>
</g>
</svg>
