<?xml version="1.0" encoding="utf-8"?>
<!-- Generator: Adobe Illustrator 16.0.0, SVG Export Plug-In . SVG Version: 6.00 Build 0)  -->
<!DOCTYPE svg PUBLIC "-//W3C//DTD SVG 1.1//EN" "http://www.w3.org/Graphics/SVG/1.1/DTD/svg11.dtd">
<svg version="1.1" id="Layer_1" xmlns="http://www.w3.org/2000/svg" xmlns:xlink="http://www.w3.org/1999/xlink" x="0px" y="0px"
	 width="700px" height="244px" viewBox="0 0 700 244" enable-background="new 0 0 700 244" xml:space="preserve">
<g>
	<g>
		<g>
			<path fill="#0056A6" d="M503.177,144.597c0.897,0.504,1.567,1,1.914,1.52c0.827,1.088,1.347,2.498,1.575,4.156v41.975
				c0,11.6,5.821,13.065,12.951,13.065h104.55c8.808,0,12.833-4.223,12.833-13.065V52.453c0-3.954-2.86-5.939-8.351-5.939h-19.339
				c0.488,0.772,0.882,1.599,1.134,2.493c0.749,2.679,1.15,6.645,1.15,14.763V73.86h-23.924v14.388h23.924v14.881h-23.924v14.384
				h23.924v39.966H532.15v-6.951c0-3.971-2.86-5.947-8.335-5.947L503.177,144.597z M611.634,190.968H532.15v-19.096h79.483V190.968z
				"/>
			<path fill="#0056A6" d="M519.129,43.542c0.89,0.508,1.536,1.028,1.93,1.542c1.126,1.526,1.717,3.629,1.717,6.314l-0.008,3.694
				h-39.545v14.384h23.16c-12.14,6.42-20.024,16.866-20.024,29.163c0,20.521,21.97,34.086,49.093,34.086
				c27.098,0,49.092-13.565,49.092-34.086c0-12.297-7.893-22.742-20.048-29.163h23.176V55.092h-39.238l-0.008-6.404
				c0-3.431-2.466-5.14-7.216-5.14L519.129,43.542z M535.451,119.786c-14.125,0-25.539-8.492-25.539-20.592
				c0-12.096,11.414-23.562,25.539-23.562c14.101,0,25.538,11.466,25.538,23.562C560.989,111.294,549.552,119.786,535.451,119.786z"
				/>
		</g>
		<path fill="#0056A6" d="M276.06,49.753c0.894,0.522,1.564,1.034,1.918,1.534c1.15,1.524,1.733,3.639,1.733,6.326v12.99
			c0,23.562-13.585,40.207-45.914,42.885v16.294c31.148,0,47.624-10.803,58.774-28.808c17.394,30.229,52.047,28.828,73.127,28.828
			v60.822h-73.119c-2.548,0-4.238-0.473-5.093-1.426c-0.827-0.974-1.225-2.399-1.225-4.313v-35.078c0-1.776-0.315-3.131-0.973-4.029
			c-0.63-0.891-1.891-1.308-3.801-1.308h-23.01c1.134,1.009,1.828,2.308,2.092,3.915c0.271,1.583,0.394,3.15,0.394,4.672v41.01
			c0,2.693,0.894,4.932,2.683,6.707c2.686,2.828,7.089,4.23,13.23,4.23l102.979-0.023c6.364,0,11.241-3.383,11.241-13.072V52.13
			c0-3.96-2.852-5.952-8.335-5.952h-19.37c0.527,0.774,0.897,1.607,1.165,2.5c0.765,2.688,1.143,6.643,1.143,14.768v50.089
			c-31.73-0.89-60.507-4.979-57.053-42.413V54.888c0-3.435-2.47-5.144-7.22-5.144L276.06,49.753z"/>
	</g>
	<path fill="#0056A6" d="M182.105,140.417c-8.413,20.915-22.514,26.831-22.514,26.831c41.487-42.046,16.149-90.493,16.149-90.493
		c-6.125-10.859,1.67-15.589,1.67-15.589c-17.819,4.451-12.25,19.209-12.25,19.209c8.953,21.329,7.149,38.651,4.108,49.368
		l-5.873-3.289l0.091-0.137c0,0,13.916-54.82-42.83-74.049l-0.047-10.315h-11.974v67.936l55.69,31.743
		c-1.016,2.063-2.091,4.001-3.21,5.833l-55.935-32.4l-56.167,32.4c-1.119-1.832-2.198-3.77-3.21-5.833l55.686-31.743V41.953h-11.97
		L89.47,52.268c-56.742,19.229-42.83,74.049-42.83,74.049l0.091,0.137l-5.869,3.289c-3.044-10.717-4.844-28.04,4.108-49.368
		c0,0,5.569-14.758-12.253-19.209c0,0,7.799,4.73,1.674,15.589c0,0-25.338,48.447,16.149,90.493c0,0-14.101-5.916-22.514-26.831
		c0,0-4.774-10.201-18.138-7.976c0,0,5.042,2.284,8.003,11.528c0,0,12.045,38.313,58.542,44.158v21.162h22.833v-31.187
		c0,0-24.224-0.188-42.712-20.54l5.735-3.349c1.071,1.013,18.654,17.283,42.637,17.709v0.008c0.047,0,0.091,0,0.138-0.004
		c0.047,0.004,0.095,0.004,0.142,0.004v-0.008c23.983-0.426,41.565-16.696,42.633-17.709l5.739,3.349
		c-18.488,20.352-42.711,20.54-42.711,20.54v31.187h22.833v-21.162c46.497-5.846,58.538-44.158,58.538-44.158
		c2.962-9.244,8.007-11.528,8.007-11.528C186.879,130.216,182.105,140.417,182.105,140.417z M152.352,120.192l-0.043,0.051
		l-31.419-17.594l-0.173-37.587h0.173C120.889,65.062,158.756,75.361,152.352,120.192z M89.241,65.062h0.169l-0.169,37.587
		l-31.419,17.594l-0.043-0.051C51.374,75.361,89.241,65.062,89.241,65.062z M105.158,129.267l31.325,18.319v0.052l-0.279-0.158
		c-11.202,8.847-21.892,11.773-31.14,11.777c-9.244-0.004-19.934-2.931-31.136-11.777l-0.279,0.158v-0.052L105.158,129.267
		L105.158,129.267z"/>
</g>
</svg>
