<?xml version="1.0" encoding="utf-8"?>
<!-- Generator: Adobe Illustrator 16.0.0, SVG Export Plug-In . SVG Version: 6.00 Build 0)  -->
<!DOCTYPE svg PUBLIC "-//W3C//DTD SVG 1.1//EN" "http://www.w3.org/Graphics/SVG/1.1/DTD/svg11.dtd">
<svg version="1.1" id="Layer_1" xmlns="http://www.w3.org/2000/svg" xmlns:xlink="http://www.w3.org/1999/xlink" x="0px" y="0px"
	 width="700px" height="244px" viewBox="0 0 700 244" enable-background="new 0 0 700 244" xml:space="preserve">
<g>
	<path fill="#80776F" d="M110.43,111.604h-10.246v18.397h9.93c6.79,0,9.675-2.244,9.675-9.442
		C119.79,113.921,117.067,111.604,110.43,111.604 M120.413,136.414l14.814,25.75h-12.95L110.43,138.56h-10.246v23.604h-11.04V102.15
		h21.208c14.063,0,20.873,5.688,20.873,18.02C131.225,128.952,127.395,134.725,120.413,136.414"/>
	<path fill="#80776F" d="M170.755,111.604h-0.228l-9.14,28.32h18.249L170.755,111.604z M182.515,149.285h-24.022l-3.986,12.879
		H142.75L164.1,102.15h13.218l21.527,60.014h-12.408L182.515,149.285z"/>
	<polygon fill="#80776F" points="249.962,162.164 224.354,125.604 220.77,120.162 220.595,120.229 220.67,126.719 220.67,162.164 
		210.833,162.164 210.833,102.165 220.438,102.165 244.355,137.195 247.958,142.568 248.116,142.477 247.958,136.088 
		247.958,102.165 257.726,102.165 257.726,162.164 	"/>
	<polygon fill="#80776F" points="376.221,152.326 376.221,162.149 336.357,162.149 336.357,102.15 374.926,102.15 374.926,112.161 
		347.405,112.161 347.405,126.624 369.936,126.624 369.936,135.682 347.405,135.682 347.405,152.326 	"/>
	<path fill="#80776F" d="M41.641,152.688c-14.529,0-19.428-7.088-19.428-28.067c0-20.835,4.872-27.882,19.323-27.882
		c14.705,0,19.418,6.778,19.418,27.882C60.955,145.601,56.101,152.688,41.641,152.688 M41.641,86.71
		c-22.239,0-31.302,10.986-31.302,37.911c0,26.703,9.349,38.115,31.302,38.115c22.37,0,31.092-10.693,31.092-38.115
		C72.733,97.696,63.723,86.71,41.641,86.71"/>
	<polygon fill="#80776F" points="405.732,88.773 394.475,88.773 394.475,162.149 438.934,162.149 438.934,152.117 405.732,152.117 	
		"/>
	<rect x="454.533" y="102.157" fill="#80776F" width="11.206" height="59.992"/>
	<polygon fill="#80776F" points="495.369,112.399 495.369,127.768 517.502,127.768 517.502,137.427 495.369,137.427 
		495.369,162.164 484.334,162.164 484.334,102.165 522.893,102.165 522.893,112.399 	"/>
	<polygon fill="#80776F" points="577.216,152.326 577.216,162.149 537.371,162.149 537.371,102.15 575.939,102.15 575.939,112.161 
		548.4,112.161 548.4,126.624 570.938,126.624 570.938,135.682 548.4,135.682 548.4,152.326 	"/>
	<path fill="#80776F" d="M318.768,132.212h-18.563v9.099h8.766v10.699c-2.395,0.712-5.123,1.107-8.23,1.107
		c-11.685,0-15.928-4.792-15.928-20.949c0-16.245,4.558-21.034,17.118-21.034c5.187,0,10.385,0.946,14.563,2.625l1.113-9.846
		c-4.393-1.676-10.554-2.806-16.243-2.806c-19.587,0-28.161,9.843-28.161,31.206c0,20.888,8.014,30.969,27.842,30.969
		c6.485,0,13.293-1.376,17.693-3.371v-18.602h0.029V132.212z"/>
	<path fill="#EB6204" d="M618.979,83.254v11.744h62.552v40.859c0,16.142-23.15,26.681-23.37,26.783l-1.276,0.535l-1.275-0.535
		c-0.228-0.103-23.213-10.598-23.213-26.783v-21.786h28.673v22.996l-4.11,3.615l-4.129-3.615v-15.702h-12.34v13.663
		c0.051,0.326-0.041,0.675,0,1.06c0.363,3.462,1.17,9.545,16.377,17.576c15.371-9.006,16.207-14.848,16.633-18.159
		c0.029-0.22-0.025-0.418,0-0.604V102.51h-54.521v36.971c1.632,9.497,6.062,19.49,18.676,28.056
		c7.591,5.163,14.983,8.313,15.819,8.673l3.359,1.375l3.318-1.375c0.828-0.359,8.214-3.531,15.813-8.673
		c12.629-8.565,17.436-18.559,19.035-28.056V83.254H618.979z"/>
	<path fill="#80776F" d="M10.27,120.955"/>
</g>
</svg>
