<?xml version="1.0" encoding="utf-8"?>
<!-- Generator: Adobe Illustrator 16.0.0, SVG Export Plug-In . SVG Version: 6.00 Build 0)  -->
<!DOCTYPE svg PUBLIC "-//W3C//DTD SVG 1.1//EN" "http://www.w3.org/Graphics/SVG/1.1/DTD/svg11.dtd">
<svg version="1.1" id="Layer_1" xmlns="http://www.w3.org/2000/svg" xmlns:xlink="http://www.w3.org/1999/xlink" x="0px" y="0px"
	 width="700px" height="244px" viewBox="0 0 700 244" enable-background="new 0 0 700 244" xml:space="preserve">
<g>
	<defs>
		<path id="SVGID_1_" d="M23.163,141.751l-8.402,41.282c0,0-0.119,0.376-0.119,0.89v0.012c0,0.661,0.198,1.543,1.088,2.151
			c59.276,49.447,253.049,63.353,325.655-27.802c0.218-0.262,2.068-2.583,1.381-2.816c-0.524-0.178-1.31,0.565-3.486,2.144
			c-101.083,72.84-260.471,35.343-314.507-16.128c-0.298-0.188-0.556-0.257-0.765-0.257
			C23.422,141.227,23.163,141.751,23.163,141.751"/>
	</defs>
	<clipPath id="SVGID_2_">
		<use xlink:href="#SVGID_1_"  overflow="visible"/>
	</clipPath>
	
		<linearGradient id="SVGID_3_" gradientUnits="userSpaceOnUse" x1="-70.4043" y1="419.8262" x2="-69.8982" y2="419.8262" gradientTransform="matrix(902.4949 0 0 -902.4949 63554.625 379085.9375)">
		<stop  offset="0" style="stop-color:#F9BE00"/>
		<stop  offset="0.5028" style="stop-color:#EF8200"/>
		<stop  offset="1" style="stop-color:#E62411"/>
	</linearGradient>
	<rect x="14.643" y="141.227" clip-path="url(#SVGID_2_)" fill="url(#SVGID_3_)" width="328.812" height="108.212"/>
</g>
<g>
	<defs>
		<rect id="SVGID_4_" x="14.643" y="24.619" width="671.857" height="200.422"/>
	</defs>
	<clipPath id="SVGID_5_">
		<use xlink:href="#SVGID_4_"  overflow="visible"/>
	</clipPath>
	<path clip-path="url(#SVGID_5_)" fill="#E62411" d="M594.277,205.178H617.5v12.537h-23.223V205.178z M583.429,199.072v17.518
		c0,4.338,2.973,7.231,7.473,7.231h37.446v-24.749H583.429z M591.224,171.75c3.455,0,6.348,4.179,6.348,9.159
		c0,4.904-2.893,9.08-6.348,9.08c-3.377,0-6.349-4.176-6.349-9.08C584.875,175.929,587.847,171.75,591.224,171.75 M610.429,170.143
		v-5.946h-13.743v-7.957h-10.848v7.957h-13.739v5.946h7.874c-3.295,2.732-5.383,6.51-5.383,10.767
		c0,8.036,7.554,14.706,16.634,14.706c8.194,0,14.945-5.223,16.31-12.133h9.967v11.249h10.848v-37.446H617.5v20.089h-10.125
		c-0.803-2.892-2.57-5.304-4.903-7.231H610.429z M522.034,175.768h23.946v13.5h-23.946V175.768z M563.661,207.911h-24.188v-12.537
		h17.356v-37.045H545.98v11.331h-23.946v-11.331h-10.848v29.893c0,4.341,2.974,7.152,7.475,7.152h9.964v12.537h-24.269v6.106h59.305
		V207.911z M453.605,166.166h24.071v5.948c0,2.566-0.162,5.131-0.874,7.041h-28.217v4.148h17.029v7.26h-12.174v4.148h24.125v12.229
		h7.371v-16.377h-11.955v-7.26h17.357v-4.148h-7.095c0.981-1.309,1.8-4.692,1.8-7.203v-9.935h-31.439V166.166z M436.523,206.94
		h6.933v-45.196h-6.933V206.94z M433.41,161.744h-6.932v13.537h-6.166v4.202h6.166v9.716c-5.24-1.638-9.116-8.188-9.116-16.484
		v-1.637h5.952v-4.204h-5.952v-5.402h-7.257v5.402h-6.443v4.204h6.443v1.637c0,8.515-3.932,15.175-9.444,16.595l3.385,2.837
		c4.202-0.654,9.005-5.131,9.716-8.843c0.765,3.712,5.513,8.242,9.659,8.843l3.058-2.564v17.358h6.932V161.744z M378.83,165.4
		c3.766,0,6.658,3.276,6.658,7.424c0,4.095-2.893,7.423-6.658,7.423c-3.767,0-6.604-3.328-6.604-7.423
		C372.226,168.677,375.063,165.4,378.83,165.4 M378.83,161.198c-7.751,0-13.975,5.24-13.975,11.626
		c0,6.387,6.224,11.571,13.975,11.571c7.75,0,14.027-5.185,14.027-11.571C392.857,166.438,386.58,161.198,378.83,161.198
		 M357.705,187.18v4.148h17.467v15.557h7.368v-15.557h17.413v-4.148H357.705z"/>
	<path clip-path="url(#SVGID_5_)" fill="#E62411" d="M277.484,124.986h22.099v14.062h-22.099V124.986z M266.636,118.878v19.047
		c0,4.338,2.974,7.231,7.554,7.231h36.242v-26.278H266.636z M264.548,85.127h35.437v9.081c0,3.777-0.241,7.475-1.285,10.286h-41.545
		v6.188h61.474v-6.188h-10.446c1.447-1.928,2.651-6.83,2.651-10.606V79.021h-46.285V85.127z M204.44,87.299
		c3.937,0,6.83,4.9,6.83,11.25c0,6.428-2.893,11.331-6.83,11.331c-4.018,0-6.911-4.902-6.911-11.331
		C197.529,92.199,200.422,87.299,204.44,87.299 M225.253,104.253h-4.742c0.563-1.768,0.886-3.614,0.886-5.705
		c0-1.928-0.241-3.696-0.886-5.463h4.742V104.253z M235.377,78.62h-10.124v8.275h-8.277c-3.054-3.536-7.554-5.786-12.535-5.786
		c-9.321,0-17.035,7.876-17.035,17.439c0,9.644,7.714,17.358,17.035,17.358c4.821,0,9.24-2.09,12.375-5.464h8.438v34.714h10.124
		V78.62z M238.752,145.156h10.126V78.62h-10.126V145.156z M136.127,95.001h24.071v5.95c0,2.565-0.165,5.129-0.872,7.04h-28.22v4.149
		h17.029v7.259h-12.171v4.148h24.124v12.227h7.368v-16.375h-11.954v-7.259h17.358v-4.149h-7.095
		c0.982-1.309,1.801-4.694,1.801-7.204v-9.935h-31.44V95.001z M119.044,135.773h6.931V90.579h-6.931V135.773z M115.934,90.579
		h-6.933v13.536h-6.168v4.204h6.168v9.717c-5.24-1.639-9.116-8.188-9.116-16.486v-1.637h5.95v-4.202h-5.95v-5.404h-7.259v5.404
		h-6.44v4.202h6.44v1.637c0,8.515-3.929,15.175-9.442,16.593l3.384,2.84c4.202-0.657,9.007-5.132,9.715-8.843
		c0.763,3.711,5.513,8.242,9.661,8.843l3.058-2.567v17.358h6.933V90.579z M61.349,94.235c3.767,0,6.66,3.275,6.66,7.423
		c0,4.093-2.893,7.423-6.66,7.423c-3.765,0-6.604-3.33-6.604-7.423C54.745,97.51,57.584,94.235,61.349,94.235 M61.349,90.034
		c-7.75,0-13.972,5.24-13.972,11.625c0,6.387,6.223,11.572,13.972,11.572c7.751,0,14.028-5.185,14.028-11.572
		C75.377,95.273,69.101,90.034,61.349,90.034 M40.227,116.015v4.148h17.466v15.557h7.37v-15.557h17.411v-4.148H40.227z"/>
</g>
<g>
	<defs>
		<path id="SVGID_6_" d="M312.423,74.906c9.456-24.475,28.797-31.803,28.797-31.803C319.3,66.742,315.861,76.46,315.861,76.46
			l0.43-0.215c49.856-3.389,41.462-51.622,41.462-51.622c-0.245-0.002-0.48-0.004-0.722-0.004
			C300.476,24.625,312.423,74.906,312.423,74.906"/>
	</defs>
	<clipPath id="SVGID_7_">
		<use xlink:href="#SVGID_6_"  overflow="visible"/>
	</clipPath>
	
		<linearGradient id="SVGID_8_" gradientUnits="userSpaceOnUse" x1="-71.2358" y1="421.0635" x2="-70.7297" y2="421.0635" gradientTransform="matrix(80.6189 -106.9848 -106.9848 -80.6189 51112.3594 26389.9766)">
		<stop  offset="0" style="stop-color:#F9BE00"/>
		<stop  offset="0.5028" style="stop-color:#EF8200"/>
		<stop  offset="1" style="stop-color:#E62411"/>
	</linearGradient>
	<polygon clip-path="url(#SVGID_7_)" fill="url(#SVGID_8_)" points="275.56,57.685 324.262,-6.943 391.063,43.396 342.363,108.022 	
		"/>
</g>
<g>
	<defs>
		<path id="SVGID_9_" d="M287.925,43.104c0,0-0.447,23.207,23.227,29.653c0,0-2.596-11.402-5.175-15.562
			c0,0-3.868-5.498-6.415-6.727c0,0,4.696,0,10.283,7.249l1.307-9.027c0,0-3.316-7.141-13.897-7.141
			C294.616,41.549,291.527,41.992,287.925,43.104"/>
	</defs>
	<clipPath id="SVGID_10_">
		<use xlink:href="#SVGID_9_"  overflow="visible"/>
	</clipPath>
	
		<linearGradient id="SVGID_11_" gradientUnits="userSpaceOnUse" x1="-68.2134" y1="421.5195" x2="-67.7072" y2="421.5195" gradientTransform="matrix(-39.5646 -52.504 -52.504 39.5646 19737.8984 -20193.5313)">
		<stop  offset="0" style="stop-color:#F9BE00"/>
		<stop  offset="0.5028" style="stop-color:#EF8200"/>
		<stop  offset="1" style="stop-color:#E62411"/>
	</linearGradient>
	<polygon clip-path="url(#SVGID_10_)" fill="url(#SVGID_11_)" points="296.052,84.137 272.479,52.853 302.577,30.171 
		326.152,61.454 	"/>
</g>
<g>
	<defs>
		<path id="SVGID_12_" d="M364.34,134.915c-2.576,2.906-4.764,6.019-6.721,8.854c-2.55,3.731-0.877,3.508,2.596,0.575
			c2.009-1.69,4.065-3.323,6.17-4.949c67.239-51.245,195.791-50.4,259.855,4.445c0.288,0.245,0.739-0.619,1.194-1.483
			c0.45-0.865,0.905-1.733,1.187-1.482v-1.291l1.934-2.793l-7.305-2.362l-2.578-0.432l0.645-6.232l2.363-5.586l2.793-4.729
			l1.719-4.081l3.868-1.076l5.372,2.365l3.868-1.076l1.721-6.017c0,0,1.073-1.29,1.32-2.589c0.135-0.69-1.194-0.747-1.799-1.117
			c-29.1-17.678-73.722-28.469-120.231-28.469C463.539,75.387,401.74,92.606,364.34,134.915"/>
	</defs>
	<clipPath id="SVGID_13_">
		<use xlink:href="#SVGID_12_"  overflow="visible"/>
	</clipPath>
	
		<linearGradient id="SVGID_14_" gradientUnits="userSpaceOnUse" x1="-69.8442" y1="419.5439" x2="-69.3381" y2="419.5439" gradientTransform="matrix(-840.6013 0 0 840.6013 -58044.3125 -352557.5)">
		<stop  offset="0" style="stop-color:#F9BE00"/>
		<stop  offset="0.5028" style="stop-color:#EF8200"/>
		<stop  offset="1" style="stop-color:#E62411"/>
	</linearGradient>
	<rect x="355.069" y="75.387" clip-path="url(#SVGID_13_)" fill="url(#SVGID_14_)" width="289.406" height="72.114"/>
</g>
<g>
	<defs>
		<path id="SVGID_15_" d="M639.615,112.79c-6.232-9.456-12.466-4.297-12.466-4.297c-10.101,10.099-9.024,22.133-9.024,22.133
			c-0.179,10.959,10.1,8.596,10.1,8.596c-4.943,7.427-1.075,8.596-1.075,8.596c3.438-8.812,13.755-12.034,13.755-12.034
			c3.868-2.363,0-1.505,0-1.505c-13.324,3.223-15.044-0.967-15.044-0.967c-3.437-7.629,4.943-14.936,4.943-14.936
			c3.437-3.652,6.878,0.431,6.878,0.431l5.801,8.812c2.579,3.224,1.935-0.645,1.935-0.645c-3.01-21.704,6.015-21.491,6.015-21.491
			c15.701,0,20.201,9.669,20.201,9.669c4.513,8.383-16.978,15.689-16.978,15.689c-4.941,3.223,0.645,2.47,0.645,2.47l12.466-0.968
			c7.521,0,7.949,3.224,7.949,3.224c0.862,11.177-11.817,17.836-11.817,17.836c-9.669,4.084-13.968-15.687-13.968-15.687
			c-1.505-2.578-1.935,0-1.935,0c2.579,23.854-12.034,17.191-12.034,17.191c7.091,9.885,13.11,1.719,13.11,1.719
			c0.643,4.513-4.085,11.39-4.085,11.39c-1.721,3.224,1.72,1.934,1.72,1.934c8.812-8.166,7.735-15.042,7.735-15.042
			c7.522,10.53,16.116,4.727,16.116,4.727c12.248-6.444,15.688-20.413,15.688-20.413c2.342-13.539-12.248-12.034-12.248-12.034
			c15.9-11.819,7.736-20.846,7.736-20.846c-11.605-11.817-24.928-12.677-24.928-12.677c-1.384-0.192-2.657-0.281-3.832-0.281
			C635.66,93.383,639.615,112.79,639.615,112.79"/>
	</defs>
	<clipPath id="SVGID_16_">
		<use xlink:href="#SVGID_15_"  overflow="visible"/>
	</clipPath>
	
		<linearGradient id="SVGID_17_" gradientUnits="userSpaceOnUse" x1="-70.8418" y1="422.835" x2="-70.3354" y2="422.835" gradientTransform="matrix(54.2346 -158.4064 -158.4064 -54.2346 71469.2188 11860.9375)">
		<stop  offset="0" style="stop-color:#F9BE00"/>
		<stop  offset="0.5028" style="stop-color:#EF8200"/>
		<stop  offset="1" style="stop-color:#E62411"/>
	</linearGradient>
	<polygon clip-path="url(#SVGID_16_)" fill="url(#SVGID_17_)" points="593.189,163.071 624.693,71.059 713.76,101.552 
		682.256,193.564 	"/>
</g>
</svg>
