<?xml version="1.0" encoding="utf-8"?>
<!-- Generator: Adobe Illustrator 16.0.0, SVG Export Plug-In . SVG Version: 6.00 Build 0)  -->
<!DOCTYPE svg PUBLIC "-//W3C//DTD SVG 1.1//EN" "http://www.w3.org/Graphics/SVG/1.1/DTD/svg11.dtd">
<svg version="1.1" id="Layer_1" xmlns="http://www.w3.org/2000/svg" xmlns:xlink="http://www.w3.org/1999/xlink" x="0px" y="0px"
	 width="700px" height="244px" viewBox="0 0 700 244" enable-background="new 0 0 700 244" xml:space="preserve">
<g>
	<g>
		<g>
			<path fill="#096EB3" d="M41.31,116.257l5.979-16.551l3.504-1.604l-13.6,41.608l-9.691,13.567h4.193l16.284-19.536l7.836-30.348
				l3.023,4.123c-1.167,14.024-0.689,10.582-1.655,18.396l-19.52,27.364h4.611l19.104-14.479l1.099,0.457L55.4,153.277h21.165
				l32.434-21.615l9.897-36.094l23.916-1.146l-9.207-5.978l-52.434-8.748c-11.55-12.182-11.958-12.861-11.958-12.861l13.811,1.147
				l-9.968-9.2v-9.434l12.92,2.307l35.188,20.461l40.747,11.033c-4.122-19.072-28.729-55.861-75.042-55.861
				c-48.027,0-80.059,39.307-80.059,76.556c0,24.834,8.318,39.07,15.675,49.653c5.016-11.491,14.707-34.944,14.707-34.944
				L41.31,116.257z M12.313,103.844c0-34.484,29.478-71.497,74.557-71.497c31.547,0,57.593,20.011,66.802,43.438l-35.74-9.876
				L86.186,48.202L70.59,45.688l-7.146,15.156l-5.771,2.999l-8.939,22.767l-6.249,2.754c0,0-13.335,35.638-19.997,53.551
				C17.189,133.496,12.313,123.617,12.313,103.844"/>
		</g>
		<polygon fill="#096EB3" points="99.309,153.277 110.376,153.277 121.854,131.669 119.794,127.755 		"/>
		<polygon fill="#096EB3" points="128.586,121.548 138.21,103.394 124.667,97.879 123.292,109.819 124.667,111.881 123.292,122.456 
					"/>
		<g>
			<path fill="#096EB3" d="M86.461,185.013c22.332,0,46.456-9.901,60.474-28.063H25.712
				C42.964,178.107,66.875,185.013,86.461,185.013"/>
			<path fill="#096EB3" d="M149.27,126.824l-16.836,26.453h17.729c9.482-13.116,13.813-26.669,14.777-40.005l-10.588-3.669
				L149.27,126.824z"/>
		</g>
		<polygon fill="#096EB3" points="137.311,131.669 143.982,125.913 151.331,108.666 140.749,104.309 130.848,132.119 
			123.979,137.865 115.18,153.277 123.979,153.277 		"/>
		<g>
			<path fill="#096EB3" d="M659.164,152.347c-0.955-0.67-1.503-1.946-1.503-5.846v-26.448c0-15.748-11.072-18.617-21.168-18.617
				c-11.411,0-20.277,5.168-20.277,12.745c0,5.651,4.396,8.066,8.041,8.066c4.538,0,7.764-3.46,7.764-6.56
				c0-4.029-2.815-6.326-6.805-6.326c-1.161,0-2.675,0.357-3.37,1.388v-0.238c0.695-1.95,5.442-5.28,10.932-5.28
				c8.178,0,10.856,3.68,10.856,9.887v9.075c-17.665,3.453-30.355,7.703-30.355,20.455c0,5.413,3.759,13.905,15.862,13.905
				c7.691,0,14.558-5.854,15.523-10.337l0.22,8.732h19.302V153.5h-1.1C661.568,153.5,660.191,153.15,659.164,152.347
				 M643.634,136.254c0,4.152-0.617,8.625-1.784,10.701c-1.031,2.068-2.754,4.938-7.559,4.938c-3.432,0-6.538-3.106-6.538-9.19
				c0-10.471,5.641-13.091,15.881-15.056V136.254z"/>
			<path fill="#096EB3" d="M396.583,158.554c8.874,0,14.031-6.431,15.063-9.984l0.263,8.377h20.549v-3.449h-1.5
				c-2.068,0-4-0.347-5.024-1.15c-0.962-0.804-1.517-1.953-1.517-5.734V76.507l-22.063,1.703v3.46h1.031
				c2.62,0,4.274,0.452,5.294,1.492c1.727,1.725,1.727,3.895,1.727,6.902v16.778c-1.171-2.3-4.268-5.399-11.966-5.399
				c-15.527,0-23.359,15.52-23.359,28.496C375.08,143.055,379.542,158.554,396.583,158.554 M400.851,105.931
				c8.582,0,9.555,11.364,9.555,18.04v11.151c0,6.077-1.312,9.537-2.194,11.84c-1.385,3.216-4.265,5.385-7.703,5.385
				c-9.071,0-9.555-15.743-9.555-22.407C390.953,122.247,391.018,105.931,400.851,105.931"/>
			<path fill="#096EB3" d="M351.854,148.566l0.209,8.38h20.336v-3.449h-2.069c-1.564,0-3.222-0.104-4.253-1.604
				c-1.031-1.499-1.232-4.372-1.232-7.933v-40.913h-21.85v3.45h1.089c3.575,0,4.887,0.454,5.781,1.506
				c1.023,1.117,0.894,5.054,0.894,9.753v16.891c0,2.991,0,5.997-0.692,8.621c-1.096,4.606-4.264,8.056-8.109,8.056
				c-2.339,0-7.071-0.245-7.071-8.863v-39.413h-19.52v3.45h0.754c3.023,0,3.577,0.685,3.919,1.261
				c0.478,0.692,0.694,3.223,0.694,9.998v23.212c0,10.01,2.878,17.586,15.868,17.586c7.828,0,13.746-5.616,15.123-9.987H351.854"/>
			<path fill="#096EB3" d="M579.321,151.773c1.438-3.219,1.918-8.506,1.918-14.82h-4.261c0,4.141,0.127,10.333-2.064,13.437
				c-0.829,1.283-1.922,2.08-3.713,2.08c-3.976,0-4.462-3.551-4.462-7.245v-38.62h10.578v-3.564H566.53V78.221h-3.572
				c0,8.166-6.672,24.819-19.236,24.819h-0.9v3.564h9.691v36.897c0,6.676,1.925,15.052,13.538,15.052
				C572.646,158.554,576.979,156.614,579.321,151.773"/>
			<path fill="#096EB3" d="M243.414,153.497h-2.883c-3.302,0-5.158-0.56-6.192-1.604c-1.163-1.262-1.37-3.222-1.37-5.633v-23.454
				h5.5c16.354,0,30.029-6.318,30.029-22.181c0-16.653-13.884-22.408-30.029-22.408h-31.475v3.453h2.404
				c2.954,0,5.156,0.11,6.32,0.806c1.858,0.91,2.404,3.444,2.404,7.127v56.657c0,3.11-0.546,4.818-1.72,5.867
				c-1.164,0.912-3.431,1.37-6.248,1.37h-3.161v3.449h36.42V153.497z M232.969,81.67h5.5c12.777,0,15.117,9.65,15.117,18.955
				c0,9.317-2.34,18.404-15.117,18.404h-5.5V81.67z"/>
			<path fill="#096EB3" d="M304.781,101.436c-9.007,0-12.92,8.726-13.47,15.405h-0.146l-0.542-13.801h-19.583v3.457h1.304
				c3.089,0,4.465,0.454,5.357,2.415c0.825,1.838,1.034,7.014,1.034,13.895v21.042c0,0,0.272,5.519-1.034,7.58
				c-0.893,1.51-2.745,2.072-6.391,2.072h-3.503v3.449h36.354V153.5h-5.154c-1.51,0-4.118-0.107-5.15-1.607
				c-1.038-1.492-1.038-4.372-1.038-7.93v-8.271c0-6.791,1.238-24.257,6.742-28.856h0.135c-0.552,1.266-0.552,2.174-0.552,2.984
				c0,2.307,2.406,5.184,6.395,5.184c4.538,0.115,7.068-3.345,7.068-6.787C312.608,103.735,309.591,101.436,304.781,101.436"/>
			<path fill="#096EB3" d="M478.156,138.561c0,5.854-5.086,15.289-15.729,15.289c-7.771,0-10.514-6.895-11.688-13.443
				c-1.104-6.561-0.757-12.19-0.757-12.19h33.336c0-14.597-6.538-26.78-23.363-26.78c-14.158,0-25.299,11.483-25.299,28.503
				c0,16.436,8.521,28.614,25.774,28.614c14.706,0,22.206-12.291,22.206-19.993H478.156z M459.875,104.435
				c8.736,0,9.216,14.241,9.075,20.112h-18.89C450.331,119.133,450.392,104.435,459.875,104.435"/>
			<path fill="#096EB3" d="M596.226,94.658c4.802,0,8.727-3.907,8.727-8.729c0-4.835-3.925-8.627-8.727-8.627
				c-4.891,0-8.74,3.792-8.74,8.627C587.485,90.751,591.335,94.658,596.226,94.658"/>
			<path fill="#096EB3" d="M516.084,153.5h-1.571c-3.035,0-4.271-0.563-5.154-1.607c-1.034-1.149-0.818-3.46-0.818-8.045v-19.885
				c0-4.477,0.818-9.083,2.264-11.605c1.784-2.754,4.264-4.019,6.459-4.019c3.093,0,6.941,0.559,6.941,8.499v40.112h21.572V153.5
				h-2.134c-1.503,0-3.496-0.107-4.53-1.607c-1.031-1.492-0.897-3.46-0.897-7.93v-24.477c0-11.271-3.01-18.05-15.387-18.05
				c-8.315,0-13.265,4.931-15.186,10.009h-0.137l-0.213-8.405h-20.541v3.449h2.199c1.65,0,3.358,0.123,4.526,1.615
				c1.035,1.5,0.901,4.477,0.901,8.038v27.706c0,4.585,0.213,6.896-0.822,8.045c-0.897,1.045-2.541,1.607-5.017,1.607h-1.788v3.449
				h29.332V153.5z"/>
			<path fill="#096EB3" d="M693.109,153.5c-2.194,0-4.185-0.35-5.211-1.153c-0.909-0.8-1.518-1.946-1.518-5.741V76.507l-22.055,1.71
				v3.459h2.062c1.297,0,3.226,0.45,4.253,1.495c1.719,1.716,1.719,5.268,1.719,6.894v56.541c0,4.138-0.551,4.941-1.51,5.741
				c-1.038,0.804-2.609,1.153-4.127,1.153h-0.685v3.449H694V153.5H693.109z"/>
			<path fill="#096EB3" d="M587.839,107.758c1.925,1.604,1.719,4.823,1.719,7.122v28.871c0,3.532,0,6.643-1.03,8.142
				c-1.035,1.492-2.895,1.604-4.538,1.604h-1.719v3.452h28.996v-3.452h-2.195c-1.578,0-3.301-0.112-4.328-1.604
				c-1.168-1.499-1.035-4.609-1.035-8.142v-40.7h-22.469v3.547h1.171C584.473,106.598,586.664,106.728,587.839,107.758"/>
			<path fill="#888888" d="M529.309,215.231h18.49v-8.279h-24.315v2.822h18.883v2.775H523.88v4.526c0,2.199,1.55,3.688,3.871,3.688
				h20.739v-2.808h-19.182V215.231z"/>
		</g>
		<rect x="518.723" y="201.149" fill="#888888" width="33.357" height="2.815"/>
		<polygon fill="#888888" points="519.45,191.201 513.554,191.201 513.554,185.168 508.122,185.168 508.122,202.663 
			513.554,202.663 513.554,194.038 519.45,194.038 		"/>
		<g>
			<path fill="#888888" d="M506.385,208.066h2.479v9.9h-2.479V208.066z M501.97,217.772c0,2.069,1.006,3.089,3.074,3.089h8.51
				v-15.65H501.97V217.772z"/>
			<path fill="#888888" d="M630.42,193.987v-8.819h-5.428v18.49l-0.22,0.075c-1.489,0.544-3.648,0.865-5.919,0.865h-10.557v-15.397
				h11.718v-2.854h-17.143v17.531c0,2.228,1.46,3.622,3.835,3.622h11.797c2.202,0,4.344-0.486,6.02-1.355l0.469-0.244v14.95h5.428
				v-23.958h5.896v-2.905H630.42z"/>
			<path fill="#888888" d="M576.11,209.681h12.575v8.279H576.11V209.681z M570.693,217.167c0,2.194,1.553,3.684,3.867,3.684h19.561
				v-14.032h-23.428V217.167z"/>
			<path fill="#888888" d="M267.693,194.737h-18.441v7.807c0,2.199,1.331,3.475,3.652,3.475h20.912v-2.905H254.68v-5.475h18.433
				v-11.941H248.95v2.898h18.743V194.737z"/>
			<path fill="#888888" d="M594.114,185.172h-5.429v13.642l-0.19,0.065c-1.515,0.591-3.626,0.915-5.944,0.915h-10.932v-10.982
				h12.053v-2.847h-17.484v13.072c0,2.199,1.507,3.619,3.824,3.619h12.193c2.138,0,4.336-0.494,6.022-1.359l0.458-0.245v2.909h5.429
				v-9.443h5.903v-2.887h-5.903V185.172z"/>
			<path fill="#888888" d="M493.871,196.511l0.306-0.793l0.274,0.793c1.1,2.931,5.331,5.886,8.896,6.218l2.418-2.112l-1.518-0.699
				l-0.468-0.206c-4.43-2.09-6.874-6.855-6.874-11.313v-3.046h-5.479v3.046c0,6.722-4.397,11.17-8.852,12.219l2.443,2.108
				C488.623,202.332,492.818,199.391,493.871,196.511"/>
			<path fill="#888888" d="M351.114,217.722h3.018v0.3c0.014,1.755-0.869,3.752-2.848,4.343v2.195
				c3.302-0.79,5.436-3.363,5.436-6.604v-5.669h-5.605V217.722z"/>
		</g>
		<polygon fill="#888888" points="339.909,202.663 345.322,202.663 345.322,185.168 339.909,185.168 339.909,188.491 
			332.653,188.491 332.653,191.303 339.909,191.303 339.909,194.481 332.653,194.481 332.653,197.285 339.909,197.285 		"/>
		<g>
			<path fill="#888888" d="M326.587,214.385h18.739v-8.993h-24.555v2.815h19.138v3.503h-18.75v5.457
				c0,2.202,1.564,3.684,3.914,3.684h20.999v-2.844h-19.485V214.385z"/>
		</g>
		<rect x="427.646" y="185.168" fill="#888888" width="5.428" height="26.254"/>
		<g>
			<path fill="#888888" d="M448.629,188.722c2.506,0,4.48,2.642,4.48,5.997c0,3.316-2.019,6.03-4.48,6.03
				c-2.437,0-4.43-2.714-4.43-6.03C444.199,191.414,446.192,188.722,448.629,188.722 M448.629,203.518
				c5.522,0,9.999-3.961,9.999-8.846c0-4.873-4.477-8.852-9.999-8.852c-2.646,0-5.136,0.94-7.035,2.639
				c-1.863,1.683-2.912,3.885-2.912,6.213c0,2.329,1.049,4.535,2.912,6.211C443.508,202.584,445.991,203.518,448.629,203.518"/>
			<path fill="#888888" d="M386.08,219.326c-2.242,0-4.199-2.466-4.199-5.263c0-2.851,1.957-5.349,4.199-5.349
				s4.217,2.498,4.217,5.349C390.297,216.907,388.369,219.326,386.08,219.326 M386.08,205.777c-5.291,0-9.587,3.723-9.587,8.286
				c0,4.53,4.296,8.232,9.587,8.232c5.295,0,9.602-3.702,9.602-8.232C395.682,209.5,391.375,205.777,386.08,205.777"/>
			<path fill="#888888" d="M414.882,209.234h-5.41v7.933c0,2.194,1.536,3.684,3.824,3.684h21.078v-2.891h-19.492V209.234z"/>
			<path fill="#888888" d="M462.459,207.688l-0.241,0.055c-1.644,0.5-3.907,0.789-6.196,0.789h-18.115v2.897h17.849l1.104-0.094
				l0.169-0.015l0.526-0.061c1.143-0.141,2.188-0.354,3.168-0.664l0.062-0.032l0.35-0.09l0.234-0.058l0.652-0.194l0.439-0.188
				v10.827h5.385v-35.683h-5.385V207.688z"/>
			<path fill="#888888" d="M402.577,191.631h-5.894v-6.365h-5.421v13.88l-0.194,0.09c-1.543,0.584-3.641,0.912-5.933,0.912h-10.942
				v-11.033h12.053v-2.891h-17.488v13.167c0,2.198,1.492,3.607,3.82,3.607h12.204c2.134,0,4.333-0.486,6.023-1.355l0.457-0.219
				v3.586h5.421v-10.479h5.894V191.631z"/>
			<path fill="#888888" d="M412.597,199.441l0.271-0.79l0.313,0.782c1.157,2.916,5.367,5.893,8.903,6.265l2.411-2.12
				c-3.698-0.908-7.386-4.277-8.384-9.591l-0.036-0.249c-0.141-0.789-0.4-1.502-0.4-2.382v-5.604h-5.507v5.604
				c0,6.675-4.415,11.141-8.87,12.222l2.505,2.12C407.429,205.251,411.613,202.295,412.597,199.441"/>
		</g>
		<polygon fill="#888888" points="210.579,208.416 224.344,208.416 224.344,220.851 229.771,220.851 229.771,208.416 
			243.528,208.416 243.528,205.564 210.579,205.564 		"/>
		<g>
			<path fill="#888888" d="M493.413,214.385h6.199v-9.174h-11.721v2.815h6.643v3.647h-6.211v5.562c0,2.198,1.481,3.615,3.788,3.615
				h7.894v-2.844h-6.592V214.385z"/>
		</g>
		<rect x="245.326" y="212.637" fill="#888888" width="31.774" height="2.854"/>
		<g>
			<path fill="#888888" d="M294.261,202.465h-8.959v-13.044h7.342v-2.895h-12.676v15.178c0,2.228,1.461,3.622,3.816,3.622h10.477
				V202.465z"/>
		</g>
		<path fill="#888888" d="M230.242,198.493h-6.37v-10.034h6.37V198.493z M240.299,198.493h-4.632v-10.034h4.233v-2.895h-25.738
			v2.895h4.272v10.034h-4.658v2.804h26.522V198.493z"/>
		<g>
			<path fill="#888888" d="M290.624,209.184h-5.41v7.973c0,2.213,1.529,3.694,3.818,3.694h22.233v-2.891h-20.642V209.184z"/>
		</g>
		<rect x="305.18" y="185.168" fill="#888888" width="5.112" height="26.254"/>
		<polygon fill="#888888" points="290.017,196.846 296.697,196.846 296.697,211.422 301.77,211.422 301.77,185.172 296.697,185.172 
			296.697,193.998 290.017,193.998 		"/>
		<g>
			<path fill="#888888" d="M324.872,196.641l0.267-0.775l0.317,0.761c1.146,2.941,5.349,5.903,8.87,6.239l2.437-2.123
				c-3.717-0.919-7.393-4.278-8.395-9.588l-0.051-0.267c-0.13-0.786-0.382-1.492-0.382-2.364v-3.172h-5.515v3.172
				c0,6.664-4.391,11.13-8.847,12.219l2.486,2.108C319.615,202.458,323.873,199.466,324.872,196.641"/>
			<path fill="#888888" d="M535.421,186.505c2.505,0,4.545,2.195,4.545,4.895c0,2.692-2.04,4.888-4.545,4.888
				c-2.501,0-4.545-2.195-4.545-4.888C530.876,188.7,532.92,186.505,535.421,186.505 M535.421,198.939c5.396,0,9.79-3.381,9.79-7.54
				c0-4.151-4.395-7.536-9.79-7.536c-5.392,0-9.785,3.385-9.785,7.536C525.636,195.559,530.029,198.939,535.421,198.939"/>
		</g>
	</g>
</g>
</svg>
