<?xml version="1.0" encoding="utf-8"?>
<!-- Generator: Adobe Illustrator 16.0.0, SVG Export Plug-In . SVG Version: 6.00 Build 0)  -->
<!DOCTYPE svg PUBLIC "-//W3C//DTD SVG 1.1//EN" "http://www.w3.org/Graphics/SVG/1.1/DTD/svg11.dtd">
<svg version="1.1" id="Layer_1" xmlns="http://www.w3.org/2000/svg" xmlns:xlink="http://www.w3.org/1999/xlink" x="0px" y="0px"
	 width="700px" height="244px" viewBox="0 0 700 244" enable-background="new 0 0 700 244" xml:space="preserve">
<path fill="#009591" d="M109.45,134.848c-0.351-2.103-0.921-4.146-1.771-6.029c-2.663-5.764-6.391-10.615-11.961-13.854
	c-8.666-5.052-19.141-5.025-27.712,0.186c-3.887,2.336-7.077,5.714-9.124,9.761c-0.707,1.367-1.262,2.816-1.735,4.285
	c-2.258,7.173-2.17,16.836,1.901,23.385c1.316,2.143,3.241,3.974,5.598,4.878c2.34,0.911,5.14,0.809,7.245-0.551
	c2.73-1.775,3.21-5.115,2.707-8.114c-0.64-3.831-1.136-7.572,0.282-11.31c0.439-1.193,1.078-2.351,2-3.214
	c0.554-0.545,1.217-0.976,1.915-1.327c1.476-0.72,3.163-1.05,4.782-0.771c2.836,0.452,5.163,2.649,6.424,5.241
	c1.251,2.577,1.602,5.499,1.738,8.379c0.599,12.522-2.383,25.474-5.584,37.5c-0.319,1.238-0.656,2.476-1.02,3.69
	c-0.269,0.949-0.749,2.166-0.15,3.084c0.278,0.396,0.67,0.677,1.115,0.857c1.854,0.745,3.381-0.395,4.602-1.634
	c7.35-7.398,12.06-16.902,15.264-26.711c1.2-3.645,2.241-7.359,2.921-11.145C109.838,146.245,110.386,140.317,109.45,134.848"/>
<path fill="#009591" d="M161.979,77.031c0-1.895-1.663-3.134-3.448-3.068c-1.813,0.077-3.499,1.003-5.166,1.636
	c-32.259,12.27-68.667,14.604-102.672,9.696c-5.819-0.836-11.708-2.021-17.552-2.925c-3.663-0.578-7.282-1.404-10.977-1.69
	c-3.137-0.222-7.065-0.336-9.607,1.854c-3.362,2.888-3.121,8.384-1.216,12.023c2.287,4.334,6.287,7.616,10.452,10.081
	c4.04,2.42,8.873,4.987,13.688,4.681c13-0.829,25.953-2.071,38.88-3.775c22.032-2.845,45.125-5.537,65.813-14.101
	c6.765-2.788,13.438-6.27,19.24-10.783C160.459,79.866,161.979,78.553,161.979,77.031"/>
<path fill="#ED1651" d="M69.431,65.964c0,7.018,5.686,12.694,12.689,12.694c7.006,0,12.692-5.676,12.692-12.694
	c0-1.044-0.255-2.097-0.687-3.045c-1.075-2.301-2.313-3.426-2.19-6.191c0.16-3.72-4.619-3.775-7.193-3.775
	c-2.806,0-5.765,0.389-8.312,1.658c-2.023,1.023-3.762,2.586-4.99,4.484c-1.265,1.95-1.962,4.253-2.01,6.583V65.964"/>
<g>
	<path d="M189.371,96.959v-9.404h13.855v9.404h18.509v8.907h-9.699c2.176,2.639,3.907,5.774,5.196,9.401
		c1.285,3.631,1.963,7.589,2.026,11.879c-0.063,4.222-0.659,8.115-1.779,11.68c-1.125,3.562-2.707,6.629-4.751,9.203
		c-2.048,2.64-4.455,4.687-7.227,6.136c-2.772,1.452-5.84,2.176-9.203,2.176c-3.5,0.068-6.667-0.643-9.503-2.128
		c-2.836-1.483-5.245-3.51-7.224-6.086c-2.048-2.638-3.616-5.739-4.704-9.301c-1.088-3.564-1.633-7.458-1.633-11.68
		c0-4.29,0.644-8.248,1.932-11.879c1.286-3.627,3.017-6.763,5.194-9.401h-9.105v-8.907H189.371z M196.299,106.064
		c-2.773,0-5.099,1.93-6.979,5.79c-1.881,3.86-2.789,8.958-2.722,15.293c-0.067,6.136,0.824,11.052,2.674,14.747
		c1.843,3.694,4.157,5.541,6.928,5.541c2.771,0,5.077-1.83,6.928-5.493c1.846-3.659,2.771-8.594,2.771-14.795
		c0-6.665-0.908-11.845-2.725-15.541C201.362,107.912,199.07,106.064,196.299,106.064z M244.005,123.683v53.447h-13.362V87.555
		h13.362v27.218h12.866v8.909H244.005z"/>
	<path d="M281.018,142.487h22.466c1.452,0,2.854,0,4.208,0s2.69-0.065,4.009-0.198c1.319-0.129,2.622-0.381,3.908-0.741
		c1.289-0.36,2.656-0.942,4.108-1.734V87.555h13.362v27.218h12.866v8.909H333.08v53.447h-13.362v-28.405
		c-2.374,1.053-5.034,1.765-7.968,2.125c-2.935,0.364-5.789,0.547-8.561,0.547h-29.592c-2.968,0-5.427-1.203-7.373-3.613
		c-1.949-2.409-2.923-5.296-2.923-8.664V91.514h13.364v47.313c0,1.184,0.361,2.096,1.088,2.721
		C278.477,142.174,279.565,142.487,281.018,142.487z"/>
	<path d="M351.888,137.14h33.354v-13.754h13.462v13.754h33.354v8.911h-56.914v18.209c0,1.19,0.365,2.146,1.093,2.871
		c0.726,0.728,1.679,1.088,2.87,1.088h43.054v8.911h-50.873c-2.771,0-5.051-1.174-6.829-3.517c-1.781-2.342-2.673-5.095-2.673-8.265
		v-19.298h-9.896V137.14z M398.899,89.535v4.652c0,3.499,0.626,6.715,1.881,9.651c1.252,2.937,2.97,5.526,5.146,7.769
		c2.242,2.178,4.833,3.96,7.772,5.346c2.934,1.386,6.084,2.243,9.45,2.572v9.008c-3.762-0.065-7.374-0.608-10.838-1.635
		c-3.462-1.021-6.616-2.292-9.452-3.81c-2.837-1.517-5.23-3.182-7.176-4.999c-1.946-1.814-3.252-3.612-3.907-5.394
		c-0.793,1.781-2.147,3.58-4.062,5.394c-1.915,1.816-4.221,3.449-6.929,4.899c-2.771,1.519-5.856,2.789-9.254,3.813
		c-3.397,1.021-6.976,1.599-10.736,1.731v-8.909c3.3-0.396,6.414-1.285,9.354-2.671c2.935-1.386,5.525-3.201,7.766-5.444
		c2.183-2.178,3.912-4.751,5.198-7.72c1.289-2.969,1.932-6.235,1.932-9.798v-4.456H398.899z"/>
	<path d="M452.146,96.959v-9.404h13.856v9.404h14.549v8.907h-7.322c1.782,2.508,3.201,5.542,4.254,9.106
		c1.056,3.563,1.586,7.619,1.586,12.175c0,4.551-0.496,8.626-1.486,12.225c-0.99,3.594-2.374,6.679-4.156,9.25
		c-1.781,2.51-3.895,4.441-6.336,5.792c-2.442,1.354-5.112,1.996-8.016,1.928c-2.773,0.068-5.379-0.573-7.819-1.928
		c-2.441-1.351-4.588-3.282-6.433-5.792c-1.85-2.571-3.283-5.656-4.305-9.25c-1.023-3.599-1.534-7.674-1.534-12.225
		c-0.067-4.356,0.477-8.347,1.634-11.978c1.152-3.627,2.72-6.731,4.7-9.303h-7.323v-8.907H452.146z M459.074,106.064
		c-1.782,0.066-3.432,1.848-4.949,5.344c-1.517,3.5-2.275,8.744-2.275,15.739c-0.068,7.062,0.657,12.225,2.177,15.488
		c1.518,3.266,3.166,4.867,4.948,4.8c1.585,0.067,3.184-1.568,4.804-4.901c1.614-3.329,2.425-8.462,2.425-15.387
		c0-7.127-0.729-12.406-2.182-15.838C462.57,107.879,460.92,106.13,459.074,106.064z M497.872,124.177v52.953h-12.866V87.555h12.866
		v27.713h6.435V87.555h12.865v89.575h-12.865v-52.953H497.872z"/>
	<path d="M553.4,108.835h33.649V91.514h13.362v50.974h-23.556v13.854h33.354v8.911h-80.169v-8.911h33.354v-13.854H550.23
		c-2.703,0-5.08-1.172-7.124-3.514c-2.049-2.343-3.068-5.197-3.068-8.562V91.514H553.4V108.835z M553.4,117.743v11.677
		c0,1.388,0.36,2.429,1.089,3.122c0.724,0.69,1.646,1.038,2.771,1.038h29.789v-15.837H553.4z"/>
	<path d="M634.756,94.98v-9.404h13.856v9.404h18.507v8.907h-8.907c0.991,1.187,1.895,2.491,2.722,3.909
		c0.822,1.42,1.469,2.92,1.932,4.503h15.142V87.555h13.362v53.941h-13.362v-20.288h-14.55c-0.395,3.035-1.271,5.724-2.623,8.065
		c-1.353,2.344-3.019,4.34-4.999,5.989c-1.98,1.585-4.19,2.789-6.629,3.612c-2.442,0.822-4.951,1.203-7.522,1.136
		c-2.905,0.067-5.693-0.378-8.362-1.334c-2.674-0.958-5-2.394-6.979-4.305c-2.048-1.847-3.681-4.122-4.902-6.83
		c-1.221-2.704-1.83-5.805-1.83-9.305c0-2.903,0.497-5.557,1.487-7.966c0.989-2.408,2.34-4.536,4.058-6.384h-8.514V94.98H634.756z
		 M641.684,104.579c-2.377,0.066-4.422,1.371-6.138,3.91c-1.716,2.542-2.573,5.79-2.573,9.749c0,3.762,0.776,6.863,2.327,9.305
		c1.548,2.442,3.643,3.63,6.285,3.565c1.384,0,2.605-0.364,3.66-1.09c1.058-0.727,1.945-1.686,2.672-2.87
		c0.726-1.19,1.289-2.559,1.685-4.109c0.395-1.549,0.625-3.149,0.694-4.801c-0.069-3.958-0.909-7.207-2.524-9.749
		C646.153,105.95,644.123,104.645,641.684,104.579z M691.369,145.456v32.663h-49.291c-2.507,0-4.652-1.208-6.432-3.615
		c-1.782-2.408-2.674-5.293-2.674-8.66v-20.388H691.369z M646.335,154.364v11.283c0,1.319,0.345,2.245,1.04,2.772
		c0.692,0.525,1.631,0.791,2.821,0.791h27.811v-14.847H646.335z"/>
</g>
</svg>
