<?xml version="1.0" encoding="utf-8"?>
<!-- Generator: Adobe Illustrator 16.0.0, SVG Export Plug-In . SVG Version: 6.00 Build 0)  -->
<!DOCTYPE svg PUBLIC "-//W3C//DTD SVG 1.1//EN" "http://www.w3.org/Graphics/SVG/1.1/DTD/svg11.dtd">
<svg version="1.1" id="Layer_1" xmlns="http://www.w3.org/2000/svg" xmlns:xlink="http://www.w3.org/1999/xlink" x="0px" y="0px"
	 width="700px" height="244px" viewBox="0 0 700 244" enable-background="new 0 0 700 244" xml:space="preserve">
<g>
	<path fill="#F3B081" d="M97.786,128.4c-3.216-29.199,27.411-52.639,68.392-52.314c40.969,0.325,76.821,24.245,80.026,53.444
		c3.216,29.198-27.396,52.638-68.396,52.321C136.851,181.541,100.998,157.622,97.786,128.4 M253.822,137.465
		c-3.704-36.212-44.942-65.899-92.131-66.271c-47.146-0.395-82.383,28.665-78.702,64.877c3.704,36.22,44.959,65.906,92.125,66.271
		C222.291,202.752,257.528,173.685,253.822,137.465"/>
	<path fill="#EE966A" d="M182.619,203.1c-23.238,24.261-60.53,26.289-83.281,4.498c-22.766-21.791-22.395-59.148,0.859-83.424
		c23.219-24.261,60.526-26.258,83.273-4.49C206.252,141.475,205.857,178.824,182.619,203.1 M96.547,123.399
		c-27.008,28.224-27.45,71.627-1.002,96.971c26.447,25.313,69.808,22.968,96.812-5.233c26.993-28.215,27.43-71.619,0.983-96.963
		C166.897,92.846,123.555,95.199,96.547,123.399"/>
	<path fill="#E87026" d="M98.993,32.575c48.327-18.122,96.108,0.217,106.729,40.903c10.625,40.718-19.925,88.387-68.264,106.492
		c-48.311,18.13-96.073-0.209-106.709-40.919C20.132,98.357,50.682,50.665,98.993,32.575 M54.135,48.126
		C3.981,87.814-8.776,145.313,25.605,176.572c34.4,31.258,102.919,24.422,153.058-15.273c50.13-39.703,62.876-97.227,28.499-128.453
		C172.784,1.58,104.261,8.423,54.135,48.126"/>
	<g>
		<polygon fill="#010000" points="679.949,76.195 679.949,89.857 663.151,89.857 663.151,98.589 679.949,98.589 679.949,105.58 
			663.151,105.58 663.151,113.87 679.949,113.87 679.949,127.967 693,127.967 693,76.195 		"/>
		<path fill="#010000" d="M659.575,86.057c0.038-1.486-0.016-6.154-6.894-6.154c0,0-43.09,0-43.863,0c0,0.534,0,30.027,0,30.027
			c-0.027,1.486,0.994,14.724,16.763,14.724c0,0,33.196,0,34.002,0C659.583,124.111,659.575,86.057,659.575,86.057z
			 M647.089,115.403h-20.49c-4.366,0-5.364-3.731-5.349-5.62V89.161h25.839V115.403z"/>
		<polygon fill="#010000" points="581.121,95.524 574.866,95.524 574.866,77.604 562.322,77.604 562.322,126.124 574.866,126.124 
			574.866,105.092 581.121,105.092 581.121,128.338 593.908,128.338 593.908,76.195 581.121,76.195 		"/>
		<path fill="#010000" d="M662.928,130.165c-16.009,0-29.002,10.272-29.002,22.982c0,12.703,12.993,22.983,29.002,22.983
			c16.008,0,28.989-10.28,28.989-22.983C691.917,140.438,678.936,130.165,662.928,130.165z M662.881,167.112
			c-9.041,0-16.373-5.898-16.373-14.026c0-8.144,7.332-14.027,16.373-14.027s16.356,5.884,16.356,14.027
			C679.237,161.214,671.922,167.112,662.881,167.112z"/>
		<path fill="#010000" d="M561.889,130.165c-16.012,0-29.002,10.272-29.002,22.982c0,12.703,12.99,22.983,29.002,22.983
			c16.004,0,28.986-10.28,28.986-22.983C590.875,140.438,577.893,130.165,561.889,130.165z M561.842,167.112
			c-9.045,0-16.368-5.898-16.368-14.026c0-8.144,7.323-14.027,16.368-14.027s16.361,5.884,16.361,14.027
			C578.203,161.214,570.887,167.112,561.842,167.112z"/>
		<path fill="#010000" d="M371.008,80.731c-0.762,0-12.262,0-13.027,0c0,0.836,0,62.778,0,63.622c0.766,0,12.285,0,13.027,0
			c0.008-0.836,0-32.109,0-32.109h13.338c0-0.766,0-9.188,0-9.955c-0.781,0-13.338,0-13.338,0V80.731z"/>
		<path fill="#010000" d="M315.812,160.199c-1.916-2.105-2.133-4.854-2.117-8.213v-9.545h-13.059v14.646
			c-0.01,3.947,0.95,15.637,17.564,15.706c0,0,51.988,0,52.808,0v-9.924c-0.82,0-48.961,0-48.961,0
			C319.252,162.87,317.271,161.902,315.812,160.199z"/>
		<rect x="301.175" y="76.481" fill="#010000" width="29.797" height="8.484"/>
		<path fill="#010000" d="M341.136,118.027c0-10.489-9.637-19.012-24.771-19.012c-14.688,0-24.763,8.523-24.763,19.012
			c0,9.211,10.022,19.035,24.763,19.035C331.355,137.063,341.136,126.976,341.136,118.027z M303.966,117.663
			c0.016-6.231,5.535-10.574,12.411-10.543c6.87,0.016,12.405,4.404,12.374,10.612c-0.008,6.217-5.612,11.24-12.479,11.217
			C309.4,128.926,303.935,123.871,303.966,117.663z"/>
		<path fill="#010000" d="M345.394,87.915h-57.962c0,0.511,0,8.182,0,8.182h57.962C345.394,96.097,345.394,88.627,345.394,87.915z"
			/>
		<rect x="410.525" y="76.481" fill="#010000" width="29.753" height="8.484"/>
		<path fill="#010000" d="M480.342,80.708c-0.729,0-12.238,0-12.982,0v55.294c-0.077,5.968-2.852,9.838-5.488,11.665v-0.031
			c-4.684,3.197-14.514,3.159-14.514,3.159h-0.008h-14.487v-14.576c10.825-2.594,17.571-10.775,17.571-18.191
			c0-10.489-9.602-19.012-24.771-19.012c-14.673,0-24.759,8.523-24.759,19.012c0,7.941,7.431,16.317,18.91,18.5v14.268
			c0,0-22.943,0-23.764,0c0,0.758,0,9.211,0,9.97c0.657,0,34.857-0.016,51.756,0c0.449,0,14.313-0.062,19.162-5.218
			c0.174-0.209,0.359-0.402,0.391-0.541v17.788h12.982v-51.105c0,0,12.566,0,13.353,0c0-0.759,0-9.157,0-9.9
			c-0.786,0-13.353,0-13.353,0S480.342,81.536,480.342,80.708z M425.59,128.949c-6.874-0.023-12.332-5.078-12.309-11.286
			c0.023-6.231,5.543-10.574,12.397-10.543c6.89,0.016,12.439,4.404,12.405,10.612C438.068,123.949,432.448,128.973,425.59,128.949z
			"/>
		<path fill="#010000" d="M454.699,87.915h-57.952c0,0.511,0,8.182,0,8.182h57.952C454.699,96.097,454.699,88.627,454.699,87.915z"
			/>
		<path fill="#010000" d="M556.807,124.893v-9.172c-21.203-6.657-19.508-35.903-19.508-35.903h-0.008h-12.726h-0.008
			c0,0,1.745,29.246-19.515,35.903v9.172c0,0,14.801,0.829,25.634-17.525l0.252-0.766l0.247,0.766
			C541.588,125.326,556.807,124.893,556.807,124.893z"/>
	</g>
</g>
</svg>
