<?xml version="1.0" encoding="utf-8"?>
<!-- Generator: Adobe Illustrator 16.0.0, SVG Export Plug-In . SVG Version: 6.00 Build 0)  -->
<!DOCTYPE svg PUBLIC "-//W3C//DTD SVG 1.1//EN" "http://www.w3.org/Graphics/SVG/1.1/DTD/svg11.dtd">
<svg version="1.1" id="Layer_1" xmlns="http://www.w3.org/2000/svg" xmlns:xlink="http://www.w3.org/1999/xlink" x="0px" y="0px"
	 width="700px" height="244px" viewBox="0 0 700 244" enable-background="new 0 0 700 244" xml:space="preserve">
<g>
	<g>
		<path fill="#F6BA81" d="M79.681,123.733c-2.454-22.197,20.836-40.015,51.994-39.764c31.149,0.242,58.396,18.432,60.839,40.629
			c2.455,22.198-20.818,40.02-51.994,39.772C109.376,164.123,82.123,145.95,79.681,123.733 M198.318,130.626
			c-2.821-27.522-34.182-50.081-70.04-50.385c-35.857-0.296-62.657,21.791-59.838,49.327c2.822,27.54,34.179,50.104,70.042,50.387
			C174.344,180.26,201.123,158.162,198.318,130.626"/>
		<path fill="#F39E51" d="M144.163,180.524c-17.655,18.449-45.997,19.979-63.293,3.407c-17.325-16.548-17.031-44.948,0.647-63.412
			c17.664-18.442,46.021-19.953,63.311-3.406C162.135,133.675,161.841,162.075,144.163,180.524 M78.739,119.939
			c-20.526,21.456-20.868,54.448-0.765,73.703c20.114,19.268,53.07,17.473,73.598-3.966c20.543-21.445,20.868-54.436,0.758-73.717
			C132.228,96.705,99.278,98.496,78.739,119.939"/>
		<path fill="#EC7100" d="M80.599,50.879c36.737-13.776,73.056,0.16,81.141,31.102c8.087,30.953-15.15,67.206-51.893,80.964
			c-36.728,13.787-73.043-0.164-81.136-31.106C20.637,100.896,43.877,64.644,80.599,50.879 M46.495,62.708
			c-38.122,30.174-47.814,73.886-21.68,97.65c26.141,23.752,78.234,18.561,116.357-11.617c38.108-30.18,47.804-73.904,21.675-97.655
			C136.688,27.323,84.606,32.524,46.495,62.708"/>
	</g>
	<g>
		<path fill="#231916" d="M268.076,102.487H223.98v-7.052h44.096V102.487z M246.032,133.462c-5.574,0-10.111-1.406-13.606-4.219
			c-3.496-2.813-5.244-6.187-5.244-10.121c0-3.88,1.748-7.227,5.244-10.04c3.496-2.813,8.033-4.221,13.606-4.221
			c5.572,0,10.104,1.408,13.599,4.221c3.502,2.813,5.25,6.16,5.25,10.04c0,3.934-1.748,7.308-5.25,10.121
			C256.136,132.056,251.604,133.462,246.032,133.462z M249.392,149.693h38.106v7.538h-40.484c-8.745,0-13.117-4.072-13.117-12.21
			v-7.869h9.84v6.721C243.736,147.751,245.622,149.693,249.392,149.693z M234.723,85.766h22.614v7.13h-22.614V85.766z
			 M246.032,126.58c2.566,0,4.766-0.711,6.596-2.132c1.831-1.418,2.743-3.194,2.743-5.326c0-2.078-0.912-3.826-2.743-5.247
			c-1.83-1.418-4.03-2.13-6.596-2.13c-2.57,0-4.773,0.712-6.603,2.13c-1.83,1.421-2.74,3.169-2.74,5.247
			c0,2.132,0.91,3.908,2.74,5.326C241.259,125.869,243.462,126.58,246.032,126.58z M287.173,105.025h10.164v7.705h-10.164v24.835
			h-9.757V86.997h9.757V105.025z"/>
		<path fill="#231916" d="M322.9,133.056c-3.495-0.599-6.474-1.912-8.933-3.936c-3.385-2.786-5.079-6.118-5.079-9.998
			c0-3.88,1.748-7.227,5.244-10.04c3.496-2.813,8.033-4.221,13.605-4.221c5.573,0,10.105,1.408,13.606,4.221
			c3.496,2.813,5.247,6.16,5.247,10.04c0,3.879-1.698,7.211-5.083,9.998c-2.407,1.968-5.331,3.283-8.774,3.936v7.457h10.906
			c9.833,0,14.75-3.796,14.75-11.393V86.997h9.755v23.601h10.163v7.786h-10.163v39.014h-9.755v-13.194
			c-2.951,2.619-7.323,3.935-13.114,3.935h-41.306v-7.625H322.9V133.056z M349.618,102.487h-44.087v-7.052h44.087V102.487z
			 M316.427,85.766h22.625v7.13h-22.625V85.766z M327.738,126.58c2.566,0,4.767-0.711,6.597-2.132
			c1.833-1.418,2.749-3.194,2.749-5.326c0-2.078-0.916-3.826-2.749-5.247c-1.831-1.418-4.031-2.13-6.597-2.13
			s-4.766,0.712-6.596,2.13c-1.83,1.421-2.749,3.169-2.749,5.247c0,2.132,0.919,3.908,2.749,5.326
			C322.972,125.869,325.172,126.58,327.738,126.58z"/>
		<path fill="#231916" d="M456.822,123.548v7.702H384.94v-7.702h30.902v-9.999h9.997v9.999H456.822z M425.84,87.733
			c0,5.681,2.755,10.708,8.274,15.081c5.306,4.206,11.199,6.583,17.705,7.129v7.375c-7.818-0.218-15.519-2.813-23.113-7.786
			c-3.226-2.074-5.816-4.424-7.785-7.045c-2.022,2.622-4.645,4.971-7.868,7.045c-7.598,4.973-15.301,7.568-23.11,7.786v-7.375
			c6.502-0.546,12.399-2.923,17.702-7.129c5.521-4.373,8.273-9.4,8.273-15.081v-0.575h9.922V87.733z M409.121,149.61h39.915v7.621
			h-43.033c-8.305,0-12.454-4.343-12.454-13.028v-8.359h9.834v7.535C403.383,147.533,405.296,149.61,409.121,149.61z"/>
		<path fill="#231916" d="M503.042,106.092h-38.031v-7.377h38.031V106.092z M501.48,127.318c0,5.085-1.613,9.315-4.832,12.7
			c-3.225,3.39-7.403,5.085-12.539,5.085c-5.14,0-9.317-1.695-12.543-5.085c-3.224-3.385-4.829-7.615-4.829-12.7
			c0-5.082,1.605-9.315,4.829-12.703c3.226-3.388,7.403-5.083,12.543-5.083c5.136,0,9.314,1.695,12.539,5.083
			C499.867,118.003,501.48,122.237,501.48,127.318z M473.861,87.242h20.494v7.459h-20.494V87.242z M491.976,127.318
			c0-3.223-0.712-5.776-2.13-7.663c-1.424-1.884-3.361-2.828-5.821-2.828c-2.407,0-4.302,0.944-5.695,2.828
			c-1.396,1.887-2.09,4.44-2.09,7.663c0,3.226,0.694,5.779,2.09,7.663c1.394,1.882,3.288,2.825,5.695,2.825
			c2.46,0,4.397-0.943,5.821-2.825C491.264,133.098,491.976,130.544,491.976,127.318z M523.771,86.997h9.593v70.401h-9.593v-39.014
			h-6.885v39.014h-9.418V86.997h9.418v23.601h6.885V86.997z"/>
		<path fill="#231916" d="M607.612,128.549h-22.125v13.765h30.979v7.789h-71.879v-7.789h30.902v-13.765h-11.073
			c-8.354,0-12.534-4.181-12.534-12.541V88.634h9.755v12.458h36.224V88.634h9.752V128.549z M597.86,120.923v-12.291h-36.224v7.049
			c0,3.494,1.775,5.242,5.325,5.242H597.86z"/>
		<path fill="#231916" d="M669.896,102.322h-44.09v-7.05h44.09V102.322z M628.513,117.319c0-3.712,1.789-6.803,5.364-9.259
			c3.581-2.459,8.236-3.69,13.972-3.69c5.687,0,10.33,1.23,13.935,3.69c3.604,2.456,5.411,5.547,5.411,9.259
			c0,3.716-1.807,6.818-5.411,9.3c-3.604,2.488-8.248,3.73-13.935,3.73c-5.735,0-10.391-1.242-13.972-3.73
			C630.302,124.137,628.513,121.035,628.513,117.319z M636.54,85.766h22.621v7.13H636.54V85.766z M638.264,117.402
			c0,1.911,0.901,3.415,2.702,4.508c1.804,1.092,4.099,1.638,6.883,1.638c2.788,0,5.083-0.546,6.888-1.638
			c1.801-1.093,2.707-2.597,2.707-4.508c0-1.913-0.906-3.428-2.707-4.549c-1.805-1.12-4.1-1.68-6.888-1.68
			c-2.784,0-5.079,0.56-6.883,1.68C639.165,113.975,638.264,115.49,638.264,117.402z M691.865,138.792v18.439h-41.72
			c-7.815,0-11.719-3.387-11.719-10.163v-13.271h48.03C690.058,133.798,691.865,135.457,691.865,138.792z M682.107,141.004H648.18
			v5.33c0,2.457,1.337,3.686,4.015,3.686h29.913V141.004z M682.107,115.106h-12.538v-7.704h12.538V86.997h9.758v43.273h-9.758
			V115.106z"/>
	</g>
</g>
</svg>
