<?xml version="1.0" encoding="utf-8"?>
<!-- Generator: Adobe Illustrator 16.0.0, SVG Export Plug-In . SVG Version: 6.00 Build 0)  -->
<!DOCTYPE svg PUBLIC "-//W3C//DTD SVG 1.1//EN" "http://www.w3.org/Graphics/SVG/1.1/DTD/svg11.dtd">
<svg version="1.1" id="Layer_1" xmlns="http://www.w3.org/2000/svg" xmlns:xlink="http://www.w3.org/1999/xlink" x="0px" y="0px"
	 width="700px" height="244px" viewBox="0 0 700 244" enable-background="new 0 0 700 244" xml:space="preserve">
<path fill="#F4A000" d="M50.633,108.297c18.943,0,34.263-15.283,34.263-34.228l31.602-0.003l-0.017,105.327H76.975v-44.753H50.633
	v44.767h-39.49V74.069h39.49V108.297z"/>
<g>
	<polygon fill="#001755" points="500.876,98.237 500.876,111.826 510.979,111.826 510.979,122.537 500.876,122.537 500.876,138.395 
		488.385,138.395 488.385,98.237 	"/>
	<path fill="#001755" d="M453.87,159.75c0-11.301,9.896-20.571,23.268-20.571c13.375,0,23.276,9.271,23.276,20.571
		c0,11.299-9.901,20.676-23.276,20.676C463.766,180.426,453.87,171.049,453.87,159.75z M477.023,170.052
		c6.043,0,10.937-4.526,10.937-10.315c0-5.786-4.894-10.2-10.937-10.2c-6.041,0-10.711,4.414-10.711,10.2
		C466.313,165.525,470.982,170.052,477.023,170.052z"/>
	<path fill="#001755" d="M447.314,98.261c-0.057,11.29-0.625,20.575-17.16,28.293l6.021,9.198
		c7.133-2.058,15.158-8.264,18.229-13.792c3.071,5.528,11.092,11.734,18.229,13.792l6.019-9.198
		c-16.533-7.718-17.102-17.003-17.162-28.293H447.314z"/>
	<polygon fill="#001755" points="310.563,117.215 303.97,117.215 303.97,98.396 292.18,98.396 292.18,179.556 303.97,179.556 
		303.97,129.037 310.563,129.037 310.563,179.556 322.689,179.556 322.689,98.396 310.563,98.396 	"/>
	<polygon fill="#001755" points="677.697,117.215 671.983,117.215 671.983,98.396 660.059,98.396 660.059,179.556 671.983,179.556 
		671.983,129.037 677.697,129.037 677.697,179.556 689.952,179.556 689.952,98.396 677.697,98.396 	"/>
	<polygon fill="#001755" points="405.021,117.215 399.309,117.215 399.309,98.396 387.389,98.396 387.389,179.556 399.309,179.556 
		399.309,129.037 405.021,129.037 405.021,179.556 417.28,179.556 417.28,98.396 405.021,98.396 	"/>
	<polygon fill="#001755" points="181.492,151.588 194.35,151.588 194.35,167.718 232.585,167.718 232.585,178.234 181.492,178.234 	
		"/>
	<polygon fill="#001755" points="220.142,141.258 210.652,141.258 210.652,130.812 220.142,130.812 220.142,123.818 
		210.636,123.818 210.636,113.375 220.142,113.375 220.142,98.348 232.641,98.348 232.641,158.037 220.142,158.037 	"/>
	<g>
		<path fill="#001755" d="M593.535,98.237h-12.232v54.624H555.6v-10.528c8.28-2.424,13.798-9.089,13.798-17.395
			c0-6.422-3.142-11.22-7.01-13.924h9.681v-9.914h-16.334v-6.459h-13.183v6.459h-16.337v9.914h9.787
			c-3.908,2.802-7.013,7.502-7.013,13.924c0,8.358,5.585,15.065,13.958,17.442v10.48h-17.088v10.68h55.443v15.902h12.232v-47.759
			h10.098v-10.71h-10.098V98.237z M549.176,116.232c4.797,0,8.498,4.177,8.498,8.496s-3.701,8.499-8.498,8.499
			c-4.799,0-8.502-4.18-8.502-8.499S544.377,116.232,549.176,116.232z"/>
		<path fill="#001755" d="M643.215,110.956h11.164V100.44h-36.271v10.516h11.363c0.03,8.622,2.158,23.119-14.658,31.909l5.846,8.773
			c6.853-2.962,13.022-8.947,15.682-14.238c2.668,5.291,8.594,11.428,15.427,14.367l6.105-8.902
			C641.06,134.075,643.178,119.578,643.215,110.956z"/>
		<path fill="#001755" d="M356.652,94.8v6.457h-14.262v9.915h7.037c-4.207,2.835-6.654,8.208-6.654,13.926
			c0,9.862,8.485,18.291,20.208,18.291c11.727,0,20.205-8.429,20.205-18.291c0-5.719-2.441-11.091-6.648-13.926h7.032v-9.915h-14.26
			V94.8H356.652z M371.467,124.889c0,4.316-3.706,8.498-8.504,8.498c-4.795,0-8.499-4.182-8.499-8.498
			c0-4.322,3.704-8.502,8.499-8.502C367.761,116.387,371.467,120.566,371.467,124.889z"/>
		<path fill="#001755" d="M178.458,94.854v6.461h-15.867v9.912h8.818c-4.115,2.737-6.483,8.051-6.483,13.069
			c0,9.862,8.485,17.863,20.206,17.863s20.206-8.001,20.206-17.863c0-5.019-2.371-10.332-6.486-13.069h8.821v-9.912h-15.867v-6.461
			H178.458z M193.61,124.082c0,4.319-3.703,8.07-8.501,8.07s-8.501-3.751-8.501-8.07c0-4.316,3.703-8.068,8.501-8.068
			S193.61,119.766,193.61,124.082z"/>
	</g>
	<polygon fill="#001755" points="287.894,142.123 267.492,142.123 267.492,111.325 284.26,111.325 284.26,100.676 254.753,100.676 
		254.753,152.811 287.894,152.811 	"/>
</g>
</svg>
