<?xml version="1.0" encoding="utf-8"?>
<!-- Generator: Adobe Illustrator 16.0.0, SVG Export Plug-In . SVG Version: 6.00 Build 0)  -->
<!DOCTYPE svg PUBLIC "-//W3C//DTD SVG 1.1//EN" "http://www.w3.org/Graphics/SVG/1.1/DTD/svg11.dtd">
<svg version="1.1" id="Layer_1" xmlns="http://www.w3.org/2000/svg" xmlns:xlink="http://www.w3.org/1999/xlink" x="0px" y="0px"
	 width="700px" height="244px" viewBox="0 0 700 244" enable-background="new 0 0 700 244" xml:space="preserve">
<rect x="95.331" y="83.65" transform="matrix(-0.7071 -0.7071 0.7071 -0.7071 151.5587 326.0302)" fill="#E3007F" width="95.948" height="95.95"/>
<rect x="10.763" y="66.915" fill="#E3007F" width="51.757" height="51.761"/>
<rect x="10.763" y="144.564" fill="#E3007F" width="51.757" height="51.771"/>
<polygon fill="#2F106E" points="313.384,95.4 287.477,95.4 287.477,66.932 275.936,66.932 275.936,131.625 287.477,131.625 
	287.477,103.461 313.384,103.461 313.384,131.625 325.025,131.625 325.025,66.932 313.384,66.932 "/>
<path fill="#2F106E" d="M359.002,124.558c-6.021,0-10.867-2.789-11.563-16.618h29.993c0.191-2.091,0.297-3.285,0.297-5.08
	c0-16.33-7.965-22.09-19.032-22.09c-11.258,0-22.691,6.771-22.691,26.569c0,19.808,9.411,25.279,21.054,25.279
	c6.884,0,13.097-1.978,21.244-4.671l-1.742-7.171C369.859,122.867,363.655,124.558,359.002,124.558 M357.834,87.741
	c5.324,0,8.636,3.773,8.436,13.332h-18.526C348.71,89.527,353.66,87.741,357.834,87.741"/>
<path fill="#2F106E" d="M417.22,113.308c-1.264,1.987-2.806,3.886-4.461,5.69c-3.103,3.076-5.926,5.368-8.645,5.368
	c-3.582,0-5.133-2.188-5.133-9.76V81.754h-11.162v34.839c0,12.94,5.638,16.025,13.201,16.025c5.333,0,11.154-3.285,16.879-9.847
	h0.104l0.471,8.854h9.899V81.754H417.22V113.308z"/>
<path fill="#2F106E" d="M467.674,80.761c-6.013,0-12.121,3.494-17.271,10.256h-0.088l-0.392-9.263h-9.995v49.871h11.163V99.583
	c1.455-2.205,3.102-4.383,4.557-5.882c3.591-3.172,6.117-4.67,8.819-4.67c4.67,0,4.775,4.67,4.775,9.951v32.643h11.153V97.78
	C480.396,86.835,478.148,80.761,467.674,80.761"/>
<path fill="#2F106E" d="M532.019,83.549c-5.733-1.29-13.394-2.579-19.215-2.579c-10.674,0-23.379,2.98-23.379,27.667
	c0,18.901,8.052,24.19,16.104,24.19c5.629,0,9.803-2.3,15.615-8.165c0.296,3.094,0.68,5.865,0.68,9.76
	c0,5.969-3.007,9.943-9.22,9.943c-6.204,0-11.642-1.29-18.056-2.676l-2.404,7.451c6.013,1.795,12.801,3.293,19.693,3.293
	c15.615,0,21.245-9.063,21.245-18.909c0-6.675-1.063-9.56-1.063-16.042V83.549z M520.952,116.393
	c-5.821,6.274-9.411,8.574-12.322,8.574c-3.886,0-7.563-2.692-7.563-18.029c0-16.025,4.758-18.604,10.37-18.604
	c2.335,0,6.901,0.697,9.516,1.194V116.393z"/>
<path fill="#2F106E" d="M585.958,81.754h-12.6c-4.479,9.855-9.813,17.123-17.568,22.204V61.956h-11.153v69.669h11.153v-25.68
	c6.894,9.96,11.938,15.136,18.822,25.68h14.657c-8.348-12.243-14.465-17.611-21.357-26.282
	C575.292,100.368,580.051,93.701,585.958,81.754"/>
<path fill="#2F106E" d="M623.813,113.308c-1.255,1.987-2.815,3.886-4.462,5.69c-3.103,3.076-5.926,5.368-8.636,5.368
	c-3.599,0-5.149-2.188-5.149-9.76V81.754h-11.154v34.839c0,12.94,5.629,16.025,13.201,16.025c5.342,0,11.163-3.285,16.88-9.847
	h0.096l0.479,8.854h9.907V81.754h-11.162V113.308z"/>
<path fill="#2F106E" d="M670.78,105.343c7.372-4.967,12.122-11.642,18.038-23.589h-12.6c-4.471,9.855-9.804,17.123-17.568,22.204
	V61.956h-11.153v69.669h11.153v-25.68c6.902,9.951,11.93,15.136,18.822,25.68h14.648
	C683.782,119.382,677.665,114.014,670.78,105.343"/>
<path fill="#2F106E" d="M374.521,167.797h-2.771v-5.908h-3.921v17.576c-5.63,0.096-10.161,4.018-10.161,8.896
	c0,4.915,4.637,8.906,10.37,8.906c5.682,0,10.282-3.912,10.37-8.758h0.017v-26.621h-3.903V167.797z M374.521,171.3v10.108
	c-0.837-0.575-1.77-1.028-2.771-1.359V171.3H374.521z M368.047,194.166c-3.216,0-5.813-2.589-5.813-5.805
	c0-3.197,2.597-5.812,5.813-5.812s5.795,2.614,5.795,5.812C373.842,191.577,371.263,194.166,368.047,194.166"/>
<path fill="#2F106E" d="M363.96,178.314l2.013-2.832c0,0-6.631-3.703-6.631-11.877v-1.717h-0.384h-3.921h-0.393v1.717
	c0,8.174-6.631,11.877-6.631,11.877l2.03,2.832c2.396-1.229,5.149-3.729,6.953-7.094
	C358.801,174.585,361.555,177.086,363.96,178.314"/>
<path fill="#2F106E" d="M416.384,161.889h-4.34v2.867h-8.758v-2.867h-11.52h-4.331v3.512v10.866c0,1.194,0.95,2.144,2.144,2.144
	h0.897h1.29h11.52v-4.018h8.758v6.745c-1.699-1.063-3.791-1.69-6.048-1.69c-5.733,0-10.387,3.982-10.387,8.914
	c0,4.915,4.653,8.906,10.387,8.906c5.734,0,10.388-3.991,10.388-8.906l-0.018-0.018h0.018V161.889z M398.981,174.907h-7.215V165.4
	h7.215V174.907z M403.286,168.259h8.758v2.622h-8.758V168.259z M406.005,194.166c-3.215,0-5.813-2.589-5.813-5.805
	c0-3.197,2.598-5.812,5.813-5.812c3.207,0,5.795,2.614,5.795,5.812C411.8,191.577,409.212,194.166,406.005,194.166"/>
<path fill="#2F106E" d="M339.944,168.303v-4.271c0-1.185-0.959-2.152-2.161-2.152h-23.546v3.503h21.001l0.009,2.902
	c0,2.021-0.191,3.973-0.915,5.908h-22.499v3.502h12.905v4.584h-10.501v3.477h21.01v10.841h4.697v-14.317h-10.492v-4.584h12.896
	v-3.502h-3.119C339.665,172.537,339.944,170.524,339.944,168.303"/>
<path fill="#2F106E" d="M274.467,183.125h7.477c-1.59,1.551-2.566,3.599-2.566,5.838c0,4.924,4.641,8.906,10.383,8.906
	c5.726,0,10.379-3.982,10.379-8.906c0-2.239-0.977-4.287-2.563-5.838h7.398v-3.521h-30.508V183.125z M289.717,194.775
	c-3.207,0-5.804-2.597-5.804-5.804c0-3.216,2.597-5.821,5.804-5.821c3.215,0,5.803,2.605,5.803,5.821
	C295.52,192.179,292.932,194.775,289.717,194.775"/>
<path fill="#2F106E" d="M280.846,170.455c0,4.365,3.982,7.895,8.914,7.895c4.924,0,8.915-3.529,8.915-7.895
	c0-1.639-0.566-3.164-1.552-4.41h6.501v-3.537h-11.746v-3.373h-4.322v3.373h-11.751v3.537h6.574
	C281.403,167.291,280.846,168.816,280.846,170.455 M289.717,165.723c2.492,0,4.496,2.117,4.496,4.705
	c0,2.605-2.004,4.715-4.496,4.715c-2.476,0-4.497-2.109-4.497-4.715C285.22,167.84,287.241,165.723,289.717,165.723"/>
</svg>
