<?xml version="1.0" encoding="utf-8"?>
<!-- Generator: Adobe Illustrator 16.0.0, SVG Export Plug-In . SVG Version: 6.00 Build 0)  -->
<!DOCTYPE svg PUBLIC "-//W3C//DTD SVG 1.1//EN" "http://www.w3.org/Graphics/SVG/1.1/DTD/svg11.dtd">
<svg version="1.1" id="Layer_1" xmlns="http://www.w3.org/2000/svg" xmlns:xlink="http://www.w3.org/1999/xlink" x="0px" y="0px"
	 width="700px" height="244px" viewBox="0 0 700 244" enable-background="new 0 0 700 244" xml:space="preserve">
<polygon fill="#2F106E" points="312.475,130.394 312.475,102.007 286.371,102.007 286.371,130.394 274.724,130.394 274.724,65.186 
	286.371,65.186 286.371,93.891 312.475,93.891 312.475,65.186 324.209,65.186 324.209,130.394 "/>
<path fill="#2F106E" d="M356.497,131.403c-11.735,0-21.22-5.515-21.22-25.48c0-19.965,11.523-26.789,22.872-26.789
	c11.154,0,19.183,5.814,19.183,22.274c0,1.801-0.105,3.013-0.299,5.112H346.8c0.703,13.947,5.586,16.758,11.646,16.758
	c4.691,0,10.944-1.704,17.708-3.812l1.757,7.22C369.689,129.393,363.436,131.403,356.497,131.403 M357.27,86.161
	c-4.198,0-9.188,1.81-10.171,13.439h18.691C365.982,89.973,362.646,86.161,357.27,86.161"/>
<path fill="#2F106E" d="M418.402,130.394l-0.475-8.924h-0.104c-5.779,6.632-11.647,9.925-17.022,9.925
	c-7.625,0-13.299-3.091-13.299-16.143V80.135h11.244v33.113c0,7.616,1.563,9.82,5.181,9.82c2.74,0,5.586-2.301,8.713-5.411
	c1.669-1.809,3.215-3.715,4.498-5.709V80.135h11.26v50.258H418.402z"/>
<path fill="#2F106E" d="M469.574,130.394V97.491c0-5.306-0.105-10.031-4.813-10.031c-2.723,0-5.27,1.511-8.888,4.725
	c-1.477,1.494-3.127,3.698-4.604,5.921v32.287h-11.243V80.135h10.083l0.388,9.337h0.087c5.184-6.825,11.349-10.337,17.409-10.337
	c10.558,0,12.824,6.121,12.824,17.162v34.097H469.574z"/>
<path fill="#2F106E" d="M512.508,151.368c-6.957,0-13.791-1.511-19.851-3.311l2.424-7.528c6.466,1.414,11.945,2.724,18.199,2.724
	c6.271,0,9.293-4.023,9.293-10.049c0-3.899-0.386-6.718-0.686-9.819c-5.867,5.92-10.065,8.221-15.739,8.221
	c-8.116,0-16.231-5.322-16.231-24.382c0-24.874,12.806-27.887,23.557-27.887c5.867,0,13.598,1.3,19.376,2.609v34.21
	c0,6.509,1.071,9.425,1.071,16.153C533.921,142.234,528.247,151.368,512.508,151.368 M521.694,87.97
	c-2.634-0.518-7.237-1.212-9.591-1.212c-5.657,0-10.452,2.618-10.452,18.761c0,15.459,3.706,18.163,7.623,18.163
	c2.935,0,6.553-2.317,12.42-8.625V87.97z"/>
<path fill="#2F106E" d="M575.782,130.394c-6.938-10.636-12.032-15.845-18.972-25.875v25.875h-11.242V60.179h11.242v42.327
	c7.817-5.121,13.193-12.446,17.707-22.371h12.701c-5.955,12.05-10.75,18.761-18.199,23.777c6.957,8.722,13.123,14.15,21.537,26.481
	H575.782z"/>
<path fill="#2F106E" d="M626.639,130.394l-0.475-8.924h-0.105c-5.762,6.632-11.629,9.925-17.021,9.925
	c-7.625,0-13.299-3.091-13.299-16.143V80.135h11.244v33.113c0,7.616,1.563,9.82,5.181,9.82c2.741,0,5.569-2.301,8.715-5.411
	c1.65-1.809,3.231-3.715,4.496-5.709V80.135h11.242v50.258H626.639z"/>
<path fill="#2F106E" d="M679.462,130.394c-6.939-10.636-12.015-15.845-18.972-25.875v25.875h-11.243V60.179h11.243v42.327
	c7.816-5.121,13.192-12.446,17.707-22.371h12.7c-5.972,12.05-10.751,18.761-18.182,23.777c6.939,8.722,13.104,14.15,21.503,26.481
	H679.462z"/>
<rect x="92.683" y="82.036" transform="matrix(-0.7071 -0.7071 0.7071 -0.7071 148.5677 322.3265)" fill="#E3007F" width="96.714" height="96.715"/>
<rect x="7.446" y="65.168" fill="#E3007F" width="52.173" height="52.191"/>
<rect x="7.446" y="143.429" fill="#E3007F" width="52.173" height="52.182"/>
<path fill="#2F106E" d="M339.141,168.777v-4.313c0-1.203-0.983-2.169-2.178-2.169h-23.75v3.538h21.168l0.018,2.926
	c0,2.038-0.21,4.005-0.93,5.92h-22.68v3.531h13.035v4.628h-10.611v3.522h21.186v10.892h4.743v-14.414h-10.61v-4.628h13.034v-3.531
	h-3.145C338.878,173.063,339.141,171.025,339.141,168.777"/>
<path fill="#2F106E" d="M303.902,179.95h-30.777v3.53h7.553c-1.598,1.581-2.582,3.654-2.582,5.902c0,5.007,4.69,8.951,10.434,8.951
	c5.797,0,10.487-3.944,10.487-8.951c0-2.248-1.001-4.321-2.599-5.902h7.483V179.95z M288.496,195.216
	c-3.198,0-5.832-2.565-5.832-5.815c0-3.241,2.634-5.867,5.832-5.867c3.215,0,5.849,2.626,5.849,5.867
	C294.345,192.65,291.711,195.216,288.496,195.216"/>
<path fill="#2F106E" d="M302.55,162.716h-11.875v-3.39h-4.391v3.39h-11.788v3.576h6.623c-0.967,1.273-1.546,2.818-1.546,4.47
	c0,4.34,4.04,7.914,8.958,7.914c4.955,0,8.994-3.574,8.994-7.914c0-1.651-0.562-3.196-1.545-4.47h6.57V162.716z M288.496,175.453
	c-2.495,0-4.498-2.083-4.498-4.717c0-2.627,2.003-4.752,4.498-4.752s4.532,2.125,4.532,4.752
	C293.028,173.37,290.991,175.453,288.496,175.453"/>
<path fill="#2F106E" d="M377.121,172.405v-10.4h-4.305v19.859h-11.594v-2.74c3.882-0.817,6.764-3.952,6.764-7.642
	c0-1.984-0.826-3.804-2.161-5.199h3.25v-3.567h-7.835v-3.39h-4.392v3.39h-7.765v3.567h3.619c-1.336,1.396-2.144,3.215-2.144,5.199
	c0,3.557,2.688,6.605,6.306,7.545v2.837h-8.414v3.549h24.365v11.647h4.305v-21.178h4.232v-3.478H377.121z M354.671,171.456
	c0-2.556,2.001-4.646,4.566-4.646c2.564,0,4.639,2.091,4.639,4.646c0,2.574-2.074,4.576-4.639,4.576
	C356.672,176.032,354.671,174.03,354.671,171.456"/>
<polygon fill="#2F106E" points="412.254,162.005 412.254,172.396 409.443,172.396 409.443,162.005 405.491,162.005 405.491,197.008 
	409.443,197.008 409.443,175.874 412.254,175.874 412.254,197.008 416.188,197.008 416.188,162.005 "/>
<path fill="#2F106E" d="M397.955,165.545h5.551v-3.54h-15.969v3.54h5.622v1.484c0,7.615-1.599,11.621-6.833,16.873l2.02,2.881
	c3.074-2.617,5.586-5.384,7.202-8.906c1.616,3.522,4.11,6.289,7.15,8.906l2.036-2.881c-5.234-5.252-6.779-9.258-6.779-16.873
	V165.545z"/>
</svg>
