<?xml version="1.0" encoding="utf-8"?>
<!-- Generator: Adobe Illustrator 16.0.0, SVG Export Plug-In . SVG Version: 6.00 Build 0)  -->
<!DOCTYPE svg PUBLIC "-//W3C//DTD SVG 1.1//EN" "http://www.w3.org/Graphics/SVG/1.1/DTD/svg11.dtd">
<svg version="1.1" xmlns="http://www.w3.org/2000/svg" xmlns:xlink="http://www.w3.org/1999/xlink" x="0px" y="0px" width="1080px"
	 height="1720.943px" viewBox="0 0 1080 1720.943" enable-background="new 0 0 1080 1720.943" xml:space="preserve">
<g id="guide">
</g>
<g id="title">
	<g>
		<path d="M449.428,114.599h-38.589v27.802h-4.031v-27.802H368.41v-3.9h81.018V114.599z M373.497,78.597
			c0-14.101,14.207-21.901,35.422-21.901c21.214,0,35.421,7.801,35.421,21.901c0,14.101-14.207,21.901-35.421,21.901
			C387.704,100.498,373.497,92.698,373.497,78.597z M377.529,78.597c0,11.501,12.767,18.001,31.39,18.001
			c18.623,0,31.39-6.5,31.39-18.001c0-11.5-12.767-18.001-31.39-18.001C390.296,60.596,377.529,67.096,377.529,78.597z"/>
		<path d="M506.646,97.698h-40.989V130.5h29.182c7.776,0,16.223-1.6,21.215-4.1v3.9c-4.992,2.601-13.343,4.101-21.215,4.101h-33.31
			V93.798h41.085V62.896h-41.277v-3.9h45.309V97.698z M530.355,140.4h-4.032V54.996h4.032V140.4z"/>
		<path d="M624.529,96.598v3.9h-81.018v-3.9h38.493V84.397h-31.773V56.896h67.866v3.9h-63.834v19.701h64.795v3.9h-33.021v12.201
			H624.529z M618.866,125.3c0,11.201-17.374,14.601-34.845,14.601s-34.846-3.4-34.846-14.601s17.375-14.601,34.846-14.601
			S618.866,114.099,618.866,125.3z M614.834,125.3c0-8.201-16.414-10.701-30.813-10.701c-14.399,0-30.814,2.5-30.814,10.701
			c0,8.2,16.415,10.701,30.814,10.701C598.42,136,614.834,133.5,614.834,125.3z"/>
		<path d="M655.061,130.5c7.393,0,14.111-1.2,19.104-3.6v3.9c-4.896,2.5-12.096,3.601-19.871,3.601h-19.774V58.796h4.032V130.5
			H655.061z M684.531,55.596h4.031V138.9h-4.031V92.698H658.9v-3.9h25.631V55.596z M707.762,54.996V140.4h-4.032V54.996H707.762z"/>
	</g>
	<g>
		<path d="M275.742,331.948v31.6H109.853v-31.6h66.432v-26h-57.408V202.75h31.872v21.799h84.097V202.75h31.872v103.198h-57.408v26
			H275.742z M150.749,275.749h84.097V254.35h-84.097V275.749z"/>
		<path d="M396.507,233.55H284.378v-24.8h39.552v-13h33.024v13h39.552V233.55z M290.907,269.149c0-20.4,22.464-31.4,49.536-31.4
			s49.536,11,49.536,31.4c0,20.399-22.464,31.399-49.536,31.399S290.907,289.549,290.907,269.149z M297.626,305.949h146.689v63.599
			H297.626V305.949z M321.243,269.149c0,4.8,7.488,8,19.2,8s19.2-3.2,19.2-8c0-4.8-7.488-8-19.2-8S321.243,264.349,321.243,269.149z
			 M329.691,343.748h82.561v-12h-82.561V343.748z M444.315,198.75v101.198h-32.448v-25.799h-17.28v-29.8h17.28V198.75H444.315z"/>
		<path d="M625.945,289.549H460.057v-27.6h165.889V289.549z M615.578,255.549h-32.832v-29H469.657V198.75h145.921V255.549z
			 M616.346,369.548H469.657v-69.799h146.689V369.548z M584.281,343.148v-17h-82.561v17H584.281z"/>
		<path d="M638.039,298.949v-28.399c19.584-1.6,32.64-15.8,37.248-31.8h-35.328V211.55h36.096v-15.8h33.024v15.8h36.097v19.6h16.896
			V198.75h32.447v101.398h-32.447v-39h-21.506v-22.4h-32.063c-0.769,3.2-1.536,6.4-2.688,9.4l44.16,24.8l-14.592,24.8l-43.775-25.2
			C678.936,287.549,660.311,298.349,638.039,298.949z M796.057,336.948c0,26.2-33.025,34.6-74.881,34.6
			c-41.857,0-74.881-8.4-74.881-34.6s33.023-34.6,74.881-34.6C763.031,302.349,796.057,310.749,796.057,336.948z M761.303,336.948
			c0-6.8-17.855-8.8-40.127-8.8c-22.273,0-40.129,2-40.129,8.8c0,7,17.855,8.8,40.129,8.8
			C743.447,345.748,761.303,343.948,761.303,336.948z"/>
		<path d="M976.15,323.148h-67.201v50.399h-33.6v-50.399h-65.088v-31.399H976.15V323.148z M932.949,232.15H819.477V200.75h147.074
			v80.798h-33.602V232.15z"/>
		<path d="M372.121,545.149v-31.4c16.512-2.4,29.952-30,29.952-73.599l30.72,1.2c0,16-1.92,30.8-5.184,43.799l35.52,35.6v-28.6
			h-19.968V461.35h19.968v-21.8h29.952v122.798H463.13v-38.399l-19.968,19.799l-27.264-28.599
			C405.146,533.749,389.785,544.749,372.121,545.149z M537.626,579.148v30.399H384.793v-56.799h33.024v26.4H537.626z
			 M535.707,565.349H505.37V438.75h30.336V565.349z"/>
		<path d="M617.688,570.548c15.553,0,32.449-3.2,42.433-8.2v31c-9.983,5.2-26.688,8.2-42.433,8.2h-63.553V442.75h94.273v31h-61.824
			v32.399h54.145v30.799h-54.145v33.6H617.688z M706.969,438.75v170.797H674.52v-75.999h-23.424v-31.6h23.424V438.75H706.969z"/>
	</g>
	<path fill="#F4F4FE" d="M609,649c0,4.97-4.029,9-9,9H480c-4.971,0-9-4.029-9-9V649c0-4.97,4.029-9,9-9h120
		C604.971,640,609,644.029,609,649L609,649z"/>
	<g>
		<path d="M590.604,836.875v-3.2c12.595-2.4,20.352-11.28,20.889-26h-20.121v-3.12h41.932v3.12h-18.508
			c-0.154,3.92-0.846,7.52-1.92,10.72l22.424,15.28l-1.843,2.64l-21.81-14.8C607.729,829.916,600.356,835.115,590.604,836.875z
			 M594.75,844.076h52.453v24.641H594.75V844.076z M597.977,865.676h46.001v-18.48h-46.001V865.676z M657.57,820.315h-10.367v18.96
			h-3.226v-37.281h3.226v15.201h10.367V820.315z"/>
		<path d="M684.221,832.956l22.656,30.4l-2.535,2l-20.965-28.48c-4.07,16.561-11.598,27.121-22.118,28.641v-3.12
			c15.206-2.96,22.271-29.601,22.425-58.401l3.226,0.08C686.832,814.795,685.987,824.555,684.221,832.956z M719.088,801.995v68.322
			h-3.227v-68.322H719.088z"/>
		<path d="M769.621,839.676h-36.939v-35.281h36.939V839.676z M738.058,865.596h51.685v3.12h-54.91v-20.721h3.226V865.596z
			 M766.396,807.515h-30.488v29.041h30.488V807.515z M797.652,820.395v3.12h-10.368v29.361h-3.225v-50.881h3.225v18.4H797.652z"/>
		<path d="M864.468,863.196v3.12h-64.816v-3.12h16.896v-21.761c-8.294-3.2-13.133-9.28-13.133-17.36
			c0-12.32,11.213-19.92,28.646-19.92c17.434,0,28.646,7.6,28.646,19.92c0,8.08-4.838,14.16-13.056,17.36v21.761H864.468z
			 M832.06,840.875c15.359,0,25.344-6.56,25.344-16.8s-9.984-16.8-25.344-16.8s-25.343,6.56-25.343,16.8
			S816.7,840.875,832.06,840.875z M819.772,863.196h24.651v-20.721c-3.609,0.96-7.756,1.52-12.364,1.52
			c-4.531,0-8.678-0.48-12.287-1.52V863.196z"/>
		<path d="M878.983,831.755c6.451,0,10.982,6.16,16.281,6.16c3.533,0,5.76-2.56,8.063-5.76v4.4c-1.766,2.64-4.377,4.56-8.447,4.56
			c-6.451,0-10.982-6.16-16.358-6.16c-3.455,0-5.76,1.76-7.986,4.56v-4.24C872.303,833.195,875.144,831.755,878.983,831.755z"/>
		<path d="M654.729,959.596v7.44h-65.508v-7.44h28.799v-15.36h-24.498v-40.241h7.526v12.24h41.778v-12.24h7.525v40.241h-24.575
			v15.36H654.729z M601.048,937.116h41.778v-13.761h-41.778V937.116z"/>
		<path d="M703.958,913.915h-44.542v-6.16h18.432v-6.96h7.68v6.96h18.431V913.915z M662.564,929.916
			c0-7.76,8.447-12.24,19.123-12.24c10.674,0,19.045,4.48,19.045,12.24c0,7.84-8.371,12.24-19.045,12.24
			C671.012,942.156,662.564,937.755,662.564,929.916z M665.176,946.476h55.602v22.96h-55.602V946.476z M669.783,929.916
			c0,3.6,4.607,6.4,11.904,6.4c7.295,0,11.826-2.8,11.826-6.4s-4.531-6.32-11.826-6.32
			C674.391,923.595,669.783,926.315,669.783,929.916z M672.701,963.116h40.549v-10.32h-40.549V963.116z M721.008,901.995v40.641
			h-7.604v-12.88h-10.291v-7.04h10.291v-20.721H721.008z"/>
		<path d="M729.303,929.835h65.508v6.64h-65.508V929.835z M782.293,909.515H733.68v-6.72h56.293v22.96h-7.68V909.515z
			 M733.834,943.436h56.369v26.081h-56.369V943.436z M782.677,963.036v-13.12h-41.24v13.12H782.677z"/>
		<path d="M800.649,941.196v-6.88c10.061-1.52,16.588-9.52,17.971-19.28h-17.279v-6.64h17.356v-7.6h7.68v7.6h17.126v6.64h-17.126
			c-0.308,2.32-0.845,4.64-1.613,6.8l19.891,12.88l-3.609,5.92l-19.276-12.641C817.237,935.036,809.865,940.156,800.649,941.196z
			 M861.857,957.596c0,9.44-12.595,12.72-28.492,12.72s-28.492-3.28-28.492-12.72c0-9.521,12.595-12.721,28.492-12.721
			S861.857,948.076,861.857,957.596z M853.793,957.596c0-4.64-9.062-6.4-20.428-6.4s-20.428,1.76-20.428,6.4s9.062,6.4,20.428,6.4
			S853.793,962.236,853.793,957.596z M853.486,918.555v-16.561h7.603v40.721h-7.603v-17.121h-12.595v-7.04H853.486z"/>
		<path d="M934.893,947.996h-29.26v23.921h-7.834v-23.921h-28.415v-7.52h65.509V947.996z M922.298,911.035h-48.613v-7.44h56.523
			v31.201h-7.91V911.035z"/>
		<path d="M613.949,1014.555h19.66v3.121h-42.469v-3.121h19.584v-12.72h3.225V1014.555z M629.924,1045.756
			c0,12.641-7.91,20.561-17.587,20.561s-17.587-7.92-17.587-20.561s7.91-20.561,17.587-20.561S629.924,1033.115,629.924,1045.756z
			 M626.621,1045.756c0-10.721-6.604-17.44-14.284-17.44s-14.284,6.72-14.284,17.44s6.604,17.44,14.284,17.44
			S626.621,1056.477,626.621,1045.756z M657.57,1035.035h-10.367v35.281h-3.226v-68.322h3.226v29.922h10.367V1035.035z"/>
		<path d="M724.387,1063.196v3.12h-64.817v-3.12h26.956v-33.681h3.225v33.681H724.387z M716.169,1008.234H664.1v-3.119h55.295
			v45.121h-3.226V1008.234z"/>
		<path d="M750.191,1005.195h34.482v14.8c0,26.801-12.595,45.201-34.482,45.201v-3.2c19.507,0,31.257-16.48,31.257-41.682v-12
			h-31.257V1005.195z M815.316,1035.035h-10.368v35.281h-3.225v-68.322h3.225v29.922h10.368V1035.035z"/>
		<path d="M836.053,1032.795l16.588,29.762l-2.688,1.84l-14.668-26.561c-2.611,15.359-7.757,24.32-16.896,27.68v-3.359
			c12.901-5.28,15.743-27.201,15.896-58.162l3.226,0.08C837.436,1015.195,837.051,1024.715,836.053,1032.795z M859.476,1002.475
			h3.226v66.642h-3.226v-38.641h-12.979v-3.12h12.979V1002.475z M878.676,1001.994v68.322h-3.226v-68.322H878.676z"/>
		<path d="M952.172,1063.196v3.12h-64.816v-3.12h16.896v-21.761c-8.294-3.2-13.133-9.28-13.133-17.36
			c0-12.32,11.213-19.921,28.646-19.921c17.434,0,28.646,7.601,28.646,19.921c0,8.08-4.838,14.16-13.056,17.36v21.761H952.172z
			 M919.764,1040.875c15.359,0,25.344-6.56,25.344-16.8s-9.984-16.8-25.344-16.8s-25.343,6.56-25.343,16.8
			S904.404,1040.875,919.764,1040.875z M907.477,1063.196h24.651v-20.721c-3.609,0.96-7.756,1.521-12.364,1.521
			c-4.531,0-8.678-0.48-12.287-1.521V1063.196z"/>
		<path d="M964.692,1065.756c0,2.08-1.613,3.76-3.609,3.76c-1.997,0-3.61-1.68-3.61-3.76s1.613-3.76,3.61-3.76
			C963.079,1061.996,964.692,1063.676,964.692,1065.756z"/>
	</g>
	<g>
		<path fill="#686868" d="M611.142,1153.36v2.4h-24.561v-2.4h10.854v-2.64h-9.099v-8.85h21.048v2.4h-18.197v4.05h18.485v2.399
			h-9.415v2.64H611.142z M609.673,1162.57c0,3.51-4.952,4.71-10.826,4.71s-10.826-1.2-10.826-4.71s4.952-4.68,10.826-4.68
			S609.673,1159.061,609.673,1162.57z M606.679,1162.57c0-1.74-3.83-2.34-7.832-2.34s-7.832,0.6-7.832,2.34
			c0,1.77,3.83,2.37,7.832,2.37S606.679,1164.34,606.679,1162.57z"/>
		<path fill="#686868" d="M613.307,1147.811c0-3.479,3.081-5.97,7.631-5.97c4.549,0,7.602,2.49,7.602,5.97
			c0,3.48-3.053,5.97-7.602,5.97C616.388,1153.78,613.307,1151.291,613.307,1147.811z M615.265,1160.08h17.708v-2.22h-17.766v-2.34
			h20.588v6.78h-17.708v2.22h18.313v2.34h-21.135V1160.08z M625.717,1147.811c0-2.159-1.958-3.569-4.779-3.569
			c-2.822,0-4.809,1.41-4.809,3.569c0,2.16,1.986,3.57,4.809,3.57C623.759,1151.381,625.717,1149.971,625.717,1147.811z
			 M632.944,1141.571h2.851v12.539h-2.851V1141.571z"/>
		<path fill="#686868" d="M650.023,1162.931c2.332,0,4.866-0.48,6.363-1.2v2.7c-1.497,0.779-4.089,1.229-6.449,1.229h-9.675v-23.159
			h14.195v2.73h-11.345v7.289h10.913v2.73h-10.913v7.68H650.023z M664.823,1154.801h-3.455v12.39h-2.851v-25.619h2.851v10.38h3.455
			V1154.801z"/>
		<path fill="#686868" d="M675.569,1159.03h-0.489v8.16h-2.851v-8.16h-6.853v-2.609h10.164c3.311,0,6.306-0.271,8.062-1.021v2.641
			C681.847,1158.73,678.938,1159.03,675.569,1159.03z M666.672,1148.201c0-3.69,3.023-6.12,7.313-6.12
			c4.262,0,7.314,2.43,7.314,6.12c0,3.689-3.053,6.119-7.314,6.119C669.695,1154.32,666.672,1151.891,666.672,1148.201z
			 M669.407,1148.201c0,2.189,1.814,3.689,4.578,3.689c2.735,0,4.55-1.5,4.55-3.689c0-2.19-1.814-3.69-4.55-3.69
			C671.222,1144.511,669.407,1146.011,669.407,1148.201z M688.526,1141.571v25.619h-2.851v-3.12h-7.457v-2.52h7.457v-19.979H688.526
			z"/>
		<path fill="#686868" d="M722.827,1163.17v2.79h-24.561v-2.79h10.797v-5.76h-9.185v-15.089h2.821v4.59h15.664v-4.59h2.821v15.089
			h-9.214v5.76H722.827z M702.7,1154.74h15.664v-5.159H702.7V1154.74z"/>
		<path fill="#686868" d="M741.289,1146.041h-16.7v-2.31h6.91v-2.61h2.879v2.61h6.911V1146.041z M725.769,1152.041
			c0-2.91,3.168-4.59,7.17-4.59s7.141,1.68,7.141,4.59c0,2.939-3.139,4.59-7.141,4.59S725.769,1154.98,725.769,1152.041z
			 M726.748,1158.251h20.847v8.609h-20.847V1158.251z M728.476,1152.041c0,1.35,1.728,2.399,4.463,2.399s4.435-1.05,4.435-2.399
			c0-1.351-1.699-2.37-4.435-2.37S728.476,1150.69,728.476,1152.041z M729.569,1164.49h15.203v-3.87h-15.203V1164.49z
			 M747.681,1141.571v15.239h-2.851v-4.83h-3.858v-2.64h3.858v-7.77H747.681z"/>
		<path fill="#686868" d="M750.797,1152.011h24.561v2.49h-24.561V1152.011z M770.664,1144.392h-18.227v-2.521h21.105v8.609h-2.879
			V1144.392z M752.495,1157.11h21.135v9.78h-21.135V1157.11z M770.808,1164.46v-4.92h-15.462v4.92H770.808z"/>
		<path fill="#686868" d="M777.552,1156.271v-2.58c3.771-0.569,6.219-3.569,6.737-7.229h-6.479v-2.49h6.508v-2.85h2.879v2.85h6.421
			v2.49h-6.421c-0.115,0.87-0.316,1.74-0.604,2.55l7.457,4.83l-1.353,2.22l-7.228-4.739
			C783.771,1153.961,781.007,1155.881,777.552,1156.271z M800.5,1162.42c0,3.54-4.723,4.771-10.683,4.771s-10.682-1.23-10.682-4.771
			c0-3.569,4.722-4.77,10.682-4.77S800.5,1158.851,800.5,1162.42z M797.477,1162.42c0-1.739-3.397-2.399-7.659-2.399
			c-4.261,0-7.659,0.66-7.659,2.399c0,1.74,3.398,2.4,7.659,2.4C794.079,1164.82,797.477,1164.16,797.477,1162.42z
			 M797.361,1147.781v-6.21h2.851v15.27h-2.851v-6.42h-4.722v-2.64H797.361z"/>
		<path fill="#686868" d="M827.888,1158.82h-10.971v8.97h-2.937v-8.97h-10.653v-2.819h24.561V1158.82z M823.165,1144.961h-18.226
			v-2.79h21.191v11.7h-2.966V1144.961z"/>
		<path fill="#686868" d="M845.92,1154.261h-8.84v-12.06h15.002v2.52h-12.151v7.021h6.162c3.34,0,6.161-0.42,7.745-1.141v2.521
			C852.341,1153.811,849.403,1154.261,845.92,1154.261z M837.915,1156.9h20.559v9.96h-20.559V1156.9z M840.766,1164.34h14.857
			v-4.919h-14.857V1164.34z M861.929,1149.671h-3.455v5.819h-2.851v-13.919h2.851v5.25h3.455V1149.671z"/>
		<path fill="#686868" d="M872.186,1154.261h-8.84v-12.06h15.002v2.52h-12.151v7.021h6.162c3.34,0,6.161-0.42,7.745-1.141v2.521
			C878.606,1153.811,875.669,1154.261,872.186,1154.261z M885.113,1161.881c0,3.84-4.636,5.31-10.538,5.31
			c-5.874,0-10.538-1.47-10.538-5.31s4.664-5.311,10.538-5.311C880.478,1156.57,885.113,1158.041,885.113,1161.881z
			 M882.062,1161.881c0-1.95-3.282-2.851-7.486-2.851c-4.175,0-7.486,0.9-7.486,2.851c0,1.979,3.312,2.85,7.486,2.85
			C878.779,1164.73,882.062,1163.86,882.062,1161.881z M888.194,1146.821v2.85h-3.455v6.06h-2.851v-14.159h2.851v5.25H888.194z"/>
		<path fill="#686868" d="M898.134,1153.36l7.889,10.32l-2.246,1.77l-6.479-8.729c-1.67,5.31-4.549,8.489-8.264,8.939v-2.939
			c4.349-0.84,6.882-7.98,6.969-17.489h-6.393v-2.73h15.462v2.73h-6.19C898.854,1148.231,898.594,1150.961,898.134,1153.36z
			 M914.459,1154.801h-3.455v12.39h-2.851v-25.619h2.851v10.38h3.455V1154.801z"/>
		<path fill="#686868" d="M586.408,1195.251v-4.53c3.887-0.479,6.449-4.05,6.536-9.029l4.895,0.3c0,1.68-0.288,3.3-0.807,4.8
			l6.709,4.439l-2.476,3.66l-6.248-4.29C592.973,1193.271,589.949,1195.07,586.408,1195.251z M587.79,1196.331h21.71v10.859h-21.71
			V1196.331z M592.656,1203.021h11.978v-2.521h-11.978V1203.021z M612.38,1190.331h-2.88v5.1h-4.866v-13.859h4.866v3.93h2.88
			V1190.331z"/>
		<path fill="#686868" d="M612.616,1195.791v-4.561c3.829-0.479,6.421-4.38,6.507-9.539l4.896,0.3c0,1.8-0.288,3.51-0.835,5.1
			l6.622,4.65l-2.678,3.479l-5.902-4.29C619.181,1193.721,616.187,1195.581,612.616,1195.791z M636.803,1201.881
			c0,4.169-4.953,5.609-11.229,5.609c-6.277,0-11.229-1.44-11.229-5.609c0-4.17,4.952-5.61,11.229-5.61
			C631.85,1196.271,636.803,1197.711,636.803,1201.881z M631.562,1201.881c0-1.141-2.678-1.62-5.988-1.62
			c-3.312,0-5.989,0.479-5.989,1.62c0,1.17,2.678,1.619,5.989,1.619C628.884,1203.5,631.562,1203.051,631.562,1201.881z
			 M631.706,1188.741h-4.435v-4.53h4.435v-2.64h4.866v14.34h-4.866V1188.741z"/>
		<path fill="#686868" d="M638.881,1196.091v-4.53c2.505-0.42,4.491-3.899,4.491-9.779l4.607,0.18c0,1.86-0.173,3.54-0.519,5.1
			l4.693,4.53v-9.899h4.492v3.899h2.217v-4.02h4.549v14.909h-4.549v-6.27h-2.217v5.43h-4.492v-2.85l-2.505,2.58l-3.858-3.87
			C644.179,1194.32,641.731,1196.001,638.881,1196.091z M663.643,1202c0,4.05-5.096,5.49-11.546,5.49
			c-6.449,0-11.546-1.44-11.546-5.49s5.097-5.489,11.546-5.489C658.547,1196.511,663.643,1197.95,663.643,1202z M658.46,1202
			c0-1.109-2.879-1.5-6.363-1.5s-6.363,0.391-6.363,1.5c0,1.141,2.879,1.5,6.363,1.5S658.46,1203.141,658.46,1202z"/>
		<path fill="#686868" d="M680.551,1194.65h-14.656v-12.779h14.656V1194.65z M689.333,1201.761c0,4.26-4.953,5.729-11.229,5.729
			c-6.277,0-11.229-1.47-11.229-5.729s4.952-5.73,11.229-5.73C684.38,1196.03,689.333,1197.501,689.333,1201.761z M675.771,1186.041
			h-5.096v4.439h5.096V1186.041z M684.092,1201.761c0-1.2-2.678-1.681-5.988-1.681c-3.312,0-5.989,0.48-5.989,1.681
			c0,1.229,2.678,1.68,5.989,1.68C681.414,1203.44,684.092,1202.99,684.092,1201.761z M684.322,1193.331h-2.62v-4.32h2.62v-1.74
			h-2.62v-4.319h2.62v-1.38h4.78v14.1h-4.78V1193.331z"/>
		<path fill="#686868" d="M722.971,1193.931v4.17h-9.991v3.479h-4.895v-3.479h-9.991v-4.17H722.971z M704.485,1202.99h17.334v4.2
			h-22.286v-7.59h4.952V1202.99z M721.474,1192.431h-21.883v-10.859h21.883V1192.431z M716.637,1185.562h-12.209v2.88h12.209
			V1185.562z"/>
		<path fill="#686868" d="M749.235,1192.761v3.84h-24.877v-3.84h4.578v-2.37c-2.103-0.84-3.369-2.159-3.369-4.05
			c0-3.689,4.751-5.189,11.229-5.189s11.229,1.5,11.229,5.189c0,1.891-1.267,3.21-3.369,4.05v2.37H749.235z M748.026,1202.48
			c0,3.689-4.607,5.01-11.229,5.01s-11.229-1.32-11.229-5.01c0-3.69,4.607-5.01,11.229-5.01S748.026,1198.79,748.026,1202.48z
			 M730.75,1186.341c0,0.99,2.361,1.41,6.047,1.41s6.047-0.42,6.047-1.41c0-0.96-2.361-1.41-6.047-1.41
			S730.75,1185.381,730.75,1186.341z M742.844,1202.48c0-0.9-2.477-1.23-6.047-1.23s-6.047,0.33-6.047,1.23
			c0,0.93,2.477,1.229,6.047,1.229S742.844,1203.41,742.844,1202.48z M733.745,1192.761h6.104v-1.35
			c-0.95,0.09-1.986,0.12-3.052,0.12s-2.102-0.03-3.052-0.12V1192.761z"/>
		<path fill="#686868" d="M750.566,1195.791v-4.561c3.829-0.479,6.421-4.38,6.507-9.539l4.896,0.3c0,1.8-0.288,3.51-0.835,5.1
			l6.622,4.65l-2.678,3.479l-5.902-4.29C757.131,1193.721,754.137,1195.581,750.566,1195.791z M774.753,1201.881
			c0,4.169-4.953,5.609-11.229,5.609c-6.277,0-11.229-1.44-11.229-5.609c0-4.17,4.952-5.61,11.229-5.61
			C769.8,1196.271,774.753,1197.711,774.753,1201.881z M769.512,1201.881c0-1.141-2.678-1.62-5.988-1.62
			c-3.312,0-5.989,0.479-5.989,1.62c0,1.17,2.678,1.619,5.989,1.619C766.834,1203.5,769.512,1203.051,769.512,1201.881z
			 M769.656,1188.741h-4.435v-4.53h4.435v-2.64h4.866v14.34h-4.866V1188.741z"/>
		<path fill="#686868" d="M794.483,1193.211l7.141,9.659l-3.857,3l-4.953-7.02c-1.986,4.56-5.125,7.109-8.868,7.14v-5.1
			c3.6-0.42,6.075-5.85,6.248-14.069h-5.557v-4.65h15.721v4.65h-5.27C795.03,1189.131,794.829,1191.261,794.483,1193.211z
			 M807.297,1181.571v25.619h-4.866v-25.619H807.297z"/>
		<path fill="#686868" d="M833.677,1181.571v14.1h-4.866v-5.82h-3.282v-3.779h-4.636c-0.058,0.54-0.145,1.05-0.317,1.59l6.565,3.899
			l-2.332,3.72l-6.22-3.869c-1.93,2.34-4.866,4.05-8.379,4.14v-4.44c3.167-0.18,5.27-2.609,5.759-5.039h-5.413v-4.2h15.663v3.66
			h2.592v-3.96H833.677z M811.679,1196.57h21.998v10.62h-21.998V1196.57z M816.545,1203.051h12.266v-2.341h-12.266V1203.051z"/>
		<path fill="#686868" d="M836.332,1195.521v-4.439c3.167-0.181,5.269-2.58,5.758-5.01h-5.413v-4.2h15.664v4.2h-5.327
			c-0.028,0.479-0.144,0.96-0.259,1.439l6.449,3.72l-2.274,3.75l-6.133-3.689C842.896,1193.661,839.902,1195.431,836.332,1195.521z
			 M859.366,1201.761c0,4.26-4.895,5.729-11.085,5.729c-6.191,0-11.086-1.47-11.086-5.729s4.895-5.73,11.086-5.73
			C854.472,1196.03,859.366,1197.501,859.366,1201.761z M854.126,1201.761c0-1.2-2.592-1.681-5.845-1.681
			c-3.254,0-5.846,0.48-5.846,1.681c0,1.229,2.592,1.68,5.846,1.68C851.534,1203.44,854.126,1202.99,854.126,1201.761z
			 M862.016,1185.501v4.83h-2.88v5.34h-4.866v-14.1h4.866v3.93H862.016z"/>
	</g>
</g>
<g id="사진">
	<g>
		<path d="M1102,1106.615c0,0.627-0.406,1.385-0.908,1.385H-54.092c-0.501,0-0.908-0.758-0.908-1.385v-0.23
			c0-0.627,0.407-1.385,0.908-1.385h1155.184c0.502,0,0.908,0.758,0.908,1.385V1106.615z"/>
		<rect x="79" y="1108" fill="#FFFFFF" width="461" height="260"/>
	</g>
	<g>
		<g>
			<path fill="#A06127" d="M61.06,1073.507h0.056c0.068-6.777,6.213-11.473,6.213-11.473l196.167-112.865
				c27.274-15.745,56.406-0.621,56.406-0.621l175.718,94.802c14.578,8.964,18.188,17.29,17.02,24.232v9.421
				c2.219,14.103-17.012,23.827-17.012,23.827l-190.378,110.36c0,0-20.034,8.104-46.346-7.066L74.366,1104.21
				c-9.767-5.657-12.942-11.155-13.25-15.752l-0.056-0.008V1073.507z"/>
			<path fill="#8E2F16" d="M231.81,967.718l-164.48,94.316c0,0-6.146,4.695-6.213,11.473H61.06v14.943l0.056,0.008
				c0.308,4.597,3.483,10.095,13.25,15.752l184.539,99.915c7.046,4.064,22.281,7.996,28.158,9.327l4.707-97.043L231.81,967.718z"/>
			<path fill="#8BC53F" d="M495.621,1043.351l-175.718-94.802c0,0-29.131-15.124-56.406,0.621L67.33,1062.034
				c0,0-18.029,13.563,7.046,28.054l184.529,99.936c26.312,15.168,46.346,7.043,46.346,7.043l190.378-110.364
				C495.629,1086.702,534.387,1067.127,495.621,1043.351z"/>
		</g>
		<g>
			<g>
				<polygon fill="#BBBDBF" points="363.589,948.476 363.589,1123.379 458.526,1068.821 458.526,893.662 				"/>
				<polygon fill="#F5F5F5" points="268.476,783.925 173.535,838.739 363.589,948.476 458.526,893.662 				"/>
				<polygon fill="#DCE0E4" points="173.535,838.739 173.535,1013.646 363.589,1123.379 363.589,948.476 				"/>
			</g>
			<g>
				<polygon fill="#BBBDBF" points="267.765,792.935 189.139,838.324 363.152,938.784 441.776,893.392 				"/>
				<polygon fill="#A4D8C3" points="195.941,842.251 363.152,938.784 434.973,897.314 267.765,800.789 				"/>
			</g>
			<g>
				<polygon fill="#BBBDBF" points="264.966,923.123 264.966,1128.471 318.024,1098.09 318.024,892.482 				"/>
				<polygon fill="#F5F5F5" points="225.143,838.838 172.081,869.482 264.966,923.123 318.024,892.482 				"/>
				<polygon fill="#DCE0E4" points="172.081,869.482 172.081,1074.826 264.966,1128.471 264.966,923.123 				"/>
				<g>
					<g>
						<polygon fill="#BAA88A" points="195.87,1031.954 195.87,1088.434 234.104,1110.519 234.104,1054.044 						"/>
						<polygon fill="#7C624C" points="200.024,1085.739 234.104,1105.425 234.104,1054.044 200.024,1034.357 						"/>
					</g>
					<polygon fill="#43C5ED" stroke="#FFFFFF" stroke-width="1.5" stroke-miterlimit="10" points="200.041,1031.851 
						200.041,1086.499 233.232,1105.646 233.232,1051.123 					"/>
					
						<line fill="#43C5ED" stroke="#FFFFFF" stroke-width="1.5" stroke-miterlimit="10" x1="215.674" y1="1095.153" x2="215.674" y2="1040.633"/>
					<g>
						
							<line fill="none" stroke="#231F20" stroke-width="1.5" stroke-linecap="round" stroke-linejoin="round" stroke-miterlimit="10" x1="219.999" y1="1068.351" x2="219.999" y2="1077.984"/>
						
							<line fill="none" stroke="#231F20" stroke-width="1.5" stroke-linecap="round" stroke-linejoin="round" stroke-miterlimit="10" x1="211.271" y1="1063.313" x2="211.271" y2="1072.947"/>
					</g>
				</g>
			</g>
			<g>
				<polygon fill="#9C9EA1" points="249.626,874.657 249.626,896.312 272.793,883.006 272.793,861.273 				"/>
				<polygon fill="#BBBDBF" points="223.458,859.54 223.458,881.193 249.626,896.312 249.626,874.657 				"/>
			</g>
			<g>
				<g>
					<polygon fill="#BBBDBF" points="218.887,1096.247 226.094,1092.086 218.531,1087.576 211.205,1091.805 					"/>
					<polygon fill="#BBBDBF" points="211.191,1150.599 218.873,1155.036 218.887,1096.247 211.205,1091.805 					"/>
					<polygon fill="#9C9EA1" points="218.873,1155.036 226.084,1150.879 226.094,1092.086 218.887,1096.247 					"/>
				</g>
				<g>
					<polygon fill="#BBBDBF" points="141.173,1051.375 148.379,1047.219 140.816,1042.71 133.491,1046.938 					"/>
					<polygon fill="#BBBDBF" points="133.478,1105.732 141.166,1110.17 141.173,1051.375 133.491,1046.938 					"/>
					<polygon fill="#9C9EA1" points="141.166,1110.17 148.372,1106.012 148.379,1047.219 141.173,1051.375 					"/>
				</g>
			</g>
			<g>
				<polygon fill="#BBBDBF" points="214.883,1088.494 214.883,1102.584 259.536,1077.028 259.536,1062.71 				"/>
				<polygon fill="#F5F5F5" points="175.94,1014.431 131.292,1040.214 214.883,1088.494 259.536,1062.71 				"/>
				<polygon fill="#DCE0E4" points="131.292,1040.214 131.292,1054.305 214.883,1102.584 214.883,1088.494 				"/>
			</g>
			<g>
				<g>
					<polygon fill="#BBBDBF" points="240.473,846.491 240.473,897.982 280.771,874.909 280.771,823.224 					"/>
					<polygon fill="#F5F5F5" points="235.369,796.986 195.067,820.265 240.473,846.491 280.771,823.224 					"/>
					<polygon fill="#DCE0E4" points="195.067,820.265 195.067,871.754 240.473,897.982 240.473,846.491 					"/>
				</g>
				<g>
					<g>
						<polygon fill="#268F3B" points="206.945,846.736 190.603,837.292 190.568,852.057 206.948,861.514 						"/>
						<polygon fill="#6C9C31" points="211.519,844.086 195.174,834.651 190.603,837.292 206.945,846.736 						"/>
					</g>
					<g>
						<polygon fill="#006F3B" points="219.611,834.314 219.611,893.586 224.188,890.979 224.188,831.673 						"/>
						<polygon fill="#6C9C31" points="210.812,823.942 206.232,826.591 219.611,834.314 224.188,831.673 						"/>
						<polygon fill="#268F3B" points="206.232,826.591 206.232,885.863 219.611,893.586 219.611,834.314 						"/>
					</g>
					<g>
						<polygon fill="#268F3B" points="235.89,863.445 219.545,854.006 219.518,868.773 235.895,878.225 						"/>
						<polygon fill="#006F3B" points="240.471,875.584 240.468,860.807 235.89,863.445 235.895,878.225 						"/>
						<polygon fill="#6C9C31" points="240.468,860.807 224.125,851.362 219.545,854.006 235.89,863.445 						"/>
					</g>
				</g>
			</g>
			<polygon fill="#43C5ED" stroke="#FFFFFF" stroke-width="1.3" stroke-miterlimit="10" points="180.911,935.946 180.911,959.416 
				256.138,1002.859 256.138,979.4 			"/>
			<polygon fill="#43C5ED" stroke="#FFFFFF" stroke-width="1.3" stroke-miterlimit="10" points="180.911,978.026 180.911,1001.486 
				256.138,1044.945 256.138,1021.479 			"/>
			<g>
				<polygon fill="#43C5ED" stroke="#FFFFFF" stroke-width="1.3" stroke-miterlimit="10" points="180.911,893.866 180.911,917.33 
					256.138,960.782 256.138,937.317 				"/>
				<g>
					
						<line fill="#43C5ED" stroke="#FFFFFF" stroke-width="1.3" stroke-miterlimit="10" x1="235.897" y1="949.089" x2="235.897" y2="925.625"/>
					
						<line fill="#43C5ED" stroke="#FFFFFF" stroke-width="1.3" stroke-miterlimit="10" x1="235.897" y1="991.175" x2="235.897" y2="967.708"/>
					
						<line fill="#43C5ED" stroke="#FFFFFF" stroke-width="1.3" stroke-miterlimit="10" x1="235.897" y1="1033.255" x2="235.897" y2="1009.787"/>
				</g>
				<g>
					
						<line fill="#43C5ED" stroke="#FFFFFF" stroke-width="1.3" stroke-miterlimit="10" x1="217.938" y1="938.723" x2="217.938" y2="915.259"/>
					
						<line fill="#43C5ED" stroke="#FFFFFF" stroke-width="1.3" stroke-miterlimit="10" x1="217.938" y1="980.807" x2="217.938" y2="957.345"/>
					
						<line fill="#43C5ED" stroke="#FFFFFF" stroke-width="1.3" stroke-miterlimit="10" x1="217.938" y1="1022.889" x2="217.938" y2="999.425"/>
				</g>
				<g>
					
						<line fill="#43C5ED" stroke="#FFFFFF" stroke-width="1.3" stroke-miterlimit="10" x1="199.978" y1="928.359" x2="199.978" y2="904.89"/>
					
						<line fill="#43C5ED" stroke="#FFFFFF" stroke-width="1.3" stroke-miterlimit="10" x1="199.978" y1="970.439" x2="199.978" y2="946.974"/>
					
						<line fill="#43C5ED" stroke="#FFFFFF" stroke-width="1.3" stroke-miterlimit="10" x1="199.978" y1="1012.522" x2="199.978" y2="989.051"/>
				</g>
			</g>
			<g>
				<polygon fill="#268F3B" points="169.593,1067.674 166.851,1066.086 166.848,1068.568 169.593,1070.154 				"/>
				<polygon fill="#268F3B" points="169.472,1064.292 169.472,1074.239 171.717,1075.529 171.717,1065.587 				"/>
				<polygon fill="#268F3B" points="174.448,1070.48 171.705,1068.895 171.7,1071.367 174.448,1072.955 				"/>
			</g>
			<g>
				<polygon fill="#008ED3" stroke="#9C9EA1" stroke-width="1.3" stroke-miterlimit="10" points="272.335,937.621 272.335,960.437 
					282.036,954.923 282.036,932.017 				"/>
				<polygon fill="#008ED3" stroke="#9C9EA1" stroke-width="1.3" stroke-miterlimit="10" points="272.335,980.593 272.335,1003.414 
					282.036,997.901 282.036,974.993 				"/>
				<polygon fill="#008ED3" stroke="#9C9EA1" stroke-width="1.3" stroke-miterlimit="10" points="272.335,1022.253 
					272.335,1045.068 282.036,1039.561 282.036,1016.648 				"/>
				<polygon fill="#008ED3" stroke="#9C9EA1" stroke-width="1.3" stroke-miterlimit="10" points="272.335,1065.606 
					272.335,1088.422 282.036,1082.908 282.036,1060.004 				"/>
			</g>
			<g>
				<polygon fill="#008ED3" stroke="#9C9EA1" stroke-width="1.3" stroke-miterlimit="10" points="307.209,957.98 307.209,980.796 
					316.905,975.282 316.905,952.374 				"/>
				<polygon fill="#008ED3" stroke="#9C9EA1" stroke-width="1.3" stroke-miterlimit="10" points="307.209,999.631 307.209,1022.455 
					316.905,1016.938 316.905,994.032 				"/>
				<polygon fill="#008ED3" stroke="#9C9EA1" stroke-width="1.3" stroke-miterlimit="10" points="307.209,1042.98 307.209,1065.805 
					316.905,1060.29 316.905,1037.382 				"/>
			</g>
			<g>
				<polygon fill="#008ED3" stroke="#9C9EA1" stroke-width="1.3" stroke-miterlimit="10" points="297.578,963.534 297.578,986.354 
					307.275,980.843 307.275,957.937 				"/>
				<polygon fill="#008ED3" stroke="#9C9EA1" stroke-width="1.3" stroke-miterlimit="10" points="297.578,1005.192 
					297.578,1028.007 307.275,1022.501 307.275,999.59 				"/>
				<polygon fill="#008ED3" stroke="#9C9EA1" stroke-width="1.3" stroke-miterlimit="10" points="297.578,1048.545 
					297.578,1071.365 307.275,1065.852 307.275,1042.945 				"/>
			</g>
			<g>
				<g>
					<polygon fill="#008ED3" stroke="#9C9EA1" stroke-width="1.3" stroke-miterlimit="10" points="393.547,969.106 393.547,991.926 
						403.244,986.411 403.244,963.505 					"/>
					<polygon fill="#008ED3" stroke="#9C9EA1" stroke-width="1.3" stroke-miterlimit="10" points="393.547,1010.764 
						393.547,1033.581 403.244,1028.068 403.244,1005.166 					"/>
					<polygon fill="#008ED3" stroke="#9C9EA1" stroke-width="1.3" stroke-miterlimit="10" points="393.547,1054.111 
						393.547,1076.934 403.244,1071.423 403.244,1048.516 					"/>
				</g>
				<g>
					<polygon fill="#008ED3" stroke="#9C9EA1" stroke-width="1.3" stroke-miterlimit="10" points="383.913,974.67 383.913,997.486 
						393.61,991.976 393.61,969.063 					"/>
					<polygon fill="#008ED3" stroke="#9C9EA1" stroke-width="1.3" stroke-miterlimit="10" points="383.913,1016.325 
						383.913,1039.146 393.61,1033.627 393.61,1010.726 					"/>
					<polygon fill="#008ED3" stroke="#9C9EA1" stroke-width="1.3" stroke-miterlimit="10" points="383.913,1059.676 
						383.913,1082.494 393.61,1076.979 393.61,1054.077 					"/>
				</g>
				<g>
					<g>
						<polygon fill="#008ED3" stroke="#9C9EA1" stroke-width="1.3" stroke-miterlimit="10" points="432.978,946.34 432.978,969.16 
							442.674,963.648 442.674,940.74 						"/>
						<polygon fill="#008ED3" stroke="#9C9EA1" stroke-width="1.3" stroke-miterlimit="10" points="432.978,988 432.978,1010.816 
							442.674,1005.304 442.674,982.396 						"/>
						<polygon fill="#008ED3" stroke="#9C9EA1" stroke-width="1.3" stroke-miterlimit="10" points="432.978,1031.353 
							432.978,1054.174 442.674,1048.656 442.674,1025.751 						"/>
					</g>
					<g>
						<polygon fill="#008ED3" stroke="#9C9EA1" stroke-width="1.3" stroke-miterlimit="10" points="423.346,951.9 423.346,974.723 
							433.04,969.206 433.04,946.299 						"/>
						<polygon fill="#008ED3" stroke="#9C9EA1" stroke-width="1.3" stroke-miterlimit="10" points="423.346,993.559 
							423.346,1016.377 433.04,1010.859 433.04,987.959 						"/>
						<polygon fill="#008ED3" stroke="#9C9EA1" stroke-width="1.3" stroke-miterlimit="10" points="423.346,1036.912 
							423.346,1059.73 433.04,1054.219 433.04,1031.314 						"/>
					</g>
				</g>
			</g>
			<g>
				<polygon fill="#43C5ED" stroke="#FFFFFF" stroke-width="1.3" stroke-miterlimit="10" points="341.724,973.059 341.724,995.874 
					332.027,990.362 332.027,967.454 				"/>
				<polygon fill="#43C5ED" stroke="#FFFFFF" stroke-width="1.3" stroke-miterlimit="10" points="341.724,1014.713 
					341.724,1037.531 332.027,1032.018 332.027,1009.107 				"/>
				<polygon fill="#43C5ED" stroke="#FFFFFF" stroke-width="1.3" stroke-miterlimit="10" points="341.724,1058.063 
					341.724,1080.884 332.027,1075.367 332.027,1052.462 				"/>
			</g>
		</g>
	</g>
</g>
<g id="버튼">
	<circle fill="#FFFFFF" stroke="#5E5E5E" stroke-miterlimit="10" cx="533.779" cy="1517.061" r="115.494"/>
	
		<text transform="matrix(1 0 0 1 451.9004 1529.9707)" fill="#5E5E5E" font-family="'GmarketSansLight-KSCpc-EUC-H'" font-size="57.57">touch</text>
</g>
</svg>
