<?xml version="1.0" encoding="utf-8"?>
<!-- Generator: Adobe Illustrator 16.0.0, SVG Export Plug-In . SVG Version: 6.00 Build 0)  -->
<!DOCTYPE svg PUBLIC "-//W3C//DTD SVG 1.1//EN" "http://www.w3.org/Graphics/SVG/1.1/DTD/svg11.dtd">
<svg version="1.1" xmlns="http://www.w3.org/2000/svg" xmlns:xlink="http://www.w3.org/1999/xlink" x="0px" y="0px" width="1080px"
	 height="1720.943px" viewBox="0 0 1080 1720.943" enable-background="new 0 0 1080 1720.943" xml:space="preserve">
<g id="guide">
</g>
<g id="title">
	<g>
		<path d="M217.787,103.999v-4c26.014,0,41.853-10.801,41.853-32.202v-5.9h-41.853v-3.9h45.885v9.801
			C263.671,91.798,245.817,103.999,217.787,103.999z M225.562,134.5h64.604v3.9H221.53v-24.602h4.032V134.5z M300.053,77.997v3.9
			h-12.959v36.702h-4.032V54.996h4.032v23.001H300.053z"/>
		<path d="M327.032,104.298h-23.806v-3.9h11.903V61.896h-11.903v-3.9h52.7v3.9h-12.095v37.702c6.336-0.7,11.231-1.8,15.071-3.3v4
			C353.046,102.698,342.391,104.298,327.032,104.298z M380.405,134.5v3.9H310.81v-24.201h4.032V134.5H380.405z M319.161,100.398
			h8.447c4.512,0,8.543-0.1,12.191-0.4V61.896h-20.638V100.398z M373.685,88.797H357.75v-3.8h15.935V71.796H357.75v-3.8h15.935v-13
			h4.032v63.804h-4.032V88.797z"/>
		<path d="M420.631,70.696h24.574v3.9h-53.084v-3.9h24.478V54.795h4.032V70.696z M440.597,109.699
			c0,15.801-9.887,25.702-21.982,25.702c-12.095,0-21.982-9.901-21.982-25.702s9.888-25.702,21.982-25.702
			C430.71,83.997,440.597,93.898,440.597,109.699z M436.47,109.699c0-13.401-8.255-21.801-17.855-21.801
			c-9.599,0-17.854,8.4-17.854,21.801s8.255,21.801,17.854,21.801C428.214,131.5,436.47,123.1,436.47,109.699z M475.155,96.298
			h-12.959V140.4h-4.032V54.996h4.032v37.402h12.959V96.298z"/>
		<path d="M558.674,131.5v3.9h-81.018v-3.9h33.693V89.397h4.032V131.5H558.674z M548.403,62.796H483.32v-3.9h69.116v56.404h-4.032
			V62.796z"/>
		<path d="M668.305,102.598v3.9h-81.018v-3.9h38.493V85.697h4.032v16.901H668.305z M590.839,90.297v-4
			c15.935-0.5,35.421-14.301,39.069-33.002l3.936,0.6c-0.863,4.8-2.592,9.2-5.088,13.301l35.998,20.501l-1.824,3.2l-36.381-20.301
			C617.717,82.497,603.126,89.897,590.839,90.297z M597.846,134.6h65.947v3.9h-69.979v-23.201h4.031V134.6z"/>
		<path d="M727.443,110.499c13.728,0,24.959-1,31.391-3.601v4c-6.432,2.3-17.279,3.5-31.103,3.5h-0.863V140.4h-4.032v-26.001
			h-25.822v-3.9H727.443z M699.222,99.298v-4c17.663-3.4,25.822-20.701,26.206-38.702l4.032,0.2
			c-0.192,6.8-1.345,13.201-3.456,18.901l27.166,19.801l-2.208,3.3l-26.494-19.201C719.668,89.698,711.316,97.098,699.222,99.298z
			 M771.601,54.996V140.4h-4.031V54.996H771.601z"/>
		<path d="M865.486,100.898v3.9h-38.493V122.1h-4.031v-17.301h-38.493v-3.9H865.486z M789.652,72.896
			c0-12.101,16.895-17.701,35.325-17.701s35.325,5.601,35.325,17.701s-16.895,17.701-35.325,17.701S789.652,84.997,789.652,72.896z
			 M795.027,134.6h65.947v3.9h-69.979v-23.401h4.031V134.6z M793.779,72.896c0,9.201,15.264,13.801,31.198,13.801
			s31.197-4.6,31.197-13.801s-15.263-13.801-31.197-13.801S793.779,63.696,793.779,72.896z"/>
	</g>
	<g>
		<path d="M275.551,331.948v31.6H109.662v-31.6h66.432v-26h-57.408V202.75h31.872v21.799h84.097V202.75h31.872v103.198h-57.408v26
			H275.551z M150.558,275.749h84.097V254.35h-84.097V275.749z"/>
		<path d="M396.316,233.55H284.188v-24.8h39.552v-13h33.024v13h39.552V233.55z M290.716,269.149c0-20.4,22.465-31.4,49.536-31.4
			c27.072,0,49.537,11,49.537,31.4c0,20.399-22.465,31.399-49.537,31.399C313.181,300.549,290.716,289.549,290.716,269.149z
			 M297.437,305.949h146.688v63.599H297.437V305.949z M321.053,269.149c0,4.8,7.487,8,19.199,8c11.713,0,19.2-3.2,19.2-8
			c0-4.8-7.487-8-19.2-8C328.54,261.149,321.053,264.349,321.053,269.149z M329.5,343.748h82.561v-12H329.5V343.748z
			 M444.125,198.75v101.198h-32.448v-25.799h-17.28v-29.8h17.28V198.75H444.125z"/>
		<path d="M625.755,289.549H459.866v-27.6h165.889V289.549z M615.387,255.549h-32.832v-29H469.466V198.75h145.921V255.549z
			 M616.155,369.548H469.466v-69.799h146.689V369.548z M584.091,343.148v-17H501.53v17H584.091z"/>
		<path d="M637.849,298.949v-28.399c19.584-1.6,32.641-15.8,37.248-31.8h-35.328V211.55h36.097v-15.8h33.023v15.8h36.097v19.6
			h16.896V198.75h32.448v101.398h-32.448v-39h-21.505v-22.4h-32.063c-0.769,3.2-1.536,6.4-2.688,9.4l44.16,24.8l-14.592,24.8
			l-43.776-25.2C678.745,287.549,660.121,298.349,637.849,298.949z M795.866,336.948c0,26.2-33.024,34.6-74.881,34.6
			s-74.881-8.4-74.881-34.6s33.024-34.6,74.881-34.6S795.866,310.749,795.866,336.948z M761.113,336.948
			c0-6.8-17.855-8.8-40.128-8.8s-40.128,2-40.128,8.8c0,7,17.855,8.8,40.128,8.8S761.113,343.948,761.113,336.948z"/>
		<path d="M975.959,323.148h-67.2v50.399h-33.601v-50.399H810.07v-31.399h165.889V323.148z M932.759,232.15H819.286V200.75h147.073
			v80.798h-33.601V232.15z"/>
	</g>
	<g>
		<path d="M355.249,468.952l47.616,78.399l-27.84,18l-30.912-53.999c-13.248,34.6-33.984,53.999-58.944,54.199v-35.199
			c25.152-3,41.664-52.799,41.664-124.198l33.024,1.2C359.857,429.952,358.321,450.552,355.249,468.952z M444.529,402.753V573.55
			h-32.448v-83.999h-34.56v-31.599h34.56v-55.199H444.529z"/>
		<path d="M532.847,406.753h31.872V565.55h-97.152V406.753h31.872v50.199h33.408V406.753z M532.847,534.551v-46.799h-33.408v46.799
			H532.847z M618.672,402.753V573.55h-32.449V402.753H618.672z"/>
		<path d="M635.373,535.951h165.889v31.6H635.373V535.951z M638.637,511.751v-32c32.641-0.2,62.977-31.799,68.928-77.599l33.025,5.4
			c-1.537,12-4.609,23.2-9.025,33.799l69.889,43.799l-17.088,27.4l-67.201-44.799C698.156,494.551,669.934,511.551,638.637,511.751z
			"/>
	</g>
	<path fill="#F4F4FE" d="M609,649c0,4.97-4.029,9-9,9H480c-4.971,0-9-4.029-9-9V649c0-4.97,4.029-9,9-9h120
		C604.971,640,609,644.029,609,649L609,649z"/>
	<g>
		<path d="M590.604,836.875v-3.2c12.595-2.4,20.352-11.28,20.889-26h-20.121v-3.12h41.932v3.12h-18.508
			c-0.154,3.92-0.846,7.52-1.92,10.72l22.424,15.28l-1.843,2.64l-21.81-14.8C607.729,829.916,600.356,835.115,590.604,836.875z
			 M594.75,844.076h52.453v24.641H594.75V844.076z M597.977,865.676h46.001v-18.48h-46.001V865.676z M657.57,820.315h-10.367v18.96
			h-3.226v-37.281h3.226v15.201h10.367V820.315z"/>
		<path d="M684.221,832.956l22.656,30.4l-2.535,2l-20.965-28.48c-4.07,16.561-11.598,27.121-22.118,28.641v-3.12
			c15.206-2.96,22.271-29.601,22.425-58.401l3.226,0.08C686.832,814.795,685.987,824.555,684.221,832.956z M719.088,801.995v68.322
			h-3.227v-68.322H719.088z"/>
		<path d="M769.621,839.676h-36.939v-35.281h36.939V839.676z M738.058,865.596h51.685v3.12h-54.91v-20.721h3.226V865.596z
			 M766.396,807.515h-30.488v29.041h30.488V807.515z M797.652,820.395v3.12h-10.368v29.361h-3.225v-50.881h3.225v18.4H797.652z"/>
		<path d="M864.468,863.196v3.12h-64.816v-3.12h16.896v-21.761c-8.294-3.2-13.133-9.28-13.133-17.36
			c0-12.32,11.213-19.92,28.646-19.92c17.434,0,28.646,7.6,28.646,19.92c0,8.08-4.838,14.16-13.056,17.36v21.761H864.468z
			 M832.06,840.875c15.359,0,25.344-6.56,25.344-16.8s-9.984-16.8-25.344-16.8s-25.343,6.56-25.343,16.8
			S816.7,840.875,832.06,840.875z M819.772,863.196h24.651v-20.721c-3.609,0.96-7.756,1.52-12.364,1.52
			c-4.531,0-8.678-0.48-12.287-1.52V863.196z"/>
		<path d="M878.983,831.755c6.451,0,10.982,6.16,16.281,6.16c3.533,0,5.76-2.56,8.063-5.76v4.4c-1.766,2.64-4.377,4.56-8.447,4.56
			c-6.451,0-10.982-6.16-16.358-6.16c-3.455,0-5.76,1.76-7.986,4.56v-4.24C872.303,833.195,875.144,831.755,878.983,831.755z"/>
		<path d="M654.729,959.596v7.44h-65.508v-7.44h28.799v-15.36h-24.498v-40.241h7.526v12.24h41.778v-12.24h7.525v40.241h-24.575
			v15.36H654.729z M601.048,937.116h41.778v-13.761h-41.778V937.116z"/>
		<path d="M703.958,913.915h-44.542v-6.16h18.432v-6.96h7.68v6.96h18.431V913.915z M662.564,929.916
			c0-7.76,8.447-12.24,19.123-12.24c10.674,0,19.045,4.48,19.045,12.24c0,7.84-8.371,12.24-19.045,12.24
			C671.012,942.156,662.564,937.755,662.564,929.916z M665.176,946.476h55.602v22.96h-55.602V946.476z M669.783,929.916
			c0,3.6,4.607,6.4,11.904,6.4c7.295,0,11.826-2.8,11.826-6.4s-4.531-6.32-11.826-6.32
			C674.391,923.595,669.783,926.315,669.783,929.916z M672.701,963.116h40.549v-10.32h-40.549V963.116z M721.008,901.995v40.641
			h-7.604v-12.88h-10.291v-7.04h10.291v-20.721H721.008z"/>
		<path d="M729.303,929.835h65.508v6.64h-65.508V929.835z M782.293,909.515H733.68v-6.72h56.293v22.96h-7.68V909.515z
			 M733.834,943.436h56.369v26.081h-56.369V943.436z M782.677,963.036v-13.12h-41.24v13.12H782.677z"/>
		<path d="M800.649,941.196v-6.88c10.061-1.52,16.588-9.52,17.971-19.28h-17.279v-6.64h17.356v-7.6h7.68v7.6h17.126v6.64h-17.126
			c-0.308,2.32-0.845,4.64-1.613,6.8l19.891,12.88l-3.609,5.92l-19.276-12.641C817.237,935.036,809.865,940.156,800.649,941.196z
			 M861.857,957.596c0,9.44-12.595,12.72-28.492,12.72s-28.492-3.28-28.492-12.72c0-9.521,12.595-12.721,28.492-12.721
			S861.857,948.076,861.857,957.596z M853.793,957.596c0-4.64-9.062-6.4-20.428-6.4s-20.428,1.76-20.428,6.4s9.062,6.4,20.428,6.4
			S853.793,962.236,853.793,957.596z M853.486,918.555v-16.561h7.603v40.721h-7.603v-17.121h-12.595v-7.04H853.486z"/>
		<path d="M934.893,947.996h-29.26v23.921h-7.834v-23.921h-28.415v-7.52h65.509V947.996z M922.298,911.035h-48.613v-7.44h56.523
			v31.201h-7.91V911.035z"/>
		<path d="M613.949,1014.555h19.66v3.121h-42.469v-3.121h19.584v-12.72h3.225V1014.555z M629.924,1045.756
			c0,12.641-7.91,20.561-17.587,20.561s-17.587-7.92-17.587-20.561s7.91-20.561,17.587-20.561S629.924,1033.115,629.924,1045.756z
			 M626.621,1045.756c0-10.721-6.604-17.44-14.284-17.44s-14.284,6.72-14.284,17.44s6.604,17.44,14.284,17.44
			S626.621,1056.477,626.621,1045.756z M657.57,1035.035h-10.367v35.281h-3.226v-68.322h3.226v29.922h10.367V1035.035z"/>
		<path d="M724.387,1063.196v3.12h-64.817v-3.12h26.956v-33.681h3.225v33.681H724.387z M716.169,1008.234H664.1v-3.119h55.295
			v45.121h-3.226V1008.234z"/>
		<path d="M750.191,1005.195h34.482v14.8c0,26.801-12.595,45.201-34.482,45.201v-3.2c19.507,0,31.257-16.48,31.257-41.682v-12
			h-31.257V1005.195z M815.316,1035.035h-10.368v35.281h-3.225v-68.322h3.225v29.922h10.368V1035.035z"/>
		<path d="M836.053,1032.795l16.588,29.762l-2.688,1.84l-14.668-26.561c-2.611,15.359-7.757,24.32-16.896,27.68v-3.359
			c12.901-5.28,15.743-27.201,15.896-58.162l3.226,0.08C837.436,1015.195,837.051,1024.715,836.053,1032.795z M859.476,1002.475
			h3.226v66.642h-3.226v-38.641h-12.979v-3.12h12.979V1002.475z M878.676,1001.994v68.322h-3.226v-68.322H878.676z"/>
		<path d="M952.172,1063.196v3.12h-64.816v-3.12h16.896v-21.761c-8.294-3.2-13.133-9.28-13.133-17.36
			c0-12.32,11.213-19.921,28.646-19.921c17.434,0,28.646,7.601,28.646,19.921c0,8.08-4.838,14.16-13.056,17.36v21.761H952.172z
			 M919.764,1040.875c15.359,0,25.344-6.56,25.344-16.8s-9.984-16.8-25.344-16.8s-25.343,6.56-25.343,16.8
			S904.404,1040.875,919.764,1040.875z M907.477,1063.196h24.651v-20.721c-3.609,0.96-7.756,1.521-12.364,1.521
			c-4.531,0-8.678-0.48-12.287-1.521V1063.196z"/>
		<path d="M964.692,1065.756c0,2.08-1.613,3.76-3.609,3.76c-1.997,0-3.61-1.68-3.61-3.76s1.613-3.76,3.61-3.76
			C963.079,1061.996,964.692,1063.676,964.692,1065.756z"/>
	</g>
	<g>
		<path fill="#686868" d="M611.142,1153.36v2.4h-24.561v-2.4h10.854v-2.64h-9.099v-8.85h21.048v2.4h-18.197v4.05h18.485v2.399
			h-9.415v2.64H611.142z M609.673,1162.57c0,3.51-4.952,4.71-10.826,4.71s-10.826-1.2-10.826-4.71s4.952-4.68,10.826-4.68
			S609.673,1159.061,609.673,1162.57z M606.679,1162.57c0-1.74-3.83-2.34-7.832-2.34s-7.832,0.6-7.832,2.34
			c0,1.77,3.83,2.37,7.832,2.37S606.679,1164.34,606.679,1162.57z"/>
		<path fill="#686868" d="M613.306,1147.811c0-3.479,3.081-5.97,7.631-5.97c4.549,0,7.602,2.49,7.602,5.97
			c0,3.48-3.053,5.97-7.602,5.97C616.387,1153.78,613.306,1151.291,613.306,1147.811z M615.264,1160.08h17.708v-2.22h-17.766v-2.34
			h20.588v6.78h-17.708v2.22h18.313v2.34h-21.135V1160.08z M625.716,1147.811c0-2.159-1.958-3.569-4.779-3.569
			c-2.822,0-4.809,1.41-4.809,3.569c0,2.16,1.986,3.57,4.809,3.57C623.758,1151.381,625.716,1149.971,625.716,1147.811z
			 M632.943,1141.571h2.851v12.539h-2.851V1141.571z"/>
		<path fill="#686868" d="M650.023,1162.931c2.332,0,4.866-0.48,6.363-1.2v2.7c-1.497,0.779-4.089,1.229-6.449,1.229h-9.675v-23.159
			h14.195v2.73h-11.345v7.289h10.913v2.73h-10.913v7.68H650.023z M664.823,1154.801h-3.455v12.39h-2.851v-25.619h2.851v10.38h3.455
			V1154.801z"/>
		<path fill="#686868" d="M675.568,1159.03h-0.489v8.16h-2.851v-8.16h-6.853v-2.609h10.164c3.311,0,6.306-0.271,8.062-1.021v2.641
			C681.846,1158.73,678.938,1159.03,675.568,1159.03z M666.671,1148.201c0-3.69,3.023-6.12,7.313-6.12
			c4.262,0,7.313,2.43,7.313,6.12c0,3.689-3.052,6.119-7.313,6.119C669.694,1154.32,666.671,1151.891,666.671,1148.201z
			 M669.406,1148.201c0,2.189,1.814,3.689,4.578,3.689c2.735,0,4.55-1.5,4.55-3.689c0-2.19-1.814-3.69-4.55-3.69
			C671.221,1144.511,669.406,1146.011,669.406,1148.201z M688.525,1141.571v25.619h-2.851v-3.12h-7.457v-2.52h7.457v-19.979H688.525
			z"/>
		<path fill="#686868" d="M722.826,1163.17v2.79h-24.561v-2.79h10.797v-5.76h-9.185v-15.089h2.821v4.59h15.664v-4.59h2.821v15.089
			h-9.214v5.76H722.826z M702.699,1154.74h15.664v-5.159h-15.664V1154.74z"/>
		<path fill="#686868" d="M741.289,1146.041h-16.7v-2.31h6.91v-2.61h2.879v2.61h6.911V1146.041z M725.769,1152.041
			c0-2.91,3.168-4.59,7.17-4.59s7.141,1.68,7.141,4.59c0,2.939-3.139,4.59-7.141,4.59S725.769,1154.98,725.769,1152.041z
			 M726.748,1158.251h20.847v8.609h-20.847V1158.251z M728.476,1152.041c0,1.35,1.728,2.399,4.463,2.399s4.435-1.05,4.435-2.399
			c0-1.351-1.699-2.37-4.435-2.37S728.476,1150.69,728.476,1152.041z M729.569,1164.49h15.203v-3.87h-15.203V1164.49z
			 M747.681,1141.571v15.239h-2.851v-4.83h-3.858v-2.64h3.858v-7.77H747.681z"/>
		<path fill="#686868" d="M750.796,1152.011h24.561v2.49h-24.561V1152.011z M770.663,1144.392h-18.227v-2.521h21.105v8.609h-2.879
			V1144.392z M752.494,1157.11h21.135v9.78h-21.135V1157.11z M770.807,1164.46v-4.92h-15.462v4.92H770.807z"/>
		<path fill="#686868" d="M777.551,1156.271v-2.58c3.771-0.569,6.22-3.569,6.737-7.229h-6.479v-2.49h6.508v-2.85h2.879v2.85h6.421
			v2.49h-6.421c-0.115,0.87-0.316,1.74-0.604,2.55l7.457,4.83l-1.353,2.22l-7.228-4.739
			C783.771,1153.961,781.006,1155.881,777.551,1156.271z M800.499,1162.42c0,3.54-4.723,4.771-10.683,4.771
			s-10.682-1.23-10.682-4.771c0-3.569,4.722-4.77,10.682-4.77S800.499,1158.851,800.499,1162.42z M797.476,1162.42
			c0-1.739-3.397-2.399-7.659-2.399c-4.261,0-7.659,0.66-7.659,2.399c0,1.74,3.398,2.4,7.659,2.4
			C794.078,1164.82,797.476,1164.16,797.476,1162.42z M797.36,1147.781v-6.21h2.851v15.27h-2.851v-6.42h-4.722v-2.64H797.36z"/>
		<path fill="#686868" d="M827.887,1158.82h-10.971v8.97h-2.937v-8.97h-10.653v-2.819h24.561V1158.82z M823.164,1144.961h-18.226
			v-2.79h21.191v11.7h-2.966V1144.961z"/>
		<path fill="#686868" d="M845.919,1154.261h-8.84v-12.06h15.002v2.52H839.93v7.021h6.162c3.34,0,6.161-0.42,7.745-1.141v2.521
			C852.34,1153.811,849.402,1154.261,845.919,1154.261z M837.914,1156.9h20.559v9.96h-20.559V1156.9z M840.765,1164.34h14.857
			v-4.919h-14.857V1164.34z M861.928,1149.671h-3.455v5.819h-2.851v-13.919h2.851v5.25h3.455V1149.671z"/>
		<path fill="#686868" d="M872.184,1154.261h-8.84v-12.06h15.002v2.52h-12.151v7.021h6.162c3.34,0,6.161-0.42,7.745-1.141v2.521
			C878.604,1153.811,875.667,1154.261,872.184,1154.261z M885.111,1161.881c0,3.84-4.636,5.31-10.538,5.31
			c-5.874,0-10.538-1.47-10.538-5.31s4.664-5.311,10.538-5.311C880.476,1156.57,885.111,1158.041,885.111,1161.881z
			 M882.06,1161.881c0-1.95-3.282-2.851-7.486-2.851c-4.175,0-7.486,0.9-7.486,2.851c0,1.979,3.312,2.85,7.486,2.85
			C878.777,1164.73,882.06,1163.86,882.06,1161.881z M888.192,1146.821v2.85h-3.455v6.06h-2.851v-14.159h2.851v5.25H888.192z"/>
		<path fill="#686868" d="M898.133,1153.36l7.889,10.32l-2.246,1.77l-6.478-8.729c-1.671,5.31-4.55,8.489-8.265,8.939v-2.939
			c4.349-0.84,6.882-7.98,6.969-17.489h-6.393v-2.73h15.462v2.73h-6.19C898.853,1148.231,898.593,1150.961,898.133,1153.36z
			 M914.458,1154.801h-3.455v12.39h-2.851v-25.619h2.851v10.38h3.455V1154.801z"/>
		<path fill="#686868" d="M586.408,1195.251v-4.53c3.887-0.479,6.449-4.05,6.536-9.029l4.895,0.3c0,1.68-0.288,3.3-0.807,4.8
			l6.709,4.439l-2.476,3.66l-6.248-4.29C592.973,1193.271,589.949,1195.07,586.408,1195.251z M587.79,1196.331h21.71v10.859h-21.71
			V1196.331z M592.656,1203.021h11.978v-2.521h-11.978V1203.021z M612.38,1190.331h-2.88v5.1h-4.866v-13.859h4.866v3.93h2.88
			V1190.331z"/>
		<path fill="#686868" d="M612.615,1195.791v-4.561c3.829-0.479,6.421-4.38,6.507-9.539l4.896,0.3c0,1.8-0.288,3.51-0.835,5.1
			l6.622,4.65l-2.678,3.479l-5.902-4.29C619.18,1193.721,616.186,1195.581,612.615,1195.791z M636.802,1201.881
			c0,4.169-4.953,5.609-11.229,5.609c-6.277,0-11.229-1.44-11.229-5.609c0-4.17,4.952-5.61,11.229-5.61
			C631.849,1196.271,636.802,1197.711,636.802,1201.881z M631.561,1201.881c0-1.141-2.678-1.62-5.988-1.62
			c-3.312,0-5.989,0.479-5.989,1.62c0,1.17,2.678,1.619,5.989,1.619C628.883,1203.5,631.561,1203.051,631.561,1201.881z
			 M631.705,1188.741h-4.435v-4.53h4.435v-2.64h4.866v14.34h-4.866V1188.741z"/>
		<path fill="#686868" d="M638.881,1196.091v-4.53c2.505-0.42,4.491-3.899,4.491-9.779l4.607,0.18c0,1.86-0.173,3.54-0.519,5.1
			l4.693,4.53v-9.899h4.492v3.899h2.217v-4.02h4.549v14.909h-4.549v-6.27h-2.217v5.43h-4.492v-2.85l-2.505,2.58l-3.858-3.87
			C644.179,1194.32,641.731,1196.001,638.881,1196.091z M663.643,1202c0,4.05-5.096,5.49-11.546,5.49
			c-6.449,0-11.546-1.44-11.546-5.49s5.097-5.489,11.546-5.489C658.547,1196.511,663.643,1197.95,663.643,1202z M658.46,1202
			c0-1.109-2.879-1.5-6.363-1.5s-6.363,0.391-6.363,1.5c0,1.141,2.879,1.5,6.363,1.5S658.46,1203.141,658.46,1202z"/>
		<path fill="#686868" d="M680.55,1194.65h-14.656v-12.779h14.656V1194.65z M689.332,1201.761c0,4.26-4.953,5.729-11.229,5.729
			c-6.277,0-11.229-1.47-11.229-5.729s4.952-5.73,11.229-5.73C684.379,1196.03,689.332,1197.501,689.332,1201.761z
			 M675.771,1186.041h-5.097v4.439h5.097V1186.041z M684.091,1201.761c0-1.2-2.678-1.681-5.988-1.681
			c-3.312,0-5.989,0.48-5.989,1.681c0,1.229,2.678,1.68,5.989,1.68C681.413,1203.44,684.091,1202.99,684.091,1201.761z
			 M684.321,1193.331h-2.62v-4.32h2.62v-1.74h-2.62v-4.319h2.62v-1.38h4.78v14.1h-4.78V1193.331z"/>
		<path fill="#686868" d="M722.97,1193.931v4.17h-9.991v3.479h-4.895v-3.479h-9.991v-4.17H722.97z M704.484,1202.99h17.334v4.2
			h-22.286v-7.59h4.952V1202.99z M721.473,1192.431H699.59v-10.859h21.883V1192.431z M716.636,1185.562h-12.209v2.88h12.209
			V1185.562z"/>
		<path fill="#686868" d="M749.235,1192.761v3.84h-24.877v-3.84h4.578v-2.37c-2.103-0.84-3.369-2.159-3.369-4.05
			c0-3.689,4.751-5.189,11.229-5.189s11.229,1.5,11.229,5.189c0,1.891-1.267,3.21-3.369,4.05v2.37H749.235z M748.026,1202.48
			c0,3.689-4.607,5.01-11.229,5.01s-11.229-1.32-11.229-5.01c0-3.69,4.607-5.01,11.229-5.01S748.026,1198.79,748.026,1202.48z
			 M730.75,1186.341c0,0.99,2.361,1.41,6.047,1.41s6.047-0.42,6.047-1.41c0-0.96-2.361-1.41-6.047-1.41
			S730.75,1185.381,730.75,1186.341z M742.844,1202.48c0-0.9-2.477-1.23-6.047-1.23s-6.047,0.33-6.047,1.23
			c0,0.93,2.477,1.229,6.047,1.229S742.844,1203.41,742.844,1202.48z M733.745,1192.761h6.104v-1.35
			c-0.95,0.09-1.986,0.12-3.052,0.12s-2.102-0.03-3.052-0.12V1192.761z"/>
		<path fill="#686868" d="M750.565,1195.791v-4.561c3.829-0.479,6.421-4.38,6.507-9.539l4.896,0.3c0,1.8-0.288,3.51-0.835,5.1
			l6.622,4.65l-2.678,3.479l-5.902-4.29C757.13,1193.721,754.136,1195.581,750.565,1195.791z M774.752,1201.881
			c0,4.169-4.953,5.609-11.229,5.609c-6.277,0-11.229-1.44-11.229-5.609c0-4.17,4.952-5.61,11.229-5.61
			C769.799,1196.271,774.752,1197.711,774.752,1201.881z M769.511,1201.881c0-1.141-2.678-1.62-5.988-1.62
			c-3.312,0-5.989,0.479-5.989,1.62c0,1.17,2.678,1.619,5.989,1.619C766.833,1203.5,769.511,1203.051,769.511,1201.881z
			 M769.655,1188.741h-4.435v-4.53h4.435v-2.64h4.866v14.34h-4.866V1188.741z"/>
		<path fill="#686868" d="M794.482,1193.211l7.141,9.659l-3.858,3l-4.952-7.02c-1.986,4.56-5.125,7.109-8.868,7.14v-5.1
			c3.6-0.42,6.075-5.85,6.248-14.069h-5.557v-4.65h15.721v4.65h-5.27C795.029,1189.131,794.828,1191.261,794.482,1193.211z
			 M807.296,1181.571v25.619h-4.866v-25.619H807.296z"/>
		<path fill="#686868" d="M833.676,1181.571v14.1h-4.866v-5.82h-3.282v-3.779h-4.636c-0.058,0.54-0.145,1.05-0.317,1.59l6.565,3.899
			l-2.332,3.72l-6.22-3.869c-1.929,2.34-4.866,4.05-8.379,4.14v-4.44c3.167-0.18,5.27-2.609,5.759-5.039h-5.413v-4.2h15.663v3.66
			h2.592v-3.96H833.676z M811.678,1196.57h21.998v10.62h-21.998V1196.57z M816.544,1203.051h12.266v-2.341h-12.266V1203.051z"/>
		<path fill="#686868" d="M836.331,1195.521v-4.439c3.167-0.181,5.269-2.58,5.758-5.01h-5.413v-4.2h15.664v4.2h-5.327
			c-0.028,0.479-0.144,0.96-0.259,1.439l6.449,3.72l-2.274,3.75l-6.133-3.689C842.896,1193.661,839.901,1195.431,836.331,1195.521z
			 M859.365,1201.761c0,4.26-4.895,5.729-11.085,5.729c-6.191,0-11.086-1.47-11.086-5.729s4.895-5.73,11.086-5.73
			C854.471,1196.03,859.365,1197.501,859.365,1201.761z M854.125,1201.761c0-1.2-2.592-1.681-5.845-1.681
			c-3.254,0-5.846,0.48-5.846,1.681c0,1.229,2.592,1.68,5.846,1.68C851.533,1203.44,854.125,1202.99,854.125,1201.761z
			 M862.015,1185.501v4.83h-2.88v5.34h-4.866v-14.1h4.866v3.93H862.015z"/>
	</g>
</g>
<g id="img">
	<g>
		<path fill="#FCE4CD" d="M369.723,803.97c0.034,8.243,0.28,16.479,1.04,24.69c0.557,6.007,0.902,12.022,0.81,18.055
			c-0.077,5.117,0.097,10.226,0.384,15.329c0.121,2.17-0.093,4.249-0.925,6.276c-0.608,1.479-1.128,2.998-1.621,4.521
			c-1.188,3.668-2.937,7.042-5.332,10.057c-3.649,4.591-6.652,9.694-10.919,13.802c-0.766,0.736-1.374,1.635-2.06,2.452
			c-0.404,0.484-0.635,1.014-0.646,1.663c-0.063,3.754,0.093,7.478,1.392,11.059c1.637,4.516,1.641,9.097,0.635,13.745
			c-1.592,7.357-4.8,13.94-9.217,20.006c-3.904,5.363-7.55,10.91-11.586,16.183c-4.81,6.282-10.699,11.271-17.63,15.038
			c-1.015,0.554-1.675,1.239-2.043,2.306c-2.994,8.679-9.325,14.429-16.706,19.377c-4.755,3.188-9.8,5.897-14.493,9.172
			c-0.563,0.393-1.128,0.788-1.73,1.116c-1.874,1.025-2.306,0.886-3.158-1.126c-0.262-0.618-0.78-0.919-1.204-1.334
			c-4.814-4.711-9.585-9.523-12.587-15.611c-3.938-7.986-8.062-15.942-9.7-24.846c-0.124-0.673-0.373-1.323-0.502-1.996
			c-0.293-1.521-1.041-2.511-2.549-3.203c-2.709-1.245-3.398-3.058-2.819-5.964c0.191-0.963,0.177-1.972,0.203-2.96
			c0.107-4.051,0.558-8.016,1.719-11.946c0.633-2.142,0.361-4.542,0.587-6.816c0.531-5.304,0.921-10.622,1.862-15.881
			c0.717-4.011,0.29-7.881-1.793-11.492c-0.995-1.723-2.099-3.365-3.247-4.984c-3.675-5.18-6.764-10.696-9.403-16.468
			c-0.604-1.321-1.102-2.673-1.408-4.102c-0.222-1.042-0.452-2.105-0.873-3.076c-2.38-5.49-3.19-11.292-3.291-17.192
			c-0.055-3.29-0.666-6.53-0.656-9.804c0.03-9.313,0.313-18.598,2.019-27.808c1.057-5.7,1.116-11.536,1.587-17.314
			c0.391-4.794,0.271-9.607,0.812-14.394c0.719-6.378,1.614-12.729,3.628-18.834c1.56-4.729,3.942-9.128,6.966-13.075
			c5.751-7.508,12.921-13.38,21.495-17.413c11.96-5.628,24.586-9.11,37.654-10.849c9.942-1.324,19.619,0.101,28.911,3.93
			c3.017,1.243,5.347,3.498,7.832,5.503c1.468,1.186,2.876,2.274,4.673,3.097c2.588,1.183,5.039,2.9,7.104,4.952
			c3.68,3.657,7.273,7.4,10.152,11.765c1.313,1.989,2.352,4.073,3.105,6.343c2.208,6.642,3.246,13.472,3.603,20.438
			C370.097,792.229,370.312,798.099,369.723,803.97z"/>
		<path fill="#FCE4CD" d="M197.667,1060.98c10.411-0.748,20.871-1.089,31.233-2.429c4.031-0.521,7.605,0.131,11.208,1.807
			c4.159,1.935,8.157,4.142,12.115,6.438c2.18,1.266,4.226,2.725,6.127,4.393c3.617,3.171,7.68,5.755,11.49,8.673
			c9.505,7.282,19.417,14.025,28.713,21.586c0.767,0.624,1.569,1.24,2.44,1.693c5.341,2.775,10.504,5.899,16.15,8.076
			c2.557,0.985,5.03,2.184,7.541,3.286c0.139,0.061,0.273,0.133,0.408,0.208c2.571,1.429,3.095,2.572,1.752,5.175
			c-2.482,4.813-5.192,9.5-8.776,13.62c-3.608,4.146-6.859,8.576-9.688,13.275c-1.076,1.786-1.616,3.932-2.197,5.97
			c-0.533,1.864-1.677,2.476-3.279,1.322c-1.357-0.977-2.659-2.07-3.823-3.269c-4.956-5.095-10.253-9.805-15.849-14.177
			c-3.486-2.725-7.023-5.381-11.064-7.272c-0.764-0.357-1.52-0.681-2.365-0.812c-10.049-1.555-19.853-4.144-29.408-7.552
			c-4.803-1.713-9.295-4.289-13.496-7.195c-4.073-2.817-8.611-4.544-13.114-6.399c-1.267-0.522-2.646-0.804-3.856-1.424
			c-1.625-0.831-3.183-0.803-4.835-0.23c-3.527,1.222-7.179,2.061-10.659,3.435c-2.06,0.815-4.167,1.48-6.349,1.876
			c-0.942,0.172-1.523,0.578-2.131,1.43c-0.996,1.397-1.559,2.945-2.302,4.437c-0.571,1.15-0.511,1.969,0.455,2.806
			c1.401,1.214,2.317,2.825,3.349,4.334c0.873,1.275,1.354,2.722,1.683,4.225c0.235,1.079,0.142,2.13-0.274,3.144
			c-0.574,1.4-1.512,1.889-2.906,1.395c-1.29-0.456-2.548-1.001-3.633-1.891c-3.608-2.961-6.87-6.27-9.932-9.783
			c-0.477-0.547-0.777-1.139-0.584-1.874c1.393-5.314,2.011-10.787,3.263-16.131c0.104-0.444,0.137-0.932,0.347-1.323
			c1.133-2.122,0.708-4.136-0.425-6.063c-1.008-1.715-0.894-3.479-0.529-5.32c1.042-5.275,3.117-10.198,5.145-15.134
			c0.607-1.479,1.566-2.729,2.91-3.74c1.065-0.802,2.006-1.868,2.739-2.989c1.466-2.241,3.474-4.061,4.809-6.394
			c0.557-0.975,1.542-1.186,2.57-1.195C194.312,1060.969,195.99,1060.98,197.667,1060.98z"/>
		<path fill="#FCE4CD" d="M500.495,1170.397c1.138,2.908,0.747,3.956-1.886,5.234c-2.221,1.077-4.571,1.18-6.928,0.679
			c-1.635-0.347-3.214-0.941-4.832-1.378c-0.716-0.192-1.362-0.702-2.431-0.479c0.485,1.312,1.305,2.365,1.979,3.489
			c0.666,1.11,1.438,2.165,2.021,3.317c0.599,1.184-0.019,2.326-1.31,2.173c-3.744-0.445-7.639-0.312-10.945-2.684
			c-2.479-1.781-5.068-3.368-6.556-6.229c-0.643-1.234-1.965-1.858-3.258-2.394c-8.243-3.417-16.784-5.977-25.232-8.804
			c-10.795-3.612-21.058-8.452-31.172-13.631c-3.322-1.702-6.736-3.222-10.124-4.797c-5.658-2.63-11.324-5.242-16.993-7.849
			c-0.698-0.32-1.143-0.77-1.033-1.573c0.109-0.797,0.685-1.137,1.405-1.298c7.452-1.673,14.502-4.646,21.818-6.771
			c6.51-1.893,12.791-4.479,19.157-6.807c5.308-1.942,10.742-2.021,16.049,0.308c7.255,3.185,14.539,6.307,21.757,9.571
			c5.782,2.616,11.225,5.823,16.153,9.871c1.825,1.499,3.732,2.91,5.692,4.228c4.634,3.116,8.21,7.229,11.405,11.735
			c2.38,3.357,4.562,6.858,7.271,9.982c1.535,1.769,1.29,2.663-0.802,3.609C501.359,1170.059,501.004,1170.19,500.495,1170.397z"/>
		<path fill="#FCE4CD" d="M307.239,1186.92c0.62-4.037-0.372-8.525-1.16-13.028c-0.344-1.963-0.085-3.946-0.299-5.914
			c-0.083-0.768,0.028-1.537,0.862-1.947c0.849-0.418,1.423,0.078,2.047,0.552c6.007,4.565,11.887,9.316,18.106,13.573
			c2.562,1.756,4.103,3.64,4.415,6.628c0.016,0.151,0.053,0.301,0.089,0.448c0.685,2.791,0.646,2.686-2.171,3.413
			c-5.831,1.505-11.717,2.748-17.602,4.001c-0.447,0.096-0.889,0.227-1.34,0.29c-1.834,0.26-2.38-0.152-2.528-1.953
			C307.51,1191.159,307.405,1189.332,307.239,1186.92z"/>
	</g>
	<g>
		<path fill="#E1F0FF" d="M306.186,1163.916c0.947,9.946,0.102,19.545-0.063,29.146c-0.027,1.521-0.32,3.04-0.332,4.56
			c-0.022,3.281-2.294,4.598-4.848,5.569c-2.147,0.818-4.474,0.925-6.735,1.252c-8.304,1.197-16.602,2.415-24.778,4.341
			c-1.81,0.426-3.365,1.405-5.108,1.961c-11.915,3.792-23.819,7.566-36.044,10.324c-12.959,2.924-26.073,4.91-39.118,7.313
			c-11.355,2.094-22.799,3.333-34.328,3.652c-8.315,0.229-16.63,0.38-24.934,0.867c-4.188,0.245-8.373,0.589-12.545,1.017
			c-3.509,0.36-7.005,0.319-10.516,0.16c-4.421-0.199-8.848-0.288-13.27-0.492c-4.206-0.192-8.324-0.962-12.38-2.084
			c-3.506-0.97-6.22-3.146-8.747-5.633c-0.96-0.947-1.849-1.892-3.279-2.346c-1.407-0.447-2.077-1.971-2.796-3.214
			c-2.256-3.899-4.208-7.946-5.839-12.154c-2.738-7.068-4.849-14.298-5.696-21.849c-0.265-2.346-0.313-4.72-0.386-7.084
			c-0.276-9.009,0.056-17.999,0.6-26.996c0.398-6.561,1.192-13.062,2.003-19.571c0.131-1.044,0.264-2.054-0.082-3.147
			c-0.367-1.161,0.063-2.418,0.249-3.617c0.817-5.277,1.946-10.52,3.208-15.68c1.378-5.633,2.57-11.281,3.658-16.968
			c0.31-1.625,0.654-3.257,1.54-4.755c0.696-1.179,0.595-2.662,0.793-4.016c1.982-13.6,5.011-26.98,8.171-40.346
			c4.599-19.454,9.769-38.752,15.923-57.766c3.799-11.737,9.251-22.729,16.321-32.891c3.537-5.086,8.092-9.063,13.196-12.443
			c2.292-1.518,4.929-2.418,7.492-3.389c11.573-4.384,23.53-7.488,35.511-10.495c5.839-1.467,11.59-3.283,17.544-4.302
			c5.638-0.963,11.287-1.912,16.784-3.527c5.564-1.635,11.153-3.149,16.869-4.155c0.667-0.116,0.996-0.339,1.136-1.126
			c0.272-1.531,0.86-1.859,2.385-1.598c1.679,0.288,2.877,1.071,3.515,2.833c1.374,3.792,2.522,7.671,4.445,11.261
			c3.863,7.212,10.24,10.567,18.377,9.527c0.526-0.067,1.069-0.161,1.589-0.102c1.413,0.162,2.051,0.9,1.812,2.335
			c-0.286,1.727-0.781,3.417-1.158,5.128c-1.065,4.811-1.673,9.622-0.228,14.48c0.386,1.303,0.864,2.342,2.336,2.799
			c1.702,0.527,2.333,2.016,2.784,3.639c1.309,4.7,2.773,9.358,4.02,14.075c2.003,7.585,5.741,14.24,10.435,20.448
			c2.86,3.784,5.746,7.517,9.45,10.535c1.595,1.301,1.604,1.38,3.368,0.377c4.307-2.449,9.012-4.152,13.062-7.081
			c7.016-5.072,13.484-10.729,18.814-17.6c1.699-2.19,2.853-4.693,3.914-7.227c0.561-1.337,1.457-2.215,2.646-3.015
			c8.841-5.945,16.287-13.287,22.012-22.314c0.203-0.319,0.574-0.738,0.494-0.995c-0.519-1.679,0.75-2.493,1.566-3.553
			c1.958-2.544,4.425-4.599,6.616-6.917c0.859-0.908,1.969-1.445,3.129-1.841c8.8-3,17.774-4.763,27.151-4.504
			c8.661,0.238,16.699,2.535,24.348,6.406c5.445,2.754,10.682,5.89,15.908,9.038c1.371,0.825,2.714,1.723,4.161,2.394
			c6.581,3.054,12.986,6.458,19.203,10.176c11.777,7.045,23.73,13.813,34.573,22.343c4.879,3.84,9.582,7.797,13.607,12.526
			c0.688,0.808,1.801,1.725,1.53,2.702c-0.5,1.809,0.767,2.306,1.652,3.269c2.554,2.779,4.507,5.966,5.76,9.536
			c1.641,4.674,2.942,9.479,5.254,13.892c0.644,1.228,0.181,2.533,0.566,3.787c1.613,5.249,3.104,10.534,4.668,15.796
			c1.457,4.897,2.836,9.822,4.452,14.667c2.829,8.483,4.331,17.308,6.783,25.885c3.614,12.642,5.671,25.598,7.907,38.521
			c1.3,7.52,2.474,15.053,3.357,22.63c1.741,14.929,3.567,29.862,4.458,44.86c0.852,14.314,1.223,28.704-0.663,42.978
			c-1.523,11.526-5.057,22.454-11.611,32.23c-0.424,0.633-0.908,1.253-1.19,1.95c-1.749,4.336-4.81,7.751-7.787,11.227
			c-1.187,1.386-2.184,2.957-3.434,4.245c-2.06,2.121-4.784,3.306-7.656,3.868c-7.14,1.401-14.384,2.201-21.622,1.398
			c-5.734-0.637-11.339-1.938-16.486-5.015c-4.221-2.524-8.004-5.557-11.918-8.464c-3.363-2.497-6.754-4.991-10.403-7.066
			c-8.628-4.909-16.946-10.314-25.224-15.774c-5.025-3.314-9.8-7.014-14.676-10.556c-6.543-4.754-13.146-9.42-19.957-13.789
			c-0.129-0.082-0.256-0.168-0.393-0.236c-9.737-4.868-18.225-11.683-27.299-17.583c-2.13-1.385-4.386-2.256-6.759-2.997
			c-0.938-0.292-1.84-0.735-2.702-1.213c-2.272-1.255-4.445-2.673-6.548-4.196c-3.639-2.636-5.798-6.211-6.636-10.582
			c-0.663-3.454-2.337-6.617-2.832-10.115c-0.097-0.686-0.645-1.014-1.166-1.327c-7.377-4.438-13.5-10.437-19.941-16.037
			C308.332,1165.362,307.545,1164.53,306.186,1163.916z M141.214,1143.459c1.703-0.292,3.035-0.576,4.382-0.74
			c5.829-0.708,11.657-1.446,17.498-2.054c9.353-0.974,18.727-1.271,28.105-0.394c5.091,0.477,10.179,0.959,15.294,1.087
			c9.229,0.23,18.462,0.192,27.681,0.846c6.013,0.428,12.035,0.724,17.952,1.975c2.974,0.629,6.049,0.955,8.708,2.626
			c0.755,0.475,1.469,0.16,2.201-0.031c1.695-0.442,3.372-0.958,5.167-0.831c7.382,0.521,14.741,1.35,22.144,1.57
			c1.814,0.054,3.455,0.86,4.772,1.916c2.495,1.998,4.739,4.308,7.101,6.473c0.548,0.504,0.935,1.226,1.729,1.382
			c0.437-0.15,0.564-0.521,0.746-0.846c1.306-2.328,2.533-4.703,3.931-6.975c5.32-8.64,10.695-17.245,16.052-25.862
			c0.28-0.451,0.483-1.131,0.889-1.294c1.755-0.702,2.093-2.321,2.609-3.797c0.389-1.111,0.947-2.062,1.768-2.894
			c1.618-1.641,2.256-1.772,4.151-0.501c8.181,5.49,16.874,10.124,25.317,15.175c1.077,0.646,2.189,1.024,3.464,0.962
			c2.928-0.142,5.899-0.041,8.45,1.489c2.362,1.417,5.357,1.235,7.375,3.737c1.681,2.082,4.445,3.176,6.911,4.381
			c8.361,4.085,16.823,7.972,25.431,11.485c7.063,2.881,13.793,6.467,20.834,9.375c2.742,1.132,5.367,2.494,8.244,3.358
			c4.89,1.469,9.869,2.646,14.664,4.423c2.288,0.848,4.515,1.887,6.848,2.577c3.237,0.959,5.942,2.648,8.339,4.993
			c4.379,4.284,10.063,5.934,15.764,7.358c2.633,0.658,3.697-0.744,2.996-3.291c-0.271-0.984-0.684-1.818-1.664-2.334
			c-1.175-0.615-2.101-1.54-2.61-2.788c-0.354-0.866-0.585-1.806,0.294-2.516c0.895-0.721,1.76-0.316,2.479,0.316
			c0.799,0.704,1.524,1.493,2.251,2.276c0.413,0.445,0.745,0.951,1.39,1.126c3.178,0.868,6.194,0.593,8.986-1.25
			c0.445-0.293,0.917-0.706,0.794-1.295c-0.39-1.898,0.811-2.511,2.245-3.143c1.471-0.647,1.85-1.633,1.457-3.188
			c-0.284-1.115-0.864-2.103-1.423-3.107c-3.04-5.465-7.387-9.888-11.518-14.474c-3.468-3.851-7.198-7.295-11.689-10.119
			c-7.706-4.846-15.61-9.239-23.869-13.028c-3.104-1.423-6.184-2.872-9.373-4.14c-3.834-1.522-7.613-2.968-11.649-3.938
			c-3.245-0.78-6.142-0.081-9.093,0.761c-2.813,0.802-5.518,2.142-8.497,0.643c-0.419-0.21-0.868,0.191-1.273,0.371
			c-1.673,0.741-3.33,1.517-5,2.265c-0.532,0.239-1.168,0.789-1.651,0.186c-0.501-0.627-1.125-1.579-0.623-2.271
			c0.63-0.87,0.264-1.558,0.166-2.355c-0.568-4.617-1.979-9.09-2.276-13.761c-0.159-2.513-1.51-3.554-4.087-3.468
			c-3.659,0.123-7.301,0.602-10.974,0.429c-1.981-0.094-3.971-0.188-5.95-0.107c-12.444,0.512-24.871-0.367-37.307-0.473
			c-8.919-0.074-17.826-0.929-26.76-0.278c-3.803,0.275-7.623,0.36-11.436,0.475c-1.064,0.031-1.035,0.495-0.641,1.307
			c-2.025-0.313-3.981-0.591-5.925-0.933c-0.511-0.089-1.027-0.312-1.474-0.583c-1.825-1.108-3.668-2.195-5.425-3.405
			c-8.673-5.97-17.346-11.94-25.97-17.982c-7.623-5.341-15.046-10.964-22.76-16.178c-2.91-1.967-5.786-3.949-9.405-4.451
			c-0.958-0.133-1.881-0.611-2.791-1.003c-2.431-1.044-4.924-1.476-7.587-1.218c-6.606,0.64-13.229,1.096-19.817,1.923
			c-0.446,0.056-0.958,0.097-1.309,0.337c-1.004,0.686-2.16,0.743-3.279,0.876c-3.106,0.368-6.232,0.573-9.33,0.993
			c-8.395,1.137-6.227-0.239-11.003,6.709c-0.7,1.019-1.395,1.963-2.458,2.647c-2.409,1.551-3.919,3.763-4.677,6.53
			c-0.867,3.162-1.624,6.367-2.608,9.479c-1.002,3.167-0.634,5.969,0.726,8.814c0.164,0.345,0.257,0.724,0.435,1.06
			c0.605,1.146,0.569,2.343,0.353,3.57c-0.394,2.231-0.688,2.555-2.827,1.972c-3.005-0.818-6.041-0.493-9.069-0.572
			c-1.068-0.027-1.74,0.439-2.072,1.426c-1.81,5.395-4.998,10.101-7.629,15.078c-2.465,4.662-4.945,9.31-6.303,14.419
			c-0.627,2.359-1.531,4.413-3.238,6.17C142.828,1140.134,141.892,1141.531,141.214,1143.459z"/>
	</g>
	<g>
		<path fill="#8E6F55" d="M418.485,924.774c-0.117,1.085-0.159,2.156-0.354,3.198c-1.106,5.898-3.683,10.954-8.563,14.651
			c-2.128,1.613-4.258,3.223-6.41,4.807c-3.386,2.492-7.341,3.698-11.307,4.806c-5.105,1.425-9.943,3.438-14.47,6.175
			c-2.233,1.352-4.396,1.805-6.784,0.383c-1.239-0.738-2.577-1.342-3.928-1.855c-2.769-1.054-5.123-2.74-7.173-4.8
			c-0.964-0.969-1.711-0.953-2.784-0.427c-3.452,1.691-6.601,3.811-9.405,6.439c-0.557,0.522-1.077,1.089-1.666,1.57
			c-1.648,1.344-2.772,0.959-3.288-1.079c-0.725-2.856-0.86-5.72-0.171-8.608c0.158-0.66,0.23-1.341,0.345-2.029
			c-0.837-0.528-1.691-0.245-2.493-0.245c-5.506,0.001-10.748-1.152-15.714-3.53c-0.615-0.293-1.219-0.635-1.765-1.04
			c-0.681-0.505-0.941-1.192-0.519-2.01c0.425-0.819,1.073-1.441,2.007-1.026c0.982,0.436,1.818,0.197,2.614-0.248
			c4.778-2.676,9.843-4.811,14.128-8.39c5.688-4.749,9.196-10.694,10.86-17.827c0.104-0.444,0.322-0.937,0.22-1.34
			c-0.553-2.195,0.057-4.407-0.168-6.609c-0.245-2.384,0.434-4.69,0.973-6.979c0.252-1.073,0.679-2.244,2.095-2.442
			c0.727-0.103,0.98-0.716,1.181-1.273c1.825-5.07,5.278-9.051,8.679-13.071c1.041-1.23,1.792-2.651,2.49-4.097
			c2.004-4.159,3.118-8.593,3.975-13.097c0.326-1.715,0.294-3.505,1.156-5.101c0.229-0.425,0.107-0.89,0.059-1.347
			c-0.737-6.979-1.522-13.956-1.815-20.974c-0.184-4.421-0.472-8.846-0.429-13.267c0.09-8.938-0.328-17.852-0.894-26.763
			c-0.255-4.034-0.046-8.094-0.706-12.104c-1.478-8.961-2.788-17.964-7.422-26.032c-0.954-1.659-1.871-3.337-3.155-4.759
			c-2.097-2.319-4.188-4.652-6.416-6.845c-1.689-1.664-3.741-2.803-5.966-3.73c-2.319-0.968-4.626-1.966-6.318-4.131
			c-2.078-2.659-5.257-3.853-8.336-4.972c-3.884-1.412-7.941-2.229-12.049-2.595c-8.845-0.787-17.675-0.902-26.416,1.091
			c-6.969,1.591-13.504,4.275-19.77,7.671c-0.964,0.522-1.707,1.215-2.294,2.158c-2.944,4.726-6.033,9.356-9.208,13.931
			c-2.32,3.341-5.068,6.291-8.076,9.019c-1.864,1.69-3.728,3.386-5.506,5.165c-2.272,2.274-4.718,4.323-7.367,6.138
			c-0.691,0.475-1.313,1.062-2.037,1.477c-2.336,1.343-2.988,3.251-3.066,5.975c-0.224,7.847-0.871,15.673-1.929,23.475
			c-1.075,7.938-2.137,15.867-3.703,23.726c-0.149,0.743-0.251,1.514-0.24,2.27c0.098,6.716-0.186,13.426-0.334,20.139
			c-0.065,2.917,0.078,5.806,1.858,8.327c0.404,0.573,0.357,1.294-0.186,1.654c-1.191,0.788-0.806,1.784-0.63,2.837
			c1.344,8.044,4.245,15.541,7.589,22.946c3.28,7.266,7.737,13.634,13.209,19.34c1.254,1.308,1.846,2.739,1.839,4.508
			c-0.01,2.824,0.021,5.646,0.04,8.471c0.031,4.908,1.375,9.476,3.578,13.821c0.207,0.407,0.48,0.785,0.658,1.204
			c0.533,1.252,0.226,2.034-1.057,2.524c-2.227,0.85-4.359,0.447-6.385-0.664c-1.189-0.653-2.338-1.382-3.505-2.075
			c-1.189,2.078-1.228,2.083-3.629,2.174c-7,0.262-12.342-2.828-16.474-8.244c-1.714-2.247-3.026-4.756-4.229-7.321
			c-0.874-1.863-1.901-3.652-2.803-5.504c-0.88-1.805-2.345-2.537-4.269-2.462c-1.523,0.06-3.043,0.229-4.567,0.277
			c-2.755,0.087-5.455-0.129-7.939-1.537c-0.511-0.29-1.165-0.344-1.763-0.46c-3.252-0.636-5.891-2.276-8.28-4.565
			c-4.339-4.159-7.383-8.939-7.869-15.053c-0.346-4.347-0.182-8.684,0.47-13.01c1.136-7.548,4.636-14.145,8.083-20.789
			c3.407-6.563,6.878-13.106,9.945-19.829c4.455-9.77,6.246-20.219,6.952-30.864c0.738-11.126,2.243-22.119,4.488-33.063
			c1.947-9.49,5.376-18.236,10.312-26.494c3.129-5.235,5.955-10.642,9.355-15.73c3.124-4.673,7.171-8.506,10.762-12.753
			c5.24-3.434,9.208-8.451,14.446-11.841c7.881-5.099,16.132-9.583,24.832-13.138c4.798-1.961,9.731-3.783,14.865-4.479
			c6.026-0.815,11.944-2.366,18.047-2.635c2.591-0.113,5.183-0.232,7.77-0.432c3.772-0.289,7.462,0.24,11.131,0.998
			c7.896,1.631,15.466,4.192,22.391,8.373c3.248,1.96,6.307,4.225,9.352,6.509c2.711,2.033,5.427,4.235,8.968,4.799
			c0.626,0.099,1.317,0.313,1.416,0.977c0.19,1.28,1.128,1.459,2.094,1.754c6.267,1.917,11.936,4.997,17.225,8.836
			c5.133,3.726,9.304,8.353,12.768,13.622c2.346,3.57,4.574,7.217,6.794,10.868c3.805,6.255,6.042,13.175,8.033,20.13
			c2.552,8.916,3.822,18.077,3.308,27.373c-0.316,5.708-0.394,11.424-0.983,17.127c-0.571,5.532-0.725,11.118-0.822,16.685
			c-0.134,7.643-0.95,15.225-1.673,22.816c-0.341,3.568-0.259,7.177-0.967,10.709c-0.465,2.317-1.111,4.604-1.445,6.936
			c-0.938,6.541-0.661,13.088,0.118,19.626c0.903,7.587,2.282,15.087,4.482,22.407c1.56,5.192,3.464,10.257,6.684,14.719
			c0.95,1.314,2.086,2.427,3.29,3.484c0.683,0.597,1.184,1.239,0.74,2.173c-0.429,0.9-1.284,1.044-2.146,0.967
			c-1.295-0.118-2.561-0.435-3.771-0.909c-3.905-1.531-7.794-3.1-11.381-5.317C419.603,924.965,419.28,924.567,418.485,924.774z"/>
	</g>
	<g>
		<path d="M307.676,1167.194c-0.243,2.21,0.092,3.869,0.216,5.535c0.482,6.476,0.418,12.963,0.472,19.449
			c0.015,1.811,0.026,1.882,1.777,1.572c6.233-1.099,12.459-2.237,18.682-3.39c1.356-0.251,1.431-0.441,1.139-1.886
			c-0.106-0.521-0.316-1.036-0.339-1.56c-0.05-1.089,0.729-2.03,1.67-2.137c1.038-0.117,1.629,0.503,1.823,1.828
			c0.421,2.865,0.849,5.729,1.309,8.588c0.44,2.726,1.776,4.782,4.325,6.071c2.523,1.275,4.781,2.998,7.098,4.609
			c12.032,8.373,24.444,16.139,37.102,23.523c14.91,8.699,29.015,18.622,43.108,28.559c4.613,3.253,9.267,6.46,14.025,9.495
			c7.143,4.557,14.116,9.362,21.075,14.187c8.147,5.647,17.076,8.581,27.024,8.59c5.67,0.005,11.282-0.189,16.77-1.766
			c0.219-0.062,0.449-0.097,0.676-0.114c0.95-0.071,1.693,0.285,1.926,1.234c0.237,0.962-0.26,1.627-1.172,1.939
			c-2.247,0.769-4.595,1.103-6.928,1.45c-5.698,0.852-11.444,0.727-17.135,0.22c-7.318-0.651-14.251-2.908-20.316-7.101
			c-13.997-9.675-28.43-18.693-42.287-28.582c-14.036-10.016-28.347-19.65-43.34-28.198c-11.949-6.812-23.286-14.556-34.66-22.251
			c-1.515-1.025-3.028-2.078-4.642-2.929c-3.37-1.776-5.214-4.543-5.896-8.233c-0.465-2.514-0.532-2.511-3.054-2.058
			c-6.229,1.116-12.453,2.266-18.691,3.332c-0.873,0.149-1.08,0.532-1.239,1.291c-0.212,1.02-0.175,2.047-0.737,3.063
			c-0.958,1.734-2.314,2.701-4.128,3.31c-2.905,0.974-5.885,1.606-8.88,2.167c-6.896,1.29-13.666,3.194-20.619,4.188
			c-1.887,0.27-3.787,0.446-5.683,0.657c-1.357,0.15-2.599-0.022-3.51-1.564c-0.271,1.431-1.153,1.907-2.188,2.358
			c-2.953,1.289-6.091,1.979-9.164,2.835c-18.144,5.061-36.408,9.622-54.975,12.908c-7.508,1.328-14.977,2.907-22.55,3.827
			c-3.858,0.468-7.752,0.659-11.633,0.905c-14.698,0.938-29.393,1.904-44.095,2.746c-12.216,0.7-24.376,0.063-36.55-1.297
			c-6.029-0.673-10.429-3.446-14.301-7.662c-2.282-2.484-4.223-5.214-5.839-8.176c-0.109-0.2-0.26-0.381-0.35-0.588
			c-0.341-0.789-0.25-1.516,0.471-2.036c0.717-0.519,1.456-0.4,2.092,0.169c0.695,0.62,1.073,1.472,1.537,2.26
			c2.264,3.859,5.091,7.226,8.684,9.924c2.064,1.55,4.339,2.435,6.945,2.648c4.484,0.368,8.954,0.916,13.434,1.353
			c7.083,0.69,14.182,0.436,21.275,0.229c11.903-0.344,23.75-1.631,35.638-2.238c5.335-0.273,10.659-0.725,15.994-0.961
			c6.275-0.278,12.429-1.385,18.582-2.503c10.803-1.967,21.631-3.813,32.317-6.371c12.974-3.108,25.938-6.255,38.708-10.143
			c0.88-0.267,1.819-0.453,2.528-1.024c0.921-0.741,1.824-1.03,3.023-0.288c-0.158-1.815-0.581-3.335-0.959-4.866
			c-0.333-1.35,0.006-2.155,0.953-2.432c0.957-0.279,1.776,0.219,2.189,1.481c0.331,1.012,0.534,2.065,0.766,3.108
			c0.46,2.087,0.449,2.056,2.473,1.914c4.125-0.288,8.149-1.198,12.182-2.014c5.529-1.117,11.036-2.354,16.547-3.564
			c1.113-0.245,2.217-0.563,3.298-0.929c2.332-0.785,3.162-1.859,3.273-4.33c0.108-2.438,0.206-4.884,0.165-7.323
			c-0.122-7.323-0.158-14.651-0.845-21.954c-0.114-1.212-0.272-2.421-0.345-3.637c-0.049-0.823-0.445-1.427-0.971-2.005
			c-1.346-1.474-1.954-3.083-0.875-4.994c0.224-0.397,0.4-0.766-0.137-1.16c-2.715-1.999-4.911-4.568-7.398-6.82
			c-0.677-0.612-1.378-0.827-2.256-0.875c-8.23-0.431-16.466-0.713-24.707-0.817c-2.346-0.03-2.474,0.054-2.778,2.323
			c-0.529,3.942-0.512,7.917-0.522,11.885c-0.02,8.929,0.002,17.857,0.021,26.787c0.005,2.745-0.008,5.489,0.61,8.199
			c0.322,1.413-0.076,2.173-1.03,2.41c-1.042,0.258-1.797-0.328-2.192-1.78c-0.565-2.08-0.692-4.231-0.682-6.358
			c0.052-12.362-0.254-24.727,0.186-37.086c0.051-1.447,0.122-2.902,0.32-4.334c0.128-0.921-0.156-1.399-0.968-1.786
			c-1.036-0.492-2.06-1.013-3.181-1.265c-7.753-1.732-15.6-2.704-23.526-3.34c-13.254-1.061-26.534-0.995-39.803-1.359
			c-3.967-0.109-7.916-0.558-11.87-0.784c-6.548-0.374-13.113-0.304-19.647,0.579c-4.225,0.572-8.415,1.463-12.724,1.369
			c-2.539-0.057-4.924,0.961-7.39,1.438c-0.424,0.082-0.827,0.381-1.191,0.645c-6.102,4.451-11.373,9.694-15.346,16.163
			c-0.799,1.301-1.511,2.65-2.005,4.104c-0.299,0.881-0.55,1.699,0.121,2.588c0.603,0.797,0.36,1.646-0.458,2.175
			c-0.815,0.527-1.6,0.273-2.27-0.392c-1.168-1.157-1.219-2.589-0.918-4.053c0.372-1.81,1.157-3.466,2.063-5.067
			c2.926-5.171,6.789-9.573,11.152-13.557c1.407-1.285,2.897-2.481,4.369-3.694c1.596-1.316,1.606-1.305,0.83-3.112
			c-0.03-0.069-0.067-0.137-0.097-0.206c-1.316-3.094-1.313-3.077-4.529-2.33c-2.027,0.471-3.9,1.291-5.698,2.321
			c-1.52,0.873-3.026,1.776-4.663,2.43c-1.263,0.504-2.577,0.761-3.687-0.18c-1.227-1.04-2.351-0.774-3.563-0.104
			c-3.778,2.09-6.996,4.881-9.992,7.952c-0.373,0.382-0.682,0.835-1.092,1.167c-0.667,0.539-1.423,0.57-2.098,0.023
			c-0.697-0.563-0.726-1.328-0.323-2.064c0.252-0.461,0.622-0.87,0.986-1.258c3.05-3.238,6.447-6.062,10.258-8.363
			c0.777-0.469,1.636-0.824,2.493-1.129c1.431-0.51,2.908-0.53,4.16,0.396c0.898,0.665,1.654,0.563,2.511,0.089
			c1.269-0.7,2.55-1.378,3.807-2.099c2.138-1.228,4.41-2.094,6.826-2.552c0.894-0.167,1.816-0.237,2.727-0.248
			c2.049-0.027,3.479,0.903,4.242,2.85c0.216,0.552,0.285,1.207,0.953,1.675c1.104-1.261,2.682-2.171,2.708-4.19
			c0.007-0.54,0.358-1.035,0.841-1.304c1.208-0.671,1.484-1.814,1.766-3.036c0.359-1.558,0.861-3.084,1.549-4.539
			c3.906-8.278,7.558-16.675,11.722-24.831c1.218-2.384,2.183-4.869,2.829-7.474c0.55-2.227,1.256-4.393,2.364-6.422
			c1.309-2.396,1.677-5.061,1.98-7.713c0.314-2.752,0.901-5.413,2.032-7.945c1.797-4.019,2.044-8.246,1.741-12.562
			c-0.057-0.813-0.42-1.208-1.088-1.552c-2.986-1.54-5.263-3.887-7.251-6.534c-4.341-5.777-7.618-12.133-10.161-18.879
			c-0.351-0.93-0.66-1.888-0.593-2.895c0.126-1.909,1.717-2.803,3.424-1.929c0.893,0.457,1.579,1.19,2.297,1.875
			c2.375,2.268,4.298,4.922,6.468,7.695c0.331-0.784,0.083-1.348-0.055-1.858c-2.63-9.803-5.722-19.459-9.344-28.942
			c-0.19-0.499-0.445-0.979-0.578-1.491c-0.238-0.919,0.014-1.688,0.947-2.067c0.961-0.391,1.612,0.1,2.088,0.889
			c0.196,0.324,0.348,0.68,0.481,1.036c4.104,10.932,7.823,21.985,10.434,33.384c0.24,1.049,0.353,2.119,0.2,3.184
			c-0.275,1.907-1.97,2.666-3.538,1.548c-0.672-0.479-1.255-1.118-1.778-1.766c-1.34-1.664-2.605-3.387-3.935-5.059
			c-0.609-0.765-1.106-1.649-2.001-2.154c-0.208,0.304-0.143,0.593-0.014,0.878c2.483,5.51,5.259,10.851,9.092,15.568
			c1.256,1.546,2.657,2.944,4.359,4.017c1.35,0.851,2.479,0.864,3.97-0.066c2.561-1.599,3.62-3.763,3.678-6.646
			c0.101-4.984-0.599-9.892-1.338-14.799c-0.237-1.584-0.45-3.173-0.59-4.768c-0.115-1.306,0.484-2.119,1.488-2.148
			c1.148-0.033,1.635,0.7,1.75,1.716c0.741,6.59,2.135,13.11,2.015,19.791c-0.075,4.091-1.36,7.498-5.184,9.511
			c-1.628,0.856-2.171,2.111-1.974,3.93c0.5,4.585-0.393,8.971-2.259,13.156c-1.238,2.776-1.399,5.766-1.854,8.696
			c-0.307,1.973-0.697,3.932-1.615,5.7c-1.276,2.46-2.101,5.058-2.808,7.719c-0.409,1.537-0.994,3.029-1.566,4.731
			c2.82,0.572,5.603,0.596,8.375,0.701c0.766,0.028,1.114-0.484,1.111-1.167c-0.002-0.966,0.083-1.883-0.398-2.874
			c-2.275-4.689-2.253-4.722-0.774-9.55c1.227-4.008,2.18-8.097,3.653-12.033c0.64-1.707,0.956-3.563,3.153-4.04
			c0.232-0.052,0.414-0.417,0.583-0.66c1.652-2.379,3.304-4.758,4.939-7.149c1.183-1.729,2.722-2.719,4.877-2.993
			c9.536-1.212,19.076-2.374,28.667-3.048c1.207-0.084,2.426-0.261,3.639,0.091c0.699,0.203,1.336-0.197,1.991-0.372
			c2.214-0.592,4.431-1.128,6.746-1.154c1.169-0.014,2.287,0.214,3.355,0.615c1.078,0.405,1.523,1.277,1.205,2.144
			c-0.351,0.952-1.111,1.29-2.02,1.008c-3.612-1.117-7.029-0.141-10.207,1.319c-4.476,2.055-9.184,3.243-13.879,4.55
			c-9.107,2.532-18.164,5.233-27.137,8.217c-1.582,0.526-2.374,1.305-2.952,2.974c-1.448,4.191-2.421,8.506-3.703,12.735
			c-0.215,0.712-0.427,1.45-0.209,2.816c0.592-1.747,1.44-2.578,2.522-3.414c0.956-0.741,1.787-1.75,2.94-2.336
			c1.225-0.621,2.436-1.264,3.667-1.873c0.816-0.405,1.625-0.679,1.592-1.909c-0.023-0.844,0.713-1.289,1.591-1.314
			c0.076-0.002,0.153-0.012,0.229-0.007c3.099,0.235,5.708-1.104,8.382-2.43c5.19-2.571,10.362-5.195,15.792-7.253
			c0.93-0.354,1.808-0.813,2.495-1.572c0.72-0.796,1.566-0.951,2.43-0.28c0.75,0.582,0.686,1.702-0.127,2.648
			c-0.812,0.945-1.859,1.597-2.994,2.059c-11.027,4.502-21.461,10.261-32.285,15.181c-3.299,1.5-2.985,4.374-3.898,6.852
			c-0.21,0.567,0.386,0.823,0.864,0.675c0.795-0.249,1.575-0.577,2.318-0.956c7.067-3.602,14.212-7.044,21.418-10.359
			c0.9-0.415,1.798-0.854,2.737-1.154c1.305-0.42,2.153-0.083,2.517,0.85c0.362,0.925-0.067,1.691-1.343,2.244
			c-5.249,2.275-10.411,4.732-15.53,7.285c-2.661,1.326-5.318,2.664-7.992,3.965c-0.957,0.467-1.922,1.025-2.947,1.223
			c-2.462,0.479-3.469,2.039-3.975,4.338c-0.902,4.095-1.986,8.148-3.009,12.216c-0.289,1.149-0.38,2.152,0.577,3.154
			c3.751,3.929,7.674,7.649,12.169,10.728c0.365,0.25,0.718,0.58,1.439,0.471c0.294-3.939-0.815-7.384-3.608-10.252
			c-0.849-0.872-1.867-1.585-2.665-2.495c-1.412-1.608-1.012-2.665,1.086-3.155c1.244-0.291,1.914-1.302,1.919-2.893
			c0.005-1.863,0.097-2.078,1.837-2.56c6.024-1.666,12.034-3.38,17.95-5.41c2.699-0.927,5.417-0.676,8.08,0.283
			c2.231,0.804,4.379,1.796,6.417,2.999c9.758,5.756,20.023,10.398,30.741,14.048c6.148,2.095,12.412,3.766,18.88,4.483
			c3.609,0.4,6.711,1.837,9.645,3.879c6.101,4.248,11.447,9.371,16.871,14.405c3.072,2.853,6.068,5.788,9.104,8.691
			c0.297-0.203,0.538-0.287,0.645-0.456c6.324-9.9,12.631-19.811,18.953-29.713c0.985-1.544,1.995-3.073,3.051-4.568
			c0.533-0.755,0.373-1.252-0.364-1.662c-0.934-0.518-1.857-1.057-2.819-1.514c-6-2.842-11.789-6.093-17.705-9.094
			c-4.736-2.402-8.891-5.596-12.969-8.92c-3.556-2.897-7.439-5.335-11.156-8.005c-10.226-7.342-20.44-14.704-31.057-21.482
			c-3.727-2.38-7.423-4.818-11.552-6.496c-1.292-0.526-1.683-1.344-1.3-2.263c0.398-0.952,1.201-1.251,2.517-0.791
			c2.023,0.705,3.896,1.733,5.742,2.816c7.511,4.403,14.634,9.397,21.813,14.308c0.607,0.415,1.141,1.002,2.167,1.124
			c0-1.555-0.056-3.047,0.01-4.533c0.422-9.606,0.561-19.223,0.918-28.829c0.307-8.234,1.141-16.438,2.044-24.631
			c0.167-1.518,0.313-3.036,0.474-4.554c0.114-1.09,0.516-2.036,1.24-2.89c1.055-1.246,1.068-1.343-0.324-2.421
			c-3.481-2.691-6.229-6.026-8.804-9.56c-2.26-3.102-4.136-6.424-5.842-9.823c-3.525-7.027-6.527-14.286-8.768-21.838
			c-0.238-0.806-0.562-1.612-0.624-2.434c-0.168-2.199-1.011-3.699-3.395-4.045c-0.983-0.142-1.186-1.083-1.431-1.892
			c-0.836-2.764-0.721-5.58-0.417-8.399c0.384-3.564,0.761-7.132,1.227-10.687c0.163-1.239-0.123-2.07-1.026-3.018
			c-5.149-5.4-9.362-11.482-12.237-18.38c-2.626-6.302-2.773-12.915-1.772-19.589c0.158-1.057,0.333-2.11,0.532-3.158
			c0.184-0.97,0.8-1.473,1.785-1.376c0.89,0.087,1.324,0.701,1.417,1.544c0.119,1.083-0.209,2.12-0.396,3.167
			c-0.497,2.791-0.639,5.598-0.537,8.432c0.189,5.234,1.756,10.031,4.374,14.528c2,3.437,4.213,6.724,6.715,9.814
			c0.418,0.516,0.76,1.13,1.456,1.418c0.696-0.579,0.74-1.392,0.766-2.105c0.084-2.265,1.078-4.483,0.334-6.792
			c-0.147-0.457,0.097-0.888,0.348-1.285c2.652-4.218,2.373-8.87,1.988-13.534c-0.055-0.672-0.613-1.028-0.978-1.504
			c-4.932-6.423-9.687-12.951-12.986-20.418c-3.976-8.995-6.705-18.262-7.4-28.163c-0.667-9.474-0.49-18.917,0.178-28.354
			c0.338-4.782,1.288-9.521,1.95-14.28c1.358-9.75,2.288-19.549,3.408-29.325c0.057-0.504,0.165-1.027-0.218-1.886
			c-1.286,1.438-2.602,2.606-3.547,4.019c-4.528,6.762-8.419,13.801-9.219,22.14c-0.243,2.53-0.138,5.03,0.159,7.533
			c1.008,8.484,2.002,16.971,3.063,25.45c1.018,8.146,0.888,16.305,0.139,24.445c-0.549,5.986-2.669,11.406-6.764,15.944
			c-0.971,1.076-1.85,2.234-2.83,3.301c-0.646,0.702-1.481,0.833-2.252,0.204c-0.78-0.637-0.728-1.459-0.241-2.263
			c0.195-0.321,0.479-0.591,0.723-0.885c0.684-0.82,1.34-1.665,2.053-2.461c3.999-4.453,5.627-9.861,6.172-15.649
			c0.937-9.934,0.241-19.813-1.13-29.67c-0.957-6.875-1.873-13.76-2.443-20.681c-0.393-4.776,0.256-9.477,1.893-13.965
			c2.985-8.187,7.003-15.754,13.791-21.526c1.105-0.939,2.191-1.899,3.3-2.834c6.95-5.858,13.645-11.978,19.59-18.882
			c2.546-2.956,4.887-6.051,7.024-9.313c4.598-7.02,9.062-14.122,13.778-21.069c5.465-8.05,12.952-13.263,21.845-16.626
			c6.512-2.463,13.167-2.345,19.718-0.002c2.792,0.998,5.605,2.047,8.051,3.786c5.846,4.155,10.25,9.522,13.284,16.016
			c0.548,1.175,1.119,2.341,1.622,3.534c0.382,0.902,0.445,1.812-0.512,2.439c-0.815,0.534-1.796,0.258-2.438-0.926
			c-1.049-1.938-1.869-3.999-2.891-5.952c-2.59-4.957-6.125-9.219-10.803-12.213c-6.036-3.861-12.664-6.007-20.092-4.778
			c0.293,0.701,0.956,0.61,1.493,0.731c6.801,1.521,12.636,4.833,17.678,9.591c1.113,1.05,2.097,2.229,2.895,3.534
			c0.736,1.205,0.548,2.312-0.363,2.81c-0.829,0.454-1.585,0.087-2.43-1.01c-6-7.8-14.104-11.598-23.758-12.417
			c-0.062-0.005-0.131,0.072-0.318,0.181c0.374,0.685,1.136,0.699,1.698,0.915c3.962,1.534,7.02,4.241,9.736,7.4
			c0.247,0.289,0.483,0.598,0.662,0.931c0.418,0.772,0.309,1.513-0.388,2.042c-0.679,0.515-1.445,0.492-2.098-0.08
			c-0.397-0.348-0.709-0.795-1.058-1.199c-2.913-3.385-6.458-5.761-10.805-6.941c-2.109-0.572-4.165-0.853-6.278-0.05
			c-0.665,0.251-1.403,0.31-2.131,0.462c0.261,0.728,0.789,0.569,1.192,0.598c1.465,0.104,2.837,0.572,4.211,1.032
			c0.728,0.243,1.409,0.6,1.989,1.107c0.707,0.619,0.978,1.399,0.457,2.245c-0.528,0.857-1.379,0.994-2.19,0.508
			c-0.998-0.598-2.056-0.983-3.161-1.292c-1.813-0.507-3.571-0.292-5.413,0.035c-2.538,0.45-4.069,1.952-5.51,3.905
			c-5.125,6.948-9.606,14.318-14.256,21.577c-3.684,5.75-8.02,10.942-12.704,15.879c-4.473,4.714-9.317,9.024-14.278,13.203
			c-1.002,0.842-1.534,1.77-1.784,3.022c-0.778,3.902-1.033,7.866-1.459,11.808c-1.239,11.453-2.544,22.898-4.353,34.278
			c-0.481,3.029-0.477,6.089-0.615,9.129c-0.442,9.77-0.556,19.579,1.366,29.204c2.17,10.87,6.418,20.951,12.711,30.159
			c3.892,5.69,8.418,10.842,12.966,15.981c2.12,2.397,4.435,4.623,6.672,6.916c1.024,1.05,2.32,1.736,3.547,2.497
			c4.683,2.905,9.718,4.696,15.299,4.787c11.932,0.193,23.412-1.827,34.123-7.237c4.487-2.267,8.792-4.898,12.906-7.819
			c4.107-2.916,8.221-5.819,12.026-9.134c5.954-5.183,11.167-11.049,15.847-17.387c2.809-3.802,5.592-7.628,7.42-12.051
			c1.284-3.106,2.36-6.278,3.414-9.461c0.175-0.528,0.121-1.048,0.084-1.583c-0.521-7.688-1.072-15.376-1.54-23.068
			c-0.676-11.129-0.63-22.249,0.038-33.391c0.586-9.823,0.859-19.694,0.171-29.515c-0.62-8.875-2.652-17.479-7.1-25.361
			c-1.675-2.97-3.813-5.503-6.324-7.771c-2.471-2.23-5.362-2.727-8.529-2.175c-0.372,0.065-0.731,0.234-1.103,0.266
			c-0.667,0.055-1.209-0.226-1.486-0.848c-0.307-0.688-0.21-1.357,0.35-1.887c0.571-0.54,1.271-0.848,2.052-0.922
			c4.283-0.415,8.096,0.417,11.407,3.49c5.083,4.715,8.319,10.52,10.416,16.979c2.389,7.358,3.74,14.905,3.798,22.703
			c0.073,9.692-0.029,19.375-0.557,29.055c-0.442,8.081-0.524,16.15-0.023,24.248c0.821,13.323,1.485,26.659,2.696,39.956
			c0.737,8.078,2.579,15.921,5.143,23.64c2.187,6.579,4.528,13.119,6.282,19.839c2.034,7.795,2.451,15.668,0.89,23.582
			c-1,5.07-3.617,9.364-6.963,13.219c-1.349,1.554-2.843,2.98-4.293,4.443c-0.907,0.913-1.648,1.002-2.385,0.359
			c-0.683-0.595-0.844-1.636-0.125-2.471c1.243-1.441,2.67-2.723,3.953-4.132c3.793-4.164,6.398-8.941,6.995-14.609
			c0.383-3.642,0.342-7.306,0.137-10.975c-0.28-5.009-1.825-9.72-3.153-14.489c-0.057-0.205-0.123-0.417-0.552-0.431
			c-0.364,0.888-0.248,1.88-0.313,2.836c-0.432,6.369-1.765,12.532-4.25,18.423c-1.764,4.181-4.077,8.027-7.353,11.222
			c-2.329,2.271-4.96,4.054-8.203,4.761c-0.518,0.113-1.053,0.252-1.572,0.228c-0.853-0.042-1.424-0.533-1.541-1.409
			c-0.102-0.77,0.267-1.322,0.958-1.649c0.204-0.096,0.437-0.138,0.659-0.186c4.21-0.871,7.245-3.453,9.729-6.773
			c3.969-5.308,6.134-11.391,7.367-17.823c1.616-8.435,1.341-16.807-0.594-25.204c-1.71-7.423-3.561-14.838-4.17-22.475
			c-0.03-0.37-0.138-0.735-0.281-1.472c-0.566,1.039-1.066,1.75-1.365,2.536c-1.897,5.001-5.301,9.065-8.289,13.386
			c-0.585,0.844-1.119,1.459-0.519,2.624c0.475,0.921,0.203,2.107,0.056,3.164c-0.784,5.686-2.307,11.12-4.481,16.482
			c-4.676,11.529-13.077,19.695-22.904,26.695c-2.553,1.819-5.316,3.301-8.397,4.075c-0.515,0.131-1.039,0.254-1.566,0.297
			c-0.96,0.08-1.676-0.35-1.858-1.309c-0.185-0.972,0.358-1.587,1.281-1.863c0.218-0.065,0.45-0.084,0.672-0.137
			c1.947-0.463,3.775-1.235,5.483-2.254c8.875-5.295,16.049-12.335,21.584-21.065c0.915-1.442,1.281-2.722,0.465-4.439
			c-0.952-2.006-1.13-4.253-0.896-6.503c0.083-0.806,0.227-1.636-0.023-2.441c-0.729-0.147-0.978,0.427-1.345,0.759
			c-6.63,6.021-13.791,11.33-21.442,15.972c-2.737,1.659-5.43,3.392-8.338,4.768c-10.765,5.095-22.154,7.055-33.982,7.029
			c-7.724-0.018-14.425-2.817-20.582-7.212c-0.798-0.571-1.477-1.323-2.153-2.045c-2.555-2.726-5.312-5.263-7.65-8.19
			c-0.127-0.159-0.357-0.234-0.647-0.417c-0.396,0.587-0.235,1.207-0.264,1.771c-0.089,1.759-0.282,3.505-0.813,5.186
			c-1.709,5.418-2,11.043-2.676,16.63c-0.41,3.394-0.836,6.799-1.316,10.19c-0.342,2.418-0.654,4.844-0.613,7.292
			c0.045,2.652,0.282,3.028,2.86,3.976c1.238,0.454,1.785,1.305,2.011,2.524c1.914,10.322,6.264,19.724,11.022,28.961
			c2.102,4.082,4.701,7.839,7.67,11.353c1.644,1.945,3.662,3.445,5.546,5.109c0.662,0.585,1.266,0.63,2.072,0.249
			c2.142-1.014,4.243-2.083,6.223-3.39c5.991-3.948,11.834-8.095,17.494-12.514c4.529-3.537,7.868-7.839,9.529-13.367
			c0.51-1.697,1.489-2.905,3.028-3.827c9.29-5.576,16.354-13.395,22.32-22.308c1.315-1.967,2.674-3.903,4.031-5.84
			c0.538-0.768,1.172-1.511,2.234-1.282c1.069,0.229,1.264-0.468,1.576-1.189c1.451-3.362,2.953-6.7,4.394-10.066
			c1.328-3.1,3.046-5.978,4.862-8.803c0.205-0.317,0.412-0.653,0.685-0.907c0.563-0.521,1.212-0.608,1.883-0.18
			c0.651,0.416,0.988,1.048,0.71,1.759c-0.331,0.843-0.828,1.624-1.282,2.415c-5.396,9.38-9.819,19.128-11.438,29.95
			c-0.091,0.602-0.236,1.195-0.37,1.79c-0.229,1.012-0.793,1.673-1.904,1.557c-0.994-0.103-1.535-1.01-1.301-2.265
			c0.475-2.549,1.018-5.084,1.526-7.625c0.083-0.421,0.335-0.848-0.025-1.328c-0.754,0.463-1.08,1.267-1.542,1.939
			c-3.329,4.847-6.747,9.623-10.723,13.972c-3.945,4.317-8.626,7.736-13.462,10.95c-1.07,0.711-1.815,1.498-2.203,2.754
			c-1.813,5.889-5.42,10.484-10.223,14.276c-6.056,4.782-12.345,9.224-18.808,13.429c-1.474,0.958-2.97,1.913-4.612,2.516
			c-1.958,0.719-3.235,2.169-4.562,3.629c-0.685,0.754-0.721,1.667-0.807,2.563c-0.663,6.987-1.267,13.981-1.953,20.967
			c-0.799,8.141-0.451,16.32-0.901,24.474c-0.224,4.037-0.33,8.083-0.402,12.126c-0.031,1.749,0.12,3.504,0.259,5.251
			c0.1,1.26,0.151,1.256,2.425,2.424c0.138-1.806,0.267-3.507,0.399-5.209c0.817-10.511,0.476-21.053,0.849-31.573
			c0.236-6.639,1.023-13.231,2.067-19.794c0.359-2.258,0.564-4.54,0.835-6.813c0.045-0.377,0.011-0.773,0.115-1.133
			c0.237-0.82,0.793-1.309,1.679-1.246c0.771,0.055,1.292,0.512,1.407,1.271c0.089,0.596,0.098,1.221,0.026,1.818
			c-0.384,3.18-0.761,6.361-1.221,9.532c-1.077,7.409-1.851,14.844-1.754,22.34c0.127,9.775-0.353,19.529-0.918,29.282
			c-0.036,0.608,0.078,1.286-0.148,1.814c-0.783,1.828,0.273,2.631,1.591,3.565c6.841,4.854,13.808,9.542,20.224,14.975
			c0.767,0.649,1.608,1.072,2.726,0.845c0.807-0.163,1.672-0.048,2.511-0.041c31.062,0.217,62.124,0.438,93.185,0.654
			c0.907,0.008,1.813,0.002,2.953,0.002c-1.514-4.611,0.363-8.64,1.556-12.751c0.745-2.563,1.62-5.086,2.438-7.626
			c0.093-0.289,0.178-0.587,0.308-0.86c0.363-0.767,0.954-1.219,1.825-1.018c0.966,0.225,1.437,0.941,1.249,1.881
			c-0.238,1.191-0.62,2.359-0.991,3.521c-1.227,3.849-2.645,7.636-3.483,11.605c-0.264,1.248-0.302,2.406,0.253,3.563
			c0.937,1.951,1.396,4.022,1.555,6.175c0.056,0.758,0.133,1.537,0.362,2.256c1.119,3.506,1.65,7.119,2.179,10.749
			c0.645,4.434,0.708,4.396,4.821,2.825c1.707-0.653,3.468-1.164,5.203-1.744c0.512-0.172,1.03-0.297,1.572-0.21
			c0.771,0.123,1.218,0.602,1.358,1.348c0.125,0.668-0.153,1.227-0.704,1.568c-0.376,0.234-0.849,0.319-1.28,0.465
			c-11.555,3.901-23.112,7.799-34.666,11.707c-0.859,0.291-1.697,0.643-2.594,0.985c0.646,0.87,1.556,1.134,2.346,1.548
			c11.155,5.85,22.639,10.987,34.318,15.688c5.029,2.024,9.859,4.479,14.787,6.718c6.623,3.008,13.52,5.182,20.523,7.063
			c4.503,1.209,8.848,2.847,13.128,4.68c2.235,0.957,4.068,2.451,5.499,4.365c2.977,3.98,7.18,5.475,11.853,6.104
			c0.197,0.027,0.413-0.086,0.728-0.159c-0.483-1.542-1.515-2.688-2.379-3.907c-1.542-2.179-3.195-4.278-4.78-6.428
			c-0.417-0.565-0.921-1.015-1.499-1.393c-5.623-3.666-11.25-7.327-16.873-10.994c-0.856-0.558-1.841-0.693-2.806-0.918
			c-5.94-1.379-11.876-2.774-17.813-4.169c-0.976-0.23-1.9-0.573-2.631-1.302c-0.816-0.813-0.982-1.737-0.393-2.434
			c0.647-0.763,1.461-0.836,2.245-0.284c1.556,1.096,3.4,1.313,5.162,1.73c5.044,1.196,10.107,2.312,15.168,3.437
			c1.058,0.234,2.035,0.604,2.944,1.199c5.3,3.463,10.608,6.913,15.916,10.366c1.415,0.919,2.783,1.878,3.652,3.393
			c0.257,0.45,0.567,0.989,1.244,0.73c1.247-0.476,2.039,0.376,2.861,1c2.122,1.604,4.517,2.452,7.105,2.963
			c2.101,0.414,3.919,0.039,5.568-1.219c0.102-0.481-0.189-0.746-0.447-1.01c-5.83-5.933-11.66-11.865-17.498-17.789
			c-0.926-0.939-2.143-1.45-3.27-2.08c-4.266-2.385-8.855-4.132-13.105-6.521c-4.175-2.348-8.657-3.71-13.212-4.962
			c-2.795-0.769-5.548-1.667-8.233-2.767c-1.156-0.474-2.17-1.121-2.903-2.146c-0.498-0.693-0.552-1.436,0.032-2.097
			c0.586-0.666,1.436-0.794,2.068-0.269c2.998,2.489,6.785,2.975,10.287,4.185c0.359,0.125,0.732,0.212,1.097,0.318
			c3.873,1.121,7.721,2.213,11.298,4.234c4.509,2.551,9.379,4.422,13.932,6.915c2.011,1.101,3.892,2.311,5.512,4.01
			c4.372,4.58,8.943,8.971,13.307,13.559c1.403,1.476,2.847,1.795,4.752,1.356c-0.042-1.064-0.729-1.718-1.235-2.438
			c-3.862-5.5-8.161-10.663-12.285-15.962c-1.809-2.323-3.87-4.206-6.376-5.769c-5.243-3.266-10.46-6.581-15.674-9.894
			c-3.574-2.27-7.557-3.933-11.452-5.646c-6-2.639-12.059-5.146-18.138-7.595c-3.649-1.471-7.422-1.612-11.207-0.403
			c-0.362,0.116-0.727,0.264-1.099,0.292c-0.653,0.051-1.22-0.18-1.514-0.808c-0.319-0.681-0.251-1.341,0.291-1.897
			c0.556-0.572,1.302-0.774,2.04-0.971c4.022-1.074,8.087-1.063,11.932,0.451c8.508,3.348,16.996,6.742,25.2,10.833
			c8.62,4.299,16.35,10.012,24.575,14.929c0.59,0.353,1.128,0.773,1.559,1.328c5.091,6.576,10.496,12.91,15.243,19.751
			c0.564,0.814,1.086,1.659,1.6,2.507c0.45,0.744,0.38,1.458-0.238,2.086c-0.314,0.32-0.767,0.512-0.877,1.015
			c-0.246,1.104-1.772,1.162-1.954,1.983c-0.196,0.887-0.421,1.599-0.869,2.426c-1.492,2.768-4.035,3.301-6.708,3.495
			c-2.304,0.169-4.523-0.53-6.705-1.26c-0.402-0.135-0.795-0.511-1.361-0.201c1.268,2.158,2.303,4.494,3.862,6.403
			c1.316,1.61,3.279,2.677,4.503,4.471c0.297,0.435,0.832,0.146,1.269,0.009c1.308-0.413,2.609-0.853,3.937-1.192
			c2.505-0.642,4.867-0.214,6.976,1.266c1.406,0.985,2.686,1.703,4.317,0.362c0.707-0.581,1.616-0.407,2.2,0.425
			c0.521,0.739,0.309,1.761-0.532,2.413c-1.768,1.375-3.701,1.748-5.785,0.78c-0.549-0.253-1.074-0.586-1.561-0.948
			c-1.81-1.337-3.774-1.528-5.865-0.854c-1.233,0.397-2.443,0.872-3.689,1.222c-1.98,0.557-2.853,0.341-3.904-1.375
			c-1.477-2.41-3.609-3.602-6.298-4.093c-1.873-0.343-3.715-0.854-5.586-1.221c-3.592-0.703-6.668-2.422-8.866-5.273
			c-2.565-3.327-6.024-5.004-9.783-6.419c-4.29-1.615-8.686-2.866-13.097-4.072c-6.271-1.717-12.346-3.965-18.188-6.795
			c-8.656-4.194-17.62-7.664-26.418-11.521c-8.246-3.615-16.306-7.608-24.264-11.819c-3.831-2.027-7.791-3.807-11.667-5.748
			c-0.942-0.472-1.786-0.433-2.569,0.165c-1.315,1.003-2.708,1.874-3.707,3.304c-5.377,7.701-10.325,15.669-15.217,23.681
			c-3.695,6.052-7.578,11.988-11.386,17.969c-0.56,0.878-1.52,1.157-2.359,0.745c-0.85-0.417-1.14-1.363-0.697-2.358
			c0.123-0.275,0.314-0.523,0.491-0.771c5.852-8.212,10.857-16.959,16.146-25.526c3.289-5.325,6.792-10.507,10.365-15.644
			c0.217-0.313,0.461-0.609,0.665-0.931c0.452-0.715,0.299-1.285-0.424-1.729c-1.3-0.798-2.556-1.675-3.893-2.405
			c-5.423-2.959-10.602-6.35-16.173-9.047c-2.273-1.1-4.295-2.62-6.396-4.007c-1.332-0.88-1.371-0.865-2.267,0.506
			c-2.546,3.896-5.133,7.767-7.599,11.714c-4.326,6.924-8.715,13.806-13.285,20.573c-1.795,2.658-3.357,5.447-4.705,8.368
			c-0.748,1.622-0.537,2.853,0.751,4.087c1.49,1.431,3.061,2.757,4.658,4.057c5.031,4.093,10.063,8.188,15.11,12.262
			c1.474,1.19,2.866,2.485,4.804,3.007c1.152,0.31,1.539,1.171,1.275,2.066c-0.263,0.894-1.009,1.251-2.209,1.027
			c-1.376-0.259-2.593-0.842-3.684-1.733c-4.49-3.671-8.991-7.327-13.498-10.978C311.324,1170.06,309.657,1168.763,307.676,1167.194
			z M289.329,1145.205c-0.057-0.281-0.036-0.473-0.121-0.551c-4.6-4.239-9.182-8.503-14.421-11.976
			c-2.203-1.459-4.566-2.394-7.199-2.731c-2.418-0.312-4.846-0.646-7.22-1.188c-12.03-2.739-23.47-7.091-34.465-12.674
			c-4.353-2.21-8.514-4.764-12.903-6.91c-3.429-1.679-6.761-1.967-10.356-0.522c-3.749,1.504-7.633,2.679-11.586,3.518
			c-2.21,0.469-3.793,1.417-4.418,3.679c-0.1,0.358-0.282,0.746-0.546,0.995c-1.097,1.037-0.55,1.726,0.296,2.619
			c2.903,3.065,4.328,6.765,4.32,10.991c-0.002,1.397-0.803,2.568-1.343,3.765c-0.41,0.906-1.518,1.206-2.603,0.984
			c-0.834-0.17-1.605-0.489-2.305-0.967c-5.201-3.542-9.791-7.771-13.977-12.455c-0.88-0.984-1.213-2.089-0.952-3.379
			c0.151-0.747,0.262-1.504,0.444-2.242c0.782-3.185,1.582-6.363,2.379-9.544c0.522-2.088,0.508-2.112-1.703-2.266
			c-1.903-0.132-3.806-0.252-5.708-0.382c-1.996-0.135-1.981-0.129-2.918,1.708c-3.675,7.205-6.815,14.661-10.29,21.96
			c-0.691,1.451-1.103,3.003-1.469,4.565c-0.173,0.738-0.184,1.624-0.783,2.115c-1.945,1.597-1.985,4.354-3.859,6.115
			c3.304-0.706,6.587-0.144,9.82-0.674c6.402-1.052,12.826-1.781,19.345-1.768c4.436,0.01,8.828,0.417,13.242,0.647
			c6.247,0.327,12.506,0.433,18.762,0.533c13.968,0.228,27.918,0.729,41.77,2.683c3.991,0.563,7.947,1.418,11.808,2.618
			c1.311,0.408,2.507,1.58,3.929,0.207c0.204-0.196,0.737-0.074,1.118-0.064c7.169,0.184,14.337,0.374,21.506,0.559
			C287.714,1145.196,288.526,1145.509,289.329,1145.205z M308.582,1104.588c0.965,0.512,1.627,0.875,2.3,1.221
			c5.428,2.784,10.865,5.548,16.279,8.358c1.569,0.815,1.61,0.855,2.358-0.625c1.189-2.356,1.836-2.533,3.982-1.138
			c3.323,2.16,6.6,4.377,10.137,6.212c6.567,3.408,12.952,7.153,19.192,11.133c0.793,0.506,1.341,0.777,2.222,0.234
			c1.802-1.11,3.604-0.84,5.426,0.123c2.157,1.14,4.389,2.134,6.562,3.242c0.876,0.446,1.651,0.456,2.597,0.132
			c5.986-2.05,11.995-4.029,18-6.023c2.677-0.889,5.357-1.767,8.044-2.627c0.894-0.287,1.378-0.608,1.128-1.771
			c-1.203-5.583-2.323-11.185-3.389-16.795c-0.193-1.019-0.526-1.521-1.585-1.424c-0.379,0.035-0.763-0.002-1.145-0.005
			c-29.839-0.2-59.676-0.401-89.515-0.59C310.441,1104.24,309.677,1104.059,308.582,1104.588z M210.729,1061.772
			c-0.288-0.018-0.583-0.081-0.866-0.049c-6.501,0.76-13.003,1.53-19.505,2.293c-0.711,0.083-1.353,0.328-1.787,0.898
			c-1.049,1.377-2.195,2.696-3.1,4.798C194.035,1066.645,202.492,1064.614,210.729,1061.772z M352.816,909.558
			c2-2.707,4.154-11.611,3.569-14.168C352.393,899.355,352.811,904.263,352.816,909.558z"/>
		<path d="M199.371,915.802c-0.598-0.287-1-0.484-1.406-0.676c-6.595-3.119-11.151-7.976-13.559-14.986
			c-3.303-9.615-2.836-19.012,0.716-28.424c2.591-6.866,5.801-13.444,9.076-19.991c2.117-4.23,4.149-8.496,6.057-12.824
			c3.229-7.325,4.691-15.114,6.109-22.931c1.176-6.479,1.333-13.049,2.061-19.567c1.525-13.657,4.875-26.826,10.248-39.497
			c3.718-8.769,8.468-16.916,14.243-24.458c6.707-8.757,14.225-16.742,23.064-23.415c2.256-1.703,4.512-3.407,6.98-4.785
			c10.422-5.815,21.132-10.886,32.915-13.425c7.834-1.687,15.62-3.584,23.675-3.829c8.295-0.252,16.446,0.664,24.396,3.134
			c0.946,0.294,1.896,0.574,2.849,0.849c9.52,2.747,17.31,8.139,23.793,15.535c0.2,0.23,0.419,0.446,0.605,0.686
			c0.586,0.759,0.659,1.535-0.029,2.268c-0.658,0.701-1.52,0.664-2.427-0.124c-0.4-0.348-0.722-0.784-1.08-1.181
			c-5.956-6.591-13.067-11.343-21.614-13.983c-7.407-2.287-14.897-3.849-22.678-3.925c-6.83-0.065-13.514,0.916-20.184,2.308
			c-10.419,2.176-20.462,5.292-30.071,10.004c-8.662,4.247-16.497,9.553-23.458,16.158c-8.345,7.915-15.639,16.711-21.457,26.666
			c-7.508,12.847-12.276,26.696-15.016,41.292c-1.24,6.615-1.735,13.302-2.317,19.991c-1.352,15.578-5.083,30.484-12.546,44.37
			c-3.79,7.053-7.236,14.29-10.046,21.807c-2.219,5.935-3.502,12.005-2.602,18.381c0.613,4.343,1.796,8.539,3.932,12.364
			c2.569,4.602,6.682,7.432,11.578,9.171c0.791,0.28,1.648,0.294,2.493,0.158c1.07-0.171,2.138-0.354,2.874,0.772
			c0.24,0.366,0.623,0.332,1.023,0.243c3.272-0.729,6.487-1.721,9.83-2.124c0.667-0.081,0.864-0.521,0.749-1.155
			c-0.221-1.2-0.496-2.396-0.62-3.606c-0.64-6.193,0.107-12.177,2.824-17.843c0.297-0.619,0.556-1.271,1.104-1.719
			c0.667-0.545,1.412-0.597,2.108-0.092c0.626,0.453,0.749,1.118,0.497,1.842c-0.075,0.212-0.204,0.406-0.307,0.61
			c-4.441,8.798-4.006,17.695-0.328,26.56c2.648,6.38,6.411,12.126,10.679,17.542c0.759,0.965,1.579,1.813,2.921,2.031
			c0.82,0.134,1.308,0.838,1.186,1.71c-0.134,0.975-0.809,1.402-1.776,1.418c-1.213,0.021-2.226-0.456-3.123-1.223
			c-1.11-0.948-2.006-2.089-2.88-3.249c-3.683-4.885-6.875-10.073-9.616-15.665c-0.877,0.479-1.017,1.336-1.333,2.047
			c-2.034,4.568-3.043,9.456-3.892,14.315c-1.258,7.21-1.647,14.544-2.251,21.839c-0.078,0.941,0.225,1.805,0.51,2.677
			c1.304,3.987,2.721,7.932,4.275,11.831c2.374,5.951,4.558,11.972,6.462,18.093c0.376,1.211,0.711,2.459,1.6,3.831
			c0.774-2.355,0.951-4.515,1.164-6.653c0.881-8.833,0.028-17.534-2.322-26.065c-0.597-2.164-0.492-4.017,0.688-5.879
			c0.446-0.706,0.726-1.519,1.176-2.221c0.813-1.27,1.964-1.372,3.042-0.303c0.377,0.375,0.719,0.802,0.996,1.253
			c2.952,4.811,7.27,8.405,11.062,12.467c0.155,0.167,0.305,0.369,0.5,0.468c2.875,1.428,4.098,4.018,5.29,6.836
			c1.976,4.67,5.229,8.57,8.456,12.439c0.937,1.125,1.156,1.831,0.524,2.57c-0.7,0.818-1.687,0.763-2.828-0.183
			c-0.292-0.241-0.586-0.501-0.808-0.805c-3.489-4.803-7.49-9.286-9.413-15.067c-0.247-0.743-0.615-1.382-1.322-1.792
			c-1.807-1.05-3.229-2.554-4.632-4.061c-2.998-3.218-6.373-6.09-8.854-9.875c-0.992,0.854-1.082,1.687-0.786,2.76
			c1.469,5.31,2.291,10.723,2.672,16.225c0.47,6.759-0.021,13.415-1.59,19.995c-0.21,0.881-0.509,1.777-0.958,2.557
			c-0.901,1.564-2.42,1.646-3.498,0.169c-0.623-0.851-1.074-1.842-1.509-2.813c-1.342-2.999-2.281-6.146-3.257-9.276
			c-1.589-5.104-3.646-10.034-5.576-15.01c-1.378-3.56-2.594-7.171-3.82-10.78c-0.343-1.01-0.629-2.049-0.535-3.138
			c0.709-8.203,0.989-16.462,2.671-24.545c0.945-4.539,1.818-9.137,3.777-13.404c0.695-1.513,1.24-3.14,2.851-3.957
			c-0.252-0.7-0.738-0.499-1.179-0.458c-2.44,0.228-4.802,0.852-7.163,1.462c-17.79,4.596-35.821,8.194-53.598,12.822
			c-9.949,2.592-19.917,5.193-29.477,9.102c-2.494,1.019-4.847,2.197-6.952,3.893c-1.424,1.148-2.903,2.233-4.411,3.271
			c-0.977,0.673-1.873,0.533-2.433-0.212c-0.558-0.743-0.482-1.69,0.499-2.39c3.771-2.691,7.21-5.828,11.68-7.532
			c12.284-4.685,24.93-8.088,37.696-11.111c8.086-1.916,16.16-3.88,24.248-5.788c3.041-0.719,6.105-1.348,9.159-2.011
			C198.014,916.439,198.615,916.336,199.371,915.802z"/>
		<path d="M528.043,1107.34c0.421,2.597,0.842,5.218,1.272,7.837c2.296,14.004,4.268,28.053,6.109,42.122
			c2.281,17.432,3.051,34.958,3.033,52.525c-0.006,5.875-0.174,11.752-0.143,17.627c0.049,8.986-1.959,17.535-5.122,25.884
			c-4.543,11.987-11.446,22.542-19.464,32.434c-0.575,0.708-1.196,1.396-1.88,1.997c-0.849,0.746-1.776,0.701-2.45,0.013
			c-0.684-0.701-0.592-1.824,0.169-2.66c11.94-13.107,20.218-28.174,24.292-45.481c0.897-3.81,1.057-7.711,1.14-11.599
			c0.317-14.805,0.308-29.611-0.458-44.403c-0.615-11.894-1.996-23.718-3.664-35.507c-1.698-12.009-3.333-24.026-5.396-35.98
			c-1.493-8.648-3.663-17.148-5.66-25.688c-4.397-18.798-9.812-37.308-15.628-55.71c-1.82-5.756-3.917-11.39-6.256-16.943
			c-2.371-5.625-5.828-10.523-10.187-14.785c-0.983-0.961-1.197-1.808-0.588-2.562c0.611-0.76,1.592-0.796,2.657-0.013
			c0.548,0.402,1.044,0.895,1.501,1.403c4.263,4.742,7.757,9.948,10.231,15.882c4.709,11.292,8.008,23.037,11.534,34.714
			c5.206,17.239,9.503,34.71,13.446,52.275c0.751,3.343-0.058,3.01,3.772,3.095c27.237,0.594,54.473,1.186,81.71,1.782
			c0.532,0.012,1.076,0.006,1.594,0.114c0.758,0.157,1.177,0.698,1.2,1.467c0.029,0.88-0.425,1.488-1.292,1.613
			c-0.748,0.106-1.521,0.074-2.283,0.057c-18.311-0.401-36.62-0.812-54.931-1.217c-8.47-0.188-16.938-0.379-25.406-0.546
			C530,1107.07,529.073,1106.85,528.043,1107.34z"/>
		<path d="M24.843,1100.227c10.759,0,21.519,0,32.277,0c0.458,0,0.916,0.013,1.374,0c1.657-0.042,1.688-0.04,2.011-1.755
			c0.807-4.272,1.647-8.539,2.358-12.826c3.207-19.35,7.199-38.517,12.617-57.385c2.461-8.571,4.404-17.289,6.741-25.897
			c3.665-13.502,8.434-26.597,14.945-39.015c1.455-2.777,3.178-5.376,5.167-7.813c1.784-2.185,3.42-4.489,5.147-6.722
			c0.844-1.09,1.779-2.104,3.071-2.686c1.085-0.488,1.93-0.289,2.375,0.557c0.474,0.898,0.216,1.709-0.595,2.179
			c-1.867,1.079-2.906,2.879-4.151,4.506c-0.417,0.546-0.757,1.154-1.209,1.667c-6.708,7.576-10.443,16.779-14.175,25.973
			c-4.227,10.412-7.215,21.208-9.921,32.096c-4.024,16.203-9.003,32.169-12.26,48.561c-1.901,9.573-3.494,19.207-5.296,28.801
			c-2.549,13.57-4.869,27.175-6.657,40.868c-1.086,8.324-1.821,16.683-2.653,25.032c-0.819,8.216-1.26,16.437-0.834,24.681
			c0.553,10.659,3.124,20.78,8.432,30.122c0.15,0.265,0.313,0.525,0.435,0.804c0.366,0.827,0.118,1.533-0.593,1.994
			c-0.717,0.466-1.538,0.411-2.058-0.285c-0.727-0.971-1.401-2.003-1.944-3.087c-4.429-8.851-6.819-18.255-7.502-28.106
			c-0.695-10.014,0.189-19.968,1.087-29.929c1.275-14.14,3.144-28.198,5.378-42.213c0.288-1.808,0.598-3.612,0.926-5.412
			c0.178-0.971-0.137-1.455-1.169-1.41c-0.609,0.025-1.221-0.009-1.831-0.012c-21.366-0.068-42.731-0.137-64.097-0.207
			c-0.762-0.003-1.538,0.043-2.283-0.08c-0.931-0.154-1.523-0.77-1.431-1.758c0.081-0.857,0.646-1.363,1.527-1.415
			c0.685-0.041,1.372-0.039,2.06-0.039c10.912-0.002,21.823-0.001,32.734-0.001C24.843,1100.083,24.843,1100.154,24.843,1100.227z"
			/>
		<path d="M429.854,806.654c0.006,6.918-0.326,13.627-0.913,20.316c-0.418,4.785-1.142,9.542-1.654,14.319
			c-1.049,9.783-2.639,19.503-3.273,29.336c-0.922,14.31,0.381,28.326,4.795,42.035c1.834,5.695,5.213,10.489,8.229,15.513
			c0.195,0.325,0.462,0.606,0.675,0.925c0.522,0.781,0.604,1.574-0.108,2.28c-0.631,0.627-1.703,0.519-2.461-0.207
			c-0.164-0.157-0.306-0.343-0.425-0.534c-3.051-4.92-6.542-9.604-8.433-15.159c-4.146-12.178-6.045-24.69-5.822-37.569
			c0.191-11.021,1.735-21.894,3.065-32.798c1.522-12.496,2.926-24.994,3.112-37.615c0.123-8.334,0.012-16.632-0.992-24.904
			c-0.736-6.062-1.751-12.074-3.344-17.98c-1.945-7.224-5.515-13.714-9.159-20.15c-2.671-4.715-5.787-9.168-9.13-13.432
			c-6.333-8.074-14.389-13.772-24.141-17.034c-1.006-0.338-1.971-0.688-3.096-0.323c-0.919,0.298-1.64-0.159-1.927-1.126
			c-0.307-1.03,0.191-2.038,1.233-2.374c1.057-0.34,2.104-0.113,3.149,0.172c7.039,1.917,13.233,5.437,18.882,9.973
			c3.769,3.028,7.045,6.527,9.868,10.459c4.767,6.641,9.112,13.511,12.791,20.843c3.752,7.477,5.778,15.389,7.154,23.54
			c1.195,7.083,1.768,14.229,2.114,21.397C430.21,799.997,430.004,803.423,429.854,806.654z"/>
		<path d="M410.816,943.153c1.332,1.207,2.625,1.872,3.899,2.546c8.357,4.425,16.537,9.165,24.773,13.808
			c5.777,3.256,11.57,6.486,17.375,9.694c2.874,1.587,5.613,3.392,8.439,5.049c6.438,3.774,11.963,8.672,17.348,13.758
			c0.333,0.314,0.683,0.617,0.972,0.968c0.619,0.747,0.686,1.55-0.023,2.256c-0.708,0.706-1.512,0.611-2.266,0.031
			c-0.36-0.278-0.696-0.596-1.018-0.918c-7.218-7.254-15.552-12.977-24.475-17.9c-14.486-7.992-28.783-16.321-43.343-24.18
			c-1.071-0.58-2.11-1.229-3.118-1.914c-0.884-0.6-1.554-0.51-2.449,0.123c-3.176,2.243-6.462,4.304-10.073,5.828
			c-3,1.268-6.117,1.839-9.328,2.04c-1.318,0.084-2.133-0.481-2.175-1.475c-0.048-1.146,0.677-1.613,1.688-1.779
			c0.376-0.062,0.755-0.152,1.133-0.152c3.131,0.001,6.016-0.987,8.767-2.339c5.446-2.678,10.568-5.831,14.203-10.87
			c2.578-3.574,3.888-7.751,5.309-11.85c2.718-7.845,2.68-15.819,1.289-23.937c-1.971-11.506-3.235-23.104-3.829-34.771
			c-0.2-3.91,0.188-7.771,0.758-11.621c0.194-1.309,0.934-1.947,1.928-1.754c1.143,0.223,1.406,1.065,1.305,2.069
			c-0.129,1.288-0.321,2.571-0.467,3.858c-0.556,4.882-0.204,9.763,0.224,14.62c0.89,10.104,2.086,20.174,3.768,30.182
			c1.465,8.721,0.284,17.173-2.845,25.384C416.761,934.691,414.863,939.442,410.816,943.153z"/>
		<path d="M335.154,1013.569c0.733-0.049,0.972-0.694,1.339-1.137c3.655-4.413,7.676-8.483,11.721-12.527
			c3.266-3.267,5.85-6.953,8.06-11.022c4.445-8.181,6.917-17.07,9.86-25.803c1.852-5.499,2.997-11.187,4.653-16.735
			c0.13-0.438,0.192-0.896,0.348-1.324c0.267-0.732,0.831-1.083,1.602-1.02c0.896,0.074,1.419,0.654,1.447,1.491
			c0.023,0.746-0.136,1.517-0.321,2.25c-2.552,10.13-5.689,20.084-9.035,29.977c-2.014,5.956-4.897,11.498-7.998,16.929
			c-1.48,2.593-3.526,4.784-5.617,6.908c-4.44,4.513-8.917,8.99-12.934,13.896c-1.114,1.361-2.443,2.515-3.773,3.66
			c-0.775,0.669-1.595,1.282-2.67,0.754c-1.214-0.597-1.099-1.745-0.935-2.803c0.302-1.958,0.649-3.912,1.055-5.85
			c1.804-8.587,1.114-17.144-0.265-25.694c-0.062-0.381-0.149-0.748-0.572-1.03c-2.031,0.891-3.847,2.044-4.625,4.344
			c-0.145,0.432-0.397,0.825-0.58,1.243c-1.401,3.201-3.554,5.562-6.888,6.929c-5.504,2.256-10.645,5.286-16.026,7.812
			c-1.176,0.552-2.267,1.217-3.269,2.072c-1.229,1.048-2.339,0.998-2.961,0.044c-0.591-0.911-0.229-2.108,0.936-2.885
			c3.567-2.378,7.553-3.964,11.333-5.941c3.307-1.731,6.686-3.327,10.065-4.917c1.237-0.583,2.142-1.413,2.746-2.62
			c0.581-1.157,1.285-2.264,1.766-3.459c1.385-3.44,4.352-4.996,7.476-6.292c1.782-0.738,2.947-0.017,3.385,1.891
			c0.544,2.378,0.86,4.798,1.167,7.22c0.927,7.313,1.038,14.599-0.439,21.858C335.089,1012.366,334.858,1012.957,335.154,1013.569z"
			/>
		<path d="M177.908,1015.629c0,0.164,0.037,0.853-0.009,1.535c-0.064,0.98-0.624,1.564-1.612,1.563
			c-1.001-0.001-1.519-0.616-1.597-1.586c-0.159-1.975-0.224-3.961-0.459-5.926c-1.919-16.116-7.855-30.475-18.911-42.508
			c-6.04-6.575-13.211-11.477-21.912-13.908c-1.025-0.286-2.072-0.5-3.115-0.72c-1.021-0.217-1.68-0.75-1.592-1.866
			c0.078-0.999,0.898-1.559,2.229-1.327c1.646,0.285,3.284,0.677,4.881,1.167c6.443,1.98,12.095,5.394,17.145,9.797
			c10.772,9.396,17.643,21.255,21.729,34.828C176.495,1002.687,177.513,1008.844,177.908,1015.629z"/>
		<path d="M474.093,997.787c0.684,0,1.372-0.048,2.051,0.013c0.94,0.082,1.611,0.576,1.636,1.575
			c0.025,1.005-0.63,1.528-1.566,1.636c-1.665,0.193-3.347,0.244-5.001,0.495c-8.412,1.277-15.82,4.887-22.562,9.944
			c-8.467,6.354-15.128,14.336-20.702,23.273c-3.193,5.118-5.941,10.468-8.308,16.015c-0.269,0.631-0.523,1.271-0.854,1.87
			c-0.478,0.866-1.264,1.125-2.139,0.726c-0.773-0.353-1.071-1.051-0.859-1.904c0.073-0.295,0.182-0.584,0.301-0.864
			c6.105-14.412,14.203-27.477,25.98-37.996c6.906-6.169,14.648-10.916,23.695-13.306
			C468.499,998.541,471.264,998.028,474.093,997.787z"/>
		<path d="M342.372,1049.874c0.614,0.021,1.055,0.329,1.5,0.623c17.517,11.578,34.535,23.796,49.499,38.643
			c1.028,1.018,2.025,2.079,2.927,3.207c0.82,1.026,0.758,2.098-0.047,2.618c-0.918,0.595-1.705,0.322-2.422-0.457
			c-10.279-11.173-22.218-20.402-34.408-29.334c-5.413-3.966-11.008-7.671-16.583-11.403c-0.567-0.381-1.146-0.768-1.63-1.242
			c-0.474-0.466-0.488-1.104-0.229-1.706C341.246,1050.202,341.764,1049.922,342.372,1049.874z"/>
		<path d="M115.5,1149.728c-0.036,0.679-0.419,1.161-0.766,1.663c-10.148,14.717-17.863,30.695-24.489,47.236
			c-0.992,2.477-1.886,4.993-2.828,7.491c-0.189,0.499-0.348,1.017-0.595,1.486c-0.533,1.009-1.419,1.396-2.235,0.959
			c-0.856-0.458-1.134-1.21-0.815-2.131c0.374-1.08,0.792-2.146,1.182-3.223c5.424-14.957,12.219-29.27,20.186-43.034
			c2.064-3.567,4.292-7.033,6.693-10.385c0.31-0.433,0.628-0.87,1.007-1.237c0.487-0.473,1.11-0.491,1.709-0.241
			C115.173,1148.571,115.438,1149.107,115.5,1149.728z"/>
		<path d="M123.084,1106.185c1.144,2.492,2.652,4.592,4.317,6.578c0.342,0.407,0.732,0.797,0.98,1.258
			c0.4,0.738,0.351,1.486-0.342,2.059c-0.685,0.563-1.416,0.509-2.083-0.038c-0.351-0.286-0.655-0.638-0.942-0.99
			c-3.613-4.443-6.79-9.183-9.584-14.179c-0.258-0.463-0.494-0.954-0.645-1.459c-0.293-0.975-0.455-1.988,0.474-2.731
			c0.91-0.729,1.889-0.497,2.759,0.082c0.821,0.546,1.601,1.166,2.335,1.826c2.439,2.194,4.636,4.626,6.739,7.141
			c5.876,7.029,11.092,14.524,15.758,22.404c0.619,1.047,1.181,2.133,1.683,3.24c0.573,1.263,0.366,2.142-0.482,2.587
			c-0.926,0.484-1.818,0.062-2.527-1.233c-0.475-0.868-0.875-1.778-1.375-2.631c-4.593-7.837-9.757-15.273-15.59-22.239
			C124.083,1107.289,123.577,1106.742,123.084,1106.185z"/>
		<path d="M500.346,1197.393c-0.367,6.117-1.511,11.871-2.768,17.604c-2.288,10.445-5.441,20.619-9.607,30.471
			c-1.16,2.742-2.502,5.391-4.159,7.872c-0.253,0.38-0.517,0.754-0.778,1.131c-0.597,0.858-1.375,1.226-2.356,0.717
			c-0.868-0.451-1.053-1.507-0.332-2.58c1.749-2.604,3.234-5.345,4.462-8.226c4.706-11.047,8.09-22.496,10.432-34.265
			c0.728-3.663,1.358-7.343,1.701-11.065c0.113-1.216,0.147-2.43,0.034-3.653c-0.087-0.946,0.324-1.642,1.328-1.816
			c0.9-0.155,1.737,0.467,1.925,1.54C500.368,1195.939,500.319,1196.791,500.346,1197.393z"/>
		<path d="M131.1,1125.888c-0.056,1.044-1.119,1.737-2.149,1.409c-0.538-0.171-0.872-0.594-1.248-0.97
			c-7.961-7.919-16.493-15.194-25.135-22.347c-0.47-0.39-0.97-0.75-1.391-1.188c-0.599-0.621-0.698-1.355-0.174-2.077
			c0.529-0.726,1.28-0.82,2.041-0.465c0.474,0.222,0.886,0.587,1.297,0.925c8.558,7.016,16.938,14.234,24.863,21.966
			c0.491,0.479,0.961,0.982,1.413,1.498C130.923,1124.987,131.125,1125.4,131.1,1125.888z"/>
		<path d="M519.613,1232.486c-0.063,1.312-0.9,2.553-1.924,2.854c-1.137,0.337-2.138-0.117-2.977-1.55
			c-0.613-1.045-1.105-2.169-1.56-3.295c-2.451-6.069-4.518-12.277-6.662-18.458c-0.798-2.3-1.683-4.568-2.516-6.855
			c-0.182-0.494-0.39-1.003-0.439-1.519c-0.071-0.769,0.369-1.281,1.077-1.567c0.656-0.265,1.215-0.037,1.662,0.414
			c0.547,0.555,0.758,1.313,1.013,2.025c2.407,6.732,4.797,13.471,7.209,20.201c0.54,1.503,1.166,2.975,1.727,4.471
			c0.337,0.899,0.633,1.559,1.914,1.449C519.253,1230.563,519.669,1231.317,519.613,1232.486z"/>
		<path d="M519.607,1224.338c0,0.837,0.054,1.68-0.011,2.513c-0.104,1.336-0.767,2.064-1.74,1.926
			c-1.086-0.154-1.546-0.879-1.508-1.937c0.28-7.581-2.273-14.535-4.776-21.491c-0.982-2.729-2.291-5.316-3.868-7.758
			c-0.206-0.319-0.442-0.629-0.584-0.977c-0.285-0.703-0.171-1.371,0.442-1.851c0.69-0.538,1.478-0.522,2.088,0.058
			c0.542,0.513,0.963,1.174,1.358,1.819c3.219,5.252,5.123,11.033,6.741,16.923C518.721,1217.093,519.609,1220.642,519.607,1224.338
			z"/>
		<path d="M85.938,1175.421c0.48,0.539,1.083,0.197,1.558,0.421c0.591,0.278,1,0.692,1.078,1.36c0.08,0.682-0.239,1.217-0.791,1.537
			c-1.252,0.721-2.588,0.974-3.91,0.221c-1.302-0.74-1.558-1.983-1.385-3.361c0.174-1.388,0.756-2.623,1.447-3.819
			c1.418-2.452,3.167-4.659,5.04-6.772c2.631-2.965,5.346-5.85,8.314-8.484c0.737-0.653,1.571-1.204,2.387-1.76
			c0.854-0.581,1.72-0.653,2.44,0.219c0.628,0.761,0.42,1.79-0.651,2.511c-2.62,1.765-4.719,4.085-6.892,6.323
			c-2.388,2.459-4.706,4.988-6.646,7.834C87.113,1172.84,86.343,1174.058,85.938,1175.421z"/>
		<path d="M431.31,1130.596c-1.646-0.442-3.271-0.037-4.903,0.314c-0.44,0.096-0.907,0.237-1.336,0.177
			c-0.721-0.104-1.259-0.527-1.361-1.317c-0.111-0.869,0.258-1.493,1.076-1.776c2.256-0.78,4.568-1.063,6.939-0.676
			c0.148,0.024,0.293,0.078,0.435,0.129c0.882,0.318,1.413,0.884,1.254,1.883C433.267,1130.249,432.561,1130.669,431.31,1130.596z"
			/>
		<path d="M225.581,1069.176c1.714-0.015,5.341,2.411,5.99,3.929c0.303,0.711,0.189,1.346-0.363,1.866
			c-0.563,0.53-1.219,0.566-1.889,0.209c-0.199-0.106-0.394-0.248-0.537-0.418c-1.01-1.2-2.282-1.954-3.786-2.39
			c-0.819-0.239-1.254-0.888-1.105-1.748C224.056,1069.668,224.762,1069.263,225.581,1069.176z"/>
	</g>
	<g>
		<path d="M294.917,886.919c-7.447-0.024-14.724-1.041-21.691-3.798c-2.491-0.984-4.833-2.244-6.923-3.936
			c-0.474-0.383-0.953-0.771-1.351-1.227c-0.75-0.856-0.772-1.815-0.089-2.438c0.747-0.683,1.55-0.603,2.265,0.023
			c5.91,5.176,13.16,6.776,20.644,7.66c8.1,0.956,16.114,0.492,23.968-1.882c1.752-0.53,3.425-1.258,5.098-1.995
			c1.262-0.557,2.13-0.311,2.537,0.591c0.401,0.891,0.037,1.771-1.141,2.38c-3.48,1.796-7.219,2.819-11.044,3.556
			C303.135,886.635,299.039,886.929,294.917,886.919z"/>
		<path d="M328.156,804.42c6.732,0.188,13.276,1.068,19.525,3.568c2.275,0.909,4.435,2.032,6.384,3.529
			c0.805,0.619,1.238,1.376,0.645,2.366c-0.526,0.879-1.419,0.959-2.594,0.275c-0.066-0.037-0.125-0.087-0.188-0.131
			c-4.081-2.859-8.7-4.349-13.533-5.266c-7.358-1.397-14.701-1.42-22.012,0.355c-0.516,0.124-1.042,0.257-1.566,0.275
			c-0.78,0.027-1.292-0.407-1.493-1.157c-0.201-0.749,0.034-1.421,0.706-1.759c0.671-0.338,1.422-0.54,2.159-0.715
			C320.142,804.83,324.164,804.494,328.156,804.42z"/>
		<path d="M295.021,826.258c-0.47,7.838-2.511,15.327-5.083,22.686c-1.156,3.308-2.479,6.559-4.033,9.707
			c-0.269,0.546-0.507,1.124-0.873,1.601c-0.652,0.852-1.592,0.987-2.424,0.447c-0.833-0.538-0.994-1.357-0.434-2.383
			c4.398-8.037,6.937-16.714,8.763-25.626c0.351-1.71,0.424-3.478,0.62-5.219c0.059-0.529,0.08-1.066,0.158-1.594
			c0.205-1.395,0.768-1.998,1.771-1.938C294.577,824.005,295.135,824.836,295.021,826.258z"/>
		<path d="M334.681,831.928c-0.051,2.533-0.452,4.843-1.811,6.886c-0.938,1.409-2.132,2.434-3.967,2.176
			c-1.726-0.242-2.651-1.47-3.15-2.974c-1.242-3.744-0.886-7.386,1.096-10.799c0.838-1.444,2.052-2.506,3.902-2.293
			c1.839,0.21,2.713,1.532,3.326,3.086C334.588,829.31,334.668,830.683,334.681,831.928z"/>
		<path d="M264.935,825.402c-0.041-1.954,0.225-3.754,0.848-5.496c0.339-0.944,0.815-1.814,1.571-2.487
			c1.249-1.112,2.91-1.064,4.115,0.1c0.735,0.707,1.165,1.596,1.44,2.562c0.93,3.247,0.865,6.483-0.215,9.675
			c-0.774,2.287-2.208,3.564-3.794,3.394c-2.092-0.227-2.856-1.85-3.397-3.564C265.065,828.201,264.877,826.757,264.935,825.402z"/>
		<path d="M257.297,796.156c6.382,0.254,12.487,1.673,18.224,4.538c1.295,0.647,2.524,1.411,3.587,2.41
			c0.744,0.7,1.078,1.496,0.415,2.42c-0.546,0.76-1.478,0.861-2.415,0.155c-5.573-4.196-12.102-5.491-18.808-6.238
			c-1.743-0.194-3.498-0.101-5.215,0.33c-0.296,0.074-0.586,0.17-0.886,0.221c-0.855,0.145-1.535-0.154-1.836-0.974
			c-0.335-0.913-0.019-1.65,0.879-2.068c1.121-0.523,2.335-0.68,3.547-0.781C255.619,796.1,256.46,796.156,257.297,796.156z"/>
		<path d="M285.173,898.648c-2.4-0.058-4.681-0.524-6.651-2.01c-0.363-0.273-0.736-0.556-1.029-0.897
			c-0.742-0.865-0.755-1.787-0.056-2.446c0.729-0.686,1.566-0.687,2.261-0.042c2.517,2.339,5.398,2.484,8.514,1.603
			c1.083-0.308,1.886,0.139,2.18,1.048c0.287,0.885-0.146,1.832-1.166,2.165C287.922,898.494,286.56,898.689,285.173,898.648z"/>
	</g>
	<path d="M1092,1106.602c0,0.772-0.177,1.398-1.012,1.398H525.511c-0.834,0-1.511-0.626-1.511-1.398v-0.203
		c0-0.772,0.677-1.398,1.511-1.398h565.477c0.835,0,1.012,0.626,1.012,1.398V1106.602z"/>
</g>
<g id="">
	<circle fill="#FFFFFF" stroke="#5E5E5E" stroke-miterlimit="10" cx="533.779" cy="1517.061" r="115.494"/>
	<g>
		<path fill="#5E5E5E" d="M471.763,1504.409h-7.83v29.994h-2.418v-29.994h-7.83v-2.245h7.83v-10.018h2.418v10.018h7.83V1504.409z"/>
		<path fill="#5E5E5E" d="M507.456,1518.284c0,9.614-6.793,16.926-16.005,16.926s-16.005-7.312-16.005-16.926
			c0-9.615,6.793-16.927,16.005-16.927S507.456,1508.669,507.456,1518.284z M477.864,1518.284c0,8.348,5.527,14.681,13.587,14.681
			s13.587-6.333,13.587-14.681c0-8.349-5.527-14.682-13.587-14.682S477.864,1509.936,477.864,1518.284z"/>
		<path fill="#5E5E5E" d="M515.4,1521.22v-19.056h2.418v18.652c0,7.888,4.145,12.148,10.708,12.148
			c7.139,0,12.723-7.255,12.723-13.99v-16.811h2.418v32.239h-2.418v-8.002c-0.69,2.879-5.239,8.809-13.241,8.809
			C520.639,1535.21,515.4,1529.683,515.4,1521.22z"/>
		<path fill="#5E5E5E" d="M568.652,1535.21c-9.269,0-16.12-7.312-16.12-16.926c0-9.615,6.794-16.927,15.947-16.927
			c6.966,0,12.608,4.491,14.508,11.054h-2.476c-1.727-5.238-6.218-8.809-12.032-8.809c-8.002,0-13.529,6.333-13.529,14.682
			c0,8.348,5.527,14.681,13.529,14.681c5.872,0,10.479-3.685,12.09-8.924h2.476C581.261,1530.661,575.618,1535.21,568.652,1535.21z"
			/>
		<path fill="#5E5E5E" d="M591.737,1487.541h2.418v22.625c0.921-3.051,5.411-8.809,13.356-8.809c7.427,0,12.723,5.527,12.723,13.99
			v19.056h-2.418v-18.652c0-7.888-4.202-12.148-10.823-12.148c-7.196,0-12.838,7.255-12.838,13.99v16.811h-2.418V1487.541z"/>
	</g>
</g>
</svg>
